<svg width="262" height="54" viewBox="0 0 262 54" fill="none" xmlns="http://www.w3.org/2000/svg">
<g filter="url(#filter0_d_2644_2233)">
<rect x="34" y="7" width="215" height="28" rx="4" fill="white"/>
<path d="M49.0918 23.791H46.2441L45.5586 26H44.4746L47.2285 17.4688H48.1367L50.8438 26H49.7656L49.0918 23.791ZM46.5371 22.8477H48.8047L47.6797 19.1445L46.5371 22.8477ZM56.3809 19.543C56.5801 19.543 56.7871 19.5566 57.002 19.584C57.2207 19.6113 57.3848 19.6484 57.4941 19.6953L57.3477 20.7559C57.1367 20.709 56.9355 20.6758 56.7441 20.6562C56.5566 20.6328 56.3594 20.6211 56.1523 20.6211C55.8867 20.6211 55.6465 20.6543 55.4316 20.7207C55.2168 20.7832 55.0293 20.877 54.8691 21.002C54.7246 21.1113 54.5977 21.2461 54.4883 21.4062C54.3828 21.5625 54.2949 21.7383 54.2246 21.9336V26H53.1348V19.6602H54.166L54.2129 20.5098L54.2188 20.668C54.4766 20.3203 54.7852 20.0469 55.1445 19.8477C55.5078 19.6445 55.9199 19.543 56.3809 19.543ZM63.5879 19.543C63.7871 19.543 63.9941 19.5566 64.209 19.584C64.4277 19.6113 64.5918 19.6484 64.7012 19.6953L64.5547 20.7559C64.3438 20.709 64.1426 20.6758 63.9512 20.6562C63.7637 20.6328 63.5664 20.6211 63.3594 20.6211C63.0938 20.6211 62.8535 20.6543 62.6387 20.7207C62.4238 20.7832 62.2363 20.877 62.0762 21.002C61.9316 21.1113 61.8047 21.2461 61.6953 21.4062C61.5898 21.5625 61.502 21.7383 61.4316 21.9336V26H60.3418V19.6602H61.373L61.4199 20.5098L61.4258 20.668C61.6836 20.3203 61.9922 20.0469 62.3516 19.8477C62.7148 19.6445 63.127 19.543 63.5879 19.543ZM66.8105 19.6602H70.0508V25.0625H72.1191V26H66.8105V25.0625H68.9668V20.6035H66.8105V19.6602ZM68.8262 17.9961C68.8262 17.9023 68.8398 17.8145 68.8672 17.7324C68.8984 17.6504 68.9453 17.5801 69.0078 17.5215C69.0586 17.4707 69.123 17.4316 69.2012 17.4043C69.2832 17.373 69.375 17.3574 69.4766 17.3574C69.5781 17.3574 69.668 17.373 69.7461 17.4043C69.8242 17.4316 69.8887 17.4707 69.9395 17.5215C70.002 17.5762 70.0488 17.6445 70.0801 17.7266C70.1113 17.8086 70.127 17.8984 70.127 17.9961C70.127 18.1719 70.0723 18.3184 69.9629 18.4355C69.8535 18.5527 69.6914 18.6113 69.4766 18.6113C69.2578 18.6113 69.0938 18.5527 68.9844 18.4355C68.8789 18.3184 68.8262 18.1719 68.8262 17.9961ZM76.0098 26L73.4023 19.6602H74.5156L76.332 24.4414L76.4316 24.834L76.5371 24.4414L78.3125 19.6602H79.4199L76.8359 26H76.0098ZM83.8555 26.1172C83.4102 26.1172 83 26.041 82.625 25.8887C82.2539 25.7363 81.9355 25.5234 81.6699 25.25C81.4043 24.9766 81.1973 24.6523 81.0488 24.2773C80.9004 23.9023 80.8262 23.4941 80.8262 23.0527V22.8066C80.8262 22.2949 80.9082 21.8379 81.0723 21.4355C81.2363 21.0293 81.4551 20.6855 81.7285 20.4043C81.998 20.127 82.3047 19.9141 82.6484 19.7656C82.9961 19.6172 83.3516 19.543 83.7148 19.543C84.1719 19.543 84.5703 19.623 84.9102 19.7832C85.2539 19.9395 85.5391 20.1562 85.7656 20.4336C85.9922 20.7148 86.1602 21.0449 86.2695 21.4238C86.3828 21.8027 86.4395 22.2129 86.4395 22.6543V23.1406H81.9102V23.1816C81.9375 23.4902 81.998 23.7617 82.0918 23.9961C82.1895 24.2305 82.3223 24.4375 82.4902 24.6172C82.6621 24.8086 82.8691 24.959 83.1113 25.0684C83.3535 25.1777 83.6211 25.2324 83.9141 25.2324C84.3008 25.2324 84.6445 25.1543 84.9453 24.998C85.2461 24.8418 85.4961 24.6348 85.6953 24.377L86.3574 24.8926C86.1465 25.2129 85.8301 25.498 85.4082 25.748C84.9902 25.9941 84.4727 26.1172 83.8555 26.1172ZM83.7148 20.4336C83.4961 20.4336 83.2891 20.4746 83.0938 20.5566C82.8984 20.6348 82.7227 20.75 82.5664 20.9023C82.4102 21.0586 82.2773 21.25 82.168 21.4766C82.0625 21.6992 81.9883 21.957 81.9453 22.25H85.3555V22.1973C85.3555 22.002 85.3184 21.793 85.2441 21.5703C85.1699 21.3438 85.0664 21.1484 84.9336 20.9844C84.8008 20.8203 84.6328 20.6875 84.4297 20.5859C84.2305 20.4844 83.9922 20.4336 83.7148 20.4336ZM88.0566 22.7773C88.0566 22.3047 88.1152 21.8711 88.2324 21.4766C88.3535 21.0781 88.5254 20.7363 88.748 20.4512C88.9668 20.166 89.2324 19.9434 89.5449 19.7832C89.8574 19.623 90.207 19.543 90.5938 19.543C90.9727 19.543 91.3027 19.6074 91.584 19.7363C91.8691 19.8613 92.1152 20.0449 92.3223 20.2871V17H93.4062V26H92.4102L92.3633 25.332C92.1523 25.5898 91.9004 25.7852 91.6074 25.918C91.3145 26.0508 90.9727 26.1172 90.582 26.1172C90.1992 26.1172 89.8516 26.0352 89.5391 25.8711C89.2305 25.707 88.9668 25.4805 88.748 25.1914C88.5293 24.9023 88.3594 24.5625 88.2383 24.1719C88.1172 23.7773 88.0566 23.3535 88.0566 22.9004V22.7773ZM89.1406 22.9004C89.1406 23.209 89.1738 23.502 89.2402 23.7793C89.3066 24.0566 89.4102 24.3008 89.5508 24.5117C89.6875 24.7227 89.8633 24.8906 90.0781 25.0156C90.293 25.1367 90.5508 25.1973 90.8516 25.1973C91.2148 25.1973 91.5156 25.1152 91.7539 24.9512C91.9922 24.7871 92.1816 24.5664 92.3223 24.2891V21.3477C92.1816 21.0898 91.9922 20.8789 91.7539 20.7148C91.5156 20.5469 91.2188 20.4629 90.8633 20.4629C90.5586 20.4629 90.2969 20.5254 90.0781 20.6504C89.8633 20.7754 89.6875 20.9434 89.5508 21.1543C89.4102 21.3691 89.3066 21.6172 89.2402 21.8984C89.1738 22.1758 89.1406 22.4688 89.1406 22.7773V22.9004ZM106.748 23.791H103.9L103.215 26H102.131L104.885 17.4688H105.793L108.5 26H107.422L106.748 23.791ZM104.193 22.8477H106.461L105.336 19.1445L104.193 22.8477ZM112.449 18.125V19.6602H114.863V20.498H112.449V23.9434C112.449 24.1895 112.48 24.3926 112.543 24.5527C112.605 24.7129 112.691 24.8398 112.801 24.9336C112.91 25.0312 113.035 25.0996 113.176 25.1387C113.32 25.1777 113.473 25.1973 113.633 25.1973C113.75 25.1973 113.871 25.1914 113.996 25.1797C114.121 25.1641 114.244 25.1465 114.365 25.127C114.482 25.1074 114.592 25.0879 114.693 25.0684C114.799 25.0449 114.885 25.0254 114.951 25.0098L115.104 25.7773C115.014 25.832 114.904 25.8809 114.775 25.9238C114.646 25.9629 114.506 25.9961 114.354 26.0234C114.201 26.0547 114.039 26.0781 113.867 26.0938C113.699 26.1094 113.531 26.1172 113.363 26.1172C113.082 26.1172 112.818 26.0781 112.572 26C112.33 25.918 112.119 25.7891 111.939 25.6133C111.76 25.4414 111.617 25.2188 111.512 24.9453C111.41 24.668 111.359 24.334 111.359 23.9434V20.498H109.695V19.6602H111.359V18.125H112.449ZM125.48 22.5781V26H124.396V17.4688H127.162C127.545 17.4766 127.906 17.5371 128.246 17.6504C128.59 17.7637 128.891 17.9277 129.148 18.1426C129.406 18.3574 129.609 18.623 129.758 18.9395C129.91 19.2559 129.986 19.6191 129.986 20.0293C129.986 20.4395 129.91 20.8027 129.758 21.1191C129.609 21.4316 129.406 21.6953 129.148 21.9102C128.891 22.125 128.59 22.2891 128.246 22.4023C127.906 22.5156 127.545 22.5742 127.162 22.5781H125.48ZM125.48 21.6875H127.162C127.412 21.6836 127.643 21.6445 127.854 21.5703C128.064 21.4922 128.248 21.3828 128.404 21.2422C128.561 21.1016 128.682 20.9316 128.768 20.7324C128.857 20.5293 128.902 20.2988 128.902 20.041C128.902 19.7832 128.857 19.5508 128.768 19.3438C128.682 19.1367 128.562 18.9609 128.41 18.8164C128.254 18.6719 128.068 18.5605 127.854 18.4824C127.643 18.4043 127.412 18.3633 127.162 18.3594H125.48V21.6875ZM131.674 19.6602H134.914V25.0625H136.982V26H131.674V25.0625H133.83V20.6035H131.674V19.6602ZM133.689 17.9961C133.689 17.9023 133.703 17.8145 133.73 17.7324C133.762 17.6504 133.809 17.5801 133.871 17.5215C133.922 17.4707 133.986 17.4316 134.064 17.4043C134.146 17.373 134.238 17.3574 134.34 17.3574C134.441 17.3574 134.531 17.373 134.609 17.4043C134.688 17.4316 134.752 17.4707 134.803 17.5215C134.865 17.5762 134.912 17.6445 134.943 17.7266C134.975 17.8086 134.99 17.8984 134.99 17.9961C134.99 18.1719 134.936 18.3184 134.826 18.4355C134.717 18.5527 134.555 18.6113 134.34 18.6113C134.121 18.6113 133.957 18.5527 133.848 18.4355C133.742 18.3184 133.689 18.1719 133.689 17.9961ZM141.412 25.2383C141.607 25.2383 141.797 25.207 141.98 25.1445C142.168 25.082 142.334 24.9941 142.479 24.8809C142.623 24.7715 142.738 24.6426 142.824 24.4941C142.914 24.3418 142.961 24.1777 142.965 24.002H143.99C143.986 24.2832 143.912 24.5527 143.768 24.8105C143.627 25.0645 143.438 25.2871 143.199 25.4785C142.961 25.6738 142.688 25.8301 142.379 25.9473C142.07 26.0605 141.748 26.1172 141.412 26.1172C140.932 26.1172 140.512 26.0312 140.152 25.8594C139.793 25.6875 139.494 25.4551 139.256 25.1621C139.014 24.873 138.832 24.5391 138.711 24.1602C138.59 23.7773 138.529 23.375 138.529 22.9531V22.707C138.529 22.2891 138.59 21.8887 138.711 21.5059C138.832 21.123 139.014 20.7852 139.256 20.4922C139.494 20.2031 139.793 19.9727 140.152 19.8008C140.512 19.6289 140.932 19.543 141.412 19.543C141.787 19.543 142.131 19.6035 142.443 19.7246C142.76 19.8418 143.033 20.002 143.264 20.2051C143.49 20.4121 143.668 20.6562 143.797 20.9375C143.926 21.2188 143.99 21.5195 143.99 21.8398H142.965C142.961 21.6484 142.918 21.4688 142.836 21.3008C142.758 21.1289 142.65 20.9785 142.514 20.8496C142.377 20.7207 142.213 20.6191 142.021 20.5449C141.834 20.4707 141.631 20.4336 141.412 20.4336C141.076 20.4336 140.793 20.502 140.562 20.6387C140.336 20.7715 140.152 20.9453 140.012 21.1602C139.871 21.3789 139.77 21.623 139.707 21.8926C139.648 22.1621 139.619 22.4336 139.619 22.707V22.9531C139.619 23.2305 139.648 23.5059 139.707 23.7793C139.77 24.0488 139.871 24.291 140.012 24.5059C140.148 24.7246 140.33 24.9023 140.557 25.0391C140.787 25.1719 141.072 25.2383 141.412 25.2383ZM147.816 23.041L147.02 23.8086V26H145.93V17H147.02V22.5078L147.729 21.7461L149.809 19.6602H151.127L148.561 22.3027L151.52 26H150.143L147.816 23.041ZM157.865 22.7129H153.383V21.8223H157.865V22.7129ZM165.688 17.4688L165.699 23.2461C165.699 23.6445 165.629 24.0176 165.488 24.3652C165.348 24.7129 165.154 25.0156 164.908 25.2734C164.662 25.5352 164.369 25.7422 164.029 25.8945C163.689 26.043 163.316 26.1172 162.91 26.1172C162.496 26.1172 162.119 26.043 161.779 25.8945C161.439 25.7461 161.148 25.541 160.906 25.2793C160.664 25.0215 160.475 24.7188 160.338 24.3711C160.201 24.0195 160.131 23.6445 160.127 23.2461L160.139 17.4688H161.17L161.193 23.2461C161.197 23.5 161.236 23.7441 161.311 23.9785C161.389 24.2129 161.5 24.4199 161.645 24.5996C161.785 24.7793 161.961 24.9238 162.172 25.0332C162.387 25.1426 162.633 25.1973 162.91 25.1973C163.188 25.1973 163.432 25.1445 163.643 25.0391C163.854 24.9297 164.031 24.7832 164.176 24.5996C164.316 24.4199 164.424 24.2129 164.498 23.9785C164.572 23.7441 164.613 23.5 164.621 23.2461L164.639 17.4688H165.688ZM167.533 28.4375V19.6602H168.523L168.576 20.3516C168.662 20.2422 168.756 20.1445 168.857 20.0586C168.959 19.9688 169.068 19.8926 169.186 19.8301C169.35 19.7363 169.531 19.666 169.73 19.6191C169.934 19.5684 170.15 19.543 170.381 19.543C170.787 19.543 171.146 19.623 171.459 19.7832C171.771 19.9434 172.033 20.166 172.244 20.4512C172.455 20.7363 172.615 21.0781 172.725 21.4766C172.834 21.8711 172.889 22.3047 172.889 22.7773V22.9004C172.889 23.3535 172.834 23.7773 172.725 24.1719C172.615 24.5625 172.455 24.9023 172.244 25.1914C172.033 25.4805 171.771 25.707 171.459 25.8711C171.15 26.0352 170.797 26.1172 170.398 26.1172C170.156 26.1172 169.93 26.0918 169.719 26.041C169.512 25.9902 169.324 25.918 169.156 25.8242C169.055 25.7656 168.959 25.7012 168.869 25.6309C168.779 25.5566 168.695 25.4766 168.617 25.3906V28.4375H167.533ZM171.805 22.7773C171.805 22.4688 171.77 22.1758 171.699 21.8984C171.633 21.6172 171.529 21.3691 171.389 21.1543C171.244 20.9434 171.062 20.7754 170.844 20.6504C170.625 20.5254 170.363 20.4629 170.059 20.4629C169.891 20.4629 169.734 20.4824 169.59 20.5215C169.449 20.5605 169.322 20.6172 169.209 20.6914C169.084 20.7656 168.973 20.8574 168.875 20.9668C168.777 21.0762 168.691 21.1973 168.617 21.3301V24.3828C168.684 24.5 168.76 24.6094 168.846 24.7109C168.932 24.8125 169.029 24.8984 169.139 24.9688C169.264 25.0508 169.402 25.1152 169.555 25.1621C169.711 25.209 169.883 25.2324 170.07 25.2324C170.371 25.2324 170.631 25.1699 170.85 25.0449C171.068 24.916 171.248 24.7441 171.389 24.5293C171.529 24.3145 171.633 24.0664 171.699 23.7852C171.77 23.5039 171.805 23.209 171.805 22.9004V22.7773ZM183.178 25.0801H187.35V26H182.094V17.4688H183.178V25.0801ZM188.855 22.7715C188.855 22.3145 188.922 21.8906 189.055 21.5C189.188 21.1055 189.379 20.7637 189.629 20.4746C189.875 20.1855 190.176 19.959 190.531 19.7949C190.887 19.627 191.287 19.543 191.732 19.543C192.182 19.543 192.584 19.627 192.939 19.7949C193.299 19.959 193.604 20.1855 193.854 20.4746C194.1 20.7637 194.289 21.1055 194.422 21.5C194.555 21.8906 194.621 22.3145 194.621 22.7715V22.9004C194.621 23.3574 194.555 23.7812 194.422 24.1719C194.289 24.5625 194.1 24.9023 193.854 25.1914C193.604 25.4805 193.301 25.707 192.945 25.8711C192.59 26.0352 192.189 26.1172 191.744 26.1172C191.295 26.1172 190.891 26.0352 190.531 25.8711C190.176 25.707 189.875 25.4805 189.629 25.1914C189.379 24.9023 189.188 24.5625 189.055 24.1719C188.922 23.7812 188.855 23.3574 188.855 22.9004V22.7715ZM189.939 22.9004C189.939 23.2129 189.977 23.5117 190.051 23.7969C190.125 24.0781 190.238 24.3262 190.391 24.541C190.539 24.7559 190.727 24.9258 190.953 25.0508C191.18 25.1758 191.443 25.2383 191.744 25.2383C192.041 25.2383 192.301 25.1758 192.523 25.0508C192.75 24.9258 192.939 24.7559 193.092 24.541C193.24 24.3262 193.352 24.0781 193.426 23.7969C193.5 23.5117 193.537 23.2129 193.537 22.9004V22.7715C193.537 22.4629 193.498 22.168 193.42 21.8867C193.346 21.6016 193.234 21.3516 193.086 21.1367C192.934 20.9219 192.744 20.752 192.518 20.627C192.295 20.498 192.033 20.4336 191.732 20.4336C191.432 20.4336 191.17 20.498 190.947 20.627C190.725 20.752 190.539 20.9219 190.391 21.1367C190.238 21.3516 190.125 21.6016 190.051 21.8867C189.977 22.168 189.939 22.4629 189.939 22.7715V22.9004ZM199.068 25.2383C199.264 25.2383 199.453 25.207 199.637 25.1445C199.824 25.082 199.99 24.9941 200.135 24.8809C200.279 24.7715 200.395 24.6426 200.48 24.4941C200.57 24.3418 200.617 24.1777 200.621 24.002H201.646C201.643 24.2832 201.568 24.5527 201.424 24.8105C201.283 25.0645 201.094 25.2871 200.855 25.4785C200.617 25.6738 200.344 25.8301 200.035 25.9473C199.727 26.0605 199.404 26.1172 199.068 26.1172C198.588 26.1172 198.168 26.0312 197.809 25.8594C197.449 25.6875 197.15 25.4551 196.912 25.1621C196.67 24.873 196.488 24.5391 196.367 24.1602C196.246 23.7773 196.186 23.375 196.186 22.9531V22.707C196.186 22.2891 196.246 21.8887 196.367 21.5059C196.488 21.123 196.67 20.7852 196.912 20.4922C197.15 20.2031 197.449 19.9727 197.809 19.8008C198.168 19.6289 198.588 19.543 199.068 19.543C199.443 19.543 199.787 19.6035 200.1 19.7246C200.416 19.8418 200.689 20.002 200.92 20.2051C201.146 20.4121 201.324 20.6562 201.453 20.9375C201.582 21.2188 201.646 21.5195 201.646 21.8398H200.621C200.617 21.6484 200.574 21.4688 200.492 21.3008C200.414 21.1289 200.307 20.9785 200.17 20.8496C200.033 20.7207 199.869 20.6191 199.678 20.5449C199.49 20.4707 199.287 20.4336 199.068 20.4336C198.732 20.4336 198.449 20.502 198.219 20.6387C197.992 20.7715 197.809 20.9453 197.668 21.1602C197.527 21.3789 197.426 21.623 197.363 21.8926C197.305 22.1621 197.275 22.4336 197.275 22.707V22.9531C197.275 23.2305 197.305 23.5059 197.363 23.7793C197.426 24.0488 197.527 24.291 197.668 24.5059C197.805 24.7246 197.986 24.9023 198.213 25.0391C198.443 25.1719 198.729 25.2383 199.068 25.2383ZM207.74 26C207.697 25.918 207.662 25.8164 207.635 25.6953C207.611 25.5703 207.594 25.4414 207.582 25.3086C207.473 25.418 207.35 25.5215 207.213 25.6191C207.08 25.7168 206.934 25.8027 206.773 25.877C206.609 25.9512 206.436 26.0098 206.252 26.0527C206.068 26.0957 205.873 26.1172 205.666 26.1172C205.33 26.1172 205.025 26.0684 204.752 25.9707C204.482 25.873 204.254 25.7402 204.066 25.5723C203.875 25.4082 203.727 25.2129 203.621 24.9863C203.52 24.7559 203.469 24.5078 203.469 24.2422C203.469 23.8945 203.537 23.5898 203.674 23.3281C203.814 23.0664 204.012 22.8477 204.266 22.6719C204.52 22.5 204.824 22.3711 205.18 22.2852C205.539 22.1992 205.939 22.1562 206.381 22.1562H207.564V21.6582C207.564 21.4668 207.529 21.2949 207.459 21.1426C207.389 20.9902 207.289 20.8594 207.16 20.75C207.031 20.6445 206.873 20.5625 206.686 20.5039C206.502 20.4453 206.295 20.416 206.064 20.416C205.85 20.416 205.656 20.4434 205.484 20.498C205.316 20.5527 205.174 20.625 205.057 20.7148C204.939 20.8047 204.848 20.9121 204.781 21.0371C204.719 21.1582 204.688 21.2852 204.688 21.418H203.598C203.602 21.1875 203.66 20.9609 203.773 20.7383C203.891 20.5156 204.059 20.3145 204.277 20.1348C204.492 19.959 204.754 19.8164 205.062 19.707C205.375 19.5977 205.729 19.543 206.123 19.543C206.482 19.543 206.816 19.5879 207.125 19.6777C207.434 19.7637 207.701 19.8945 207.928 20.0703C208.15 20.25 208.326 20.4727 208.455 20.7383C208.584 21.0039 208.648 21.3145 208.648 21.6699V24.6172C208.648 24.8281 208.668 25.0527 208.707 25.291C208.746 25.5254 208.801 25.7305 208.871 25.9062V26H207.74ZM205.824 25.1738C206.035 25.1738 206.232 25.1465 206.416 25.0918C206.6 25.0371 206.768 24.9648 206.92 24.875C207.068 24.7852 207.197 24.6836 207.307 24.5703C207.416 24.4531 207.502 24.332 207.564 24.207V22.9238H206.557C206.182 22.9238 205.854 22.957 205.572 23.0234C205.295 23.0859 205.074 23.1836 204.91 23.3164C204.793 23.4102 204.703 23.5215 204.641 23.6504C204.582 23.7793 204.553 23.9258 204.553 24.0898C204.553 24.2461 204.578 24.3906 204.629 24.5234C204.684 24.6562 204.764 24.7695 204.869 24.8633C204.975 24.9609 205.107 25.0371 205.268 25.0918C205.428 25.1465 205.613 25.1738 205.824 25.1738ZM213.348 18.125V19.6602H215.762V20.498H213.348V23.9434C213.348 24.1895 213.379 24.3926 213.441 24.5527C213.504 24.7129 213.59 24.8398 213.699 24.9336C213.809 25.0312 213.934 25.0996 214.074 25.1387C214.219 25.1777 214.371 25.1973 214.531 25.1973C214.648 25.1973 214.77 25.1914 214.895 25.1797C215.02 25.1641 215.143 25.1465 215.264 25.127C215.381 25.1074 215.49 25.0879 215.592 25.0684C215.697 25.0449 215.783 25.0254 215.85 25.0098L216.002 25.7773C215.912 25.832 215.803 25.8809 215.674 25.9238C215.545 25.9629 215.404 25.9961 215.252 26.0234C215.1 26.0547 214.938 26.0781 214.766 26.0938C214.598 26.1094 214.43 26.1172 214.262 26.1172C213.98 26.1172 213.717 26.0781 213.471 26C213.229 25.918 213.018 25.7891 212.838 25.6133C212.658 25.4414 212.516 25.2188 212.41 24.9453C212.309 24.668 212.258 24.334 212.258 23.9434V20.498H210.594V19.6602H212.258V18.125H213.348ZM218.158 19.6602H221.398V25.0625H223.467V26H218.158V25.0625H220.314V20.6035H218.158V19.6602ZM220.174 17.9961C220.174 17.9023 220.188 17.8145 220.215 17.7324C220.246 17.6504 220.293 17.5801 220.355 17.5215C220.406 17.4707 220.471 17.4316 220.549 17.4043C220.631 17.373 220.723 17.3574 220.824 17.3574C220.926 17.3574 221.016 17.373 221.094 17.4043C221.172 17.4316 221.236 17.4707 221.287 17.5215C221.35 17.5762 221.396 17.6445 221.428 17.7266C221.459 17.8086 221.475 17.8984 221.475 17.9961C221.475 18.1719 221.42 18.3184 221.311 18.4355C221.201 18.5527 221.039 18.6113 220.824 18.6113C220.605 18.6113 220.441 18.5527 220.332 18.4355C220.227 18.3184 220.174 18.1719 220.174 17.9961ZM224.891 22.7715C224.891 22.3145 224.957 21.8906 225.09 21.5C225.223 21.1055 225.414 20.7637 225.664 20.4746C225.91 20.1855 226.211 19.959 226.566 19.7949C226.922 19.627 227.322 19.543 227.768 19.543C228.217 19.543 228.619 19.627 228.975 19.7949C229.334 19.959 229.639 20.1855 229.889 20.4746C230.135 20.7637 230.324 21.1055 230.457 21.5C230.59 21.8906 230.656 22.3145 230.656 22.7715V22.9004C230.656 23.3574 230.59 23.7812 230.457 24.1719C230.324 24.5625 230.135 24.9023 229.889 25.1914C229.639 25.4805 229.336 25.707 228.98 25.8711C228.625 26.0352 228.225 26.1172 227.779 26.1172C227.33 26.1172 226.926 26.0352 226.566 25.8711C226.211 25.707 225.91 25.4805 225.664 25.1914C225.414 24.9023 225.223 24.5625 225.09 24.1719C224.957 23.7812 224.891 23.3574 224.891 22.9004V22.7715ZM225.975 22.9004C225.975 23.2129 226.012 23.5117 226.086 23.7969C226.16 24.0781 226.273 24.3262 226.426 24.541C226.574 24.7559 226.762 24.9258 226.988 25.0508C227.215 25.1758 227.479 25.2383 227.779 25.2383C228.076 25.2383 228.336 25.1758 228.559 25.0508C228.785 24.9258 228.975 24.7559 229.127 24.541C229.275 24.3262 229.387 24.0781 229.461 23.7969C229.535 23.5117 229.572 23.2129 229.572 22.9004V22.7715C229.572 22.4629 229.533 22.168 229.455 21.8867C229.381 21.6016 229.27 21.3516 229.121 21.1367C228.969 20.9219 228.779 20.752 228.553 20.627C228.33 20.498 228.068 20.4336 227.768 20.4336C227.467 20.4336 227.205 20.498 226.982 20.627C226.76 20.752 226.574 20.9219 226.426 21.1367C226.273 21.3516 226.16 21.6016 226.086 21.8867C226.012 22.168 225.975 22.4629 225.975 22.7715V22.9004ZM232.402 26V19.6602H233.375L233.451 20.5977C233.545 20.4648 233.646 20.3438 233.756 20.2344C233.869 20.1211 233.988 20.0234 234.113 19.9414C234.301 19.8164 234.504 19.7207 234.723 19.6543C234.945 19.584 235.18 19.5469 235.426 19.543C235.758 19.543 236.059 19.5898 236.328 19.6836C236.602 19.7773 236.834 19.9238 237.025 20.123C237.217 20.3223 237.363 20.5762 237.465 20.8848C237.57 21.1895 237.623 21.5527 237.623 21.9746V26H236.539V21.998C236.539 21.7168 236.508 21.4785 236.445 21.2832C236.383 21.0879 236.291 20.9297 236.17 20.8086C236.045 20.6875 235.893 20.5996 235.713 20.5449C235.537 20.4902 235.334 20.4629 235.104 20.4629C234.904 20.4629 234.719 20.4922 234.547 20.5508C234.375 20.6055 234.217 20.6816 234.072 20.7793C233.955 20.8652 233.846 20.9648 233.744 21.0781C233.646 21.1914 233.561 21.3164 233.486 21.4531V26H232.402Z" fill="#333333"/>
</g>
<g clip-path="url(#clip0_2644_2233)">
<path d="M14 7C8.20138 7 3.5 11.7014 3.5 17.5C3.5 19.7833 4.24856 21.8785 5.49281 23.5944C5.51513 23.6355 5.51863 23.6814 5.544 23.7208L12.544 34.2208C12.8686 34.7078 13.4155 35 14 35C14.5845 35 15.1314 34.7078 15.456 34.2208L22.456 23.7208C22.4818 23.6814 22.4849 23.6355 22.5072 23.5944C23.7514 21.8785 24.5 19.7833 24.5 17.5C24.5 11.7014 19.7986 7 14 7ZM14 21C12.0671 21 10.5 19.4329 10.5 17.5C10.5 15.5671 12.0671 14 14 14C15.9329 14 17.5 15.5671 17.5 17.5C17.5 19.4329 15.9329 21 14 21Z" fill="#231F20"/>
</g>
<defs>
<filter id="filter0_d_2644_2233" x="21.697" y="0.848522" width="239.606" height="52.6059" filterUnits="userSpaceOnUse" color-interpolation-filters="sRGB">
<feFlood flood-opacity="0" result="BackgroundImageFix"/>
<feColorMatrix in="SourceAlpha" type="matrix" values="0 0 0 0 0 0 0 0 0 0 0 0 0 0 0 0 0 0 127 0" result="hardAlpha"/>
<feOffset dy="6.15148"/>
<feGaussianBlur stdDeviation="6.15148"/>
<feColorMatrix type="matrix" values="0 0 0 0 0 0 0 0 0 0 0 0 0 0 0 0 0 0 0.05 0"/>
<feBlend mode="normal" in2="BackgroundImageFix" result="effect1_dropShadow_2644_2233"/>
<feBlend mode="normal" in="SourceGraphic" in2="effect1_dropShadow_2644_2233" result="shape"/>
</filter>
<clipPath id="clip0_2644_2233">
<rect width="28" height="28" fill="white" transform="translate(0 7)"/>
</clipPath>
</defs>
</svg>
