<svg width="269" height="54" viewBox="0 0 269 54" fill="none" xmlns="http://www.w3.org/2000/svg">
<g filter="url(#filter0_d_2644_2235)">
<rect x="34" y="7" width="222" height="28" rx="4" fill="white"/>
<path d="M49.0918 23.791H46.2441L45.5586 26H44.4746L47.2285 17.4688H48.1367L50.8438 26H49.7656L49.0918 23.791ZM46.5371 22.8477H48.8047L47.6797 19.1445L46.5371 22.8477ZM56.3809 19.543C56.5801 19.543 56.7871 19.5566 57.002 19.584C57.2207 19.6113 57.3848 19.6484 57.4941 19.6953L57.3477 20.7559C57.1367 20.709 56.9355 20.6758 56.7441 20.6562C56.5566 20.6328 56.3594 20.6211 56.1523 20.6211C55.8867 20.6211 55.6465 20.6543 55.4316 20.7207C55.2168 20.7832 55.0293 20.877 54.8691 21.002C54.7246 21.1113 54.5977 21.2461 54.4883 21.4062C54.3828 21.5625 54.2949 21.7383 54.2246 21.9336V26H53.1348V19.6602H54.166L54.2129 20.5098L54.2188 20.668C54.4766 20.3203 54.7852 20.0469 55.1445 19.8477C55.5078 19.6445 55.9199 19.543 56.3809 19.543ZM63.5879 19.543C63.7871 19.543 63.9941 19.5566 64.209 19.584C64.4277 19.6113 64.5918 19.6484 64.7012 19.6953L64.5547 20.7559C64.3438 20.709 64.1426 20.6758 63.9512 20.6562C63.7637 20.6328 63.5664 20.6211 63.3594 20.6211C63.0938 20.6211 62.8535 20.6543 62.6387 20.7207C62.4238 20.7832 62.2363 20.877 62.0762 21.002C61.9316 21.1113 61.8047 21.2461 61.6953 21.4062C61.5898 21.5625 61.502 21.7383 61.4316 21.9336V26H60.3418V19.6602H61.373L61.4199 20.5098L61.4258 20.668C61.6836 20.3203 61.9922 20.0469 62.3516 19.8477C62.7148 19.6445 63.127 19.543 63.5879 19.543ZM66.8105 19.6602H70.0508V25.0625H72.1191V26H66.8105V25.0625H68.9668V20.6035H66.8105V19.6602ZM68.8262 17.9961C68.8262 17.9023 68.8398 17.8145 68.8672 17.7324C68.8984 17.6504 68.9453 17.5801 69.0078 17.5215C69.0586 17.4707 69.123 17.4316 69.2012 17.4043C69.2832 17.373 69.375 17.3574 69.4766 17.3574C69.5781 17.3574 69.668 17.373 69.7461 17.4043C69.8242 17.4316 69.8887 17.4707 69.9395 17.5215C70.002 17.5762 70.0488 17.6445 70.0801 17.7266C70.1113 17.8086 70.127 17.8984 70.127 17.9961C70.127 18.1719 70.0723 18.3184 69.9629 18.4355C69.8535 18.5527 69.6914 18.6113 69.4766 18.6113C69.2578 18.6113 69.0938 18.5527 68.9844 18.4355C68.8789 18.3184 68.8262 18.1719 68.8262 17.9961ZM76.0098 26L73.4023 19.6602H74.5156L76.332 24.4414L76.4316 24.834L76.5371 24.4414L78.3125 19.6602H79.4199L76.8359 26H76.0098ZM83.8555 26.1172C83.4102 26.1172 83 26.041 82.625 25.8887C82.2539 25.7363 81.9355 25.5234 81.6699 25.25C81.4043 24.9766 81.1973 24.6523 81.0488 24.2773C80.9004 23.9023 80.8262 23.4941 80.8262 23.0527V22.8066C80.8262 22.2949 80.9082 21.8379 81.0723 21.4355C81.2363 21.0293 81.4551 20.6855 81.7285 20.4043C81.998 20.127 82.3047 19.9141 82.6484 19.7656C82.9961 19.6172 83.3516 19.543 83.7148 19.543C84.1719 19.543 84.5703 19.623 84.9102 19.7832C85.2539 19.9395 85.5391 20.1562 85.7656 20.4336C85.9922 20.7148 86.1602 21.0449 86.2695 21.4238C86.3828 21.8027 86.4395 22.2129 86.4395 22.6543V23.1406H81.9102V23.1816C81.9375 23.4902 81.998 23.7617 82.0918 23.9961C82.1895 24.2305 82.3223 24.4375 82.4902 24.6172C82.6621 24.8086 82.8691 24.959 83.1113 25.0684C83.3535 25.1777 83.6211 25.2324 83.9141 25.2324C84.3008 25.2324 84.6445 25.1543 84.9453 24.998C85.2461 24.8418 85.4961 24.6348 85.6953 24.377L86.3574 24.8926C86.1465 25.2129 85.8301 25.498 85.4082 25.748C84.9902 25.9941 84.4727 26.1172 83.8555 26.1172ZM83.7148 20.4336C83.4961 20.4336 83.2891 20.4746 83.0938 20.5566C82.8984 20.6348 82.7227 20.75 82.5664 20.9023C82.4102 21.0586 82.2773 21.25 82.168 21.4766C82.0625 21.6992 81.9883 21.957 81.9453 22.25H85.3555V22.1973C85.3555 22.002 85.3184 21.793 85.2441 21.5703C85.1699 21.3438 85.0664 21.1484 84.9336 20.9844C84.8008 20.8203 84.6328 20.6875 84.4297 20.5859C84.2305 20.4844 83.9922 20.4336 83.7148 20.4336ZM88.0566 22.7773C88.0566 22.3047 88.1152 21.8711 88.2324 21.4766C88.3535 21.0781 88.5254 20.7363 88.748 20.4512C88.9668 20.166 89.2324 19.9434 89.5449 19.7832C89.8574 19.623 90.207 19.543 90.5938 19.543C90.9727 19.543 91.3027 19.6074 91.584 19.7363C91.8691 19.8613 92.1152 20.0449 92.3223 20.2871V17H93.4062V26H92.4102L92.3633 25.332C92.1523 25.5898 91.9004 25.7852 91.6074 25.918C91.3145 26.0508 90.9727 26.1172 90.582 26.1172C90.1992 26.1172 89.8516 26.0352 89.5391 25.8711C89.2305 25.707 88.9668 25.4805 88.748 25.1914C88.5293 24.9023 88.3594 24.5625 88.2383 24.1719C88.1172 23.7773 88.0566 23.3535 88.0566 22.9004V22.7773ZM89.1406 22.9004C89.1406 23.209 89.1738 23.502 89.2402 23.7793C89.3066 24.0566 89.4102 24.3008 89.5508 24.5117C89.6875 24.7227 89.8633 24.8906 90.0781 25.0156C90.293 25.1367 90.5508 25.1973 90.8516 25.1973C91.2148 25.1973 91.5156 25.1152 91.7539 24.9512C91.9922 24.7871 92.1816 24.5664 92.3223 24.2891V21.3477C92.1816 21.0898 91.9922 20.8789 91.7539 20.7148C91.5156 20.5469 91.2188 20.4629 90.8633 20.4629C90.5586 20.4629 90.2969 20.5254 90.0781 20.6504C89.8633 20.7754 89.6875 20.9434 89.5508 21.1543C89.4102 21.3691 89.3066 21.6172 89.2402 21.8984C89.1738 22.1758 89.1406 22.4688 89.1406 22.7773V22.9004ZM106.748 23.791H103.9L103.215 26H102.131L104.885 17.4688H105.793L108.5 26H107.422L106.748 23.791ZM104.193 22.8477H106.461L105.336 19.1445L104.193 22.8477ZM112.449 18.125V19.6602H114.863V20.498H112.449V23.9434C112.449 24.1895 112.48 24.3926 112.543 24.5527C112.605 24.7129 112.691 24.8398 112.801 24.9336C112.91 25.0312 113.035 25.0996 113.176 25.1387C113.32 25.1777 113.473 25.1973 113.633 25.1973C113.75 25.1973 113.871 25.1914 113.996 25.1797C114.121 25.1641 114.244 25.1465 114.365 25.127C114.482 25.1074 114.592 25.0879 114.693 25.0684C114.799 25.0449 114.885 25.0254 114.951 25.0098L115.104 25.7773C115.014 25.832 114.904 25.8809 114.775 25.9238C114.646 25.9629 114.506 25.9961 114.354 26.0234C114.201 26.0547 114.039 26.0781 113.867 26.0938C113.699 26.1094 113.531 26.1172 113.363 26.1172C113.082 26.1172 112.818 26.0781 112.572 26C112.33 25.918 112.119 25.7891 111.939 25.6133C111.76 25.4414 111.617 25.2188 111.512 24.9453C111.41 24.668 111.359 24.334 111.359 23.9434V20.498H109.695V19.6602H111.359V18.125H112.449ZM129.822 23.4336C129.771 23.8281 129.67 24.1914 129.518 24.5234C129.365 24.8516 129.168 25.1328 128.926 25.3672C128.68 25.6055 128.389 25.791 128.053 25.9238C127.721 26.0527 127.35 26.1172 126.939 26.1172C126.588 26.1172 126.268 26.0684 125.979 25.9707C125.693 25.8691 125.439 25.7305 125.217 25.5547C124.99 25.3789 124.795 25.1719 124.631 24.9336C124.471 24.6953 124.338 24.4355 124.232 24.1543C124.123 23.873 124.041 23.5781 123.986 23.2695C123.936 22.9609 123.908 22.6484 123.904 22.332V21.1426C123.908 20.8262 123.936 20.5137 123.986 20.2051C124.041 19.8965 124.123 19.6016 124.232 19.3203C124.338 19.0391 124.471 18.7793 124.631 18.541C124.795 18.2988 124.99 18.0898 125.217 17.9141C125.439 17.7383 125.693 17.6016 125.979 17.5039C126.264 17.4023 126.584 17.3516 126.939 17.3516C127.365 17.3516 127.746 17.418 128.082 17.5508C128.418 17.6797 128.707 17.8633 128.949 18.1016C129.191 18.3438 129.385 18.6328 129.529 18.9688C129.678 19.3047 129.775 19.6758 129.822 20.082H128.738C128.703 19.8242 128.643 19.584 128.557 19.3613C128.471 19.1387 128.355 18.9434 128.211 18.7754C128.066 18.6074 127.889 18.4766 127.678 18.3828C127.471 18.2852 127.225 18.2363 126.939 18.2363C126.682 18.2363 126.453 18.2793 126.254 18.3652C126.059 18.4473 125.891 18.5605 125.75 18.7051C125.605 18.8496 125.484 19.0176 125.387 19.209C125.293 19.4004 125.217 19.6035 125.158 19.8184C125.1 20.0332 125.057 20.2539 125.029 20.4805C125.006 20.7031 124.994 20.9199 124.994 21.1309V22.332C124.994 22.543 125.006 22.7617 125.029 22.9883C125.057 23.2109 125.1 23.4297 125.158 23.6445C125.217 23.8633 125.293 24.0684 125.387 24.2598C125.48 24.4512 125.6 24.6191 125.744 24.7637C125.889 24.9121 126.059 25.0293 126.254 25.1152C126.449 25.1973 126.678 25.2383 126.939 25.2383C127.225 25.2383 127.471 25.1934 127.678 25.1035C127.889 25.0137 128.066 24.8867 128.211 24.7227C128.355 24.5625 128.471 24.373 128.557 24.1543C128.643 23.9316 128.703 23.6914 128.738 23.4336H129.822ZM135.682 26L135.617 25.127C135.406 25.4395 135.143 25.6836 134.826 25.8594C134.51 26.0312 134.145 26.1172 133.73 26.1172C133.398 26.1172 133.098 26.0664 132.828 25.9648C132.559 25.8594 132.328 25.6973 132.137 25.4785C131.945 25.2598 131.797 24.9824 131.691 24.6465C131.59 24.3066 131.539 23.9004 131.539 23.4277V19.6602H132.623V23.4395C132.623 23.7832 132.65 24.0684 132.705 24.2949C132.76 24.5215 132.842 24.7012 132.951 24.834C133.061 24.9707 133.193 25.0664 133.35 25.1211C133.51 25.1758 133.693 25.2031 133.9 25.2031C134.143 25.2031 134.359 25.1758 134.551 25.1211C134.742 25.0625 134.908 24.9824 135.049 24.8809C135.166 24.7988 135.268 24.7012 135.354 24.5879C135.443 24.4707 135.518 24.3438 135.576 24.207V19.6602H136.666V26H135.682ZM142.924 24.3184C142.924 24.1895 142.898 24.0742 142.848 23.9727C142.797 23.8672 142.711 23.7715 142.59 23.6855C142.469 23.5996 142.309 23.5215 142.109 23.4512C141.91 23.377 141.662 23.3105 141.365 23.252C141.002 23.1777 140.67 23.0879 140.369 22.9824C140.072 22.877 139.818 22.75 139.607 22.6016C139.393 22.457 139.227 22.2871 139.109 22.0918C138.992 21.8926 138.934 21.6621 138.934 21.4004C138.934 21.1426 138.994 20.9023 139.115 20.6797C139.236 20.4531 139.406 20.2559 139.625 20.0879C139.844 19.9199 140.104 19.7871 140.404 19.6895C140.709 19.5918 141.043 19.543 141.406 19.543C141.797 19.543 142.148 19.5938 142.461 19.6953C142.773 19.7969 143.039 19.9375 143.258 20.1172C143.477 20.2969 143.645 20.5078 143.762 20.75C143.883 20.9883 143.943 21.2461 143.943 21.5234H142.859C142.859 21.3867 142.824 21.2539 142.754 21.125C142.684 20.9922 142.586 20.875 142.461 20.7734C142.336 20.6719 142.184 20.5898 142.004 20.5273C141.828 20.4648 141.629 20.4336 141.406 20.4336C141.176 20.4336 140.973 20.459 140.797 20.5098C140.625 20.5605 140.482 20.6289 140.369 20.7148C140.252 20.8008 140.164 20.9004 140.105 21.0137C140.047 21.127 140.018 21.2441 140.018 21.3652C140.018 21.4902 140.041 21.6016 140.088 21.6992C140.135 21.7969 140.217 21.8848 140.334 21.9629C140.447 22.041 140.6 22.1113 140.791 22.1738C140.986 22.2363 141.232 22.2969 141.529 22.3555C141.92 22.4375 142.27 22.5332 142.578 22.6426C142.887 22.748 143.146 22.875 143.357 23.0234C143.568 23.1758 143.729 23.3516 143.838 23.5508C143.951 23.75 144.008 23.9805 144.008 24.2422C144.008 24.5234 143.943 24.7793 143.814 25.0098C143.689 25.2402 143.514 25.4375 143.287 25.6016C143.061 25.7656 142.789 25.8926 142.473 25.9824C142.156 26.0723 141.811 26.1172 141.436 26.1172C141.006 26.1172 140.623 26.0605 140.287 25.9473C139.951 25.8301 139.668 25.6758 139.438 25.4844C139.203 25.2969 139.023 25.0781 138.898 24.8281C138.777 24.5781 138.717 24.3184 138.717 24.0488H139.801C139.816 24.2715 139.875 24.459 139.977 24.6113C140.082 24.7637 140.213 24.8867 140.369 24.9805C140.521 25.0742 140.691 25.1406 140.879 25.1797C141.066 25.2188 141.252 25.2383 141.436 25.2383C141.725 25.2383 141.977 25.2051 142.191 25.1387C142.406 25.0684 142.574 24.9727 142.695 24.8516C142.77 24.7773 142.826 24.6953 142.865 24.6055C142.904 24.5156 142.924 24.4199 142.924 24.3184ZM148.484 18.125V19.6602H150.898V20.498H148.484V23.9434C148.484 24.1895 148.516 24.3926 148.578 24.5527C148.641 24.7129 148.727 24.8398 148.836 24.9336C148.945 25.0312 149.07 25.0996 149.211 25.1387C149.355 25.1777 149.508 25.1973 149.668 25.1973C149.785 25.1973 149.906 25.1914 150.031 25.1797C150.156 25.1641 150.279 25.1465 150.4 25.127C150.518 25.1074 150.627 25.0879 150.729 25.0684C150.834 25.0449 150.92 25.0254 150.986 25.0098L151.139 25.7773C151.049 25.832 150.939 25.8809 150.811 25.9238C150.682 25.9629 150.541 25.9961 150.389 26.0234C150.236 26.0547 150.074 26.0781 149.902 26.0938C149.734 26.1094 149.566 26.1172 149.398 26.1172C149.117 26.1172 148.854 26.0781 148.607 26C148.365 25.918 148.154 25.7891 147.975 25.6133C147.795 25.4414 147.652 25.2188 147.547 24.9453C147.445 24.668 147.395 24.334 147.395 23.9434V20.498H145.73V19.6602H147.395V18.125H148.484ZM152.82 22.7715C152.82 22.3145 152.887 21.8906 153.02 21.5C153.152 21.1055 153.344 20.7637 153.594 20.4746C153.84 20.1855 154.141 19.959 154.496 19.7949C154.852 19.627 155.252 19.543 155.697 19.543C156.146 19.543 156.549 19.627 156.904 19.7949C157.264 19.959 157.568 20.1855 157.818 20.4746C158.064 20.7637 158.254 21.1055 158.387 21.5C158.52 21.8906 158.586 22.3145 158.586 22.7715V22.9004C158.586 23.3574 158.52 23.7812 158.387 24.1719C158.254 24.5625 158.064 24.9023 157.818 25.1914C157.568 25.4805 157.266 25.707 156.91 25.8711C156.555 26.0352 156.154 26.1172 155.709 26.1172C155.26 26.1172 154.855 26.0352 154.496 25.8711C154.141 25.707 153.84 25.4805 153.594 25.1914C153.344 24.9023 153.152 24.5625 153.02 24.1719C152.887 23.7812 152.82 23.3574 152.82 22.9004V22.7715ZM153.904 22.9004C153.904 23.2129 153.941 23.5117 154.016 23.7969C154.09 24.0781 154.203 24.3262 154.355 24.541C154.504 24.7559 154.691 24.9258 154.918 25.0508C155.145 25.1758 155.408 25.2383 155.709 25.2383C156.006 25.2383 156.266 25.1758 156.488 25.0508C156.715 24.9258 156.904 24.7559 157.057 24.541C157.205 24.3262 157.316 24.0781 157.391 23.7969C157.465 23.5117 157.502 23.2129 157.502 22.9004V22.7715C157.502 22.4629 157.463 22.168 157.385 21.8867C157.311 21.6016 157.199 21.3516 157.051 21.1367C156.898 20.9219 156.709 20.752 156.482 20.627C156.26 20.498 155.998 20.4336 155.697 20.4336C155.396 20.4336 155.135 20.498 154.912 20.627C154.689 20.752 154.504 20.9219 154.355 21.1367C154.203 21.3516 154.09 21.6016 154.016 21.8867C153.941 22.168 153.904 22.4629 153.904 22.7715V22.9004ZM160.83 19.6602L160.859 20.2578C160.988 20.0352 161.156 19.8613 161.363 19.7363C161.574 19.6113 161.828 19.5469 162.125 19.543C162.293 19.543 162.443 19.5625 162.576 19.6016C162.713 19.6367 162.832 19.6895 162.934 19.7598C163.008 19.8145 163.074 19.8809 163.133 19.959C163.195 20.0371 163.248 20.125 163.291 20.2227C163.346 20.1328 163.41 20.0488 163.484 19.9707C163.559 19.8926 163.639 19.8242 163.725 19.7656C163.834 19.6992 163.955 19.6465 164.088 19.6074C164.225 19.5684 164.373 19.5469 164.533 19.543C164.752 19.543 164.949 19.5762 165.125 19.6426C165.301 19.7051 165.449 19.7988 165.57 19.9238C165.703 20.0645 165.805 20.248 165.875 20.4746C165.945 20.6973 165.98 20.9609 165.98 21.2656V26H164.949V21.2539C164.949 21.1211 164.934 21.0039 164.902 20.9023C164.871 20.8008 164.826 20.7168 164.768 20.6504C164.705 20.5879 164.627 20.541 164.533 20.5098C164.443 20.4785 164.338 20.4629 164.217 20.4629C164.088 20.4629 163.977 20.4805 163.883 20.5156C163.789 20.5508 163.711 20.5977 163.648 20.6562C163.586 20.7188 163.537 20.791 163.502 20.873C163.467 20.9512 163.443 21.0391 163.432 21.1367C163.432 21.1562 163.432 21.1758 163.432 21.1953C163.432 21.2109 163.432 21.2305 163.432 21.2539V26H162.4V21.248C162.4 21.1152 162.385 20.998 162.354 20.8965C162.326 20.7949 162.281 20.7109 162.219 20.6445C162.16 20.582 162.086 20.5371 161.996 20.5098C161.91 20.4785 161.809 20.4629 161.691 20.4629C161.562 20.4629 161.449 20.4785 161.352 20.5098C161.258 20.5371 161.178 20.5781 161.111 20.6328C161.061 20.6758 161.016 20.7246 160.977 20.7793C160.941 20.834 160.912 20.8926 160.889 20.9551V26H159.857V19.6602H160.83ZM170.34 26.1172C169.895 26.1172 169.484 26.041 169.109 25.8887C168.738 25.7363 168.42 25.5234 168.154 25.25C167.889 24.9766 167.682 24.6523 167.533 24.2773C167.385 23.9023 167.311 23.4941 167.311 23.0527V22.8066C167.311 22.2949 167.393 21.8379 167.557 21.4355C167.721 21.0293 167.939 20.6855 168.213 20.4043C168.482 20.127 168.789 19.9141 169.133 19.7656C169.48 19.6172 169.836 19.543 170.199 19.543C170.656 19.543 171.055 19.623 171.395 19.7832C171.738 19.9395 172.023 20.1562 172.25 20.4336C172.477 20.7148 172.645 21.0449 172.754 21.4238C172.867 21.8027 172.924 22.2129 172.924 22.6543V23.1406H168.395V23.1816C168.422 23.4902 168.482 23.7617 168.576 23.9961C168.674 24.2305 168.807 24.4375 168.975 24.6172C169.146 24.8086 169.354 24.959 169.596 25.0684C169.838 25.1777 170.105 25.2324 170.398 25.2324C170.785 25.2324 171.129 25.1543 171.43 24.998C171.73 24.8418 171.98 24.6348 172.18 24.377L172.842 24.8926C172.631 25.2129 172.314 25.498 171.893 25.748C171.475 25.9941 170.957 26.1172 170.34 26.1172ZM170.199 20.4336C169.98 20.4336 169.773 20.4746 169.578 20.5566C169.383 20.6348 169.207 20.75 169.051 20.9023C168.895 21.0586 168.762 21.25 168.652 21.4766C168.547 21.6992 168.473 21.957 168.43 22.25H171.84V22.1973C171.84 22.002 171.803 21.793 171.729 21.5703C171.654 21.3438 171.551 21.1484 171.418 20.9844C171.285 20.8203 171.117 20.6875 170.914 20.5859C170.715 20.4844 170.477 20.4336 170.199 20.4336ZM178.9 19.543C179.1 19.543 179.307 19.5566 179.521 19.584C179.74 19.6113 179.904 19.6484 180.014 19.6953L179.867 20.7559C179.656 20.709 179.455 20.6758 179.264 20.6562C179.076 20.6328 178.879 20.6211 178.672 20.6211C178.406 20.6211 178.166 20.6543 177.951 20.7207C177.736 20.7832 177.549 20.877 177.389 21.002C177.244 21.1113 177.117 21.2461 177.008 21.4062C176.902 21.5625 176.814 21.7383 176.744 21.9336V26H175.654V19.6602H176.686L176.732 20.5098L176.738 20.668C176.996 20.3203 177.305 20.0469 177.664 19.8477C178.027 19.6445 178.439 19.543 178.9 19.543ZM190.385 25.0801H194.557V26H189.301V17.4688H190.385V25.0801ZM196.062 22.7715C196.062 22.3145 196.129 21.8906 196.262 21.5C196.395 21.1055 196.586 20.7637 196.836 20.4746C197.082 20.1855 197.383 19.959 197.738 19.7949C198.094 19.627 198.494 19.543 198.939 19.543C199.389 19.543 199.791 19.627 200.146 19.7949C200.506 19.959 200.811 20.1855 201.061 20.4746C201.307 20.7637 201.496 21.1055 201.629 21.5C201.762 21.8906 201.828 22.3145 201.828 22.7715V22.9004C201.828 23.3574 201.762 23.7812 201.629 24.1719C201.496 24.5625 201.307 24.9023 201.061 25.1914C200.811 25.4805 200.508 25.707 200.152 25.8711C199.797 26.0352 199.396 26.1172 198.951 26.1172C198.502 26.1172 198.098 26.0352 197.738 25.8711C197.383 25.707 197.082 25.4805 196.836 25.1914C196.586 24.9023 196.395 24.5625 196.262 24.1719C196.129 23.7812 196.062 23.3574 196.062 22.9004V22.7715ZM197.146 22.9004C197.146 23.2129 197.184 23.5117 197.258 23.7969C197.332 24.0781 197.445 24.3262 197.598 24.541C197.746 24.7559 197.934 24.9258 198.16 25.0508C198.387 25.1758 198.65 25.2383 198.951 25.2383C199.248 25.2383 199.508 25.1758 199.73 25.0508C199.957 24.9258 200.146 24.7559 200.299 24.541C200.447 24.3262 200.559 24.0781 200.633 23.7969C200.707 23.5117 200.744 23.2129 200.744 22.9004V22.7715C200.744 22.4629 200.705 22.168 200.627 21.8867C200.553 21.6016 200.441 21.3516 200.293 21.1367C200.141 20.9219 199.951 20.752 199.725 20.627C199.502 20.498 199.24 20.4336 198.939 20.4336C198.639 20.4336 198.377 20.498 198.154 20.627C197.932 20.752 197.746 20.9219 197.598 21.1367C197.445 21.3516 197.332 21.6016 197.258 21.8867C197.184 22.168 197.146 22.4629 197.146 22.7715V22.9004ZM206.275 25.2383C206.471 25.2383 206.66 25.207 206.844 25.1445C207.031 25.082 207.197 24.9941 207.342 24.8809C207.486 24.7715 207.602 24.6426 207.688 24.4941C207.777 24.3418 207.824 24.1777 207.828 24.002H208.854C208.85 24.2832 208.775 24.5527 208.631 24.8105C208.49 25.0645 208.301 25.2871 208.062 25.4785C207.824 25.6738 207.551 25.8301 207.242 25.9473C206.934 26.0605 206.611 26.1172 206.275 26.1172C205.795 26.1172 205.375 26.0312 205.016 25.8594C204.656 25.6875 204.357 25.4551 204.119 25.1621C203.877 24.873 203.695 24.5391 203.574 24.1602C203.453 23.7773 203.393 23.375 203.393 22.9531V22.707C203.393 22.2891 203.453 21.8887 203.574 21.5059C203.695 21.123 203.877 20.7852 204.119 20.4922C204.357 20.2031 204.656 19.9727 205.016 19.8008C205.375 19.6289 205.795 19.543 206.275 19.543C206.65 19.543 206.994 19.6035 207.307 19.7246C207.623 19.8418 207.896 20.002 208.127 20.2051C208.354 20.4121 208.531 20.6562 208.66 20.9375C208.789 21.2188 208.854 21.5195 208.854 21.8398H207.828C207.824 21.6484 207.781 21.4688 207.699 21.3008C207.621 21.1289 207.514 20.9785 207.377 20.8496C207.24 20.7207 207.076 20.6191 206.885 20.5449C206.697 20.4707 206.494 20.4336 206.275 20.4336C205.939 20.4336 205.656 20.502 205.426 20.6387C205.199 20.7715 205.016 20.9453 204.875 21.1602C204.734 21.3789 204.633 21.623 204.57 21.8926C204.512 22.1621 204.482 22.4336 204.482 22.707V22.9531C204.482 23.2305 204.512 23.5059 204.57 23.7793C204.633 24.0488 204.734 24.291 204.875 24.5059C205.012 24.7246 205.193 24.9023 205.42 25.0391C205.65 25.1719 205.936 25.2383 206.275 25.2383ZM214.947 26C214.904 25.918 214.869 25.8164 214.842 25.6953C214.818 25.5703 214.801 25.4414 214.789 25.3086C214.68 25.418 214.557 25.5215 214.42 25.6191C214.287 25.7168 214.141 25.8027 213.98 25.877C213.816 25.9512 213.643 26.0098 213.459 26.0527C213.275 26.0957 213.08 26.1172 212.873 26.1172C212.537 26.1172 212.232 26.0684 211.959 25.9707C211.689 25.873 211.461 25.7402 211.273 25.5723C211.082 25.4082 210.934 25.2129 210.828 24.9863C210.727 24.7559 210.676 24.5078 210.676 24.2422C210.676 23.8945 210.744 23.5898 210.881 23.3281C211.021 23.0664 211.219 22.8477 211.473 22.6719C211.727 22.5 212.031 22.3711 212.387 22.2852C212.746 22.1992 213.146 22.1562 213.588 22.1562H214.771V21.6582C214.771 21.4668 214.736 21.2949 214.666 21.1426C214.596 20.9902 214.496 20.8594 214.367 20.75C214.238 20.6445 214.08 20.5625 213.893 20.5039C213.709 20.4453 213.502 20.416 213.271 20.416C213.057 20.416 212.863 20.4434 212.691 20.498C212.523 20.5527 212.381 20.625 212.264 20.7148C212.146 20.8047 212.055 20.9121 211.988 21.0371C211.926 21.1582 211.895 21.2852 211.895 21.418H210.805C210.809 21.1875 210.867 20.9609 210.98 20.7383C211.098 20.5156 211.266 20.3145 211.484 20.1348C211.699 19.959 211.961 19.8164 212.27 19.707C212.582 19.5977 212.936 19.543 213.33 19.543C213.689 19.543 214.023 19.5879 214.332 19.6777C214.641 19.7637 214.908 19.8945 215.135 20.0703C215.357 20.25 215.533 20.4727 215.662 20.7383C215.791 21.0039 215.855 21.3145 215.855 21.6699V24.6172C215.855 24.8281 215.875 25.0527 215.914 25.291C215.953 25.5254 216.008 25.7305 216.078 25.9062V26H214.947ZM213.031 25.1738C213.242 25.1738 213.439 25.1465 213.623 25.0918C213.807 25.0371 213.975 24.9648 214.127 24.875C214.275 24.7852 214.404 24.6836 214.514 24.5703C214.623 24.4531 214.709 24.332 214.771 24.207V22.9238H213.764C213.389 22.9238 213.061 22.957 212.779 23.0234C212.502 23.0859 212.281 23.1836 212.117 23.3164C212 23.4102 211.91 23.5215 211.848 23.6504C211.789 23.7793 211.76 23.9258 211.76 24.0898C211.76 24.2461 211.785 24.3906 211.836 24.5234C211.891 24.6562 211.971 24.7695 212.076 24.8633C212.182 24.9609 212.314 25.0371 212.475 25.0918C212.635 25.1465 212.82 25.1738 213.031 25.1738ZM220.555 18.125V19.6602H222.969V20.498H220.555V23.9434C220.555 24.1895 220.586 24.3926 220.648 24.5527C220.711 24.7129 220.797 24.8398 220.906 24.9336C221.016 25.0312 221.141 25.0996 221.281 25.1387C221.426 25.1777 221.578 25.1973 221.738 25.1973C221.855 25.1973 221.977 25.1914 222.102 25.1797C222.227 25.1641 222.35 25.1465 222.471 25.127C222.588 25.1074 222.697 25.0879 222.799 25.0684C222.904 25.0449 222.99 25.0254 223.057 25.0098L223.209 25.7773C223.119 25.832 223.01 25.8809 222.881 25.9238C222.752 25.9629 222.611 25.9961 222.459 26.0234C222.307 26.0547 222.145 26.0781 221.973 26.0938C221.805 26.1094 221.637 26.1172 221.469 26.1172C221.188 26.1172 220.924 26.0781 220.678 26C220.436 25.918 220.225 25.7891 220.045 25.6133C219.865 25.4414 219.723 25.2188 219.617 24.9453C219.516 24.668 219.465 24.334 219.465 23.9434V20.498H217.801V19.6602H219.465V18.125H220.555ZM225.365 19.6602H228.605V25.0625H230.674V26H225.365V25.0625H227.521V20.6035H225.365V19.6602ZM227.381 17.9961C227.381 17.9023 227.395 17.8145 227.422 17.7324C227.453 17.6504 227.5 17.5801 227.562 17.5215C227.613 17.4707 227.678 17.4316 227.756 17.4043C227.838 17.373 227.93 17.3574 228.031 17.3574C228.133 17.3574 228.223 17.373 228.301 17.4043C228.379 17.4316 228.443 17.4707 228.494 17.5215C228.557 17.5762 228.604 17.6445 228.635 17.7266C228.666 17.8086 228.682 17.8984 228.682 17.9961C228.682 18.1719 228.627 18.3184 228.518 18.4355C228.408 18.5527 228.246 18.6113 228.031 18.6113C227.812 18.6113 227.648 18.5527 227.539 18.4355C227.434 18.3184 227.381 18.1719 227.381 17.9961ZM232.098 22.7715C232.098 22.3145 232.164 21.8906 232.297 21.5C232.43 21.1055 232.621 20.7637 232.871 20.4746C233.117 20.1855 233.418 19.959 233.773 19.7949C234.129 19.627 234.529 19.543 234.975 19.543C235.424 19.543 235.826 19.627 236.182 19.7949C236.541 19.959 236.846 20.1855 237.096 20.4746C237.342 20.7637 237.531 21.1055 237.664 21.5C237.797 21.8906 237.863 22.3145 237.863 22.7715V22.9004C237.863 23.3574 237.797 23.7812 237.664 24.1719C237.531 24.5625 237.342 24.9023 237.096 25.1914C236.846 25.4805 236.543 25.707 236.188 25.8711C235.832 26.0352 235.432 26.1172 234.986 26.1172C234.537 26.1172 234.133 26.0352 233.773 25.8711C233.418 25.707 233.117 25.4805 232.871 25.1914C232.621 24.9023 232.43 24.5625 232.297 24.1719C232.164 23.7812 232.098 23.3574 232.098 22.9004V22.7715ZM233.182 22.9004C233.182 23.2129 233.219 23.5117 233.293 23.7969C233.367 24.0781 233.48 24.3262 233.633 24.541C233.781 24.7559 233.969 24.9258 234.195 25.0508C234.422 25.1758 234.686 25.2383 234.986 25.2383C235.283 25.2383 235.543 25.1758 235.766 25.0508C235.992 24.9258 236.182 24.7559 236.334 24.541C236.482 24.3262 236.594 24.0781 236.668 23.7969C236.742 23.5117 236.779 23.2129 236.779 22.9004V22.7715C236.779 22.4629 236.74 22.168 236.662 21.8867C236.588 21.6016 236.477 21.3516 236.328 21.1367C236.176 20.9219 235.986 20.752 235.76 20.627C235.537 20.498 235.275 20.4336 234.975 20.4336C234.674 20.4336 234.412 20.498 234.189 20.627C233.967 20.752 233.781 20.9219 233.633 21.1367C233.48 21.3516 233.367 21.6016 233.293 21.8867C233.219 22.168 233.182 22.4629 233.182 22.7715V22.9004ZM239.609 26V19.6602H240.582L240.658 20.5977C240.752 20.4648 240.854 20.3438 240.963 20.2344C241.076 20.1211 241.195 20.0234 241.32 19.9414C241.508 19.8164 241.711 19.7207 241.93 19.6543C242.152 19.584 242.387 19.5469 242.633 19.543C242.965 19.543 243.266 19.5898 243.535 19.6836C243.809 19.7773 244.041 19.9238 244.232 20.123C244.424 20.3223 244.57 20.5762 244.672 20.8848C244.777 21.1895 244.83 21.5527 244.83 21.9746V26H243.746V21.998C243.746 21.7168 243.715 21.4785 243.652 21.2832C243.59 21.0879 243.498 20.9297 243.377 20.8086C243.252 20.6875 243.1 20.5996 242.92 20.5449C242.744 20.4902 242.541 20.4629 242.311 20.4629C242.111 20.4629 241.926 20.4922 241.754 20.5508C241.582 20.6055 241.424 20.6816 241.279 20.7793C241.162 20.8652 241.053 20.9648 240.951 21.0781C240.854 21.1914 240.768 21.3164 240.693 21.4531V26H239.609Z" fill="#333333"/>
</g>
<g clip-path="url(#clip0_2644_2235)">
<path d="M14 7C8.20138 7 3.5 11.7014 3.5 17.5C3.5 19.7833 4.24856 21.8785 5.49281 23.5944C5.51513 23.6355 5.51863 23.6814 5.544 23.7208L12.544 34.2208C12.8686 34.7078 13.4155 35 14 35C14.5845 35 15.1314 34.7078 15.456 34.2208L22.456 23.7208C22.4818 23.6814 22.4849 23.6355 22.5072 23.5944C23.7514 21.8785 24.5 19.7833 24.5 17.5C24.5 11.7014 19.7986 7 14 7ZM14 21C12.0671 21 10.5 19.4329 10.5 17.5C10.5 15.5671 12.0671 14 14 14C15.9329 14 17.5 15.5671 17.5 17.5C17.5 19.4329 15.9329 21 14 21Z" fill="#231F20"/>
</g>
<defs>
<filter id="filter0_d_2644_2235" x="21.697" y="0.848522" width="246.606" height="52.6059" filterUnits="userSpaceOnUse" color-interpolation-filters="sRGB">
<feFlood flood-opacity="0" result="BackgroundImageFix"/>
<feColorMatrix in="SourceAlpha" type="matrix" values="0 0 0 0 0 0 0 0 0 0 0 0 0 0 0 0 0 0 127 0" result="hardAlpha"/>
<feOffset dy="6.15148"/>
<feGaussianBlur stdDeviation="6.15148"/>
<feColorMatrix type="matrix" values="0 0 0 0 0 0 0 0 0 0 0 0 0 0 0 0 0 0 0.05 0"/>
<feBlend mode="normal" in2="BackgroundImageFix" result="effect1_dropShadow_2644_2235"/>
<feBlend mode="normal" in="SourceGraphic" in2="effect1_dropShadow_2644_2235" result="shape"/>
</filter>
<clipPath id="clip0_2644_2235">
<rect width="28" height="28" fill="white" transform="translate(0 7)"/>
</clipPath>
</defs>
</svg>
