<svg width="132" height="54" viewBox="0 0 132 54" fill="none" xmlns="http://www.w3.org/2000/svg">
<g filter="url(#filter0_d_2644_2236)">
<rect x="34" y="7" width="85" height="28" rx="4" fill="white"/>
<path d="M44.9082 26V17.4688H46.8828C47.2148 17.4727 47.5273 17.5078 47.8203 17.5742C48.1172 17.6367 48.3906 17.7266 48.6406 17.8438C48.9883 18.0039 49.2949 18.2148 49.5605 18.4766C49.8301 18.7344 50.0449 19.0332 50.2051 19.373C50.3496 19.6621 50.459 19.9785 50.5332 20.3223C50.6113 20.666 50.6523 21.0332 50.6562 21.4238V22.0508C50.6562 22.4258 50.6191 22.7812 50.5449 23.1172C50.4746 23.4531 50.3711 23.7617 50.2344 24.043C50.0938 24.3359 49.916 24.6016 49.7012 24.8398C49.4863 25.0781 49.2461 25.2812 48.9805 25.4492C48.6992 25.625 48.3809 25.7598 48.0254 25.8535C47.6738 25.9473 47.293 25.9961 46.8828 26H44.9082ZM46.0098 18.3594V25.1152H46.8828C47.1953 25.1113 47.4785 25.0723 47.7324 24.998C47.9902 24.9238 48.2188 24.8184 48.418 24.6816C48.6289 24.541 48.8105 24.3691 48.9629 24.166C49.1191 23.959 49.2422 23.7285 49.332 23.4746C49.4102 23.2676 49.4688 23.0449 49.5078 22.8066C49.5469 22.5645 49.5684 22.3125 49.5723 22.0508V21.4121C49.5684 21.1465 49.5449 20.8926 49.502 20.6504C49.4629 20.4043 49.4023 20.1758 49.3203 19.9648C49.2148 19.6914 49.0723 19.4453 48.8926 19.2266C48.7168 19.0039 48.5 18.8242 48.2422 18.6875C48.0586 18.5859 47.8535 18.5078 47.627 18.4531C47.4004 18.3945 47.1523 18.3633 46.8828 18.3594H46.0098ZM55.0273 26.1172C54.582 26.1172 54.1719 26.041 53.7969 25.8887C53.4258 25.7363 53.1074 25.5234 52.8418 25.25C52.5762 24.9766 52.3691 24.6523 52.2207 24.2773C52.0723 23.9023 51.998 23.4941 51.998 23.0527V22.8066C51.998 22.2949 52.0801 21.8379 52.2441 21.4355C52.4082 21.0293 52.627 20.6855 52.9004 20.4043C53.1699 20.127 53.4766 19.9141 53.8203 19.7656C54.168 19.6172 54.5234 19.543 54.8867 19.543C55.3438 19.543 55.7422 19.623 56.082 19.7832C56.4258 19.9395 56.7109 20.1562 56.9375 20.4336C57.1641 20.7148 57.332 21.0449 57.4414 21.4238C57.5547 21.8027 57.6113 22.2129 57.6113 22.6543V23.1406H53.082V23.1816C53.1094 23.4902 53.1699 23.7617 53.2637 23.9961C53.3613 24.2305 53.4941 24.4375 53.6621 24.6172C53.834 24.8086 54.041 24.959 54.2832 25.0684C54.5254 25.1777 54.793 25.2324 55.0859 25.2324C55.4727 25.2324 55.8164 25.1543 56.1172 24.998C56.418 24.8418 56.668 24.6348 56.8672 24.377L57.5293 24.8926C57.3184 25.2129 57.002 25.498 56.5801 25.748C56.1621 25.9941 55.6445 26.1172 55.0273 26.1172ZM54.8867 20.4336C54.668 20.4336 54.4609 20.4746 54.2656 20.5566C54.0703 20.6348 53.8945 20.75 53.7383 20.9023C53.582 21.0586 53.4492 21.25 53.3398 21.4766C53.2344 21.6992 53.1602 21.957 53.1172 22.25H56.5273V22.1973C56.5273 22.002 56.4902 21.793 56.416 21.5703C56.3418 21.3438 56.2383 21.1484 56.1055 20.9844C55.9727 20.8203 55.8047 20.6875 55.6016 20.5859C55.4023 20.4844 55.1641 20.4336 54.8867 20.4336ZM59.6035 17H62.8438V25.0625H64.9121V26H59.6035V25.0625H61.7598V17.9434H59.6035V17ZM66.8105 19.6602H70.0508V25.0625H72.1191V26H66.8105V25.0625H68.9668V20.6035H66.8105V19.6602ZM68.8262 17.9961C68.8262 17.9023 68.8398 17.8145 68.8672 17.7324C68.8984 17.6504 68.9453 17.5801 69.0078 17.5215C69.0586 17.4707 69.123 17.4316 69.2012 17.4043C69.2832 17.373 69.375 17.3574 69.4766 17.3574C69.5781 17.3574 69.668 17.373 69.7461 17.4043C69.8242 17.4316 69.8887 17.4707 69.9395 17.5215C70.002 17.5762 70.0488 17.6445 70.0801 17.7266C70.1113 17.8086 70.127 17.8984 70.127 17.9961C70.127 18.1719 70.0723 18.3184 69.9629 18.4355C69.8535 18.5527 69.6914 18.6113 69.4766 18.6113C69.2578 18.6113 69.0938 18.5527 68.9844 18.4355C68.8789 18.3184 68.8262 18.1719 68.8262 17.9961ZM76.0098 26L73.4023 19.6602H74.5156L76.332 24.4414L76.4316 24.834L76.5371 24.4414L78.3125 19.6602H79.4199L76.8359 26H76.0098ZM83.8555 26.1172C83.4102 26.1172 83 26.041 82.625 25.8887C82.2539 25.7363 81.9355 25.5234 81.6699 25.25C81.4043 24.9766 81.1973 24.6523 81.0488 24.2773C80.9004 23.9023 80.8262 23.4941 80.8262 23.0527V22.8066C80.8262 22.2949 80.9082 21.8379 81.0723 21.4355C81.2363 21.0293 81.4551 20.6855 81.7285 20.4043C81.998 20.127 82.3047 19.9141 82.6484 19.7656C82.9961 19.6172 83.3516 19.543 83.7148 19.543C84.1719 19.543 84.5703 19.623 84.9102 19.7832C85.2539 19.9395 85.5391 20.1562 85.7656 20.4336C85.9922 20.7148 86.1602 21.0449 86.2695 21.4238C86.3828 21.8027 86.4395 22.2129 86.4395 22.6543V23.1406H81.9102V23.1816C81.9375 23.4902 81.998 23.7617 82.0918 23.9961C82.1895 24.2305 82.3223 24.4375 82.4902 24.6172C82.6621 24.8086 82.8691 24.959 83.1113 25.0684C83.3535 25.1777 83.6211 25.2324 83.9141 25.2324C84.3008 25.2324 84.6445 25.1543 84.9453 24.998C85.2461 24.8418 85.4961 24.6348 85.6953 24.377L86.3574 24.8926C86.1465 25.2129 85.8301 25.498 85.4082 25.748C84.9902 25.9941 84.4727 26.1172 83.8555 26.1172ZM83.7148 20.4336C83.4961 20.4336 83.2891 20.4746 83.0938 20.5566C82.8984 20.6348 82.7227 20.75 82.5664 20.9023C82.4102 21.0586 82.2773 21.25 82.168 21.4766C82.0625 21.6992 81.9883 21.957 81.9453 22.25H85.3555V22.1973C85.3555 22.002 85.3184 21.793 85.2441 21.5703C85.1699 21.3438 85.0664 21.1484 84.9336 20.9844C84.8008 20.8203 84.6328 20.6875 84.4297 20.5859C84.2305 20.4844 83.9922 20.4336 83.7148 20.4336ZM92.416 19.543C92.6152 19.543 92.8223 19.5566 93.0371 19.584C93.2559 19.6113 93.4199 19.6484 93.5293 19.6953L93.3828 20.7559C93.1719 20.709 92.9707 20.6758 92.7793 20.6562C92.5918 20.6328 92.3945 20.6211 92.1875 20.6211C91.9219 20.6211 91.6816 20.6543 91.4668 20.7207C91.252 20.7832 91.0645 20.877 90.9043 21.002C90.7598 21.1113 90.6328 21.2461 90.5234 21.4062C90.418 21.5625 90.3301 21.7383 90.2598 21.9336V26H89.1699V19.6602H90.2012L90.248 20.5098L90.2539 20.668C90.5117 20.3203 90.8203 20.0469 91.1797 19.8477C91.543 19.6445 91.9551 19.543 92.416 19.543ZM98.2695 26.1172C97.8242 26.1172 97.4141 26.041 97.0391 25.8887C96.668 25.7363 96.3496 25.5234 96.084 25.25C95.8184 24.9766 95.6113 24.6523 95.4629 24.2773C95.3145 23.9023 95.2402 23.4941 95.2402 23.0527V22.8066C95.2402 22.2949 95.3223 21.8379 95.4863 21.4355C95.6504 21.0293 95.8691 20.6855 96.1426 20.4043C96.4121 20.127 96.7188 19.9141 97.0625 19.7656C97.4102 19.6172 97.7656 19.543 98.1289 19.543C98.5859 19.543 98.9844 19.623 99.3242 19.7832C99.668 19.9395 99.9531 20.1562 100.18 20.4336C100.406 20.7148 100.574 21.0449 100.684 21.4238C100.797 21.8027 100.854 22.2129 100.854 22.6543V23.1406H96.3242V23.1816C96.3516 23.4902 96.4121 23.7617 96.5059 23.9961C96.6035 24.2305 96.7363 24.4375 96.9043 24.6172C97.0762 24.8086 97.2832 24.959 97.5254 25.0684C97.7676 25.1777 98.0352 25.2324 98.3281 25.2324C98.7148 25.2324 99.0586 25.1543 99.3594 24.998C99.6602 24.8418 99.9102 24.6348 100.109 24.377L100.771 24.8926C100.561 25.2129 100.244 25.498 99.8223 25.748C99.4043 25.9941 98.8867 26.1172 98.2695 26.1172ZM98.1289 20.4336C97.9102 20.4336 97.7031 20.4746 97.5078 20.5566C97.3125 20.6348 97.1367 20.75 96.9805 20.9023C96.8242 21.0586 96.6914 21.25 96.582 21.4766C96.4766 21.6992 96.4023 21.957 96.3594 22.25H99.7695V22.1973C99.7695 22.002 99.7324 21.793 99.6582 21.5703C99.584 21.3438 99.4805 21.1484 99.3477 20.9844C99.2148 20.8203 99.0469 20.6875 98.8438 20.5859C98.6445 20.4844 98.4062 20.4336 98.1289 20.4336ZM102.471 22.7773C102.471 22.3047 102.529 21.8711 102.646 21.4766C102.768 21.0781 102.939 20.7363 103.162 20.4512C103.381 20.166 103.646 19.9434 103.959 19.7832C104.271 19.623 104.621 19.543 105.008 19.543C105.387 19.543 105.717 19.6074 105.998 19.7363C106.283 19.8613 106.529 20.0449 106.736 20.2871V17H107.82V26H106.824L106.777 25.332C106.566 25.5898 106.314 25.7852 106.021 25.918C105.729 26.0508 105.387 26.1172 104.996 26.1172C104.613 26.1172 104.266 26.0352 103.953 25.8711C103.645 25.707 103.381 25.4805 103.162 25.1914C102.943 24.9023 102.773 24.5625 102.652 24.1719C102.531 23.7773 102.471 23.3535 102.471 22.9004V22.7773ZM103.555 22.9004C103.555 23.209 103.588 23.502 103.654 23.7793C103.721 24.0566 103.824 24.3008 103.965 24.5117C104.102 24.7227 104.277 24.8906 104.492 25.0156C104.707 25.1367 104.965 25.1973 105.266 25.1973C105.629 25.1973 105.93 25.1152 106.168 24.9512C106.406 24.7871 106.596 24.5664 106.736 24.2891V21.3477C106.596 21.0898 106.406 20.8789 106.168 20.7148C105.93 20.5469 105.633 20.4629 105.277 20.4629C104.973 20.4629 104.711 20.5254 104.492 20.6504C104.277 20.7754 104.102 20.9434 103.965 21.1543C103.824 21.3691 103.721 21.6172 103.654 21.8984C103.588 22.1758 103.555 22.4688 103.555 22.7773V22.9004Z" fill="#333333"/>
</g>
<path d="M7.18844 24.7494H7.1711C5.7052 24.7494 4.51561 25.9255 4.51561 27.3747C4.51561 28.8239 5.7052 30 7.1711 30H7.18844C8.64624 29.9909 9.82659 28.8182 9.82659 27.3747C9.82659 25.9312 8.64509 24.7585 7.18844 24.7494ZM20.0855 24.7494H20.0682C18.6023 24.7494 17.4127 25.9255 17.4127 27.3747C17.4127 28.8239 18.6023 30 20.0682 30H20.0855C21.5434 29.9909 22.7237 28.8182 22.7237 27.3747C22.7237 25.9312 21.5434 24.7585 20.0855 24.7494ZM24.9988 19.8485C24.9954 19.7959 24.9803 19.7456 24.9572 19.7011L22.5145 14.871C22.3214 14.4904 21.9272 14.2493 21.4971 14.2493H17.4139V13.1246C17.4139 12.5029 16.904 12 16.2763 12H4.13757C3.50867 12 3 12.504 3 13.1246V27.3758C3 27.5827 3.16994 27.7507 3.37919 27.7507H3.77919C3.76532 27.6273 3.75838 27.5027 3.75838 27.3758C3.75838 25.5129 5.28786 24.0008 7.17225 24.0008C9.05665 24.0008 10.5861 25.5129 10.5861 27.3758C10.5861 27.5027 10.5792 27.6273 10.5653 27.7507H16.6763C16.6624 27.6273 16.6555 27.5027 16.6555 27.3758C16.6555 25.5129 18.185 24.0008 20.0694 24.0008C21.9538 24.0008 23.4832 25.5129 23.4832 27.3758C23.4832 27.5027 23.4763 27.6273 23.4624 27.7507H23.8624C24.1642 27.7507 24.4543 27.6319 24.6671 27.4216C24.8809 27.2113 25 26.9244 25 26.6261V19.8736L24.9988 19.8485ZM6.79191 17.6244H10.9642C11.1734 17.6244 11.3434 17.7924 11.3434 17.9992C11.3434 18.2061 11.1734 18.3741 10.9642 18.3741H6.79191C6.58266 18.3741 6.41272 18.2061 6.41272 17.9992C6.41272 17.7924 6.5815 17.6244 6.79191 17.6244ZM15.3884 18.2793L11.9746 21.2794C11.8509 21.388 11.6694 21.4052 11.5283 21.3206C11.3861 21.2372 11.3156 21.0714 11.3538 20.9114L11.622 19.7994H5.65318C5.44393 19.7994 5.27399 19.6313 5.27399 19.4245C5.27399 19.2176 5.44393 19.0496 5.65318 19.0496H12.1017C12.2173 19.0496 12.3272 19.1022 12.4 19.1925C12.4717 19.2827 12.4983 19.4005 12.4717 19.5125L12.3711 19.9296L14.5665 18.0004L12.3711 16.07L12.4717 16.4871C12.4983 16.5991 12.4717 16.7169 12.4 16.8072C12.3283 16.8975 12.2185 16.95 12.1017 16.95H8.30867C8.09942 16.95 7.92948 16.782 7.92948 16.5751C7.92948 16.3683 8.09942 16.2003 8.30867 16.2003H11.622L11.3538 15.0871C11.3156 14.9282 11.3861 14.7625 11.5283 14.6779C11.6705 14.5945 11.8509 14.6105 11.9746 14.719L15.3884 17.7192C15.4694 17.7901 15.5156 17.8918 15.5156 17.9992C15.5156 18.1067 15.4694 18.2084 15.3884 18.2793Z" fill="black"/>
<defs>
<filter id="filter0_d_2644_2236" x="21.697" y="0.848522" width="109.606" height="52.6059" filterUnits="userSpaceOnUse" color-interpolation-filters="sRGB">
<feFlood flood-opacity="0" result="BackgroundImageFix"/>
<feColorMatrix in="SourceAlpha" type="matrix" values="0 0 0 0 0 0 0 0 0 0 0 0 0 0 0 0 0 0 127 0" result="hardAlpha"/>
<feOffset dy="6.15148"/>
<feGaussianBlur stdDeviation="6.15148"/>
<feColorMatrix type="matrix" values="0 0 0 0 0 0 0 0 0 0 0 0 0 0 0 0 0 0 0.05 0"/>
<feBlend mode="normal" in2="BackgroundImageFix" result="effect1_dropShadow_2644_2236"/>
<feBlend mode="normal" in="SourceGraphic" in2="effect1_dropShadow_2644_2236" result="shape"/>
</filter>
</defs>
</svg>
