<svg width="2000" height="2000" viewBox="0 0 2000 2000" fill="none" xmlns="http://www.w3.org/2000/svg">
<g clip-path="url(#clip0_3038_2030)">
<path d="M233.854 863.609C236 863.625 238.144 863.609 240.289 863.59C253.641 863.568 266.419 865.572 279 870.188C279.835 870.488 280.669 870.789 281.529 871.098C317.664 884.47 345.111 910.835 361.27 945.702C366.54 957.44 369.036 969.365 371 982C371.187 983.123 371.374 984.246 371.566 985.403C375.533 1018.31 365.906 1052.87 346.437 1079.56C342.19 1084.92 337.693 1090.03 333 1095C332.327 1095.74 331.654 1096.47 330.961 1097.23C307.902 1121.59 272.88 1135.51 239.644 1136.42C214.962 1136.58 191.574 1131 170 1119C168.619 1118.24 168.619 1118.24 167.211 1117.47C134.834 1098.92 112.932 1067.65 103.25 1032C97.2952 1005.75 98.3312 977.229 108 952C108.269 951.293 108.538 950.586 108.815 949.858C115.66 932.328 125.795 917.346 139 904C139.713 903.227 140.426 902.453 141.16 901.656C155.136 886.819 173.527 876.568 192.687 870.063C193.481 869.792 194.275 869.522 195.092 869.243C207.863 865.176 220.503 863.49 233.854 863.609Z" fill="#44515A"/>
<path d="M685 873C687.659 876.307 689.633 879.871 691.59 883.617C691.93 884.262 692.27 884.906 692.621 885.57C693.35 886.952 694.078 888.334 694.804 889.717C696.725 893.375 698.658 897.027 700.59 900.68C700.973 901.405 701.357 902.13 701.752 902.878C704.786 908.612 707.875 914.315 711 920C715.871 928.875 720.634 937.805 725.375 946.75C731.158 957.659 736.971 968.551 742.834 979.417C748.95 990.755 755.029 1002.11 761.109 1013.47C764.238 1019.31 767.369 1025.16 770.5 1031C777.398 1043.87 777.398 1043.87 780.838 1050.3C787.234 1062.25 793.637 1074.19 800.062 1086.12C800.626 1087.17 801.19 1088.22 801.77 1089.3C804.502 1094.37 807.237 1099.44 809.98 1104.51C811.296 1106.94 812.61 1109.37 813.924 1111.8C814.859 1113.53 815.797 1115.26 816.735 1116.99C817.574 1118.54 817.574 1118.54 818.43 1120.13C818.927 1121.05 819.425 1121.97 819.937 1122.91C821 1125 821 1125 821 1126C798.56 1126 776.12 1126 753 1126C749.04 1118.41 745.08 1110.82 741 1103C737.931 1097.63 737.931 1097.63 734.836 1092.27C732.897 1088.82 731.118 1085.3 729.375 1081.75C724.186 1071.19 718.513 1060.89 712.912 1050.54C710.968 1046.94 709.039 1043.34 707.113 1039.73C706.793 1039.13 706.472 1038.53 706.141 1037.91C705.822 1037.32 705.502 1036.72 705.173 1036.1C700.211 1026.81 695.233 1017.53 690.125 1008.31C689.509 1007.2 689.509 1007.2 688.88 1006.06C687.213 1002.84 687.213 1002.84 685 1000C684.292 1001.34 684.292 1001.34 683.57 1002.71C674.024 1020.78 664.429 1038.82 654.72 1056.81C651.7 1062.41 648.693 1068.02 645.688 1073.62C645.078 1074.76 644.468 1075.9 643.84 1077.07C640.345 1083.59 636.871 1090.13 633.414 1096.67C632.64 1098.14 631.865 1099.6 631.091 1101.06C629.602 1103.88 628.116 1106.7 626.634 1109.52C625.95 1110.81 625.266 1112.11 624.582 1113.4C623.986 1114.53 623.39 1115.66 622.777 1116.83C622.19 1117.87 621.604 1118.92 621 1120C620.467 1121.11 619.935 1122.22 619.386 1123.36C616.761 1126.26 616.321 1126.43 612.636 1126.8C610.839 1126.86 609.04 1126.88 607.242 1126.87C606.273 1126.89 605.304 1126.91 604.306 1126.93C601.203 1126.98 598.103 1127 595 1127C592.994 1127.02 590.988 1127.04 588.981 1127.06C583.029 1127.11 577.078 1127.09 571.125 1127.06C569.057 1127.06 566.99 1127.05 564.922 1127.05C559.948 1127.04 554.974 1127.02 550 1127C550.836 1123.35 552.22 1120.39 553.949 1117.05C554.551 1115.89 555.152 1114.73 555.771 1113.54C556.245 1112.63 556.245 1112.63 556.727 1111.71C557.672 1109.9 558.609 1108.09 559.545 1106.28C562.749 1100.13 566.078 1094.11 569.698 1088.19C571.527 1085.12 573.071 1081.97 574.625 1078.75C577.716 1072.45 580.991 1066.27 584.375 1060.12C589.687 1050.47 594.858 1040.75 600 1031C605.466 1020.64 610.969 1010.32 616.6 1000.05C622.181 989.868 627.646 979.625 633.12 969.386C635.307 965.295 637.498 961.205 639.691 957.117C646.019 945.322 652.324 933.514 658.594 921.688C667.244 905.374 676.016 889.132 685 873Z" fill="#45515A"/>
<path d="M1329 873C1337.58 873 1346.16 873 1355 873C1356.09 875.496 1357.18 877.991 1358.3 880.562C1366.26 898.749 1374.27 916.907 1382.44 935C1387.54 946.309 1392.63 957.623 1397.6 968.989C1402.34 979.802 1407.14 990.588 1411.94 1001.38C1412.38 1002.36 1412.82 1003.35 1413.27 1004.37C1415.42 1009.2 1417.57 1014.03 1419.72 1018.87C1422.56 1025.26 1425.41 1031.66 1428.25 1038.06C1429.18 1040.15 1430.1 1042.23 1431.03 1044.32C1435.79 1055.03 1435.79 1055.03 1436.74 1057.17C1437.4 1058.65 1438.05 1060.12 1438.71 1061.6C1440.4 1065.39 1442.08 1069.18 1443.76 1072.97C1446.97 1080.19 1450.18 1087.4 1453.4 1094.61C1454.89 1097.94 1456.38 1101.27 1457.86 1104.6C1458.57 1106.19 1459.29 1107.78 1460 1109.37C1460.99 1111.58 1461.98 1113.79 1462.96 1116C1463.26 1116.65 1463.55 1117.3 1463.86 1117.98C1465.2 1121 1466.19 1123.77 1467 1127C1460.07 1127 1453.14 1127 1446 1127C1440.46 1115.27 1435.19 1103.45 1430 1091.56C1429.22 1089.79 1428.45 1088.02 1427.67 1086.25C1426.16 1082.8 1424.66 1079.36 1423.15 1075.91C1421.74 1072.68 1420.31 1069.45 1418.88 1066.22C1418.39 1065.11 1418.39 1065.11 1417.88 1063.97C1417.27 1062.59 1416.65 1061.2 1416.03 1059.82C1414 1055.22 1414 1055.22 1414 1053C1366.15 1053 1318.3 1053 1269 1053C1268.67 1054.65 1268.34 1056.3 1268 1058C1267.52 1059.29 1266.99 1060.56 1266.42 1061.81C1266.1 1062.53 1265.78 1063.24 1265.45 1063.98C1265.1 1064.74 1264.75 1065.5 1264.39 1066.29C1263.84 1067.5 1263.84 1067.5 1263.28 1068.74C1262.09 1071.37 1260.89 1074 1259.69 1076.62C1258.46 1079.34 1257.23 1082.05 1256 1084.77C1255.18 1086.58 1254.35 1088.39 1253.53 1090.2C1249.45 1099.2 1245.44 1108.22 1241.44 1117.25C1241 1118.26 1240.55 1119.27 1240.09 1120.3C1239.71 1121.17 1239.32 1122.04 1238.93 1122.93C1238.31 1124.3 1237.67 1125.66 1237 1127C1230.4 1127 1223.8 1127 1217 1127C1220.38 1116.87 1220.38 1116.87 1221.97 1113.31C1222.33 1112.5 1222.69 1111.69 1223.06 1110.86C1223.44 1110.01 1223.82 1109.17 1224.21 1108.3C1224.62 1107.39 1225.02 1106.48 1225.44 1105.55C1226.75 1102.61 1228.06 1099.68 1229.38 1096.75C1230.28 1094.72 1231.19 1092.69 1232.1 1090.65C1236.03 1081.85 1239.97 1073.05 1243.93 1064.26C1245.04 1061.8 1246.14 1059.34 1247.25 1056.88C1247.77 1055.73 1248.28 1054.58 1248.82 1053.4C1252.1 1046.08 1255.26 1038.72 1258.34 1031.31C1260.46 1026.23 1262.72 1021.23 1265.08 1016.25C1272.41 1000.73 1279.2 984.946 1285.92 969.15C1288.54 963.009 1291.33 956.972 1294.19 950.938C1296.41 946.176 1298.45 941.336 1300.5 936.5C1302.99 930.638 1305.51 924.814 1308.25 919.062C1312.54 910.02 1316.44 900.806 1320.38 891.608C1320.66 890.971 1320.93 890.333 1321.21 889.677C1321.96 887.927 1322.71 886.175 1323.46 884.424C1325.2 880.563 1327.11 876.785 1329 873Z" fill="#46525B"/>
<path d="M403 873C422.8 873 442.6 873 463 873C463.027 892.208 463.051 911.417 463.062 930.625C463.063 931.686 463.063 931.686 463.064 932.768C463.091 977.523 462.821 1022.25 462 1067C490.71 1067 519.42 1067 549 1067C547.681 1070.96 546.693 1073.85 544.742 1077.34C544.289 1078.16 543.835 1078.98 543.368 1079.83C542.876 1080.71 542.383 1081.59 541.875 1082.5C538.095 1089.33 534.351 1096.19 530.684 1103.08C530.321 1103.76 529.957 1104.45 529.583 1105.15C528.13 1107.89 526.679 1110.62 525.23 1113.36C524.213 1115.28 523.195 1117.2 522.176 1119.11C521.587 1120.22 520.998 1121.34 520.392 1122.48C519 1125 519 1125 518 1126C480.05 1126 442.1 1126 403 1126C403 1042.51 403 959.02 403 873Z" fill="#44515A"/>
<path d="M918 873C925.26 873 932.52 873 940 873C945.558 883.883 950.691 894.859 955.552 906.069C957.517 910.599 959.496 915.123 961.473 919.648C962.06 920.993 962.06 920.993 962.658 922.365C965.935 929.869 969.264 937.347 972.625 944.812C977.447 955.529 982.233 966.26 987 977C991.878 987.987 996.768 998.969 1001.69 1009.94C1002.47 1011.68 1002.47 1011.68 1003.27 1013.46C1005.69 1018.86 1008.12 1024.26 1010.55 1029.66C1011.97 1032.82 1013.39 1035.97 1014.81 1039.12C1015.09 1039.74 1015.36 1040.35 1015.64 1040.97C1019.32 1049.16 1022.88 1057.37 1026.32 1065.66C1028.82 1071.65 1031.54 1077.53 1034.32 1083.4C1037.03 1089.2 1039.52 1095.1 1042 1101C1042.24 1100.44 1042.47 1099.88 1042.72 1099.31C1046.75 1089.8 1050.8 1080.31 1055.22 1070.97C1059.41 1062.07 1063.3 1053.03 1067.24 1044.01C1069.23 1039.47 1071.22 1034.93 1073.22 1030.39C1080.16 1014.6 1087.09 998.805 1094 983C1099.22 971.059 1104.45 959.122 1109.69 947.188C1110.06 946.339 1110.43 945.491 1110.82 944.618C1115.27 934.464 1119.74 924.318 1124.23 914.18C1124.66 913.204 1125.09 912.229 1125.54 911.224C1127.63 906.51 1129.72 901.796 1131.81 897.085C1132.57 895.37 1133.33 893.656 1134.09 891.941C1134.42 891.183 1134.76 890.424 1135.11 889.642C1137.55 884.137 1139.76 878.6 1142 873C1149.26 873 1156.52 873 1164 873C1165.57 894.003 1166.34 915.011 1166.94 936.062C1167.1 941.845 1167.27 947.628 1167.43 953.41C1167.46 954.155 1167.48 954.9 1167.5 955.668C1168.02 973.604 1168.71 991.533 1169.4 1009.46C1170.4 1035.4 1171.34 1061.33 1172.12 1087.28C1172.19 1089.42 1172.25 1091.55 1172.32 1093.69C1172.44 1097.63 1172.55 1101.56 1172.67 1105.5C1172.7 1106.64 1172.74 1107.78 1172.77 1108.96C1172.8 1110.03 1172.83 1111.09 1172.86 1112.19C1172.89 1113.1 1172.92 1114.01 1172.94 1114.95C1173.02 1118.97 1173 1122.98 1173 1127C1166.73 1127 1160.46 1127 1154 1127C1152.88 1113.5 1152.5 1099.99 1152.07 1086.46C1151.98 1083.84 1151.89 1081.23 1151.81 1078.61C1151.63 1073.15 1151.45 1067.69 1151.27 1062.22C1150.89 1050.47 1150.49 1038.73 1150.09 1026.98C1149.92 1021.89 1149.75 1016.8 1149.58 1011.71C1149.49 1009.17 1149.41 1006.63 1149.32 1004.09C1149.11 997.648 1148.89 991.203 1148.67 984.758C1148.46 978.323 1148.24 971.888 1148.03 965.453C1147.95 963.058 1147.86 960.664 1147.79 958.27C1147.31 943.84 1146.73 929.42 1146 915C1145.73 915.597 1145.46 916.194 1145.19 916.809C1144.83 917.594 1144.48 918.379 1144.12 919.188C1143.77 919.966 1143.42 920.743 1143.06 921.544C1142.28 923.275 1141.5 925.007 1140.72 926.738C1138.77 931.056 1136.83 935.373 1134.89 939.691C1134.2 941.232 1133.51 942.772 1132.81 944.312C1132.45 945.119 1132.09 945.926 1131.71 946.757C1129.44 951.803 1127.17 956.846 1124.88 961.887C1117.11 979.046 1109.43 996.239 1101.79 1013.46C1101.48 1014.16 1101.17 1014.85 1100.85 1015.58C1099.23 1019.23 1097.61 1022.89 1095.99 1026.55C1092.64 1034.13 1089.24 1041.68 1085.72 1049.18C1081.68 1057.79 1077.79 1066.46 1073.88 1075.12C1073.04 1076.97 1072.2 1078.82 1071.37 1080.67C1064.55 1095.77 1057.76 1110.88 1051 1126C1044.4 1126 1037.8 1126 1031 1126C1021.26 1104.33 1011.6 1082.62 1001.95 1060.9C998.903 1054.03 995.851 1047.17 992.797 1040.3C984.957 1022.67 977.124 1005.04 969.348 987.389C965.869 979.491 962.38 971.596 958.871 963.711C958.521 962.925 958.172 962.139 957.811 961.329C956.144 957.582 954.475 953.835 952.804 950.09C947.458 938.094 942.223 926.05 937 914C936.559 925.5 936.122 937 935.688 948.5C935.654 949.381 935.621 950.263 935.586 951.171C934.752 973.232 933.944 995.294 933.203 1017.36C933.171 1018.31 933.139 1019.27 933.106 1020.25C932.914 1025.98 932.723 1031.7 932.532 1037.42C931.546 1066.96 930.501 1096.48 929 1126C922.73 1126 916.46 1126 910 1126C909.823 1109.22 910.437 1092.5 911.111 1075.73C911.466 1066.89 911.804 1058.04 912.141 1049.19C912.176 1048.26 912.212 1047.33 912.248 1046.37C913.125 1023.29 913.848 1000.21 914.563 977.125C914.625 975.098 914.688 973.07 914.751 971.043C914.782 970.045 914.813 969.047 914.845 968.019C914.968 964.051 915.091 960.082 915.214 956.113C915.274 954.173 915.334 952.233 915.395 950.292C915.955 932.214 916.557 914.138 917.188 896.062C917.23 894.836 917.273 893.61 917.317 892.347C917.543 885.898 917.771 879.449 918 873Z" fill="#46525B"/>
<path d="M280.563 941.312C292.274 950.811 301.429 962.431 306 977C306.296 977.885 306.593 978.771 306.898 979.683C312.192 997.578 309.191 1017.5 301 1034C291.32 1051.67 276.482 1063.49 257.484 1069.99C237.305 1075.83 217.708 1073.78 199.191 1063.92C194.391 1061.03 190.162 1057.74 186 1054C185.389 1053.48 184.778 1052.96 184.148 1052.43C174.692 1043.84 168.95 1031.93 165 1020C164.658 1019.08 164.315 1018.15 163.962 1017.2C159.139 1001.16 162.364 981.464 169.609 966.726C180.491 946.909 196.376 934.665 217.625 927.91C239.46 922.022 262.711 927.901 280.563 941.312Z" fill="#F3F7FB"/>
<path d="M1513 870C1644.96 870 1644.96 870 1669.45 894.395C1670.29 895.254 1671.13 896.114 1672 897C1672.59 897.561 1673.19 898.121 1673.8 898.699C1681.46 906.55 1686.75 919.415 1689 930C1689.2 930.91 1689.4 931.82 1689.61 932.758C1694.15 956.908 1691.16 983.856 1678.18 1004.95C1665.74 1022.95 1647.14 1032.04 1626.12 1036.12C1625.3 1036.29 1624.48 1036.46 1623.64 1036.64C1611.78 1038.99 1600 1039.14 1587.96 1039.1C1586.52 1039.1 1585.08 1039.1 1583.64 1039.09C1578.37 1039.09 1573.09 1039.08 1567.81 1039.06C1555.99 1039.04 1544.18 1039.02 1532 1039C1532 1067.05 1532 1095.1 1532 1124C1525.73 1124 1519.46 1124 1513 1124C1513 1040.18 1513 956.36 1513 870ZM1532 888C1532 931.89 1532 975.78 1532 1021C1550.47 1021.12 1550.47 1021.12 1569.31 1021.25C1575.08 1021.3 1575.08 1021.3 1580.97 1021.36C1584.5 1021.37 1584.5 1021.37 1588.04 1021.38C1589.58 1021.39 1591.12 1021.4 1592.66 1021.42C1613.37 1021.69 1635.42 1018.2 1652 1005C1652.57 1004.59 1653.14 1004.18 1653.73 1003.76C1658.33 1000.32 1661.12 995.858 1664 991C1664.46 990.237 1664.91 989.474 1665.38 988.688C1674.11 972.808 1674.65 951.039 1670.38 933.688C1665.4 918.3 1657.25 906.144 1643 898C1639.07 896.113 1635.09 894.509 1631 893C1630.24 892.702 1629.48 892.404 1628.7 892.098C1616.49 887.604 1603.7 887.72 1590.89 887.805C1589.37 887.808 1587.86 887.81 1586.34 887.811C1580.79 887.821 1575.24 887.849 1569.69 887.875C1557.25 887.916 1544.81 887.957 1532 888Z" fill="#47535C"/>
<path d="M1810.38 867.686C1811.5 867.69 1812.62 867.694 1813.77 867.698C1830.29 867.918 1846.12 870.596 1862 874.998C1862.89 875.21 1863.77 875.421 1864.69 875.639C1871.27 877.243 1877.55 879.61 1883.88 881.998C1884.79 882.343 1885.71 882.687 1886.65 883.042C1891.01 884.717 1895.1 886.384 1899 888.998C1898.21 891.126 1897.42 893.25 1896.62 895.373C1896.18 896.557 1895.74 897.74 1895.29 898.959C1894 901.998 1894 901.998 1892 903.998C1891.47 903.757 1890.94 903.516 1890.39 903.267C1875.26 896.485 1860.23 892.276 1844 888.998C1843.14 888.811 1842.28 888.624 1841.4 888.431C1817.12 883.231 1791.49 883.704 1770 896.998C1762.79 902.177 1756.68 910.493 1754.44 919.182C1752.59 931.066 1753.34 943.716 1760 953.998C1775.32 973.91 1806.13 980.357 1828.81 988.157C1866.97 1001.29 1866.97 1001.29 1883 1013C1883.92 1013.66 1884.84 1014.32 1885.78 1015.01C1897.54 1024.02 1905.87 1035.51 1908.61 1050.26C1910.77 1070.8 1908.39 1089.93 1895.31 1106.75C1881.38 1121.53 1860.82 1129.43 1840.73 1130.11C1836.84 1130.17 1832.95 1130.19 1829.06 1130.19C1828.02 1130.18 1828.02 1130.18 1826.96 1130.18C1786.88 1130.04 1751.8 1116.67 1721 1091C1723.64 1086.38 1726.28 1081.76 1729 1077C1733.1 1078.02 1734.33 1078.89 1737.44 1081.56C1752.94 1094.27 1771.97 1103.51 1791.44 1108.19C1792.08 1108.34 1792.72 1108.5 1793.39 1108.66C1818.92 1114.42 1848.42 1116.08 1871.74 1102.53C1880.3 1096.75 1886.2 1088.65 1888.57 1078.49C1889.17 1073.61 1889.32 1068.78 1889.38 1063.87C1889.39 1062.94 1889.4 1062.01 1889.42 1061.05C1889.34 1049.28 1885.22 1040.36 1876.99 1031.94C1862.64 1019.5 1843.62 1013.17 1826 1007C1825.02 1006.66 1824.05 1006.31 1823.04 1005.96C1818.25 1004.28 1813.46 1002.62 1808.66 1000.96C1806.78 1000.31 1804.89 999.652 1803 998.998C1802.06 998.675 1801.13 998.352 1800.16 998.019C1749.78 980.528 1749.78 980.528 1739.19 958.686C1738.42 956.804 1737.69 954.908 1737 952.998C1736.68 952.142 1736.36 951.286 1736.03 950.404C1730.96 934.059 1732.76 915.94 1740.61 900.92C1746.77 890.577 1754.66 883.964 1765 877.998C1765.67 877.608 1766.34 877.217 1767.02 876.815C1780.24 869.651 1795.56 867.609 1810.38 867.686Z" fill="#47535C"/>
<path d="M1340 888C1340.66 888 1341.32 888 1342 888C1342.41 889.065 1342.41 889.065 1342.83 890.151C1350.54 909.986 1358.98 929.427 1367.75 948.812C1371.5 957.088 1375.19 965.385 1378.88 973.688C1379.52 975.135 1380.16 976.583 1380.8 978.031C1382.49 981.837 1384.18 985.644 1385.87 989.451C1387.1 992.215 1388.32 994.978 1389.55 997.742C1391.77 1002.74 1393.98 1007.74 1396.2 1012.75C1397.06 1014.7 1397.93 1016.65 1398.8 1018.61C1400 1021.33 1401.2 1024.04 1402.41 1026.76C1402.77 1027.58 1403.14 1028.4 1403.51 1029.25C1406 1034.89 1406 1034.89 1406 1036C1363.43 1036 1320.86 1036 1277 1036C1278.89 1030.33 1280.65 1025.27 1283.12 1019.92C1283.41 1019.28 1283.7 1018.64 1284.01 1017.98C1284.63 1016.61 1285.26 1015.25 1285.89 1013.88C1287.25 1010.95 1288.59 1008.01 1289.93 1005.07C1290.63 1003.56 1291.32 1002.05 1292.01 1000.54C1295.17 993.648 1298.28 986.734 1301.38 979.812C1301.89 978.664 1302.4 977.515 1302.93 976.332C1303.74 974.527 1304.55 972.721 1305.35 970.916C1307.29 966.576 1309.24 962.239 1311.19 957.903C1312.69 954.553 1314.2 951.201 1315.7 947.849C1316.43 946.237 1317.15 944.625 1317.88 943.013C1328.2 920.22 1328.2 920.22 1337 896.812C1337.3 895.944 1337.6 895.076 1337.9 894.182C1338.61 892.123 1339.3 890.062 1340 888Z" fill="#F3F7FA"/>
<path d="M1294 952C1295.07 956.294 1294.8 957.195 1293 961C1292.01 961 1291.02 961 1290 961C1291.32 958.03 1292.64 955.06 1294 952Z" fill="#566067"/>
<path d="M668 904C669.056 907.168 669.131 907.985 668 911C666.438 912.75 666.438 912.75 665 914C664.67 913.34 664.34 912.68 664 912C664.777 910.055 664.777 910.055 665.938 907.875C666.508 906.788 666.508 906.788 667.09 905.68C667.39 905.125 667.691 904.571 668 904Z" fill="#565F67"/>
<path d="M653 1059C654.231 1061.46 654.072 1063.28 654 1066C652.35 1066.33 650.7 1066.66 649 1067C650.125 1064.03 651.223 1061.67 653 1059Z" fill="#E8EEF2"/>
</g>
<defs>
<clipPath id="clip0_3038_2030">
<rect width="2000" height="2000" fill="white"/>
</clipPath>
</defs>
</svg>
