<svg width="125" height="54" viewBox="0 0 125 54" fill="none" xmlns="http://www.w3.org/2000/svg">
<g filter="url(#filter0_d_2644_2232)">
<rect x="34" y="7" width="78" height="28" rx="4" fill="white"/>
<path d="M49.0918 23.791H46.2441L45.5586 26H44.4746L47.2285 17.4688H48.1367L50.8438 26H49.7656L49.0918 23.791ZM46.5371 22.8477H48.8047L47.6797 19.1445L46.5371 22.8477ZM54.9277 25.2383C55.123 25.2383 55.3125 25.207 55.4961 25.1445C55.6836 25.082 55.8496 24.9941 55.9941 24.8809C56.1387 24.7715 56.2539 24.6426 56.3398 24.4941C56.4297 24.3418 56.4766 24.1777 56.4805 24.002H57.5059C57.502 24.2832 57.4277 24.5527 57.2832 24.8105C57.1426 25.0645 56.9531 25.2871 56.7148 25.4785C56.4766 25.6738 56.2031 25.8301 55.8945 25.9473C55.5859 26.0605 55.2637 26.1172 54.9277 26.1172C54.4473 26.1172 54.0273 26.0312 53.668 25.8594C53.3086 25.6875 53.0098 25.4551 52.7715 25.1621C52.5293 24.873 52.3477 24.5391 52.2266 24.1602C52.1055 23.7773 52.0449 23.375 52.0449 22.9531V22.707C52.0449 22.2891 52.1055 21.8887 52.2266 21.5059C52.3477 21.123 52.5293 20.7852 52.7715 20.4922C53.0098 20.2031 53.3086 19.9727 53.668 19.8008C54.0273 19.6289 54.4473 19.543 54.9277 19.543C55.3027 19.543 55.6465 19.6035 55.959 19.7246C56.2754 19.8418 56.5488 20.002 56.7793 20.2051C57.0059 20.4121 57.1836 20.6562 57.3125 20.9375C57.4414 21.2188 57.5059 21.5195 57.5059 21.8398H56.4805C56.4766 21.6484 56.4336 21.4688 56.3516 21.3008C56.2734 21.1289 56.166 20.9785 56.0293 20.8496C55.8926 20.7207 55.7285 20.6191 55.5371 20.5449C55.3496 20.4707 55.1465 20.4336 54.9277 20.4336C54.5918 20.4336 54.3086 20.502 54.0781 20.6387C53.8516 20.7715 53.668 20.9453 53.5273 21.1602C53.3867 21.3789 53.2852 21.623 53.2227 21.8926C53.1641 22.1621 53.1348 22.4336 53.1348 22.707V22.9531C53.1348 23.2305 53.1641 23.5059 53.2227 23.7793C53.2852 24.0488 53.3867 24.291 53.5273 24.5059C53.6641 24.7246 53.8457 24.9023 54.0723 25.0391C54.3027 25.1719 54.5879 25.2383 54.9277 25.2383ZM62.1348 25.2383C62.3301 25.2383 62.5195 25.207 62.7031 25.1445C62.8906 25.082 63.0566 24.9941 63.2012 24.8809C63.3457 24.7715 63.4609 24.6426 63.5469 24.4941C63.6367 24.3418 63.6836 24.1777 63.6875 24.002H64.7129C64.709 24.2832 64.6348 24.5527 64.4902 24.8105C64.3496 25.0645 64.1602 25.2871 63.9219 25.4785C63.6836 25.6738 63.4102 25.8301 63.1016 25.9473C62.793 26.0605 62.4707 26.1172 62.1348 26.1172C61.6543 26.1172 61.2344 26.0312 60.875 25.8594C60.5156 25.6875 60.2168 25.4551 59.9785 25.1621C59.7363 24.873 59.5547 24.5391 59.4336 24.1602C59.3125 23.7773 59.252 23.375 59.252 22.9531V22.707C59.252 22.2891 59.3125 21.8887 59.4336 21.5059C59.5547 21.123 59.7363 20.7852 59.9785 20.4922C60.2168 20.2031 60.5156 19.9727 60.875 19.8008C61.2344 19.6289 61.6543 19.543 62.1348 19.543C62.5098 19.543 62.8535 19.6035 63.166 19.7246C63.4824 19.8418 63.7559 20.002 63.9863 20.2051C64.2129 20.4121 64.3906 20.6562 64.5195 20.9375C64.6484 21.2188 64.7129 21.5195 64.7129 21.8398H63.6875C63.6836 21.6484 63.6406 21.4688 63.5586 21.3008C63.4805 21.1289 63.373 20.9785 63.2363 20.8496C63.0996 20.7207 62.9355 20.6191 62.7441 20.5449C62.5566 20.4707 62.3535 20.4336 62.1348 20.4336C61.7988 20.4336 61.5156 20.502 61.2852 20.6387C61.0586 20.7715 60.875 20.9453 60.7344 21.1602C60.5938 21.3789 60.4922 21.623 60.4297 21.8926C60.3711 22.1621 60.3418 22.4336 60.3418 22.707V22.9531C60.3418 23.2305 60.3711 23.5059 60.4297 23.7793C60.4922 24.0488 60.5938 24.291 60.7344 24.5059C60.8711 24.7246 61.0527 24.9023 61.2793 25.0391C61.5098 25.1719 61.7949 25.2383 62.1348 25.2383ZM69.4414 26.1172C68.9961 26.1172 68.5859 26.041 68.2109 25.8887C67.8398 25.7363 67.5215 25.5234 67.2559 25.25C66.9902 24.9766 66.7832 24.6523 66.6348 24.2773C66.4863 23.9023 66.4121 23.4941 66.4121 23.0527V22.8066C66.4121 22.2949 66.4941 21.8379 66.6582 21.4355C66.8223 21.0293 67.041 20.6855 67.3145 20.4043C67.584 20.127 67.8906 19.9141 68.2344 19.7656C68.582 19.6172 68.9375 19.543 69.3008 19.543C69.7578 19.543 70.1562 19.623 70.4961 19.7832C70.8398 19.9395 71.125 20.1562 71.3516 20.4336C71.5781 20.7148 71.7461 21.0449 71.8555 21.4238C71.9688 21.8027 72.0254 22.2129 72.0254 22.6543V23.1406H67.4961V23.1816C67.5234 23.4902 67.584 23.7617 67.6777 23.9961C67.7754 24.2305 67.9082 24.4375 68.0762 24.6172C68.248 24.8086 68.4551 24.959 68.6973 25.0684C68.9395 25.1777 69.207 25.2324 69.5 25.2324C69.8867 25.2324 70.2305 25.1543 70.5312 24.998C70.832 24.8418 71.082 24.6348 71.2812 24.377L71.9434 24.8926C71.7324 25.2129 71.416 25.498 70.9941 25.748C70.5762 25.9941 70.0586 26.1172 69.4414 26.1172ZM69.3008 20.4336C69.082 20.4336 68.875 20.4746 68.6797 20.5566C68.4844 20.6348 68.3086 20.75 68.1523 20.9023C67.9961 21.0586 67.8633 21.25 67.7539 21.4766C67.6484 21.6992 67.5742 21.957 67.5312 22.25H70.9414V22.1973C70.9414 22.002 70.9043 21.793 70.8301 21.5703C70.7559 21.3438 70.6523 21.1484 70.5195 20.9844C70.3867 20.8203 70.2188 20.6875 70.0156 20.5859C69.8164 20.4844 69.5781 20.4336 69.3008 20.4336ZM73.8418 28.4375V19.6602H74.832L74.8848 20.3516C74.9707 20.2422 75.0645 20.1445 75.166 20.0586C75.2676 19.9688 75.377 19.8926 75.4941 19.8301C75.6582 19.7363 75.8398 19.666 76.0391 19.6191C76.2422 19.5684 76.459 19.543 76.6895 19.543C77.0957 19.543 77.4551 19.623 77.7676 19.7832C78.0801 19.9434 78.3418 20.166 78.5527 20.4512C78.7637 20.7363 78.9238 21.0781 79.0332 21.4766C79.1426 21.8711 79.1973 22.3047 79.1973 22.7773V22.9004C79.1973 23.3535 79.1426 23.7773 79.0332 24.1719C78.9238 24.5625 78.7637 24.9023 78.5527 25.1914C78.3418 25.4805 78.0801 25.707 77.7676 25.8711C77.459 26.0352 77.1055 26.1172 76.707 26.1172C76.4648 26.1172 76.2383 26.0918 76.0273 26.041C75.8203 25.9902 75.6328 25.918 75.4648 25.8242C75.3633 25.7656 75.2676 25.7012 75.1777 25.6309C75.0879 25.5566 75.0039 25.4766 74.9258 25.3906V28.4375H73.8418ZM78.1133 22.7773C78.1133 22.4688 78.0781 22.1758 78.0078 21.8984C77.9414 21.6172 77.8379 21.3691 77.6973 21.1543C77.5527 20.9434 77.3711 20.7754 77.1523 20.6504C76.9336 20.5254 76.6719 20.4629 76.3672 20.4629C76.1992 20.4629 76.043 20.4824 75.8984 20.5215C75.7578 20.5605 75.6309 20.6172 75.5176 20.6914C75.3926 20.7656 75.2812 20.8574 75.1836 20.9668C75.0859 21.0762 75 21.1973 74.9258 21.3301V24.3828C74.9922 24.5 75.0684 24.6094 75.1543 24.7109C75.2402 24.8125 75.3379 24.8984 75.4473 24.9688C75.5723 25.0508 75.7109 25.1152 75.8633 25.1621C76.0195 25.209 76.1914 25.2324 76.3789 25.2324C76.6797 25.2324 76.9395 25.1699 77.1582 25.0449C77.377 24.916 77.5566 24.7441 77.6973 24.5293C77.8379 24.3145 77.9414 24.0664 78.0078 23.7852C78.0781 23.5039 78.1133 23.209 78.1133 22.9004V22.7773ZM83.6211 18.125V19.6602H86.0352V20.498H83.6211V23.9434C83.6211 24.1895 83.6523 24.3926 83.7148 24.5527C83.7773 24.7129 83.8633 24.8398 83.9727 24.9336C84.082 25.0312 84.207 25.0996 84.3477 25.1387C84.4922 25.1777 84.6445 25.1973 84.8047 25.1973C84.9219 25.1973 85.043 25.1914 85.168 25.1797C85.293 25.1641 85.416 25.1465 85.5371 25.127C85.6543 25.1074 85.7637 25.0879 85.8652 25.0684C85.9707 25.0449 86.0566 25.0254 86.123 25.0098L86.2754 25.7773C86.1855 25.832 86.0762 25.8809 85.9473 25.9238C85.8184 25.9629 85.6777 25.9961 85.5254 26.0234C85.373 26.0547 85.2109 26.0781 85.0391 26.0938C84.8711 26.1094 84.7031 26.1172 84.5352 26.1172C84.2539 26.1172 83.9902 26.0781 83.7441 26C83.502 25.918 83.291 25.7891 83.1113 25.6133C82.9316 25.4414 82.7891 25.2188 82.6836 24.9453C82.582 24.668 82.5312 24.334 82.5312 23.9434V20.498H80.8672V19.6602H82.5312V18.125H83.6211ZM91.0625 26.1172C90.6172 26.1172 90.207 26.041 89.832 25.8887C89.4609 25.7363 89.1426 25.5234 88.877 25.25C88.6113 24.9766 88.4043 24.6523 88.2559 24.2773C88.1074 23.9023 88.0332 23.4941 88.0332 23.0527V22.8066C88.0332 22.2949 88.1152 21.8379 88.2793 21.4355C88.4434 21.0293 88.6621 20.6855 88.9355 20.4043C89.2051 20.127 89.5117 19.9141 89.8555 19.7656C90.2031 19.6172 90.5586 19.543 90.9219 19.543C91.3789 19.543 91.7773 19.623 92.1172 19.7832C92.4609 19.9395 92.7461 20.1562 92.9727 20.4336C93.1992 20.7148 93.3672 21.0449 93.4766 21.4238C93.5898 21.8027 93.6465 22.2129 93.6465 22.6543V23.1406H89.1172V23.1816C89.1445 23.4902 89.2051 23.7617 89.2988 23.9961C89.3965 24.2305 89.5293 24.4375 89.6973 24.6172C89.8691 24.8086 90.0762 24.959 90.3184 25.0684C90.5605 25.1777 90.8281 25.2324 91.1211 25.2324C91.5078 25.2324 91.8516 25.1543 92.1523 24.998C92.4531 24.8418 92.7031 24.6348 92.9023 24.377L93.5645 24.8926C93.3535 25.2129 93.0371 25.498 92.6152 25.748C92.1973 25.9941 91.6797 26.1172 91.0625 26.1172ZM90.9219 20.4336C90.7031 20.4336 90.4961 20.4746 90.3008 20.5566C90.1055 20.6348 89.9297 20.75 89.7734 20.9023C89.6172 21.0586 89.4844 21.25 89.375 21.4766C89.2695 21.6992 89.1953 21.957 89.1523 22.25H92.5625V22.1973C92.5625 22.002 92.5254 21.793 92.4512 21.5703C92.377 21.3438 92.2734 21.1484 92.1406 20.9844C92.0078 20.8203 91.8398 20.6875 91.6367 20.5859C91.4375 20.4844 91.1992 20.4336 90.9219 20.4336ZM95.2637 22.7773C95.2637 22.3047 95.3223 21.8711 95.4395 21.4766C95.5605 21.0781 95.7324 20.7363 95.9551 20.4512C96.1738 20.166 96.4395 19.9434 96.752 19.7832C97.0645 19.623 97.4141 19.543 97.8008 19.543C98.1797 19.543 98.5098 19.6074 98.791 19.7363C99.0762 19.8613 99.3223 20.0449 99.5293 20.2871V17H100.613V26H99.6172L99.5703 25.332C99.3594 25.5898 99.1074 25.7852 98.8145 25.918C98.5215 26.0508 98.1797 26.1172 97.7891 26.1172C97.4062 26.1172 97.0586 26.0352 96.7461 25.8711C96.4375 25.707 96.1738 25.4805 95.9551 25.1914C95.7363 24.9023 95.5664 24.5625 95.4453 24.1719C95.3242 23.7773 95.2637 23.3535 95.2637 22.9004V22.7773ZM96.3477 22.9004C96.3477 23.209 96.3809 23.502 96.4473 23.7793C96.5137 24.0566 96.6172 24.3008 96.7578 24.5117C96.8945 24.7227 97.0703 24.8906 97.2852 25.0156C97.5 25.1367 97.7578 25.1973 98.0586 25.1973C98.4219 25.1973 98.7227 25.1152 98.9609 24.9512C99.1992 24.7871 99.3887 24.5664 99.5293 24.2891V21.3477C99.3887 21.0898 99.1992 20.8789 98.9609 20.7148C98.7227 20.5469 98.4258 20.4629 98.0703 20.4629C97.7656 20.4629 97.5039 20.5254 97.2852 20.6504C97.0703 20.7754 96.8945 20.9434 96.7578 21.1543C96.6172 21.3691 96.5137 21.6172 96.4473 21.8984C96.3809 22.1758 96.3477 22.4688 96.3477 22.7773V22.9004Z" fill="#333333"/>
</g>
<path d="M14.001 33C20.6284 33 26.001 27.6274 26.001 21C26.001 14.3726 20.6284 9 14.001 9C7.37356 9 2.00098 14.3726 2.00098 21C2.00098 27.6274 7.37356 33 14.001 33Z" fill="#333333"/>
<path fill-rule="evenodd" clip-rule="evenodd" d="M10.2524 26.8513L5.86362 22.154C5.26277 21.5109 5.29725 20.4935 5.94034 19.8926C6.58343 19.2918 7.60088 19.3263 8.20173 19.9693L11.587 23.5926L16.9456 18.5859C16.9938 18.5409 17.0441 18.4996 17.0962 18.4616L19.6161 16.1072C20.2592 15.5064 21.2767 15.541 21.8775 16.184C22.4783 16.827 22.4437 17.8446 21.8007 18.4454L14.1043 25.6365L14.0961 25.6277L11.4338 28.1152L10.2524 26.8513Z" fill="white"/>
<defs>
<filter id="filter0_d_2644_2232" x="21.697" y="0.848522" width="102.606" height="52.6059" filterUnits="userSpaceOnUse" color-interpolation-filters="sRGB">
<feFlood flood-opacity="0" result="BackgroundImageFix"/>
<feColorMatrix in="SourceAlpha" type="matrix" values="0 0 0 0 0 0 0 0 0 0 0 0 0 0 0 0 0 0 127 0" result="hardAlpha"/>
<feOffset dy="6.15148"/>
<feGaussianBlur stdDeviation="6.15148"/>
<feColorMatrix type="matrix" values="0 0 0 0 0 0 0 0 0 0 0 0 0 0 0 0 0 0 0.05 0"/>
<feBlend mode="normal" in2="BackgroundImageFix" result="effect1_dropShadow_2644_2232"/>
<feBlend mode="normal" in="SourceGraphic" in2="effect1_dropShadow_2644_2232" result="shape"/>
</filter>
</defs>
</svg>
