<svg width="183" height="54" viewBox="0 0 183 54" fill="none" xmlns="http://www.w3.org/2000/svg">
<g filter="url(#filter0_d_2644_2234)">
<rect x="34" y="7" width="136" height="28" rx="4" fill="white"/>
<path d="M50.5684 22.2266C50.5645 22.5312 50.5371 22.8398 50.4863 23.1523C50.4395 23.4609 50.3652 23.7598 50.2637 24.0488C50.1621 24.3379 50.0312 24.6074 49.8711 24.8574C49.7148 25.1074 49.5273 25.3262 49.3086 25.5137C49.0898 25.7012 48.8379 25.8496 48.5527 25.959C48.2715 26.0645 47.9551 26.1172 47.6035 26.1172C47.252 26.1172 46.9336 26.0645 46.6484 25.959C46.3672 25.8496 46.1172 25.7012 45.8984 25.5137C45.6797 25.3262 45.4902 25.1074 45.3301 24.8574C45.1699 24.6035 45.0391 24.332 44.9375 24.043C44.832 23.7539 44.7539 23.4551 44.7031 23.1465C44.6523 22.8379 44.625 22.5312 44.6211 22.2266V21.2539C44.625 20.9492 44.6504 20.6426 44.6973 20.334C44.748 20.0215 44.8262 19.7207 44.9316 19.4316C45.0332 19.1426 45.1621 18.873 45.3184 18.623C45.4785 18.3691 45.668 18.1465 45.8867 17.9551C46.1055 17.7676 46.3555 17.6211 46.6367 17.5156C46.9219 17.4062 47.2402 17.3516 47.5918 17.3516C47.9434 17.3516 48.2617 17.4062 48.5469 17.5156C48.832 17.6211 49.084 17.7676 49.3027 17.9551C49.5215 18.1426 49.709 18.3633 49.8652 18.6172C50.0254 18.8672 50.1582 19.1367 50.2637 19.4258C50.3652 19.7148 50.4395 20.0156 50.4863 20.3281C50.5371 20.6406 50.5645 20.9492 50.5684 21.2539V22.2266ZM49.4961 21.2422C49.4922 21.0391 49.4785 20.8281 49.4551 20.6094C49.4316 20.3867 49.3926 20.166 49.3379 19.9473C49.2793 19.7324 49.2031 19.5273 49.1094 19.332C49.0156 19.1328 48.8984 18.957 48.7578 18.8047C48.6172 18.6562 48.4512 18.5391 48.2598 18.4531C48.0684 18.3633 47.8457 18.3184 47.5918 18.3184C47.3418 18.3184 47.1211 18.3633 46.9297 18.4531C46.7383 18.543 46.5723 18.6621 46.4316 18.8105C46.291 18.9629 46.1738 19.1387 46.0801 19.3379C45.9863 19.5332 45.9121 19.7383 45.8574 19.9531C45.7988 20.1719 45.7559 20.3926 45.7285 20.6152C45.7051 20.834 45.6914 21.043 45.6875 21.2422V22.2266C45.6914 22.4258 45.7051 22.6367 45.7285 22.8594C45.7559 23.082 45.7988 23.3008 45.8574 23.5156C45.916 23.7344 45.9922 23.9434 46.0859 24.1426C46.1797 24.3418 46.2969 24.5156 46.4375 24.6641C46.5781 24.8164 46.7441 24.9375 46.9355 25.0273C47.127 25.1172 47.3496 25.1621 47.6035 25.1621C47.8574 25.1621 48.0801 25.1172 48.2715 25.0273C48.4668 24.9375 48.6348 24.8164 48.7754 24.6641C48.9121 24.5156 49.0254 24.3438 49.1152 24.1484C49.209 23.9492 49.2852 23.7402 49.3438 23.5215C49.3984 23.3066 49.4355 23.0879 49.4551 22.8652C49.4785 22.6426 49.4922 22.4297 49.4961 22.2266V21.2422ZM56.3809 19.543C56.5801 19.543 56.7871 19.5566 57.002 19.584C57.2207 19.6113 57.3848 19.6484 57.4941 19.6953L57.3477 20.7559C57.1367 20.709 56.9355 20.6758 56.7441 20.6562C56.5566 20.6328 56.3594 20.6211 56.1523 20.6211C55.8867 20.6211 55.6465 20.6543 55.4316 20.7207C55.2168 20.7832 55.0293 20.877 54.8691 21.002C54.7246 21.1113 54.5977 21.2461 54.4883 21.4062C54.3828 21.5625 54.2949 21.7383 54.2246 21.9336V26H53.1348V19.6602H54.166L54.2129 20.5098L54.2188 20.668C54.4766 20.3203 54.7852 20.0469 55.1445 19.8477C55.5078 19.6445 55.9199 19.543 56.3809 19.543ZM59.2285 22.7773C59.2285 22.3047 59.2871 21.8711 59.4043 21.4766C59.5254 21.0781 59.6973 20.7363 59.9199 20.4512C60.1387 20.166 60.4043 19.9434 60.7168 19.7832C61.0293 19.623 61.3789 19.543 61.7656 19.543C62.1445 19.543 62.4746 19.6074 62.7559 19.7363C63.041 19.8613 63.2871 20.0449 63.4941 20.2871V17H64.5781V26H63.582L63.5352 25.332C63.3242 25.5898 63.0723 25.7852 62.7793 25.918C62.4863 26.0508 62.1445 26.1172 61.7539 26.1172C61.3711 26.1172 61.0234 26.0352 60.7109 25.8711C60.4023 25.707 60.1387 25.4805 59.9199 25.1914C59.7012 24.9023 59.5312 24.5625 59.4102 24.1719C59.2891 23.7773 59.2285 23.3535 59.2285 22.9004V22.7773ZM60.3125 22.9004C60.3125 23.209 60.3457 23.502 60.4121 23.7793C60.4785 24.0566 60.582 24.3008 60.7227 24.5117C60.8594 24.7227 61.0352 24.8906 61.25 25.0156C61.4648 25.1367 61.7227 25.1973 62.0234 25.1973C62.3867 25.1973 62.6875 25.1152 62.9258 24.9512C63.1641 24.7871 63.3535 24.5664 63.4941 24.2891V21.3477C63.3535 21.0898 63.1641 20.8789 62.9258 20.7148C62.6875 20.5469 62.3906 20.4629 62.0352 20.4629C61.7305 20.4629 61.4688 20.5254 61.25 20.6504C61.0352 20.7754 60.8594 20.9434 60.7227 21.1543C60.582 21.3691 60.4785 21.6172 60.4121 21.8984C60.3457 22.1758 60.3125 22.4688 60.3125 22.7773V22.9004ZM69.4414 26.1172C68.9961 26.1172 68.5859 26.041 68.2109 25.8887C67.8398 25.7363 67.5215 25.5234 67.2559 25.25C66.9902 24.9766 66.7832 24.6523 66.6348 24.2773C66.4863 23.9023 66.4121 23.4941 66.4121 23.0527V22.8066C66.4121 22.2949 66.4941 21.8379 66.6582 21.4355C66.8223 21.0293 67.041 20.6855 67.3145 20.4043C67.584 20.127 67.8906 19.9141 68.2344 19.7656C68.582 19.6172 68.9375 19.543 69.3008 19.543C69.7578 19.543 70.1562 19.623 70.4961 19.7832C70.8398 19.9395 71.125 20.1562 71.3516 20.4336C71.5781 20.7148 71.7461 21.0449 71.8555 21.4238C71.9688 21.8027 72.0254 22.2129 72.0254 22.6543V23.1406H67.4961V23.1816C67.5234 23.4902 67.584 23.7617 67.6777 23.9961C67.7754 24.2305 67.9082 24.4375 68.0762 24.6172C68.248 24.8086 68.4551 24.959 68.6973 25.0684C68.9395 25.1777 69.207 25.2324 69.5 25.2324C69.8867 25.2324 70.2305 25.1543 70.5312 24.998C70.832 24.8418 71.082 24.6348 71.2812 24.377L71.9434 24.8926C71.7324 25.2129 71.416 25.498 70.9941 25.748C70.5762 25.9941 70.0586 26.1172 69.4414 26.1172ZM69.3008 20.4336C69.082 20.4336 68.875 20.4746 68.6797 20.5566C68.4844 20.6348 68.3086 20.75 68.1523 20.9023C67.9961 21.0586 67.8633 21.25 67.7539 21.4766C67.6484 21.6992 67.5742 21.957 67.5312 22.25H70.9414V22.1973C70.9414 22.002 70.9043 21.793 70.8301 21.5703C70.7559 21.3438 70.6523 21.1484 70.5195 20.9844C70.3867 20.8203 70.2188 20.6875 70.0156 20.5859C69.8164 20.4844 69.5781 20.4336 69.3008 20.4336ZM78.002 19.543C78.2012 19.543 78.4082 19.5566 78.623 19.584C78.8418 19.6113 79.0059 19.6484 79.1152 19.6953L78.9688 20.7559C78.7578 20.709 78.5566 20.6758 78.3652 20.6562C78.1777 20.6328 77.9805 20.6211 77.7734 20.6211C77.5078 20.6211 77.2676 20.6543 77.0527 20.7207C76.8379 20.7832 76.6504 20.877 76.4902 21.002C76.3457 21.1113 76.2188 21.2461 76.1094 21.4062C76.0039 21.5625 75.916 21.7383 75.8457 21.9336V26H74.7559V19.6602H75.7871L75.834 20.5098L75.8398 20.668C76.0977 20.3203 76.4062 20.0469 76.7656 19.8477C77.1289 19.6445 77.541 19.543 78.002 19.543ZM88.1504 26V17.4688H90.125C90.457 17.4727 90.7695 17.5078 91.0625 17.5742C91.3594 17.6367 91.6328 17.7266 91.8828 17.8438C92.2305 18.0039 92.5371 18.2148 92.8027 18.4766C93.0723 18.7344 93.2871 19.0332 93.4473 19.373C93.5918 19.6621 93.7012 19.9785 93.7754 20.3223C93.8535 20.666 93.8945 21.0332 93.8984 21.4238V22.0508C93.8984 22.4258 93.8613 22.7812 93.7871 23.1172C93.7168 23.4531 93.6133 23.7617 93.4766 24.043C93.3359 24.3359 93.1582 24.6016 92.9434 24.8398C92.7285 25.0781 92.4883 25.2812 92.2227 25.4492C91.9414 25.625 91.623 25.7598 91.2676 25.8535C90.916 25.9473 90.5352 25.9961 90.125 26H88.1504ZM89.252 18.3594V25.1152H90.125C90.4375 25.1113 90.7207 25.0723 90.9746 24.998C91.2324 24.9238 91.4609 24.8184 91.6602 24.6816C91.8711 24.541 92.0527 24.3691 92.2051 24.166C92.3613 23.959 92.4844 23.7285 92.5742 23.4746C92.6523 23.2676 92.7109 23.0449 92.75 22.8066C92.7891 22.5645 92.8105 22.3125 92.8145 22.0508V21.4121C92.8105 21.1465 92.7871 20.8926 92.7441 20.6504C92.7051 20.4043 92.6445 20.1758 92.5625 19.9648C92.457 19.6914 92.3145 19.4453 92.1348 19.2266C91.959 19.0039 91.7422 18.8242 91.4844 18.6875C91.3008 18.5859 91.0957 18.5078 90.8691 18.4531C90.6426 18.3945 90.3945 18.3633 90.125 18.3594H89.252ZM95.6387 19.6602H98.8789V25.0625H100.947V26H95.6387V25.0625H97.7949V20.6035H95.6387V19.6602ZM97.6543 17.9961C97.6543 17.9023 97.668 17.8145 97.6953 17.7324C97.7266 17.6504 97.7734 17.5801 97.8359 17.5215C97.8867 17.4707 97.9512 17.4316 98.0293 17.4043C98.1113 17.373 98.2031 17.3574 98.3047 17.3574C98.4062 17.3574 98.4961 17.373 98.5742 17.4043C98.6523 17.4316 98.7168 17.4707 98.7676 17.5215C98.8301 17.5762 98.877 17.6445 98.9082 17.7266C98.9395 17.8086 98.9551 17.8984 98.9551 17.9961C98.9551 18.1719 98.9004 18.3184 98.791 18.4355C98.6816 18.5527 98.5195 18.6113 98.3047 18.6113C98.0859 18.6113 97.9219 18.5527 97.8125 18.4355C97.707 18.3184 97.6543 18.1719 97.6543 17.9961ZM106.889 24.3184C106.889 24.1895 106.863 24.0742 106.812 23.9727C106.762 23.8672 106.676 23.7715 106.555 23.6855C106.434 23.5996 106.273 23.5215 106.074 23.4512C105.875 23.377 105.627 23.3105 105.33 23.252C104.967 23.1777 104.635 23.0879 104.334 22.9824C104.037 22.877 103.783 22.75 103.572 22.6016C103.357 22.457 103.191 22.2871 103.074 22.0918C102.957 21.8926 102.898 21.6621 102.898 21.4004C102.898 21.1426 102.959 20.9023 103.08 20.6797C103.201 20.4531 103.371 20.2559 103.59 20.0879C103.809 19.9199 104.068 19.7871 104.369 19.6895C104.674 19.5918 105.008 19.543 105.371 19.543C105.762 19.543 106.113 19.5938 106.426 19.6953C106.738 19.7969 107.004 19.9375 107.223 20.1172C107.441 20.2969 107.609 20.5078 107.727 20.75C107.848 20.9883 107.908 21.2461 107.908 21.5234H106.824C106.824 21.3867 106.789 21.2539 106.719 21.125C106.648 20.9922 106.551 20.875 106.426 20.7734C106.301 20.6719 106.148 20.5898 105.969 20.5273C105.793 20.4648 105.594 20.4336 105.371 20.4336C105.141 20.4336 104.938 20.459 104.762 20.5098C104.59 20.5605 104.447 20.6289 104.334 20.7148C104.217 20.8008 104.129 20.9004 104.07 21.0137C104.012 21.127 103.982 21.2441 103.982 21.3652C103.982 21.4902 104.006 21.6016 104.053 21.6992C104.1 21.7969 104.182 21.8848 104.299 21.9629C104.412 22.041 104.564 22.1113 104.756 22.1738C104.951 22.2363 105.197 22.2969 105.494 22.3555C105.885 22.4375 106.234 22.5332 106.543 22.6426C106.852 22.748 107.111 22.875 107.322 23.0234C107.533 23.1758 107.693 23.3516 107.803 23.5508C107.916 23.75 107.973 23.9805 107.973 24.2422C107.973 24.5234 107.908 24.7793 107.779 25.0098C107.654 25.2402 107.479 25.4375 107.252 25.6016C107.025 25.7656 106.754 25.8926 106.438 25.9824C106.121 26.0723 105.775 26.1172 105.4 26.1172C104.971 26.1172 104.588 26.0605 104.252 25.9473C103.916 25.8301 103.633 25.6758 103.402 25.4844C103.168 25.2969 102.988 25.0781 102.863 24.8281C102.742 24.5781 102.682 24.3184 102.682 24.0488H103.766C103.781 24.2715 103.84 24.459 103.941 24.6113C104.047 24.7637 104.178 24.8867 104.334 24.9805C104.486 25.0742 104.656 25.1406 104.844 25.1797C105.031 25.2188 105.217 25.2383 105.4 25.2383C105.689 25.2383 105.941 25.2051 106.156 25.1387C106.371 25.0684 106.539 24.9727 106.66 24.8516C106.734 24.7773 106.791 24.6953 106.83 24.6055C106.869 24.5156 106.889 24.4199 106.889 24.3184ZM109.877 28.4375V19.6602H110.867L110.92 20.3516C111.006 20.2422 111.1 20.1445 111.201 20.0586C111.303 19.9688 111.412 19.8926 111.529 19.8301C111.693 19.7363 111.875 19.666 112.074 19.6191C112.277 19.5684 112.494 19.543 112.725 19.543C113.131 19.543 113.49 19.623 113.803 19.7832C114.115 19.9434 114.377 20.166 114.588 20.4512C114.799 20.7363 114.959 21.0781 115.068 21.4766C115.178 21.8711 115.232 22.3047 115.232 22.7773V22.9004C115.232 23.3535 115.178 23.7773 115.068 24.1719C114.959 24.5625 114.799 24.9023 114.588 25.1914C114.377 25.4805 114.115 25.707 113.803 25.8711C113.494 26.0352 113.141 26.1172 112.742 26.1172C112.5 26.1172 112.273 26.0918 112.062 26.041C111.855 25.9902 111.668 25.918 111.5 25.8242C111.398 25.7656 111.303 25.7012 111.213 25.6309C111.123 25.5566 111.039 25.4766 110.961 25.3906V28.4375H109.877ZM114.148 22.7773C114.148 22.4688 114.113 22.1758 114.043 21.8984C113.977 21.6172 113.873 21.3691 113.732 21.1543C113.588 20.9434 113.406 20.7754 113.188 20.6504C112.969 20.5254 112.707 20.4629 112.402 20.4629C112.234 20.4629 112.078 20.4824 111.934 20.5215C111.793 20.5605 111.666 20.6172 111.553 20.6914C111.428 20.7656 111.316 20.8574 111.219 20.9668C111.121 21.0762 111.035 21.1973 110.961 21.3301V24.3828C111.027 24.5 111.104 24.6094 111.189 24.7109C111.275 24.8125 111.373 24.8984 111.482 24.9688C111.607 25.0508 111.746 25.1152 111.898 25.1621C112.055 25.209 112.227 25.2324 112.414 25.2324C112.715 25.2324 112.975 25.1699 113.193 25.0449C113.412 24.916 113.592 24.7441 113.732 24.5293C113.873 24.3145 113.977 24.0664 114.043 23.7852C114.113 23.5039 114.148 23.209 114.148 22.9004V22.7773ZM121.256 26C121.213 25.918 121.178 25.8164 121.15 25.6953C121.127 25.5703 121.109 25.4414 121.098 25.3086C120.988 25.418 120.865 25.5215 120.729 25.6191C120.596 25.7168 120.449 25.8027 120.289 25.877C120.125 25.9512 119.951 26.0098 119.768 26.0527C119.584 26.0957 119.389 26.1172 119.182 26.1172C118.846 26.1172 118.541 26.0684 118.268 25.9707C117.998 25.873 117.77 25.7402 117.582 25.5723C117.391 25.4082 117.242 25.2129 117.137 24.9863C117.035 24.7559 116.984 24.5078 116.984 24.2422C116.984 23.8945 117.053 23.5898 117.189 23.3281C117.33 23.0664 117.527 22.8477 117.781 22.6719C118.035 22.5 118.34 22.3711 118.695 22.2852C119.055 22.1992 119.455 22.1562 119.896 22.1562H121.08V21.6582C121.08 21.4668 121.045 21.2949 120.975 21.1426C120.904 20.9902 120.805 20.8594 120.676 20.75C120.547 20.6445 120.389 20.5625 120.201 20.5039C120.018 20.4453 119.811 20.416 119.58 20.416C119.365 20.416 119.172 20.4434 119 20.498C118.832 20.5527 118.689 20.625 118.572 20.7148C118.455 20.8047 118.363 20.9121 118.297 21.0371C118.234 21.1582 118.203 21.2852 118.203 21.418H117.113C117.117 21.1875 117.176 20.9609 117.289 20.7383C117.406 20.5156 117.574 20.3145 117.793 20.1348C118.008 19.959 118.27 19.8164 118.578 19.707C118.891 19.5977 119.244 19.543 119.639 19.543C119.998 19.543 120.332 19.5879 120.641 19.6777C120.949 19.7637 121.217 19.8945 121.443 20.0703C121.666 20.25 121.842 20.4727 121.971 20.7383C122.1 21.0039 122.164 21.3145 122.164 21.6699V24.6172C122.164 24.8281 122.184 25.0527 122.223 25.291C122.262 25.5254 122.316 25.7305 122.387 25.9062V26H121.256ZM119.34 25.1738C119.551 25.1738 119.748 25.1465 119.932 25.0918C120.115 25.0371 120.283 24.9648 120.436 24.875C120.584 24.7852 120.713 24.6836 120.822 24.5703C120.932 24.4531 121.018 24.332 121.08 24.207V22.9238H120.072C119.697 22.9238 119.369 22.957 119.088 23.0234C118.811 23.0859 118.59 23.1836 118.426 23.3164C118.309 23.4102 118.219 23.5215 118.156 23.6504C118.098 23.7793 118.068 23.9258 118.068 24.0898C118.068 24.2461 118.094 24.3906 118.145 24.5234C118.199 24.6562 118.279 24.7695 118.385 24.8633C118.49 24.9609 118.623 25.0371 118.783 25.0918C118.943 25.1465 119.129 25.1738 119.34 25.1738ZM126.863 18.125V19.6602H129.277V20.498H126.863V23.9434C126.863 24.1895 126.895 24.3926 126.957 24.5527C127.02 24.7129 127.105 24.8398 127.215 24.9336C127.324 25.0312 127.449 25.0996 127.59 25.1387C127.734 25.1777 127.887 25.1973 128.047 25.1973C128.164 25.1973 128.285 25.1914 128.41 25.1797C128.535 25.1641 128.658 25.1465 128.779 25.127C128.896 25.1074 129.006 25.0879 129.107 25.0684C129.213 25.0449 129.299 25.0254 129.365 25.0098L129.518 25.7773C129.428 25.832 129.318 25.8809 129.189 25.9238C129.061 25.9629 128.92 25.9961 128.768 26.0234C128.615 26.0547 128.453 26.0781 128.281 26.0938C128.113 26.1094 127.945 26.1172 127.777 26.1172C127.496 26.1172 127.232 26.0781 126.986 26C126.744 25.918 126.533 25.7891 126.354 25.6133C126.174 25.4414 126.031 25.2188 125.926 24.9453C125.824 24.668 125.773 24.334 125.773 23.9434V20.498H124.109V19.6602H125.773V18.125H126.863ZM134.205 25.2383C134.4 25.2383 134.59 25.207 134.773 25.1445C134.961 25.082 135.127 24.9941 135.271 24.8809C135.416 24.7715 135.531 24.6426 135.617 24.4941C135.707 24.3418 135.754 24.1777 135.758 24.002H136.783C136.779 24.2832 136.705 24.5527 136.561 24.8105C136.42 25.0645 136.23 25.2871 135.992 25.4785C135.754 25.6738 135.48 25.8301 135.172 25.9473C134.863 26.0605 134.541 26.1172 134.205 26.1172C133.725 26.1172 133.305 26.0312 132.945 25.8594C132.586 25.6875 132.287 25.4551 132.049 25.1621C131.807 24.873 131.625 24.5391 131.504 24.1602C131.383 23.7773 131.322 23.375 131.322 22.9531V22.707C131.322 22.2891 131.383 21.8887 131.504 21.5059C131.625 21.123 131.807 20.7852 132.049 20.4922C132.287 20.2031 132.586 19.9727 132.945 19.8008C133.305 19.6289 133.725 19.543 134.205 19.543C134.58 19.543 134.924 19.6035 135.236 19.7246C135.553 19.8418 135.826 20.002 136.057 20.2051C136.283 20.4121 136.461 20.6562 136.59 20.9375C136.719 21.2188 136.783 21.5195 136.783 21.8398H135.758C135.754 21.6484 135.711 21.4688 135.629 21.3008C135.551 21.1289 135.443 20.9785 135.307 20.8496C135.17 20.7207 135.006 20.6191 134.814 20.5449C134.627 20.4707 134.424 20.4336 134.205 20.4336C133.869 20.4336 133.586 20.502 133.355 20.6387C133.129 20.7715 132.945 20.9453 132.805 21.1602C132.664 21.3789 132.562 21.623 132.5 21.8926C132.441 22.1621 132.412 22.4336 132.412 22.707V22.9531C132.412 23.2305 132.441 23.5059 132.5 23.7793C132.562 24.0488 132.664 24.291 132.805 24.5059C132.941 24.7246 133.123 24.9023 133.35 25.0391C133.58 25.1719 133.865 25.2383 134.205 25.2383ZM139.795 20.6035C139.881 20.4746 139.977 20.3574 140.082 20.252C140.188 20.1426 140.299 20.0469 140.416 19.9648C140.604 19.8281 140.809 19.7246 141.031 19.6543C141.258 19.584 141.498 19.5469 141.752 19.543C142.084 19.543 142.385 19.5918 142.654 19.6895C142.928 19.7832 143.16 19.9316 143.352 20.1348C143.543 20.3379 143.689 20.5957 143.791 20.9082C143.896 21.2168 143.949 21.584 143.949 22.0098V26H142.865V21.998C142.865 21.748 142.836 21.5293 142.777 21.3418C142.719 21.1504 142.633 20.9922 142.52 20.8672C142.398 20.7305 142.246 20.6289 142.062 20.5625C141.879 20.4922 141.668 20.459 141.43 20.4629C141.234 20.4629 141.049 20.4902 140.873 20.5449C140.697 20.5996 140.535 20.6777 140.387 20.7793C140.27 20.8574 140.16 20.9492 140.059 21.0547C139.961 21.1562 139.873 21.2695 139.795 21.3945V26H138.711V17H139.795V20.6035ZM148.719 26.1172C148.273 26.1172 147.863 26.041 147.488 25.8887C147.117 25.7363 146.799 25.5234 146.533 25.25C146.268 24.9766 146.061 24.6523 145.912 24.2773C145.764 23.9023 145.689 23.4941 145.689 23.0527V22.8066C145.689 22.2949 145.771 21.8379 145.936 21.4355C146.1 21.0293 146.318 20.6855 146.592 20.4043C146.861 20.127 147.168 19.9141 147.512 19.7656C147.859 19.6172 148.215 19.543 148.578 19.543C149.035 19.543 149.434 19.623 149.773 19.7832C150.117 19.9395 150.402 20.1562 150.629 20.4336C150.855 20.7148 151.023 21.0449 151.133 21.4238C151.246 21.8027 151.303 22.2129 151.303 22.6543V23.1406H146.773V23.1816C146.801 23.4902 146.861 23.7617 146.955 23.9961C147.053 24.2305 147.186 24.4375 147.354 24.6172C147.525 24.8086 147.732 24.959 147.975 25.0684C148.217 25.1777 148.484 25.2324 148.777 25.2324C149.164 25.2324 149.508 25.1543 149.809 24.998C150.109 24.8418 150.359 24.6348 150.559 24.377L151.221 24.8926C151.01 25.2129 150.693 25.498 150.271 25.748C149.854 25.9941 149.336 26.1172 148.719 26.1172ZM148.578 20.4336C148.359 20.4336 148.152 20.4746 147.957 20.5566C147.762 20.6348 147.586 20.75 147.43 20.9023C147.273 21.0586 147.141 21.25 147.031 21.4766C146.926 21.6992 146.852 21.957 146.809 22.25H150.219V22.1973C150.219 22.002 150.182 21.793 150.107 21.5703C150.033 21.3438 149.93 21.1484 149.797 20.9844C149.664 20.8203 149.496 20.6875 149.293 20.5859C149.094 20.4844 148.855 20.4336 148.578 20.4336ZM152.92 22.7773C152.92 22.3047 152.979 21.8711 153.096 21.4766C153.217 21.0781 153.389 20.7363 153.611 20.4512C153.83 20.166 154.096 19.9434 154.408 19.7832C154.721 19.623 155.07 19.543 155.457 19.543C155.836 19.543 156.166 19.6074 156.447 19.7363C156.732 19.8613 156.979 20.0449 157.186 20.2871V17H158.27V26H157.273L157.227 25.332C157.016 25.5898 156.764 25.7852 156.471 25.918C156.178 26.0508 155.836 26.1172 155.445 26.1172C155.062 26.1172 154.715 26.0352 154.402 25.8711C154.094 25.707 153.83 25.4805 153.611 25.1914C153.393 24.9023 153.223 24.5625 153.102 24.1719C152.98 23.7773 152.92 23.3535 152.92 22.9004V22.7773ZM154.004 22.9004C154.004 23.209 154.037 23.502 154.104 23.7793C154.17 24.0566 154.273 24.3008 154.414 24.5117C154.551 24.7227 154.727 24.8906 154.941 25.0156C155.156 25.1367 155.414 25.1973 155.715 25.1973C156.078 25.1973 156.379 25.1152 156.617 24.9512C156.855 24.7871 157.045 24.5664 157.186 24.2891V21.3477C157.045 21.0898 156.855 20.8789 156.617 20.7148C156.379 20.5469 156.082 20.4629 155.727 20.4629C155.422 20.4629 155.16 20.5254 154.941 20.6504C154.727 20.7754 154.551 20.9434 154.414 21.1543C154.273 21.3691 154.17 21.6172 154.104 21.8984C154.037 22.1758 154.004 22.4688 154.004 22.7773V22.9004Z" fill="#333333"/>
</g>
<path d="M7.18844 24.7494H7.1711C5.7052 24.7494 4.51561 25.9255 4.51561 27.3747C4.51561 28.8239 5.7052 30 7.1711 30H7.18844C8.64624 29.9909 9.82659 28.8182 9.82659 27.3747C9.82659 25.9312 8.64509 24.7585 7.18844 24.7494ZM20.0855 24.7494H20.0682C18.6023 24.7494 17.4127 25.9255 17.4127 27.3747C17.4127 28.8239 18.6023 30 20.0682 30H20.0855C21.5434 29.9909 22.7237 28.8182 22.7237 27.3747C22.7237 25.9312 21.5434 24.7585 20.0855 24.7494ZM24.9988 19.8485C24.9954 19.7959 24.9803 19.7456 24.9572 19.7011L22.5145 14.871C22.3214 14.4904 21.9272 14.2493 21.4971 14.2493H17.4139V13.1246C17.4139 12.5029 16.904 12 16.2763 12H4.13757C3.50867 12 3 12.504 3 13.1246V27.3758C3 27.5827 3.16994 27.7507 3.37919 27.7507H3.77919C3.76532 27.6273 3.75838 27.5027 3.75838 27.3758C3.75838 25.5129 5.28786 24.0008 7.17225 24.0008C9.05665 24.0008 10.5861 25.5129 10.5861 27.3758C10.5861 27.5027 10.5792 27.6273 10.5653 27.7507H16.6763C16.6624 27.6273 16.6555 27.5027 16.6555 27.3758C16.6555 25.5129 18.185 24.0008 20.0694 24.0008C21.9538 24.0008 23.4832 25.5129 23.4832 27.3758C23.4832 27.5027 23.4763 27.6273 23.4624 27.7507H23.8624C24.1642 27.7507 24.4543 27.6319 24.6671 27.4216C24.8809 27.2113 25 26.9244 25 26.6261V19.8736L24.9988 19.8485ZM6.79191 17.6244H10.9642C11.1734 17.6244 11.3434 17.7924 11.3434 17.9992C11.3434 18.2061 11.1734 18.3741 10.9642 18.3741H6.79191C6.58266 18.3741 6.41272 18.2061 6.41272 17.9992C6.41272 17.7924 6.5815 17.6244 6.79191 17.6244ZM15.3884 18.2793L11.9746 21.2794C11.8509 21.388 11.6694 21.4052 11.5283 21.3206C11.3861 21.2372 11.3156 21.0714 11.3538 20.9114L11.622 19.7994H5.65318C5.44393 19.7994 5.27399 19.6313 5.27399 19.4245C5.27399 19.2176 5.44393 19.0496 5.65318 19.0496H12.1017C12.2173 19.0496 12.3272 19.1022 12.4 19.1925C12.4717 19.2827 12.4983 19.4005 12.4717 19.5125L12.3711 19.9296L14.5665 18.0004L12.3711 16.07L12.4717 16.4871C12.4983 16.5991 12.4717 16.7169 12.4 16.8072C12.3283 16.8975 12.2185 16.95 12.1017 16.95H8.30867C8.09942 16.95 7.92948 16.782 7.92948 16.5751C7.92948 16.3683 8.09942 16.2003 8.30867 16.2003H11.622L11.3538 15.0871C11.3156 14.9282 11.3861 14.7625 11.5283 14.6779C11.6705 14.5945 11.8509 14.6105 11.9746 14.719L15.3884 17.7192C15.4694 17.7901 15.5156 17.8918 15.5156 17.9992C15.5156 18.1067 15.4694 18.2084 15.3884 18.2793Z" fill="black"/>
<defs>
<filter id="filter0_d_2644_2234" x="21.697" y="0.848522" width="160.606" height="52.6059" filterUnits="userSpaceOnUse" color-interpolation-filters="sRGB">
<feFlood flood-opacity="0" result="BackgroundImageFix"/>
<feColorMatrix in="SourceAlpha" type="matrix" values="0 0 0 0 0 0 0 0 0 0 0 0 0 0 0 0 0 0 127 0" result="hardAlpha"/>
<feOffset dy="6.15148"/>
<feGaussianBlur stdDeviation="6.15148"/>
<feColorMatrix type="matrix" values="0 0 0 0 0 0 0 0 0 0 0 0 0 0 0 0 0 0 0.05 0"/>
<feBlend mode="normal" in2="BackgroundImageFix" result="effect1_dropShadow_2644_2234"/>
<feBlend mode="normal" in="SourceGraphic" in2="effect1_dropShadow_2644_2234" result="shape"/>
</filter>
</defs>
</svg>
