<svg width="30" height="30" viewBox="0 0 30 30" fill="none" xmlns="http://www.w3.org/2000/svg">
<rect width="30" height="30" rx="6" fill="#F3F6F9"/>
<path d="M21.1381 9.98637C21.7155 10.5638 21.725 11.497 21.1594 12.086L15.7425 17.7271C15.4672 18.0137 15.0894 18.1795 14.692 18.1878L12.4167 18.2355L12.4647 15.945C12.4729 15.5566 12.6314 15.1866 12.9068 14.9127L18.4438 9.40735C19.0301 8.82442 19.9775 8.82578 20.5621 9.41038L21.1381 9.98637Z" fill="#3699FF"/>
<path d="M15.5999 8.3333C15.9681 8.3333 16.2666 8.63177 16.2666 8.99996C16.2666 9.36815 15.9681 9.66663 15.5999 9.66663H10.9999C10.2635 9.66663 9.66659 10.2636 9.66659 11V19C9.66659 19.7363 10.2635 20.3333 10.9999 20.3333H18.9999C19.7363 20.3333 20.3333 19.7363 20.3333 19V15.6666C20.3333 15.2984 20.6317 15 20.9999 15C21.3681 15 21.6666 15.2984 21.6666 15.6666V19C21.6666 20.4727 20.4727 21.6666 18.9999 21.6666H10.9999C9.52716 21.6666 8.33325 20.4727 8.33325 19V11C8.33325 9.5272 9.52716 8.3333 10.9999 8.3333H15.5999Z" fill="#3699FF"/>
</svg>
