<svg width="30" height="29" viewBox="0 0 30 29" fill="none" xmlns="http://www.w3.org/2000/svg">
<path d="M15 25.375C12.4041 25.375 9.86654 24.6309 7.70815 23.2368C5.54975 21.8427 3.86749 19.8611 2.87409 17.5428C1.88069 15.2245 1.62077 12.6734 2.1272 10.2123C2.63363 7.75116 3.88367 5.49047 5.71923 3.71609C7.55479 1.94171 9.89345 0.733342 12.4394 0.243792C14.9854 -0.245758 17.6244 0.00549728 20.0227 0.965784C22.421 1.92607 24.4709 3.55226 25.913 5.63871C27.3552 7.72516 28.125 10.1782 28.125 12.6875C28.125 16.0524 26.7422 19.2796 24.2808 21.6589C21.8194 24.0383 18.481 25.375 15 25.375ZM15 1.81251C12.775 1.81251 10.5999 2.45031 8.74984 3.64527C6.89979 4.84023 5.45785 6.53868 4.60636 8.52582C3.75488 10.513 3.53209 12.6996 3.96617 14.8091C4.40026 16.9187 5.47171 18.8564 7.04505 20.3773C8.6184 21.8982 10.623 22.9339 12.8052 23.3535C14.9875 23.7732 17.2495 23.5578 19.3052 22.7347C21.3609 21.9116 23.1179 20.5177 24.354 18.7293C25.5902 16.9409 26.25 14.8384 26.25 12.6875C26.25 9.80328 25.0647 7.03718 22.955 4.99772C20.8452 2.95826 17.9837 1.81251 15 1.81251Z" fill="#787A7B"/>
<path d="M19.3031 19.9375L14.0625 14.8716V6.34375H15.9375V14.1194L20.625 18.6597L19.3031 19.9375Z" fill="#787A7B"/>
</svg>
