<svg width="60" height="60" viewBox="0 0 60 60" fill="none" xmlns="http://www.w3.org/2000/svg">
<path d="M2.73645 21.1579V18.2186C2.73645 18.2186 8.61469 17.61 15.7095 20.3466C22.8042 23.0831 27.973 22.3739 28.6825 21.6641C29.3919 20.9551 32.635 17.8129 33.1422 17.4073C33.6488 17.0024 34.6625 15.3806 35.7772 16.3939C35.972 16.5714 36.1794 16.6737 36.3891 16.7481L35.258 14.4231C35.075 14.0479 34.6946 13.8095 34.2772 13.8095H28.1759C27.588 13.8095 27.6282 13.3329 27.6282 12.7447C27.6282 12.1564 27.5882 11.6807 28.1759 11.6807H34.2772C35.5093 11.6807 36.633 12.3838 37.1718 13.4918L38.5717 16.3695C39.1679 15.9139 41.4552 14.3378 44.747 14.1645V21.2584C44.747 21.2584 42.3025 21.0395 40.8193 20.7867L42.5366 23.678C44.9089 22.347 47.6856 21.6742 50.6025 21.8923C52.8356 22.058 54.9113 22.7298 56.7261 23.7837L56.0539 25.8001C54.5704 25.0276 52.9097 24.5359 51.1354 24.4039C48.2348 24.1876 45.8128 24.6389 43.779 25.7698L45.7372 29.0658C47.0116 28.4843 48.4234 28.1513 49.9159 28.1513C55.4854 28.1511 60 32.6657 60 38.2351C60 43.8045 55.4854 48.3199 49.9157 48.3199C44.3464 48.3199 39.8313 43.8045 39.8313 38.2351C39.8313 35.0304 41.331 32.1807 43.6614 30.3341L41.7946 27.191C39.9083 28.9134 38.4395 31.4302 37.2973 34.7886C37.2588 34.9028 35.935 36.0377 35.9291 36.1579L35.7609 35.7911C35.588 39.0397 33.0409 39.0972 33.0409 39.0972C33.0409 39.0972 26.4532 39.0972 23.5139 39.0972C19.8649 25.2117 5.16879 21.8668 2.73645 21.1579ZM43.885 38.2351C43.885 41.5657 46.5855 44.2658 49.9157 44.2658C53.2463 44.2658 55.9465 41.5657 55.9465 38.2351C55.9465 34.9054 53.2463 32.2043 49.9157 32.2043C49.1804 32.2043 48.4786 32.3429 47.8269 32.5837L49.9525 36.1611C51.0827 36.1814 51.9939 37.1 51.9939 38.235C51.9939 39.3826 51.0634 40.3131 49.9157 40.3131C48.7679 40.3131 47.8379 39.3826 47.8379 38.235C47.8379 38 47.8857 37.777 47.9579 37.5656L45.7623 33.8708C44.6079 34.9695 43.885 36.5161 43.885 38.2351ZM40.5251 25.0546L38.9633 22.4254C38.2615 24.1791 37.4637 26.9629 36.8418 29.5472C37.7549 27.8012 39.0157 26.2784 40.5251 25.0546Z" fill="#212121"/>
<path d="M10.0855 28.1514C15.6548 28.1514 20.1699 32.666 20.1699 38.2354C20.1699 43.8047 15.6549 48.3202 10.0855 48.3202C4.51613 48.3202 0.00113297 43.8047 0.00113297 38.2354C0.00113297 32.6659 4.51613 28.1514 10.0855 28.1514ZM10.0855 44.2661C13.4162 44.2661 16.1163 41.5659 16.1163 38.2354C16.1163 34.9056 13.4162 32.2045 10.0855 32.2045C6.75524 32.2045 4.05512 34.9056 4.05512 38.2354C4.05512 41.5659 6.75535 44.2661 10.0855 44.2661Z" fill="#212121"/>
<path d="M10.0844 36.1582C11.2321 36.1582 12.1621 37.0877 12.1621 38.2355C12.1621 39.3831 11.2321 40.3136 10.0844 40.3136C8.93676 40.3136 8.00664 39.3831 8.00664 38.2355C8.00676 37.0877 8.93676 36.1582 10.0844 36.1582Z" fill="#212121"/>
</svg>
