<svg width="30" height="30" viewBox="0 0 30 30" fill="none" xmlns="http://www.w3.org/2000/svg">
<g opacity="0.2">
<rect width="30" height="30" rx="6" fill="#9CA3AF"/>
</g>
<g clip-path="url(#clip0_409_745)">
<path d="M23 15.016C23 16.4667 22.6427 17.8053 21.928 19.032C21.2133 20.2587 20.2427 21.2293 19.016 21.944C17.7893 22.6587 16.4507 23.016 15 23.016C13.5493 23.016 12.2107 22.6587 10.984 21.944C9.75733 21.2293 8.78667 20.2587 8.072 19.032C7.35733 17.8053 7 16.4667 7 15.016C7 13.5653 7.35733 12.2267 8.072 11C8.78667 9.77332 9.75733 8.80266 10.984 8.08799C12.2107 7.37332 13.5493 7.01599 15 7.01599C16.4507 7.01599 17.7893 7.37332 19.016 8.08799C20.2427 8.80266 21.2133 9.77332 21.928 11C22.6427 12.2267 23 13.5653 23 15.016ZM21.128 15.016C21.128 13.3307 20.528 11.888 19.328 10.688C18.128 9.48799 16.6853 8.88799 15 8.88799C13.656 8.88799 12.4507 9.28266 11.384 10.072L19.944 18.632C20.7333 17.5653 21.128 16.36 21.128 15.016ZM18.616 19.96L10.056 11.4C9.26667 12.4667 8.872 13.672 8.872 15.016C8.872 16.7013 9.472 18.144 10.672 19.344C11.872 20.544 13.3147 21.144 15 21.144C16.344 21.144 17.5493 20.7493 18.616 19.96Z" fill="#212121"/>
</g>
<defs>
<clipPath id="clip0_409_745">
<rect width="16" height="16" fill="white" transform="translate(7 7)"/>
</clipPath>
</defs>
</svg>
