<svg width="30" height="30" viewBox="0 0 30 30" fill="none" xmlns="http://www.w3.org/2000/svg">
<rect width="30" height="30" rx="6" fill="#F7F7F7"/>
<g clip-path="url(#clip0_1493_7217)">
<path d="M23 15.0161C23 16.4668 22.6427 17.8054 21.928 19.0321C21.2133 20.2588 20.2427 21.2294 19.016 21.9441C17.7893 22.6588 16.4507 23.0161 15 23.0161C13.5493 23.0161 12.2107 22.6588 10.984 21.9441C9.75733 21.2294 8.78667 20.2588 8.072 19.0321C7.35733 17.8054 7 16.4668 7 15.0161C7 13.5654 7.35733 12.2268 8.072 11.0001C8.78667 9.77345 9.75733 8.80278 10.984 8.08811C12.2107 7.37345 13.5493 7.01611 15 7.01611C16.4507 7.01611 17.7893 7.37345 19.016 8.08811C20.2427 8.80278 21.2133 9.77345 21.928 11.0001C22.6427 12.2268 23 13.5654 23 15.0161ZM21.128 15.0161C21.128 13.3308 20.528 11.8881 19.328 10.6881C18.128 9.48811 16.6853 8.88811 15 8.88811C13.656 8.88811 12.4507 9.28278 11.384 10.0721L19.944 18.6321C20.7333 17.5654 21.128 16.3601 21.128 15.0161ZM18.616 19.9601L10.056 11.4001C9.26667 12.4668 8.872 13.6721 8.872 15.0161C8.872 16.7014 9.472 18.1441 10.672 19.3441C11.872 20.5441 13.3147 21.1441 15 21.1441C16.344 21.1441 17.5493 20.7494 18.616 19.9601Z" fill="#F1416C"/>
</g>
<defs>
<clipPath id="clip0_1493_7217">
<rect width="16" height="16" fill="white" transform="translate(7 7)"/>
</clipPath>
</defs>
</svg>
