<svg width="16" height="16" viewBox="0 0 16 16" fill="none" xmlns="http://www.w3.org/2000/svg">
<path d="M13.3333 10.3333C12.5303 10.3333 11.7321 10.2097 10.9668 9.96681C10.7334 9.90006 10.4668 9.93328 10.3002 10.1335L8.83331 11.6C6.93325 10.6335 5.40006 9.09997 4.43325 7.19987L5.90009 5.73341C6.06672 5.56675 6.13328 5.30016 6.06672 5.06675C5.79994 4.30016 5.66666 3.5 5.66666 2.66666C5.66666 2.30013 5.36669 2 5 2H2.66666C2.29997 2 2 2.30013 2 2.66666C2 8.93325 7.06675 14 13.3333 14C13.6999 14 14 13.6999 14 13.3333V11C14 10.6335 13.6999 10.3333 13.3333 10.3333Z" fill="#464E5F"/>
</svg>
