<svg width="76" height="53" viewBox="0 0 76 53" fill="none" xmlns="http://www.w3.org/2000/svg">
<path d="M11.55 39.275C11.8667 39.275 12.025 39.675 12.025 40.475C12.025 41.275 11.875 41.9917 11.575 42.625C11.275 43.2583 10.9083 43.75 10.475 44.1C10.0583 44.45 9.58333 44.7333 9.05 44.95C7.26667 45.7333 5.6 45.7167 4.05 44.9C3.26667 44.4833 2.66667 43.9917 2.25 43.425C1.83333 42.8417 1.5 42.15 1.25 41.35C0.866667 40.15 0.675 38.8917 0.675 37.575C0.675 36.2583 0.8 35.025 1.05 33.875C1.3 32.725 1.68333 31.6333 2.2 30.6C2.71667 29.55 3.45 28.7083 4.4 28.075C5.35 27.4417 6.45 27.125 7.7 27.125C8.23333 27.125 8.78333 27.2167 9.35 27.4C9.93333 27.5667 10.4083 27.7833 10.775 28.05C11.1417 28.3 11.4667 28.6917 11.75 29.225C12.0333 29.7583 12.175 30.3833 12.175 31.1C12.175 31.8667 11.9917 32.5583 11.625 33.175C11.4583 33.4583 11.1917 33.7167 10.825 33.95C10.4583 34.1667 10.025 34.275 9.525 34.275C8.75833 34.275 8.21667 33.9333 7.9 33.25C7.76667 32.9833 7.7 32.6917 7.7 32.375C7.7 32.0583 7.80833 31.875 8.025 31.825C8.25833 31.7583 8.475 31.575 8.675 31.275C8.875 30.975 8.975 30.625 8.975 30.225C8.975 29.9083 8.89167 29.6333 8.725 29.4C8.40833 28.9833 7.95 28.775 7.35 28.775C6.75 28.775 6.2 29.05 5.7 29.6C5.21667 30.15 4.85 30.8417 4.6 31.675C4.1 33.3417 3.85 34.875 3.85 36.275C3.85 37.675 4.04167 38.8 4.425 39.65C4.89167 40.7 5.48333 41.4 6.2 41.75C6.65 41.9667 7.16667 42.075 7.75 42.075C8.73333 42.075 9.61667 41.6333 10.4 40.75C10.7333 40.4 11.0083 39.9833 11.225 39.5C11.3083 39.35 11.4167 39.275 11.55 39.275ZM21.7465 37.5L21.6965 40.7C21.6965 42.9167 21.9382 44.25 22.4215 44.7C22.4882 44.7667 22.5215 44.8417 22.5215 44.925C22.5215 45.175 21.9798 45.3 20.8965 45.3C19.8298 45.3 19.2632 44.9833 19.1965 44.35C19.1798 44.2 19.1715 43.8917 19.1715 43.425L19.2715 39.425C19.2715 39.3083 19.2048 39.25 19.0715 39.25C18.2715 39.25 17.5215 39.475 16.8215 39.925C16.1215 40.375 15.7715 40.95 15.7715 41.65C15.7715 42.0167 15.8715 42.325 16.0715 42.575C16.2715 42.825 16.5132 42.95 16.7965 42.95C17.0965 42.95 17.3382 42.8917 17.5215 42.775C17.7215 42.6583 17.8382 42.5917 17.8715 42.575C18.1548 42.6083 18.2965 42.9083 18.2965 43.475C18.2965 44.025 18.0382 44.475 17.5215 44.825C17.0048 45.1583 16.4632 45.325 15.8965 45.325C15.3298 45.325 14.8382 45.225 14.4215 45.025C14.0215 44.825 13.7298 44.6 13.5465 44.35C13.3632 44.1 13.2132 43.8167 13.0965 43.5C12.9798 43.1167 12.9215 42.7833 12.9215 42.5C12.9215 41.3333 13.2882 40.4 14.0215 39.7C14.7548 39 15.6965 38.5 16.8465 38.2C18.3632 37.9 19.1548 37.625 19.2215 37.375C19.2715 37.1917 19.2965 36.8833 19.2965 36.45C19.2965 35.5667 18.8465 35.125 17.9465 35.125C17.5632 35.125 17.2215 35.25 16.9215 35.5C16.6215 35.7333 16.4715 36.0333 16.4715 36.4L16.6215 37C16.5882 37.2833 16.2882 37.45 15.7215 37.5L15.4465 37.525C14.9465 37.525 14.5465 37.4 14.2465 37.15C13.9632 36.9 13.8215 36.5667 13.8215 36.15C13.8215 35.8833 13.9048 35.5917 14.0715 35.275C14.2548 34.9417 14.4798 34.675 14.7465 34.475C15.0132 34.275 15.4215 34.1 15.9715 33.95C16.5382 33.7833 17.0798 33.7 17.5965 33.7C18.1132 33.7 18.5132 33.7167 18.7965 33.75C19.0798 33.7833 19.4632 33.8667 19.9465 34C20.4465 34.1167 20.8548 34.35 21.1715 34.7C21.5048 35.05 21.6798 35.425 21.6965 35.825C21.7298 36.2083 21.7465 36.7667 21.7465 37.5ZM30.8848 38.3L30.9848 39.175C30.9848 39.4917 30.6848 39.65 30.0848 39.65C28.8681 39.65 28.2598 39.1917 28.2598 38.275C28.2598 38.0583 28.3181 37.7583 28.4348 37.375C28.5514 36.9917 28.6098 36.6583 28.6098 36.375C28.6098 36.0917 28.5264 35.85 28.3598 35.65C28.1931 35.4333 27.9514 35.325 27.6348 35.325C27.3181 35.325 27.0431 35.4417 26.8098 35.675C26.5931 35.8917 26.4598 36.1167 26.4098 36.35L26.3098 36.7C26.2098 37.2167 26.1598 38.0833 26.1598 39.3C26.1598 40.5 26.1764 41.45 26.2098 42.15C26.2431 42.8333 26.2764 43.3083 26.3098 43.575C26.3431 43.825 26.3598 43.975 26.3598 44.025C26.3598 44.4417 26.1014 44.775 25.5848 45.025C25.0681 45.2917 24.5514 45.425 24.0348 45.425C23.5181 45.425 23.2598 45.3167 23.2598 45.1L23.3848 44.325C23.6181 42.875 23.7348 40.9833 23.7348 38.65C23.7348 36.3167 23.6514 34.7333 23.4848 33.9C23.4848 33.7 23.6598 33.6 24.0098 33.6C24.9098 33.6 25.5098 33.9083 25.8098 34.525C25.8264 34.5917 25.8514 34.625 25.8848 34.625C25.9348 34.625 26.0514 34.55 26.2348 34.4C26.7848 33.95 27.4348 33.725 28.1848 33.725C28.6514 33.725 29.1181 33.8167 29.5848 34C30.5348 34.3833 31.0098 35.1833 31.0098 36.4L30.8848 38.3ZM33.7965 34.925C34.1632 34.5417 34.6465 34.225 35.2465 33.975C35.8465 33.7083 36.4215 33.575 36.9715 33.575C37.5215 33.575 38.0798 33.7 38.6465 33.95C38.7132 33.95 38.7632 33.9333 38.7965 33.9C39.2298 33.4667 39.8632 33.25 40.6965 33.25C40.8965 33.25 40.9965 33.3417 40.9965 33.525C40.9965 33.5417 40.9798 33.6167 40.9465 33.75C40.9132 33.8833 40.8715 34.0833 40.8215 34.35C40.7715 34.6 40.7298 34.9083 40.6965 35.275C40.5798 36.225 40.5132 37.275 40.4965 38.425C40.4965 39.575 40.4965 40.725 40.4965 41.875L40.5715 47.125C40.5715 48.8083 40.1382 50.2083 39.2715 51.325C38.9215 51.775 38.3882 52.1667 37.6715 52.5C36.9715 52.8333 36.1465 53 35.1965 53C34.9798 52.8667 34.8715 52.7333 34.8715 52.6C34.8715 52.4667 34.9632 52.3583 35.1465 52.275C36.1965 51.7917 36.9465 50.6417 37.3965 48.825C37.8465 47.025 38.0715 44.2833 38.0715 40.6L38.0215 37.1L37.9465 35.4C37.9465 35.25 37.7132 35.1417 37.2465 35.075C36.6465 35.075 36.1382 35.275 35.7215 35.675C35.3215 36.0583 35.0465 36.5667 34.8965 37.2C34.6298 38.2167 34.4965 39.1 34.4965 39.85C34.4965 40.5833 34.6132 41.2333 34.8465 41.8C35.0965 42.3667 35.5215 42.65 36.1215 42.65C36.2882 42.65 36.4382 42.6167 36.5715 42.55C36.7215 42.4833 36.8215 42.45 36.8715 42.45C37.0382 42.45 37.1215 42.6167 37.1215 42.95C37.1215 43.2833 37.0965 43.5583 37.0465 43.775C36.9965 43.975 36.8965 44.2 36.7465 44.45C36.4132 45 35.7632 45.275 34.7965 45.275C33.8298 45.275 33.1382 44.925 32.7215 44.225C32.2882 43.5083 32.0382 42.8667 31.9715 42.3C31.8715 41.45 31.8215 40.8917 31.8215 40.625C31.8215 40.3583 31.8215 40.15 31.8215 40C31.8382 39.8333 31.8798 39.5167 31.9465 39.05C32.0298 38.5667 32.1298 38.1167 32.2465 37.7C32.3798 37.2667 32.5798 36.7917 32.8465 36.275C33.1132 35.7417 33.4298 35.2917 33.7965 34.925ZM50.4818 37.5L50.4318 40.7C50.4318 42.9167 50.6735 44.25 51.1568 44.7C51.2235 44.7667 51.2568 44.8417 51.2568 44.925C51.2568 45.175 50.7152 45.3 49.6318 45.3C48.5652 45.3 47.9985 44.9833 47.9318 44.35C47.9152 44.2 47.9068 43.8917 47.9068 43.425L48.0068 39.425C48.0068 39.3083 47.9402 39.25 47.8068 39.25C47.0068 39.25 46.2568 39.475 45.5568 39.925C44.8568 40.375 44.5068 40.95 44.5068 41.65C44.5068 42.0167 44.6068 42.325 44.8068 42.575C45.0068 42.825 45.2485 42.95 45.5318 42.95C45.8318 42.95 46.0735 42.8917 46.2568 42.775C46.4568 42.6583 46.5735 42.5917 46.6068 42.575C46.8902 42.6083 47.0318 42.9083 47.0318 43.475C47.0318 44.025 46.7735 44.475 46.2568 44.825C45.7402 45.1583 45.1985 45.325 44.6318 45.325C44.0652 45.325 43.5735 45.225 43.1568 45.025C42.7568 44.825 42.4652 44.6 42.2818 44.35C42.0985 44.1 41.9485 43.8167 41.8318 43.5C41.7152 43.1167 41.6568 42.7833 41.6568 42.5C41.6568 41.3333 42.0235 40.4 42.7568 39.7C43.4902 39 44.4318 38.5 45.5818 38.2C47.0985 37.9 47.8902 37.625 47.9568 37.375C48.0068 37.1917 48.0318 36.8833 48.0318 36.45C48.0318 35.5667 47.5818 35.125 46.6818 35.125C46.2985 35.125 45.9568 35.25 45.6568 35.5C45.3568 35.7333 45.2068 36.0333 45.2068 36.4L45.3568 37C45.3235 37.2833 45.0235 37.45 44.4568 37.5L44.1818 37.525C43.6818 37.525 43.2818 37.4 42.9818 37.15C42.6985 36.9 42.5568 36.5667 42.5568 36.15C42.5568 35.8833 42.6402 35.5917 42.8068 35.275C42.9902 34.9417 43.2152 34.675 43.4818 34.475C43.7485 34.275 44.1568 34.1 44.7068 33.95C45.2735 33.7833 45.8152 33.7 46.3318 33.7C46.8485 33.7 47.2485 33.7167 47.5318 33.75C47.8152 33.7833 48.1985 33.8667 48.6818 34C49.1818 34.1167 49.5902 34.35 49.9068 34.7C50.2402 35.05 50.4152 35.425 50.4318 35.825C50.4652 36.2083 50.4818 36.7667 50.4818 37.5ZM51.6201 35.25L51.6951 34.25C51.7118 34.1 51.8285 34.025 52.0451 34.025H52.9201L52.8201 32.025V31.925C52.8201 31.5417 53.1118 31.175 53.6951 30.825C54.2785 30.475 54.8118 30.3 55.2951 30.3C55.4451 30.3 55.5201 30.3667 55.5201 30.5V30.525C55.4535 30.975 55.3868 32.1333 55.3201 34C56.0535 34 56.5201 33.9833 56.7201 33.95C56.9201 33.9167 57.0285 33.9 57.0451 33.9C57.1618 33.9 57.2201 34 57.2201 34.2C57.2201 34.4 57.1285 34.6583 56.9451 34.975C56.7618 35.275 56.5618 35.4333 56.3451 35.45H55.2951C55.2785 36.0167 55.2701 36.975 55.2701 38.325C55.2701 39.6583 55.2785 40.7583 55.2951 41.625C55.3285 42.4917 55.3618 43.15 55.3951 43.6C55.4285 44.0333 55.4618 44.3833 55.4951 44.65C55.5451 44.9167 55.5785 45.1083 55.5951 45.225C55.6285 45.3417 55.6451 45.4167 55.6451 45.45C55.6451 45.6167 55.5368 45.7083 55.3201 45.725C54.6701 45.725 54.0201 45.6333 53.3701 45.45C52.7368 45.2667 52.4201 44.95 52.4201 44.5C52.7701 41.7 52.9451 38.6917 52.9451 35.475C52.4951 35.475 52.1535 35.4917 51.9201 35.525H51.8951C51.7451 35.525 51.6535 35.4333 51.6201 35.25ZM60.0359 35.575C59.6026 35.5917 59.2859 35.6083 59.0859 35.625C58.9026 35.625 58.8109 35.575 58.8109 35.475C58.8109 35.375 58.8609 35.275 58.9609 35.175C60.0276 34.1917 61.8276 33.7 64.3609 33.7C65.2276 33.7 65.9109 33.775 66.4109 33.925L66.6609 34C66.8609 34.0833 66.9609 34.175 66.9609 34.275C66.9609 34.3583 66.9026 34.425 66.7859 34.475C66.3359 34.6083 65.9026 34.825 65.4859 35.125C65.0693 35.4083 64.8609 35.6083 64.8609 35.725L65.0109 35.9C65.5443 36.2 65.9526 36.675 66.2359 37.325C66.5359 37.975 66.7026 38.55 66.7359 39.05L66.7859 39.825C66.7859 41.475 66.3276 42.8333 65.4109 43.9C64.4943 44.9667 63.2443 45.5 61.6609 45.5C60.8609 45.5 60.1693 45.3583 59.5859 45.075C59.0026 44.7917 58.5693 44.475 58.2859 44.125C58.0193 43.7583 57.8026 43.35 57.6359 42.9C57.4359 42.2833 57.3359 41.65 57.3359 41C57.3359 40.3333 57.4443 39.6667 57.6609 39C57.8943 38.3333 58.1526 37.8417 58.4359 37.525C58.7359 37.2083 59.0693 36.95 59.4359 36.75C59.9026 36.5 60.2776 36.375 60.5609 36.375C60.8443 36.375 60.9859 36.4333 60.9859 36.55L60.8359 36.8C60.4693 37.2333 60.2026 37.8 60.0359 38.5C59.8859 39.2 59.8109 39.825 59.8109 40.375C59.8109 40.9083 59.8776 41.4417 60.0109 41.975C60.1443 42.5083 60.2943 42.9083 60.4609 43.175C60.6276 43.425 60.8193 43.6167 61.0359 43.75C61.3526 43.95 61.6859 44.05 62.0359 44.05C62.3859 44.05 62.7276 43.9167 63.0609 43.65C63.3943 43.3667 63.6359 43 63.7859 42.55C64.0859 41.7167 64.2359 40.8583 64.2359 39.975C64.2359 38.575 63.8776 37.4917 63.1609 36.725C62.4609 35.9583 61.4193 35.575 60.0359 35.575ZM75.4648 38.3L75.5648 39.175C75.5648 39.4917 75.2648 39.65 74.6648 39.65C73.4482 39.65 72.8398 39.1917 72.8398 38.275C72.8398 38.0583 72.8982 37.7583 73.0148 37.375C73.1315 36.9917 73.1898 36.6583 73.1898 36.375C73.1898 36.0917 73.1065 35.85 72.9398 35.65C72.7732 35.4333 72.5315 35.325 72.2148 35.325C71.8982 35.325 71.6232 35.4417 71.3898 35.675C71.1732 35.8917 71.0398 36.1167 70.9898 36.35L70.8898 36.7C70.7898 37.2167 70.7398 38.0833 70.7398 39.3C70.7398 40.5 70.7565 41.45 70.7898 42.15C70.8232 42.8333 70.8565 43.3083 70.8898 43.575C70.9232 43.825 70.9398 43.975 70.9398 44.025C70.9398 44.4417 70.6815 44.775 70.1648 45.025C69.6482 45.2917 69.1315 45.425 68.6148 45.425C68.0982 45.425 67.8398 45.3167 67.8398 45.1L67.9648 44.325C68.1982 42.875 68.3148 40.9833 68.3148 38.65C68.3148 36.3167 68.2315 34.7333 68.0648 33.9C68.0648 33.7 68.2398 33.6 68.5898 33.6C69.4898 33.6 70.0898 33.9083 70.3898 34.525C70.4065 34.5917 70.4315 34.625 70.4648 34.625C70.5148 34.625 70.6315 34.55 70.8148 34.4C71.3648 33.95 72.0148 33.725 72.7648 33.725C73.2315 33.725 73.6982 33.8167 74.1648 34C75.1148 34.3833 75.5898 35.1833 75.5898 36.4L75.4648 38.3Z" fill="#2BB180"/>
<g clip-path="url(#clip0_961_556)">
<path d="M26.846 5.64447C26.756 6.05547 26.5466 6.38647 26.2176 6.63747C25.8796 6.89447 25.6855 7.05047 25.6355 7.10547C23.72 9.17247 23.8881 11.703 23.9061 14.316C23.9063 14.3369 23.9129 14.3573 23.9248 14.3744C23.9367 14.3916 23.9535 14.4049 23.973 14.4124C23.9925 14.42 24.0138 14.4216 24.0343 14.417C24.0547 14.4123 24.0732 14.4017 24.0876 14.3865C24.9586 13.4705 26.003 13.2015 27.2211 13.5795C28.0266 13.8285 28.6821 14.694 28.9566 15.4215C29.3936 16.5735 29.7676 17.9815 30.0786 19.6455C30.4536 21.654 30.7281 23.6355 31.7226 25.455C32.3886 26.673 33.2931 26.724 34.6716 26.6205" stroke="#09482F" stroke-width="0.74"/>
<path d="M34.6715 26.6205C36.9475 26.6715 39.23 26.683 41.519 26.655C42.313 26.645 42.773 26.6265 42.899 26.5995C44.9585 26.1645 45.5735 21.5325 45.92 19.8015C45.965 19.5755 46.1355 19.4625 46.4315 19.4625" stroke="#165940" stroke-width="0.74"/>
<path d="M46.4315 19.4625C47.0585 19.7445 46.655 20.805 46.523 21.309C46.521 21.3175 46.5211 21.3265 46.5232 21.335C46.5254 21.3435 46.5297 21.3513 46.5356 21.3578C46.5415 21.3643 46.5489 21.3693 46.5572 21.3723C46.5654 21.3753 46.5743 21.3762 46.583 21.375C49.526 20.9385 51.5075 19.098 51.986 16.1085C51.994 16.0595 51.9875 16.0125 51.9665 15.9675C51.53 15.0195 50.657 14.2485 49.5845 14.295C47.954 14.364 47.414 16.8525 47.1515 18.2235C47.0945 18.5195 46.9065 18.6595 46.5875 18.6435" stroke="#1F6252" stroke-width="0.74"/>
<path d="M46.5875 18.6435C46.31 18.513 46.2185 18.3135 46.2905 18.003C46.637 16.4985 47.2205 14.076 48.623 13.626C49.928 13.206 51.0525 13.4785 51.9965 14.4435C52.0375 14.4855 52.0595 14.477 52.0625 14.418C52.214 11.388 52.193 8.46149 49.7015 6.50249C48.305 5.40299 47.387 5.63849 46.796 3.74849C45.947 1.02449 43.0445 0.100493 41.4335 2.91599C39.9095 5.57999 36.194 5.78699 34.637 3.06149C34.395 2.63849 34.191 2.34099 34.025 2.16899" stroke="#165940" stroke-width="0.74"/>
<path d="M34.025 2.16899C32.345 0.13949 29.9465 1.53449 29.252 3.60149C28.937 4.53899 28.781 4.96199 28.0505 5.45849C28.0055 5.48849 27.9575 5.49499 27.9065 5.47799L27.425 5.31899" stroke="#09482F" stroke-width="0.74"/>
<path d="M24.0201 16.101C24.4266 18.9255 26.5236 21.0705 29.4006 21.3765C29.4556 21.3825 29.4776 21.358 29.4666 21.303C29.0766 19.449 28.8321 17.613 28.1391 15.834C27.2406 13.527 24.9291 14.0055 24.0411 15.957C24.0201 16.003 24.0131 16.051 24.0201 16.101Z" stroke="#1F6252" stroke-width="0.74"/>
<path d="M31.8245 27.108C31.7265 27.242 31.7295 27.4045 31.8335 27.5955C31.9475 27.8055 32.021 28.062 32.2925 28.2255C32.3365 28.2525 32.3795 28.251 32.4215 28.221C32.6425 28.067 32.7865 27.8575 32.8535 27.5925C32.8635 27.5505 32.8495 27.5205 32.8115 27.5025L31.934 27.0795C31.89 27.0585 31.8535 27.068 31.8245 27.108Z" stroke="#787A7B" stroke-width="0.74"/>
<path d="M44.1411 26.991C43.8561 27.206 43.5421 27.368 43.1991 27.477C43.1501 27.493 43.1316 27.5265 43.1436 27.5775C43.2106 27.8605 43.3636 28.0815 43.6026 28.2405C43.6526 28.2745 43.6996 28.27 43.7436 28.227C44.0946 27.879 44.2661 27.4535 44.2581 26.9505C44.2571 26.9025 44.2351 26.8885 44.1921 26.9085C44.1641 26.9205 44.1471 26.948 44.1411 26.991Z" stroke="#787A7B" stroke-width="0.74"/>
<path d="M35.186 27.5535L34.046 27.5655C34.0365 27.5655 34.0273 27.5693 34.0206 27.576C34.0138 27.5828 34.01 27.5919 34.01 27.6015V27.6255C34.0116 27.7756 34.0286 27.9241 34.0602 28.0625C34.0918 28.2009 34.1373 28.3265 34.1942 28.4321C34.251 28.5377 34.318 28.6212 34.3914 28.6779C34.4649 28.7346 34.5432 28.7633 34.622 28.7625H34.634C34.7931 28.7608 34.9444 28.6388 35.0547 28.4234C35.165 28.2079 35.2252 27.9166 35.222 27.6135V27.5895C35.222 27.5848 35.2211 27.5801 35.2193 27.5757C35.2175 27.5714 35.2148 27.5674 35.2115 27.564C35.2081 27.5607 35.2042 27.558 35.1998 27.5562C35.1954 27.5544 35.1907 27.5535 35.186 27.5535Z" stroke="#787A7B" stroke-width="0.74"/>
<path d="M38.609 27.5535C38.604 27.5315 38.583 27.5225 38.546 27.5265C38.496 27.5325 38.4745 27.5605 38.4815 27.6105C38.5405 27.9985 38.6735 28.352 38.8805 28.671C38.9046 28.7082 38.9373 28.7392 38.9757 28.7614C39.0142 28.7836 39.0574 28.7964 39.1018 28.7988C39.1462 28.8011 39.1907 28.7929 39.2314 28.7749C39.2722 28.7569 39.3082 28.7295 39.3365 28.695C39.5875 28.385 39.726 28.033 39.752 27.639C39.756 27.587 39.732 27.5615 39.68 27.5625C39.324 27.5645 38.967 27.5615 38.609 27.5535Z" stroke="#787A7B" stroke-width="0.74"/>
<path d="M37.4496 27.561L36.2976 27.564C36.292 27.564 36.2867 27.5662 36.2828 27.5701C36.2788 27.5741 36.2766 27.5794 36.2766 27.585V27.6075C36.2769 27.7603 36.2926 27.9115 36.3226 28.0526C36.3527 28.1936 36.3967 28.3217 36.452 28.4296C36.5073 28.5374 36.5729 28.6228 36.645 28.681C36.7171 28.7391 36.7942 28.7689 36.8721 28.7685H36.8811C37.0381 28.7677 37.1884 28.6447 37.2989 28.4264C37.4095 28.2082 37.4712 27.9125 37.4706 27.6045V27.582C37.4706 27.5764 37.4684 27.5711 37.4645 27.5671C37.4605 27.5632 37.4552 27.561 37.4496 27.561Z" stroke="#787A7B" stroke-width="0.74"/>
<path d="M41.954 27.5625L40.811 27.5595C40.8015 27.5595 40.7923 27.5633 40.7856 27.57C40.7788 27.5768 40.775 27.5859 40.775 27.5955V27.621C40.7744 27.9195 40.8373 28.206 40.9498 28.4175C41.0623 28.629 41.2152 28.7482 41.375 28.749H41.384C41.4633 28.7494 41.5418 28.7206 41.6152 28.6642C41.6886 28.6079 41.7553 28.5251 41.8116 28.4206C41.8679 28.3161 41.9126 28.192 41.9432 28.0553C41.9738 27.9186 41.9897 27.772 41.99 27.624V27.5985C41.99 27.5938 41.9891 27.5891 41.9873 27.5847C41.9855 27.5803 41.9828 27.5764 41.9795 27.573C41.9761 27.5697 41.9722 27.567 41.9678 27.5652C41.9634 27.5634 41.9588 27.5625 41.954 27.5625Z" stroke="#787A7B" stroke-width="0.74"/>
<path d="M34.025 2.16898C32.762 2.13598 31.88 2.68248 31.379 3.80848" stroke="#1EA06F" stroke-width="0.74"/>
<path d="M31.379 3.80847C30.489 4.91047 30.4135 6.06147 31.1525 7.26147" stroke="#09482F" stroke-width="0.74"/>
<path d="M31.1525 7.26147C29.972 8.58297 29.2565 10.0035 29.5745 11.8095C30.209 15.4125 30.779 18.813 31.997 22.395C32.218 23.046 32.4845 23.589 32.7965 24.024" stroke="#1EA06F" stroke-width="0.74"/>
<path d="M32.7966 24.024C32.7456 24.823 33.0991 25.3675 33.8571 25.6575" stroke="#09482F" stroke-width="0.74"/>
<path d="M33.8571 25.6575L34.6716 26.6205" stroke="#1EA06F" stroke-width="0.74"/>
<path d="M46.5875 18.6435L46.4315 19.4625" stroke="#35BA92" stroke-width="0.74"/>
<path d="M33.857 25.6575C34.8845 25.9845 36.587 25.779 36.8045 24.489C37.1135 22.6575 33.6095 22.236 32.7965 24.024" stroke="#165940" stroke-width="0.74"/>
<path d="M31.1526 7.2615C31.7616 7.9275 32.5821 7.8735 33.0351 7.0935C33.5571 6.1975 33.5821 5.2875 33.1101 4.3635C32.7321 3.6225 32.1126 3.441 31.3791 3.8085" stroke="#165940" stroke-width="0.74"/>
<path d="M43.9461 7.725C44.3136 7.725 44.6662 7.50833 44.9261 7.12266C45.186 6.737 45.3321 6.21392 45.3321 5.6685C45.3321 5.12308 45.186 4.6 44.9261 4.21433C44.6662 3.82867 44.3136 3.612 43.9461 3.612C43.5785 3.612 43.2259 3.82867 42.966 4.21433C42.7061 4.6 42.5601 5.12308 42.5601 5.6685C42.5601 6.21392 42.7061 6.737 42.966 7.12266C43.2259 7.50833 43.5785 7.725 43.9461 7.725Z" stroke="#165940" stroke-width="0.74"/>
<path d="M45.2091 12.117C44.8116 11.316 43.7736 10.3905 42.9591 10.0395C39.9171 8.7275 36.8796 8.621 33.8466 9.72C32.9646 10.0395 30.8661 11.2095 30.8001 12.2205C30.7851 12.474 31.0431 12.759 31.2771 12.669C35.7831 10.955 40.2106 10.933 44.5596 12.603C44.7986 12.695 44.9976 12.654 45.1566 12.48C45.2008 12.4318 45.2294 12.3713 45.2388 12.3066C45.2482 12.2418 45.2378 12.1758 45.2091 12.117Z" stroke="#165940" stroke-width="0.74"/>
<path d="M43.9955 16.122C43.304 14.2665 41.159 13.2015 39.311 12.975C36.5945 12.6405 33.5165 13.272 32.1305 15.8055C31.934 16.167 32.0495 16.467 32.465 16.5285C32.516 16.5355 32.5645 16.528 32.6105 16.506C36.2265 14.785 39.843 14.7955 43.46 16.5375C43.52 16.5665 43.577 16.561 43.631 16.521L43.946 16.287C44.004 16.244 44.0205 16.189 43.9955 16.122Z" stroke="#165940" stroke-width="0.74"/>
<path d="M42.8196 18.4665C40.1031 15.945 34.3131 16.158 32.3391 19.563C32.1366 19.9125 32.1696 20.256 32.6001 20.37C32.6461 20.382 32.6906 20.3775 32.7336 20.3565C36.0886 18.7415 39.4771 18.681 42.8991 20.175C43.0776 20.2515 43.2351 20.4345 43.4856 20.3385C44.2821 20.0325 43.1946 18.8145 42.8196 18.4665Z" stroke="#165940" stroke-width="0.74"/>
<path d="M43.2126 24.323C43.2119 24.1285 43.1591 23.9362 43.057 23.7569C42.955 23.5777 42.8058 23.415 42.618 23.2781C42.4302 23.1413 42.2074 23.0331 41.9624 22.9595C41.7174 22.886 41.4549 22.8486 41.1899 22.8495C40.6549 22.8514 40.1423 23.0091 39.7649 23.2881C39.3875 23.5671 39.1763 23.9444 39.1776 24.337C39.1783 24.5314 39.2312 24.7238 39.3332 24.9031C39.4352 25.0823 39.5844 25.245 39.7722 25.3818C39.96 25.5187 40.1828 25.6269 40.4278 25.7005C40.6729 25.774 40.9353 25.8114 41.2003 25.8105C41.7353 25.8086 42.248 25.6508 42.6253 25.3719C43.0027 25.0929 43.214 24.7156 43.2126 24.323Z" stroke="#165940" stroke-width="0.74"/>
<path d="M43.0071 11.103C40.1301 9.44249 35.9451 9.441 33.0561 11.0595C32.9791 11.1015 32.9841 11.1165 33.0711 11.1045C33.2701 11.0765 33.4591 11.0405 33.6381 10.9965C36.7011 10.248 39.9576 10.3455 42.9921 11.1405C42.9966 11.141 43.0012 11.1399 43.0051 11.1376C43.009 11.1352 43.012 11.1316 43.0137 11.1274C43.0154 11.1232 43.0157 11.1185 43.0145 11.1141C43.0133 11.1097 43.0107 11.1058 43.0071 11.103Z" stroke="#09482F" stroke-width="0.74"/>
<path d="M41.846 14.835C39.6485 13.458 36.329 13.233 34.112 14.8815C34.009 14.9585 34.019 14.9785 34.142 14.9415C36.4085 14.2515 38.78 14.1465 41.075 14.7405C41.303 14.7995 41.5495 14.8575 41.8145 14.9145C41.9775 14.9505 41.988 14.924 41.846 14.835Z" stroke="#09482F" stroke-width="0.74"/>
<path d="M41.6976 18.6825C39.4641 17.3685 36.5256 17.2425 34.3131 18.693C34.2191 18.755 34.2266 18.773 34.3356 18.747C36.8601 18.156 39.1116 18.0255 41.6391 18.741C41.6881 18.755 41.7126 18.744 41.7126 18.708C41.7126 18.703 41.7113 18.6981 41.7086 18.6936C41.706 18.6891 41.7022 18.6853 41.6976 18.6825Z" stroke="#09482F" stroke-width="0.74"/>
<path d="M35.9406 24.3375C35.9406 24.1855 35.8211 24.0398 35.6085 23.9323C35.3958 23.8248 35.1074 23.7645 34.8066 23.7645C34.5059 23.7645 34.2174 23.8248 34.0047 23.9323C33.7921 24.0398 33.6726 24.1855 33.6726 24.3375C33.6726 24.4894 33.7921 24.6352 34.0047 24.7426C34.2174 24.8501 34.5059 24.9105 34.8066 24.9105C35.1074 24.9105 35.3958 24.8501 35.6085 24.7426C35.8211 24.6352 35.9406 24.4894 35.9406 24.3375Z" stroke="#2A282C" stroke-width="0.74"/>
<path d="M42.3291 24.3325C42.3289 24.2571 42.2994 24.1824 42.2421 24.1128C42.1849 24.0432 42.101 23.98 41.9953 23.9268C41.8897 23.8737 41.7642 23.8316 41.6262 23.803C41.4882 23.7743 41.3404 23.7597 41.191 23.76C40.8895 23.7605 40.6004 23.8215 40.3874 23.9297C40.1743 24.0378 40.0548 24.1841 40.0551 24.3365C40.0552 24.4119 40.0847 24.4866 40.142 24.5562C40.1992 24.6258 40.2831 24.689 40.3888 24.7421C40.4945 24.7953 40.6199 24.8374 40.7579 24.866C40.8959 24.8946 41.0437 24.9092 41.1931 24.909C41.4946 24.9085 41.7837 24.8474 41.9967 24.7393C42.2098 24.6312 42.3293 24.4849 42.3291 24.3325Z" stroke="#2A282C" stroke-width="0.74"/>
<path d="M53 12.309V14.334C52.9385 15.024 52.9625 15.7935 52.841 16.4175C52.316 19.1295 50.7675 20.969 48.1955 21.936C47.642 22.143 46.9835 22.212 46.3685 22.317C46.3175 22.326 46.287 22.356 46.277 22.407C46.043 23.555 45.6785 24.66 45.1835 25.722C45.1605 25.773 45.1525 25.826 45.1595 25.881C45.2625 26.63 45.213 27.2895 45.011 27.8595C44.6615 28.842 43.64 29.631 42.797 28.6665C42.7878 28.6558 42.7761 28.6476 42.7628 28.6426C42.7496 28.6376 42.7353 28.636 42.7212 28.6379C42.7071 28.6398 42.6936 28.6452 42.682 28.6536C42.6703 28.662 42.6609 28.6732 42.6545 28.686C42.161 29.694 41.0255 30.207 40.328 29.0085C40.3218 28.9975 40.3128 28.9884 40.302 28.982C40.2911 28.9755 40.2788 28.9721 40.2662 28.9719C40.2536 28.9718 40.2412 28.9749 40.2302 28.9811C40.2192 28.9873 40.21 28.9962 40.2035 29.007C39.6635 29.889 38.675 29.9325 38.081 29.0595C38.027 28.9805 37.9735 28.981 37.9205 29.061C37.364 29.916 36.353 29.904 35.8085 29.022C35.8 29.0083 35.788 28.997 35.7737 28.9894C35.7594 28.9818 35.7434 28.9781 35.7273 28.9787C35.7111 28.9794 35.6954 28.9842 35.6817 28.9929C35.6681 29.0015 35.657 29.0137 35.6495 29.028C35.036 30.189 33.815 29.703 33.377 28.7145C33.3707 28.7001 33.361 28.6875 33.3487 28.6775C33.3365 28.6676 33.3221 28.6608 33.3067 28.6576C33.2913 28.6543 33.2754 28.6548 33.2602 28.659C33.245 28.6632 33.2311 28.6709 33.2195 28.6815C32.7135 29.1505 32.2275 29.2315 31.7615 28.9245C30.866 28.3365 30.68 26.8725 30.845 25.8825C30.853 25.8345 30.847 25.7885 30.827 25.7445C30.329 24.6675 29.9605 23.5485 29.7215 22.3875C29.7168 22.3645 29.7047 22.3435 29.6872 22.3279C29.6696 22.3122 29.6474 22.3026 29.624 22.3005C26.027 21.957 23.3315 19.3425 23.105 15.7485C23.076 15.2955 23.041 14.843 23 14.391V12.2535C23.027 11.8545 23.053 11.457 23.078 11.061C23.2205 8.80651 24.2225 6.92701 26.051 5.59351C26.3345 5.38651 26.585 5.47051 26.846 5.64451C26.756 6.05551 26.5465 6.38651 26.2175 6.63751C25.8795 6.89451 25.6855 7.05051 25.6355 7.10551C23.72 9.17251 23.888 11.703 23.906 14.316C23.9063 14.3369 23.9128 14.3573 23.9247 14.3745C23.9367 14.3917 23.9535 14.4049 23.973 14.4125C23.9925 14.4201 24.0138 14.4216 24.0342 14.417C24.0546 14.4124 24.0732 14.4018 24.0875 14.3865C24.9585 13.4705 26.003 13.2015 27.221 13.5795C28.0265 13.8285 28.682 14.694 28.9565 15.4215C29.3935 16.5735 29.7675 17.9815 30.0785 19.6455C30.4535 21.654 30.728 23.6355 31.7225 25.455C32.3885 26.673 33.293 26.724 34.6715 26.6205C36.9475 26.6715 39.23 26.683 41.519 26.655C42.313 26.645 42.773 26.6265 42.899 26.5995C44.9585 26.1645 45.5735 21.5325 45.92 19.8015C45.965 19.5755 46.1355 19.4625 46.4315 19.4625C47.0585 19.7445 46.655 20.805 46.523 21.309C46.521 21.3176 46.521 21.3265 46.5232 21.335C46.5254 21.3435 46.5297 21.3514 46.5356 21.3579C46.5415 21.3644 46.5489 21.3693 46.5572 21.3723C46.5654 21.3753 46.5743 21.3762 46.583 21.375C49.526 20.9385 51.5075 19.098 51.986 16.1085C51.994 16.0595 51.9875 16.0125 51.9665 15.9675C51.53 15.0195 50.657 14.2485 49.5845 14.295C47.954 14.364 47.414 16.8525 47.1515 18.2235C47.0945 18.5195 46.9065 18.6595 46.5875 18.6435C46.31 18.513 46.2185 18.3135 46.2905 18.003C46.637 16.4985 47.2205 14.076 48.623 13.626C49.928 13.206 51.0525 13.4785 51.9965 14.4435C52.0375 14.4855 52.0595 14.477 52.0625 14.418C52.214 11.388 52.193 8.46151 49.7015 6.50251C48.305 5.40301 47.387 5.63851 46.796 3.74851C45.947 1.02451 43.0445 0.100513 41.4335 2.91601C39.9095 5.58001 36.194 5.78701 34.637 3.06151C34.395 2.63851 34.191 2.34101 34.025 2.16901C32.345 0.139513 29.9465 1.53451 29.252 3.60151C28.937 4.53901 28.781 4.96201 28.0505 5.45851C28.0055 5.48851 27.9575 5.49501 27.9065 5.47801L27.425 5.31901C27.438 4.95001 27.5985 4.66651 27.9065 4.46851C27.9495 4.44151 27.982 4.40501 28.004 4.35901C28.3205 3.69751 28.55 2.89201 28.8545 2.35951C29.648 0.976513 31.3085 -0.0944872 32.903 0.409513C34.1375 0.801013 34.8065 1.59451 35.4545 2.65201C35.6795 3.01901 35.881 3.27801 36.059 3.42901C37.397 4.56001 39.623 4.27201 40.4945 2.71351C41.456 0.996013 43.208 -0.326987 45.2555 0.597013C46.5815 1.19701 47.2535 2.32051 47.696 3.72751C48.035 4.80451 48.7955 4.84801 49.5995 5.36251C51.1885 6.37851 52.224 7.79451 52.706 9.61051C52.9265 10.443 52.9535 11.4015 53 12.309ZM24.02 16.101C24.4265 18.9255 26.5235 21.0705 29.4005 21.3765C29.4555 21.3825 29.4775 21.358 29.4665 21.303C29.0765 19.449 28.832 17.613 28.139 15.834C27.2405 13.527 24.929 14.0055 24.041 15.957C24.02 16.003 24.013 16.051 24.02 16.101ZM31.8245 27.108C31.7265 27.242 31.7295 27.4045 31.8335 27.5955C31.9475 27.8055 32.021 28.062 32.2925 28.2255C32.3365 28.2525 32.3795 28.251 32.4215 28.221C32.6425 28.067 32.7865 27.8575 32.8535 27.5925C32.8635 27.5505 32.8495 27.5205 32.8115 27.5025L31.934 27.0795C31.89 27.0585 31.8535 27.068 31.8245 27.108ZM44.141 26.991C43.856 27.206 43.542 27.368 43.199 27.477C43.15 27.493 43.1315 27.5265 43.1435 27.5775C43.2105 27.8605 43.3635 28.0815 43.6025 28.2405C43.6525 28.2745 43.6995 28.27 43.7435 28.227C44.0945 27.879 44.266 27.4535 44.258 26.9505C44.257 26.9025 44.235 26.8885 44.192 26.9085C44.164 26.9205 44.147 26.948 44.141 26.991ZM35.186 27.5535L34.046 27.5655C34.0365 27.5655 34.0273 27.5693 34.0205 27.5761C34.0138 27.5828 34.01 27.592 34.01 27.6015V27.6255C34.0115 27.7756 34.0286 27.9242 34.0602 28.0626C34.0918 28.201 34.1373 28.3265 34.1941 28.4321C34.251 28.5377 34.318 28.6212 34.3914 28.6779C34.4648 28.7346 34.5432 28.7634 34.622 28.7625H34.634C34.7931 28.7608 34.9444 28.6389 35.0547 28.4234C35.165 28.2079 35.2251 27.9166 35.222 27.6135V27.5895C35.222 27.5848 35.2211 27.5801 35.2193 27.5757C35.2175 27.5714 35.2148 27.5674 35.2115 27.5641C35.2081 27.5607 35.2041 27.5581 35.1998 27.5563C35.1954 27.5544 35.1907 27.5535 35.186 27.5535ZM38.609 27.5535C38.604 27.5315 38.583 27.5225 38.546 27.5265C38.496 27.5325 38.4745 27.5605 38.4815 27.6105C38.5405 27.9985 38.6735 28.352 38.8805 28.671C38.9046 28.7083 38.9373 28.7393 38.9757 28.7615C39.0142 28.7837 39.0574 28.7964 39.1018 28.7988C39.1462 28.8011 39.1906 28.7929 39.2314 28.7749C39.2722 28.7569 39.3082 28.7295 39.3365 28.695C39.5875 28.385 39.726 28.033 39.752 27.639C39.756 27.587 39.732 27.5615 39.68 27.5625C39.324 27.5645 38.967 27.5615 38.609 27.5535ZM37.4495 27.561L36.2975 27.564C36.2919 27.564 36.2866 27.5662 36.2827 27.5702C36.2787 27.5741 36.2765 27.5794 36.2765 27.585V27.6075C36.2768 27.7603 36.2924 27.9115 36.3225 28.0526C36.3526 28.1937 36.3966 28.3218 36.4519 28.4296C36.5072 28.5374 36.5728 28.6229 36.6449 28.681C36.7169 28.7392 36.7941 28.7689 36.872 28.7685H36.881C37.038 28.7677 37.1883 28.6447 37.2988 28.4265C37.4094 28.2082 37.4711 27.9126 37.4705 27.6045V27.582C37.4705 27.5764 37.4683 27.5711 37.4643 27.5672C37.4604 27.5632 37.4551 27.561 37.4495 27.561ZM41.954 27.5625L40.811 27.5595C40.8015 27.5595 40.7923 27.5633 40.7855 27.5701C40.7788 27.5768 40.775 27.586 40.775 27.5955V27.621C40.7744 27.9195 40.8373 28.206 40.9498 28.4175C41.0623 28.629 41.2152 28.7482 41.375 28.749H41.384C41.4633 28.7494 41.5418 28.7206 41.6152 28.6643C41.6885 28.6079 41.7553 28.5251 41.8115 28.4207C41.8678 28.3162 41.9126 28.192 41.9432 28.0553C41.9738 27.9186 41.9897 27.7721 41.99 27.624V27.5985C41.99 27.5938 41.9891 27.5891 41.9873 27.5847C41.9855 27.5804 41.9828 27.5764 41.9795 27.5731C41.9761 27.5697 41.9721 27.5671 41.9678 27.5653C41.9634 27.5634 41.9587 27.5625 41.954 27.5625Z" fill="black"/>
<path d="M34.0251 2.16899C32.7621 2.13599 31.8801 2.68249 31.3791 3.80849C30.4891 4.91049 30.4135 6.06149 31.1526 7.26149C29.9721 8.58299 29.2566 10.0035 29.5746 11.8095C30.2091 15.4125 30.7791 18.813 31.9971 22.395C32.2181 23.046 32.4845 23.589 32.7965 24.024C32.7456 24.823 33.099 25.3675 33.857 25.6575L34.6715 26.6205C33.293 26.724 32.3886 26.673 31.7226 25.455C30.7281 23.6355 30.4535 21.654 30.0785 19.6455C29.7675 17.9815 29.3935 16.5735 28.9566 15.4215C28.6821 14.694 28.0265 13.8285 27.2211 13.5795C26.0031 13.2015 24.9586 13.4705 24.0876 14.3865C24.0732 14.4017 24.0547 14.4124 24.0343 14.417C24.0138 14.4216 23.9925 14.42 23.973 14.4125C23.9535 14.4049 23.9367 14.3916 23.9248 14.3745C23.9129 14.3573 23.9063 14.3369 23.9061 14.316C23.8881 11.703 23.72 9.17249 25.6356 7.10549C25.6855 7.05049 25.8796 6.89449 26.2176 6.63749C26.5466 6.38649 26.7561 6.05549 26.8461 5.64449L27.4251 5.31899L27.9065 5.47799C27.9576 5.49499 28.0055 5.48849 28.0505 5.45849C28.781 4.96199 28.9371 4.53899 29.2521 3.60149C29.9466 1.53449 32.3451 0.13949 34.0251 2.16899Z" fill="#118F5E"/>
<path d="M46.5875 18.6435L46.4315 19.4625C46.1355 19.4625 45.965 19.5755 45.92 19.8015C45.5735 21.5325 44.9585 26.1645 42.899 26.5995C42.773 26.6265 42.313 26.645 41.519 26.655C39.23 26.683 36.9475 26.6715 34.6715 26.6205L33.857 25.6575C34.8845 25.9845 36.587 25.779 36.8045 24.489C37.1135 22.6575 33.6095 22.236 32.7965 24.024C32.4845 23.589 32.218 23.046 31.997 22.395C30.779 18.813 30.209 15.4125 29.5745 11.8095C29.2565 10.0035 29.972 8.58299 31.1525 7.26149C31.7615 7.92749 32.582 7.87349 33.035 7.09349C33.557 6.19749 33.582 5.28749 33.11 4.36349C32.732 3.62249 32.1125 3.44099 31.379 3.80849C31.88 2.68249 32.762 2.13599 34.025 2.16899C34.191 2.34099 34.395 2.63849 34.637 3.06149C36.194 5.78699 39.9095 5.57999 41.4335 2.91599C43.0445 0.100493 45.947 1.02449 46.796 3.74849C47.387 5.63849 48.305 5.40299 49.7015 6.50249C52.193 8.46149 52.214 11.388 52.0625 14.418C52.0595 14.477 52.0375 14.4855 51.9965 14.4435C51.0525 13.4785 49.928 13.206 48.623 13.626C47.2205 14.076 46.637 16.4985 46.2905 18.003C46.2185 18.3135 46.31 18.513 46.5875 18.6435ZM43.946 7.72499C44.3136 7.72499 44.6661 7.50833 44.926 7.12266C45.186 6.73699 45.332 6.21391 45.332 5.66849C45.332 5.12308 45.186 4.6 44.926 4.21433C44.6661 3.82866 44.3136 3.61199 43.946 3.61199C43.5784 3.61199 43.2259 3.82866 42.966 4.21433C42.706 4.6 42.56 5.12308 42.56 5.66849C42.56 6.21391 42.706 6.73699 42.966 7.12266C43.2259 7.50833 43.5784 7.72499 43.946 7.72499ZM45.209 12.117C44.8115 11.316 43.7735 10.3905 42.959 10.0395C39.917 8.72749 36.8795 8.62099 33.8465 9.71999C32.9645 10.0395 30.866 11.2095 30.8 12.2205C30.785 12.474 31.043 12.759 31.277 12.669C35.783 10.955 40.2105 10.933 44.5595 12.603C44.7985 12.695 44.9975 12.654 45.1565 12.48C45.2007 12.4318 45.2294 12.3713 45.2387 12.3066C45.2481 12.2418 45.2377 12.1758 45.209 12.117ZM43.9955 16.122C43.304 14.2665 41.159 13.2015 39.311 12.975C36.5945 12.6405 33.5165 13.272 32.1305 15.8055C31.934 16.167 32.0495 16.467 32.465 16.5285C32.516 16.5355 32.5645 16.528 32.6105 16.506C36.2265 14.785 39.843 14.7955 43.46 16.5375C43.52 16.5665 43.577 16.561 43.631 16.521L43.946 16.287C44.004 16.244 44.0205 16.189 43.9955 16.122ZM42.8195 18.4665C40.103 15.945 34.313 16.158 32.339 19.563C32.1365 19.9125 32.1695 20.256 32.6 20.37C32.646 20.382 32.6905 20.3775 32.7335 20.3565C36.0885 18.7415 39.477 18.681 42.899 20.175C43.0775 20.2515 43.235 20.4345 43.4855 20.3385C44.282 20.0325 43.1945 18.8145 42.8195 18.4665ZM43.2125 24.323C43.2118 24.1285 43.159 23.9362 43.0569 23.7569C42.9549 23.5777 42.8057 23.415 42.6179 23.2782C42.4301 23.1413 42.2073 23.0331 41.9623 22.9595C41.7172 22.886 41.4548 22.8486 41.1898 22.8495C40.6548 22.8514 40.1422 23.0091 39.7648 23.2881C39.3874 23.5671 39.1761 23.9444 39.1775 24.337C39.1782 24.5315 39.231 24.7238 39.3331 24.9031C39.4351 25.0823 39.5843 25.245 39.7721 25.3818C39.9599 25.5187 40.1827 25.6269 40.4277 25.7005C40.6728 25.774 40.9352 25.8114 41.2002 25.8105C41.7352 25.8086 42.2478 25.6508 42.6252 25.3719C43.0026 25.0929 43.2139 24.7156 43.2125 24.323Z" fill="#2BB180"/>
<path d="M31.1525 7.2615C30.4135 6.0615 30.489 4.9105 31.379 3.8085C32.1125 3.441 32.732 3.6225 33.11 4.3635C33.582 5.2875 33.557 6.1975 33.035 7.0935C32.582 7.8735 31.7615 7.9275 31.1525 7.2615Z" fill="black"/>
<path d="M42.56 5.6685C42.56 6.80427 43.1806 7.725 43.946 7.725C44.7115 7.725 45.332 6.80427 45.332 5.6685C45.332 4.53273 44.7115 3.612 43.946 3.612C43.1806 3.612 42.56 4.53273 42.56 5.6685Z" fill="black"/>
<path d="M42.9589 10.0395C43.7734 10.3905 44.8114 11.316 45.2089 12.117C45.2377 12.1758 45.2481 12.2418 45.2387 12.3066C45.2293 12.3713 45.2007 12.4318 45.1564 12.48C44.9974 12.654 44.7984 12.695 44.5594 12.603C40.2104 10.933 35.7829 10.955 31.2769 12.669C31.0429 12.759 30.7849 12.474 30.7999 12.2205C30.8659 11.2095 32.9644 10.0395 33.8464 9.72C36.8794 8.621 39.9169 8.7275 42.9589 10.0395ZM43.0069 11.103C40.1299 9.4425 35.9449 9.441 33.0559 11.0595C32.9789 11.1015 32.9839 11.1165 33.0709 11.1045C33.2699 11.0765 33.4589 11.0405 33.6379 10.9965C36.7009 10.248 39.9574 10.3455 42.9919 11.1405C42.9965 11.141 43.001 11.1399 43.005 11.1376C43.0089 11.1352 43.0119 11.1316 43.0136 11.1274C43.0153 11.1232 43.0156 11.1185 43.0144 11.1141C43.0132 11.1097 43.0106 11.1058 43.0069 11.103Z" fill="black"/>
<path d="M43.0071 11.103C43.0107 11.1058 43.0133 11.1097 43.0145 11.1141C43.0157 11.1185 43.0154 11.1232 43.0137 11.1274C43.012 11.1316 43.009 11.1352 43.0051 11.1376C43.0012 11.1399 42.9966 11.141 42.9921 11.1405C39.9576 10.3455 36.7011 10.248 33.6381 10.9965C33.4591 11.0405 33.2701 11.0765 33.0711 11.1045C32.9841 11.1165 32.9791 11.1015 33.0561 11.0595C35.9451 9.441 40.1301 9.44249 43.0071 11.103Z" fill="#118F5E"/>
<path d="M39.311 12.975C41.159 13.2015 43.304 14.2665 43.9956 16.122C44.0205 16.189 44.004 16.244 43.946 16.287L43.631 16.521C43.577 16.561 43.52 16.5665 43.46 16.5375C39.843 14.7955 36.2266 14.785 32.6105 16.506C32.5645 16.528 32.516 16.5355 32.465 16.5285C32.0495 16.467 31.934 16.167 32.1305 15.8055C33.5165 13.272 36.5945 12.6405 39.311 12.975ZM41.846 14.835C39.6485 13.458 36.3291 13.233 34.1121 14.8815C34.0091 14.9585 34.019 14.9785 34.142 14.9415C36.4085 14.2515 38.78 14.1465 41.0751 14.7405C41.3031 14.7995 41.5496 14.8575 41.8145 14.9145C41.9775 14.9505 41.988 14.924 41.846 14.835Z" fill="black"/>
<path d="M41.8145 14.9145C41.5495 14.8575 41.303 14.7995 41.075 14.7405C38.78 14.1465 36.4085 14.2515 34.142 14.9415C34.019 14.9785 34.009 14.9585 34.112 14.8815C36.329 13.233 39.6485 13.458 41.846 14.835C41.988 14.924 41.9775 14.9505 41.8145 14.9145Z" fill="#118F5E"/>
<path d="M29.4005 21.3765C26.5235 21.0705 24.4265 18.9255 24.02 16.101C24.013 16.051 24.02 16.003 24.041 15.957C24.929 14.0055 27.2405 13.527 28.139 15.834C28.832 17.613 29.0765 19.449 29.4665 21.303C29.4775 21.358 29.4555 21.3825 29.4005 21.3765Z" fill="#3EC3A4"/>
<path d="M46.4315 19.4625L46.5875 18.6435C46.9065 18.6595 47.0945 18.5195 47.1515 18.2235C47.414 16.8525 47.954 14.364 49.5845 14.295C50.657 14.2485 51.53 15.0195 51.9665 15.9675C51.9875 16.0125 51.994 16.0595 51.986 16.1085C51.5075 19.098 49.526 20.9385 46.583 21.375C46.5743 21.3762 46.5654 21.3753 46.5572 21.3723C46.5489 21.3693 46.5415 21.3643 46.5356 21.3578C46.5297 21.3513 46.5254 21.3435 46.5232 21.335C46.5211 21.3265 46.521 21.3175 46.523 21.309C46.655 20.805 47.0585 19.7445 46.4315 19.4625Z" fill="#3EC3A4"/>
<path d="M42.8196 18.4665C43.1946 18.8145 44.2821 20.0325 43.4856 20.3385C43.2351 20.4345 43.0776 20.2515 42.8991 20.175C39.4771 18.681 36.0886 18.7415 32.7336 20.3565C32.6906 20.3775 32.6461 20.382 32.6001 20.37C32.1696 20.256 32.1366 19.9125 32.3391 19.563C34.3131 16.158 40.1031 15.945 42.8196 18.4665ZM41.6976 18.6825C39.4641 17.3685 36.5256 17.2425 34.3131 18.693C34.2191 18.755 34.2266 18.773 34.3356 18.747C36.8601 18.156 39.1116 18.0255 41.6391 18.741C41.6881 18.755 41.7126 18.744 41.7126 18.708C41.7126 18.703 41.7112 18.6981 41.7086 18.6936C41.706 18.6891 41.7022 18.6853 41.6976 18.6825Z" fill="black"/>
<path d="M41.6975 18.6825C41.7021 18.6853 41.7059 18.6891 41.7085 18.6936C41.7112 18.6981 41.7125 18.703 41.7125 18.708C41.7125 18.744 41.688 18.755 41.639 18.741C39.1115 18.0255 36.86 18.156 34.3355 18.747C34.2265 18.773 34.219 18.755 34.313 18.693C36.5255 17.2425 39.464 17.3685 41.6975 18.6825Z" fill="#118F5E"/>
<path d="M33.8569 25.6575C33.0989 25.3675 32.7454 24.823 32.7964 24.024C33.6094 22.236 37.1134 22.6575 36.8044 24.489C36.5869 25.779 34.8844 25.9845 33.8569 25.6575ZM35.9404 24.3375C35.9404 24.1855 35.821 24.0398 35.6083 23.9323C35.3956 23.8249 35.1072 23.7645 34.8064 23.7645C34.5057 23.7645 34.2173 23.8249 34.0046 23.9323C33.7919 24.0398 33.6724 24.1855 33.6724 24.3375C33.6724 24.4895 33.7919 24.6352 34.0046 24.7427C34.2173 24.8501 34.5057 24.9105 34.8064 24.9105C35.1072 24.9105 35.3956 24.8501 35.6083 24.7427C35.821 24.6352 35.9404 24.4895 35.9404 24.3375Z" fill="black"/>
<path d="M43.2125 24.323C43.2138 24.7156 43.0026 25.0929 42.6252 25.3719C42.2478 25.6508 41.7352 25.8086 41.2002 25.8105C40.9352 25.8114 40.6727 25.774 40.4277 25.7005C40.1827 25.6269 39.9599 25.5187 39.7721 25.3818C39.5842 25.245 39.4351 25.0823 39.333 24.903C39.231 24.7238 39.1782 24.5314 39.1775 24.337C39.1761 23.9444 39.3874 23.5671 39.7648 23.2881C40.1421 23.0091 40.6547 22.8514 41.1898 22.8495C41.4547 22.8486 41.7172 22.886 41.9623 22.9595C42.2073 23.0331 42.4301 23.1413 42.6179 23.2781C42.8057 23.415 42.9549 23.5777 43.0569 23.7569C43.1589 23.9362 43.2118 24.1285 43.2125 24.323ZM42.329 24.3325C42.3289 24.2571 42.2993 24.1824 42.2421 24.1128C42.1848 24.0432 42.1009 23.98 41.9953 23.9269C41.8896 23.8737 41.7642 23.8316 41.6262 23.803C41.4882 23.7743 41.3403 23.7597 41.191 23.76C40.8894 23.7605 40.6003 23.8215 40.3873 23.9297C40.1743 24.0378 40.0547 24.1841 40.055 24.3365C40.0551 24.4119 40.0847 24.4866 40.1419 24.5562C40.1992 24.6258 40.283 24.689 40.3887 24.7421C40.4944 24.7953 40.6198 24.8374 40.7578 24.866C40.8958 24.8946 41.0437 24.9093 41.193 24.909C41.4945 24.9085 41.7836 24.8474 41.9967 24.7393C42.2097 24.6312 42.3292 24.4849 42.329 24.3325Z" fill="black"/>
<path d="M34.8065 24.9105C35.4328 24.9105 35.9405 24.654 35.9405 24.3375C35.9405 24.021 35.4328 23.7645 34.8065 23.7645C34.1802 23.7645 33.6725 24.021 33.6725 24.3375C33.6725 24.654 34.1802 24.9105 34.8065 24.9105Z" fill="#544F57"/>
<path d="M41.193 24.909C41.8209 24.9079 42.3295 24.6498 42.329 24.3325C42.3284 24.0152 41.8189 23.7589 41.191 23.76C40.563 23.7611 40.0544 24.0192 40.055 24.3365C40.0555 24.6538 40.565 24.9101 41.193 24.909Z" fill="#544F57"/>
<path d="M31.934 27.0795L32.8115 27.5025C32.8495 27.5205 32.8635 27.5505 32.8535 27.5925C32.7865 27.8575 32.6425 28.067 32.4215 28.221C32.3795 28.251 32.3365 28.2525 32.2925 28.2255C32.021 28.062 31.9475 27.8055 31.8335 27.5955C31.7295 27.4045 31.7265 27.242 31.8245 27.108C31.8535 27.068 31.89 27.0585 31.934 27.0795Z" fill="#F0F4F5"/>
<path d="M44.1411 26.991C44.1471 26.948 44.1641 26.9205 44.1921 26.9085C44.2351 26.8885 44.2571 26.9025 44.2581 26.9505C44.2661 27.4535 44.0946 27.879 43.7436 28.227C43.6996 28.27 43.6526 28.2745 43.6026 28.2405C43.3636 28.0815 43.2106 27.8605 43.1436 27.5775C43.1316 27.5265 43.1501 27.493 43.1991 27.477C43.5421 27.368 43.8561 27.206 44.1411 26.991Z" fill="#F0F4F5"/>
<path d="M35.186 27.5535C35.1907 27.5535 35.1954 27.5544 35.1998 27.5562C35.2042 27.558 35.2081 27.5607 35.2115 27.564C35.2148 27.5674 35.2175 27.5714 35.2193 27.5757C35.2211 27.5801 35.222 27.5848 35.222 27.5895V27.6135C35.2252 27.9166 35.165 28.2079 35.0547 28.4234C34.9444 28.6388 34.7931 28.7608 34.634 28.7625H34.622C34.5432 28.7633 34.4649 28.7346 34.3914 28.6779C34.318 28.6212 34.251 28.5377 34.1942 28.4321C34.1373 28.3265 34.0918 28.2009 34.0602 28.0625C34.0286 27.9241 34.0116 27.7756 34.01 27.6255V27.6015C34.01 27.5919 34.0138 27.5828 34.0206 27.576C34.0273 27.5693 34.0365 27.5655 34.046 27.5655L35.186 27.5535Z" fill="#F0F4F5"/>
<path d="M38.609 27.5535C38.967 27.5615 39.324 27.5645 39.68 27.5625C39.732 27.5615 39.756 27.587 39.752 27.639C39.726 28.033 39.5875 28.385 39.3365 28.695C39.3082 28.7295 39.2722 28.7569 39.2314 28.7749C39.1907 28.7929 39.1462 28.8011 39.1018 28.7988C39.0574 28.7964 39.0142 28.7836 38.9757 28.7614C38.9373 28.7392 38.9046 28.7082 38.8805 28.671C38.6735 28.352 38.5405 27.9985 38.4815 27.6105C38.4745 27.5605 38.496 27.5325 38.546 27.5265C38.583 27.5225 38.604 27.5315 38.609 27.5535Z" fill="#F0F4F5"/>
<path d="M37.4495 27.561C37.4551 27.561 37.4604 27.5632 37.4643 27.5672C37.4683 27.5711 37.4705 27.5764 37.4705 27.582V27.6045C37.4711 27.9126 37.4093 28.2082 37.2988 28.4264C37.1883 28.6447 37.038 28.7677 36.881 28.7685H36.872C36.7941 28.7689 36.7169 28.7392 36.6449 28.681C36.5728 28.6228 36.5072 28.5374 36.4519 28.4296C36.3966 28.3218 36.3526 28.1937 36.3225 28.0526C36.2924 27.9115 36.2768 27.7603 36.2765 27.6075V27.585C36.2765 27.5794 36.2787 27.5741 36.2826 27.5702C36.2866 27.5662 36.2919 27.564 36.2975 27.564L37.4495 27.561Z" fill="#F0F4F5"/>
<path d="M41.954 27.5625C41.9588 27.5625 41.9634 27.5634 41.9678 27.5652C41.9722 27.567 41.9761 27.5697 41.9795 27.573C41.9828 27.5764 41.9855 27.5803 41.9873 27.5847C41.9891 27.5891 41.99 27.5938 41.99 27.5985V27.624C41.9897 27.772 41.9738 27.9186 41.9432 28.0553C41.9126 28.192 41.8679 28.3161 41.8116 28.4206C41.7553 28.5251 41.6886 28.6079 41.6152 28.6642C41.5418 28.7206 41.4633 28.7494 41.384 28.749H41.375C41.2152 28.7482 41.0623 28.629 40.9498 28.4175C40.8373 28.206 40.7744 27.9195 40.775 27.621V27.5955C40.775 27.5859 40.7788 27.5768 40.7856 27.57C40.7923 27.5633 40.8015 27.5595 40.811 27.5595L41.954 27.5625Z" fill="#F0F4F5"/>
</g>
<defs>
<clipPath id="clip0_961_556">
<rect width="30" height="30" fill="white" transform="translate(23)"/>
</clipPath>
</defs>
</svg>
