<svg width="16" height="16" viewBox="0 0 16 16" fill="none" xmlns="http://www.w3.org/2000/svg">
<path d="M5.16672 1.66669C5.16672 1.39055 4.94286 1.16669 4.66672 1.16669C4.39058 1.16669 4.16672 1.39055 4.16672 1.66669V2.71953C3.20717 2.79636 2.57724 2.98493 2.11444 3.44773C1.65164 3.91053 1.46306 4.54047 1.38623 5.50002H14.6139C14.5371 4.54047 14.3485 3.91053 13.8857 3.44773C13.4229 2.98493 12.7929 2.79636 11.8334 2.71953V1.66669C11.8334 1.39055 11.6095 1.16669 11.3334 1.16669C11.0573 1.16669 10.8334 1.39055 10.8334 1.66669V2.67529C10.3899 2.66669 9.89272 2.66669 9.33339 2.66669H6.66672C6.10737 2.66669 5.61024 2.66669 5.16672 2.67529V1.66669Z" fill="#A1A5B7"/>
<path fill-rule="evenodd" clip-rule="evenodd" d="M1.3335 8C1.3335 7.44067 1.3335 6.94353 1.3421 6.5H14.6582C14.6668 6.94353 14.6668 7.44067 14.6668 8V9.33333C14.6668 11.8475 14.6668 13.1046 13.8858 13.8856C13.1048 14.6667 11.8476 14.6667 9.3335 14.6667H6.66683C4.15267 14.6667 2.8956 14.6667 2.11454 13.8856C1.3335 13.1046 1.3335 11.8475 1.3335 9.33333V8ZM11.3335 9.33333C11.7017 9.33333 12.0002 9.03487 12.0002 8.66667C12.0002 8.29847 11.7017 8 11.3335 8C10.9653 8 10.6668 8.29847 10.6668 8.66667C10.6668 9.03487 10.9653 9.33333 11.3335 9.33333ZM11.3335 12C11.7017 12 12.0002 11.7015 12.0002 11.3333C12.0002 10.9651 11.7017 10.6667 11.3335 10.6667C10.9653 10.6667 10.6668 10.9651 10.6668 11.3333C10.6668 11.7015 10.9653 12 11.3335 12ZM8.66683 8.66667C8.66683 9.03487 8.36836 9.33333 8.00016 9.33333C7.63196 9.33333 7.3335 9.03487 7.3335 8.66667C7.3335 8.29847 7.63196 8 8.00016 8C8.36836 8 8.66683 8.29847 8.66683 8.66667ZM8.66683 11.3333C8.66683 11.7015 8.36836 12 8.00016 12C7.63196 12 7.3335 11.7015 7.3335 11.3333C7.3335 10.9651 7.63196 10.6667 8.00016 10.6667C8.36836 10.6667 8.66683 10.9651 8.66683 11.3333ZM4.66683 9.33333C5.03502 9.33333 5.3335 9.03487 5.3335 8.66667C5.3335 8.29847 5.03502 8 4.66683 8C4.29864 8 4.00016 8.29847 4.00016 8.66667C4.00016 9.03487 4.29864 9.33333 4.66683 9.33333ZM4.66683 12C5.03502 12 5.3335 11.7015 5.3335 11.3333C5.3335 10.9651 5.03502 10.6667 4.66683 10.6667C4.29864 10.6667 4.00016 10.9651 4.00016 11.3333C4.00016 11.7015 4.29864 12 4.66683 12Z" fill="#A1A5B7"/>
</svg>
