<svg width="24" height="24" viewBox="0 0 24 24" fill="none" xmlns="http://www.w3.org/2000/svg">
<g clip-path="url(#clip0_693_185)">
<path d="M22 2.66667H2C0.895833 2.66667 0 3.5625 0 4.66667V5.33334H24V4.66667C24 3.5625 23.1042 2.66667 22 2.66667ZM0 19.3333C0 20.4375 0.895833 21.3333 2 21.3333H22C23.1042 21.3333 24 20.4375 24 19.3333V6.66667H0V19.3333ZM14.6667 9.66667C14.6667 9.48334 14.8167 9.33334 15 9.33334H21C21.1833 9.33334 21.3333 9.48334 21.3333 9.66667V10.3333C21.3333 10.5167 21.1833 10.6667 21 10.6667H15C14.8167 10.6667 14.6667 10.5167 14.6667 10.3333V9.66667ZM14.6667 12.3333C14.6667 12.15 14.8167 12 15 12H21C21.1833 12 21.3333 12.15 21.3333 12.3333V13C21.3333 13.1833 21.1833 13.3333 21 13.3333H15C14.8167 13.3333 14.6667 13.1833 14.6667 13V12.3333ZM14.6667 15C14.6667 14.8167 14.8167 14.6667 15 14.6667H21C21.1833 14.6667 21.3333 14.8167 21.3333 15V15.6667C21.3333 15.85 21.1833 16 21 16H15C14.8167 16 14.6667 15.85 14.6667 15.6667V15ZM7.33333 9.33334C8.80417 9.33334 10 10.5292 10 12C10 13.4708 8.80417 14.6667 7.33333 14.6667C5.8625 14.6667 4.66667 13.4708 4.66667 12C4.66667 10.5292 5.8625 9.33334 7.33333 9.33334ZM2.79583 17.8417C3.14583 16.7708 4.15 16 5.33333 16H5.675C6.1875 16.2125 6.74583 16.3333 7.33333 16.3333C7.92083 16.3333 8.48333 16.2125 8.99167 16H9.33333C10.5167 16 11.5208 16.7708 11.8708 17.8417C12.0042 18.2542 11.6542 18.6667 11.2208 18.6667H3.44583C3.0125 18.6667 2.6625 18.25 2.79583 17.8417Z" fill="#464E5F"/>
</g>
<defs>
<clipPath id="clip0_693_185">
<rect width="24" height="24" fill="white"/>
</clipPath>
</defs>
</svg>
