<svg width="30" height="30" viewBox="0 0 30 30" fill="none" xmlns="http://www.w3.org/2000/svg">
<rect width="30" height="30" rx="6" fill="#F7F7F7"/>
<path d="M17.5 15C17.5 15.663 17.2366 16.2989 16.7678 16.7678C16.2989 17.2366 15.663 17.5 15 17.5C14.337 17.5 13.7011 17.2366 13.2322 16.7678C12.7634 16.2989 12.5 15.663 12.5 15C12.5 14.337 12.7634 13.7011 13.2322 13.2322C13.7011 12.7634 14.337 12.5 15 12.5C15.663 12.5 16.2989 12.7634 16.7678 13.2322C17.2366 13.7011 17.5 14.337 17.5 15Z" fill="#212121"/>
<path d="M7 15C7 15 10 9.5 15 9.5C20 9.5 23 15 23 15C23 15 20 20.5 15 20.5C10 20.5 7 15 7 15ZM15 18.5C15.9283 18.5 16.8185 18.1313 17.4749 17.4749C18.1313 16.8185 18.5 15.9283 18.5 15C18.5 14.0717 18.1313 13.1815 17.4749 12.5251C16.8185 11.8687 15.9283 11.5 15 11.5C14.0717 11.5 13.1815 11.8687 12.5251 12.5251C11.8687 13.1815 11.5 14.0717 11.5 15C11.5 15.9283 11.8687 16.8185 12.5251 17.4749C13.1815 18.1313 14.0717 18.5 15 18.5Z" fill="#212121"/>
</svg>
