<?xml version="1.0" encoding="UTF-8"?>
<svg version="1.1" xmlns="http://www.w3.org/2000/svg" width="1137" height="1024">
<path d="M0 0 C0.99864075 0.00304138 1.99728149 0.00608276 3.02618408 0.00921631 C19.09950412 0.08129972 34.55946972 1.00986599 50.3125 4.4375 C51.83593018 4.75895996 51.83593018 4.75895996 53.39013672 5.08691406 C89.06187608 12.79214435 121.49479109 28.1345013 150.3125 50.4375 C151.25222656 51.16324219 152.19195313 51.88898437 153.16015625 52.63671875 C163.9747599 61.25336172 174.55315897 70.71093108 183.3125 81.4375 C184.05371094 82.29085937 184.79492188 83.14421875 185.55859375 84.0234375 C222.02575444 126.46415805 241.20589318 180.85337112 243.3125 236.4375 C243.37630859 238.04044922 243.37630859 238.04044922 243.44140625 239.67578125 C244.85791559 315.50624811 213.85522364 380.68056884 168.64892578 439.69238281 C167.36311623 441.37140486 166.08506154 443.0560579 164.80859375 444.7421875 C159.73831682 451.41435156 154.50104284 457.9368884 149.19946289 464.42578125 C145.6890384 468.72665632 142.22836118 473.06122096 138.8125 477.4375 C134.87064282 482.48604565 130.86187208 487.47480717 126.8125 492.4375 C120.89086897 499.70389424 115.05141891 507.02592237 109.3125 514.4375 C108.71566406 515.20690918 108.11882812 515.97631836 107.50390625 516.76904297 C85.03313407 545.80132584 63.88652661 576.06796194 48.3125 609.4375 C47.97718262 610.14583984 47.64186523 610.85417969 47.29638672 611.58398438 C40.95502231 625.13345477 36.23009675 639.16658236 31.64941406 653.38378906 C21.28148786 685.4729491 21.28148786 685.4729491 11.375 691.64453125 C5.03176001 694.44527633 -1.79501919 694.22190158 -8.375 692.4375 C-21.70729426 684.3878129 -24.87369987 667.1836897 -29.47567749 653.3236084 C-34.80350591 637.33632645 -40.29586859 621.60979606 -47.6875 606.4375 C-48.31422607 605.14271729 -48.31422607 605.14271729 -48.95361328 603.82177734 C-55.86398919 589.71817499 -64.0622138 576.54550148 -72.6875 563.4375 C-73.43659886 562.28671923 -74.18536076 561.13571895 -74.93359375 559.984375 C-83.37219062 547.14226916 -92.36769617 534.65174696 -101.6875 522.4375 C-102.70704623 521.09636556 -103.7265764 519.7552189 -104.74609375 518.4140625 C-111.20245079 509.93474563 -117.73023866 501.5156993 -124.3359375 493.15234375 C-125.72808283 491.38600907 -127.11474803 489.61549493 -128.5 487.84375 C-132.68027973 482.50002907 -136.87635975 477.17683949 -141.1875 471.9375 C-145.93277227 466.16758486 -150.54709281 460.30140995 -155.14257812 454.41210938 C-156.78185043 452.31690799 -158.42969937 450.2286308 -160.078125 448.140625 C-186.61507078 414.42417567 -212.05898622 377.43640985 -225.6875 336.4375 C-225.95997559 335.62297363 -226.23245117 334.80844727 -226.51318359 333.96923828 C-248.51000514 267.10472776 -245.81000317 193.52550438 -214.13769531 130.23486328 C-207.28210689 117.0107333 -199.19778713 104.78537999 -189.98925781 93.09326172 C-188.86101291 91.65819853 -187.75283828 90.20739923 -186.6484375 88.75390625 C-177.86566834 77.37367982 -167.72749134 66.64027644 -156.6875 57.4375 C-155.70136719 56.61378906 -154.71523438 55.79007813 -153.69921875 54.94140625 C-125.63085451 31.98828492 -93.65985828 15.58953379 -58.5625 6.5625 C-56.97538208 6.15088623 -56.97538208 6.15088623 -55.35620117 5.73095703 C-37.08826916 1.29994737 -18.75008473 -0.12226692 0 0 Z M-69.4375 182.4375 C-86.6652762 202.93330868 -92.31475652 227.19798856 -90.6875 253.4375 C-87.73914808 278.00254939 -74.84911703 298.20709056 -56.4375 314.1875 C-36.88115245 329.52145433 -12.1936932 335.83088249 12.40625 333.21484375 C32.27459858 330.41592956 49.51054407 321.75009504 64.3125 308.4375 C65.10398437 307.74011719 65.89546875 307.04273438 66.7109375 306.32421875 C82.11852229 291.94205343 91.86648448 268.16478731 92.61328125 247.140625 C92.63255619 245.32301467 92.63609615 243.50517866 92.625 241.6875 C92.62008545 240.72593994 92.6151709 239.76437988 92.61010742 238.77368164 C92.27437641 218.24932562 84.50781119 199.09156483 71.3125 183.4375 C70.67957031 182.64730469 70.04664063 181.85710937 69.39453125 181.04296875 C55.12920412 164.04769159 34.92572474 154.29227937 13.3125 150.4375 C-19.13233643 148.1412772 -47.26598511 157.98576367 -69.4375 182.4375 Z " fill="#34A853" transform="translate(575.6875,-0.4375)"/>
<path d="M0 0 C4.47209893 0.87333919 7.11909015 3.41201955 10.4375 6.375 C11.69233475 7.47308331 12.94755172 8.57072997 14.203125 9.66796875 C14.83669922 10.22532715 15.47027344 10.78268555 16.12304688 11.35693359 C18.95093736 13.83244126 21.8160582 16.26277497 24.6875 18.6875 C25.22503906 19.1424585 25.76257813 19.59741699 26.31640625 20.06616211 C29.6622939 22.89154443 33.03920959 25.67514697 36.4375 28.4375 C41.30129025 32.39508188 46.05881231 36.46542446 50.80834961 40.55834961 C54.33298919 43.58945289 57.89039882 46.56985316 61.5 49.5 C66.90076172 53.88712902 72.174677 58.41223412 77.44921875 62.94921875 C86.5303196 70.75961077 95.7081308 78.44119105 105 86 C107.06354879 87.68622162 109.1254667 89.37442421 111.1875 91.0625 C112.10917969 91.81660156 113.03085937 92.57070312 113.98046875 93.34765625 C114.64691406 93.89292969 115.31335938 94.43820313 116 95 C114.64069974 97.87248357 113.07861671 100.40454403 111.25 103 C97.46853626 123.65542984 92.38992506 148.98520575 97.17773438 173.43359375 C102.55689108 197.21729809 116.29819538 217.84394191 137 231 C158.78584881 243.56681781 182.68245978 248.70959087 207.453125 242.96875 C224.11643426 238.41753778 236.93186172 231.22973916 250 220 C251.3241208 218.98783308 252.65412089 217.98304995 254 217 C252.71076019 219.78823237 251.31380469 221.98996602 249.27734375 224.28515625 C248.74359131 224.89238525 248.20983887 225.49961426 247.65991211 226.12524414 C247.09151611 226.76453857 246.52312012 227.40383301 245.9375 228.0625 C244.74880878 229.41562113 243.56131318 230.7697935 242.375 232.125 C241.79492188 232.78757812 241.21484375 233.45015625 240.6171875 234.1328125 C238.50686101 236.56937304 236.46557686 239.05722858 234.4375 241.5625 C230.52693122 246.3915143 226.49541277 251.10494653 222.43896484 255.81103516 C219.4274197 259.31254253 216.46933791 262.84795521 213.5625 266.4375 C209.42003621 271.54227843 205.11880901 276.49622682 200.79931641 281.45068359 C196.87737896 285.95959326 193.06960885 290.54707017 189.30859375 295.19140625 C186.58655909 298.5029848 183.79860269 301.75313059 181 305 C177.44542508 309.124643 173.93207702 313.27207904 170.5 317.5 C166.11287098 322.90076172 161.58776588 328.174677 157.05078125 333.44921875 C150.80572679 340.71031003 144.6036885 348.00553429 138.5625 355.4375 C134.1485377 360.85856956 129.60217195 366.15841974 125.04296875 371.45703125 C120.78648075 376.40558716 116.57832994 381.3947854 112.36767578 386.38232422 C110.97540583 388.02908979 109.57994527 389.67310067 108.18359375 391.31640625 C103.93259941 396.32234652 99.70435708 401.3404038 95.5625 406.4375 C91.93128604 410.88442145 88.26688694 415.30143946 84.5625 419.6875 C84.04179932 420.31261475 83.52109863 420.93772949 82.98461914 421.58178711 C81.70038006 423.09301783 80.35505645 424.55192875 79 426 C78.34 426 77.68 426 77 426 C75.15135767 423.70218342 73.40994909 421.39016935 71.6875 419 C67.40734216 413.17189411 63.02544271 407.46426035 58.4375 401.875 C53.94401419 396.39530145 49.52006488 390.87176504 45.16162109 385.28417969 C42.2253749 381.53095558 39.23598742 377.82629421 36.21484375 374.14111328 C29.22169967 365.6084029 22.52800991 356.89274819 16 348 C15.4740625 347.28585937 14.948125 346.57171875 14.40625 345.8359375 C6.27561397 334.77358174 -1.56218123 323.54087924 -9 312 C-9.57862793 311.1037793 -9.57862793 311.1037793 -10.16894531 310.18945312 C-22.37699016 291.07264029 -32.84233561 270.53253405 -40 249 C-40.27247559 248.18547363 -40.54495117 247.37094727 -40.82568359 246.53173828 C-62.82250514 179.66722776 -60.12250317 106.08800438 -28.45019531 42.79736328 C-21.56002733 29.50653083 -13.40675467 17.27747908 -4.17919922 5.5078125 C-2.75902931 3.69187681 -1.37426148 1.85085721 0 0 Z " fill="#FABB04" transform="translate(390,87)"/>
<path d="M0 0 C0.99864075 0.00304138 1.99728149 0.00608276 3.02618408 0.00921631 C19.09950412 0.08129972 34.55946972 1.00986599 50.3125 4.4375 C51.83593018 4.75895996 51.83593018 4.75895996 53.39013672 5.08691406 C89.06187608 12.79214435 121.49479109 28.1345013 150.3125 50.4375 C151.25222656 51.16324219 152.19195313 51.88898437 153.16015625 52.63671875 C163.9747599 61.25336172 174.55315897 70.71093108 183.3125 81.4375 C184.05371094 82.29085937 184.79492188 83.14421875 185.55859375 84.0234375 C194.81406512 94.79501572 202.65940633 106.4415874 209.9375 118.625 C210.36353516 119.33164795 210.78957031 120.0382959 211.22851562 120.76635742 C215.33727084 127.78999355 215.33727084 127.78999355 215.3125 131.4375 C213.7578125 133.7265625 213.7578125 133.7265625 211.4375 136.0625 C208.11871642 139.52980939 204.94973993 143.01198487 201.9375 146.75 C198.64826152 150.81015375 195.31752133 154.82805272 191.9375 158.8125 C191.47762695 159.35479248 191.01775391 159.89708496 190.54394531 160.45581055 C188.66258017 162.67266617 186.77949428 164.88805708 184.89648438 167.10351562 C180.1773039 172.65818034 175.47174951 178.21809925 170.875 183.875 C166.91741812 188.73879025 162.84707554 193.49631231 158.75415039 198.24584961 C155.72304711 201.77048919 152.74264684 205.32789882 149.8125 208.9375 C145.8787143 213.78346789 141.82802241 218.51848528 137.75390625 223.24609375 C134.72291716 226.77067903 131.74257419 230.32798832 128.8125 233.9375 C125.38041987 238.1654248 121.86698829 242.3127789 118.3125 246.4375 C113.99077137 251.45341689 109.75770804 256.52925299 105.58203125 261.66796875 C101.69519785 266.41110968 97.7166339 271.07642794 93.74609375 275.74951172 C91.3066074 278.62189057 88.87211034 281.49848836 86.4375 284.375 C85.99744629 284.89433105 85.55739258 285.41366211 85.10400391 285.94873047 C82.15592188 289.43058467 79.22957786 292.92968773 76.3125 296.4375 C76.3125 292.50408848 78.09354452 290.05975956 80 286.75 C87.67055651 272.91687564 91.72157674 257.50788981 91.625 241.6875 C91.62008545 240.72593994 91.6151709 239.76437988 91.61010742 238.77368164 C91.27377059 218.21228996 83.47749568 199.14509141 70.3125 183.4375 C69.75304687 182.72078125 69.19359375 182.0040625 68.6171875 181.265625 C54.92731184 164.55330925 34.22057776 155.16651443 13.3125 151.4375 C-13.41400534 149.54598142 -37.74029514 155.3382784 -58.54296875 172.83984375 C-62.02606605 175.94095635 -65.41090984 179.11903648 -68.6875 182.4375 C-73.68711409 180.91299646 -76.88406694 177.92171241 -80.6875 174.5 C-82.02546682 173.3183592 -83.36401884 172.13738073 -84.703125 170.95703125 C-85.70569336 170.06878662 -85.70569336 170.06878662 -86.72851562 169.16259766 C-89.60029237 166.63368758 -92.5131808 164.15529483 -95.4375 161.6875 C-95.97125244 161.23632812 -96.50500488 160.78515625 -97.05493164 160.3203125 C-100.3849689 157.51348644 -103.74601572 154.74758284 -107.125 152 C-112.54320579 147.58836945 -117.8402085 143.04426358 -123.13671875 138.48828125 C-130.39781003 132.24322679 -137.69303429 126.0411885 -145.125 120 C-149.37143133 116.54475238 -153.5403055 113.01034676 -157.6875 109.4375 C-166.49373902 101.85614399 -175.4704538 94.51528116 -184.6875 87.4375 C-182.08453598 82.48130282 -178.44722637 78.71201558 -174.625 74.6875 C-173.94961182 73.97376221 -173.27422363 73.26002441 -172.57836914 72.5246582 C-167.50962826 67.21169891 -162.33845527 62.13507324 -156.6875 57.4375 C-155.70265625 56.61507812 -154.7178125 55.79265625 -153.703125 54.9453125 C-125.6366848 31.98838208 -93.66024799 15.58963403 -58.5625 6.5625 C-56.97538208 6.15088623 -56.97538208 6.15088623 -55.35620117 5.73095703 C-37.08826916 1.29994737 -18.75008473 -0.12226692 0 0 Z " fill="#4185F3" transform="translate(575.6875,-0.4375)"/>
<path d="M0 0 C4.47209893 0.87333919 7.11909015 3.41201955 10.4375 6.375 C11.69233475 7.47308331 12.94755172 8.57072997 14.203125 9.66796875 C14.83669922 10.22532715 15.47027344 10.78268555 16.12304688 11.35693359 C18.95093736 13.83244126 21.8160582 16.26277497 24.6875 18.6875 C25.22503906 19.1424585 25.76257813 19.59741699 26.31640625 20.06616211 C29.6622939 22.89154443 33.03920959 25.67514697 36.4375 28.4375 C41.30129025 32.39508188 46.05881231 36.46542446 50.80834961 40.55834961 C54.33298919 43.58945289 57.89039882 46.56985316 61.5 49.5 C66.90076172 53.88712902 72.174677 58.41223412 77.44921875 62.94921875 C86.5303196 70.75961077 95.7081308 78.44119105 105 86 C107.06354879 87.68622162 109.1254667 89.37442421 111.1875 91.0625 C112.10917969 91.81660156 113.03085937 92.57070312 113.98046875 93.34765625 C114.64691406 93.89292969 115.31335938 94.43820313 116 95 C113.89249358 99.39141205 111.22902804 102.78807148 107.75390625 106.21484375 C104.60298819 109.40151691 101.67294812 112.73042685 98.75 116.125 C97.88967163 117.12067993 97.88967163 117.12067993 97.01196289 118.13647461 C93.02947968 122.76177983 89.1436104 127.45715353 85.30078125 132.19921875 C81.61993587 136.6799762 77.82486807 141.06159186 74.04296875 145.45703125 C69.78648075 150.40558716 65.57832994 155.3947854 61.36767578 160.38232422 C59.97540583 162.02908979 58.57994527 163.67310067 57.18359375 165.31640625 C52.95146367 170.30026248 48.74262602 175.29559272 44.625 180.375 C40.45843577 185.49733524 36.13798719 190.47417378 31.79956055 195.45043945 C27.87510903 199.96215363 24.06573217 204.55325555 20.30078125 209.19921875 C16.61993587 213.6799762 12.82486807 218.06159186 9.04296875 222.45703125 C4.78648075 227.40558716 0.57832994 232.3947854 -3.63232422 237.38232422 C-5.02459417 239.02908979 -6.42005473 240.67310067 -7.81640625 242.31640625 C-14.17364087 249.80237211 -20.49642233 257.31822475 -26.59765625 265.015625 C-27.68982738 266.37845079 -28.83752851 267.69662287 -30 269 C-30.66 269 -31.32 269 -32 269 C-60.3943476 208.05096083 -62.81480441 133.74655382 -40.51171875 70.68359375 C-31.77442694 46.9405792 -19.77355688 25.39827982 -4.17919922 5.5078125 C-2.75902931 3.69187681 -1.37426148 1.85085721 0 0 Z " fill="#E94335" transform="translate(390,87)"/>
<path d="M0 0 C0.99864075 0.00304138 1.99728149 0.00608276 3.02618408 0.00921631 C27.69893304 0.11986526 50.51585377 3.90316159 74.3125 10.4375 C70.42799048 15.75511266 66.35761276 20.81478531 62 25.75 C57.43676084 30.96448439 52.98233555 36.2433728 48.62109375 41.62890625 C45.89905909 44.9404848 43.11110269 48.19063059 40.3125 51.4375 C36.75792508 55.562143 33.24457702 59.70957904 29.8125 63.9375 C25.87806744 68.78426475 21.82695426 73.52029255 17.75170898 78.24829102 C14.74004991 81.74985302 11.7819105 85.28536557 8.875 88.875 C4.73253621 93.97977843 0.43130901 98.93372682 -3.88818359 103.88818359 C-7.81012104 108.39709326 -11.61789115 112.98457017 -15.37890625 117.62890625 C-18.10094091 120.9404848 -20.88889731 124.19063059 -23.6875 127.4375 C-27.24207492 131.562143 -30.75542298 135.70957904 -34.1875 139.9375 C-38.11767424 144.77901899 -42.16416073 149.51012391 -46.23510742 154.23291016 C-50.1183264 158.74770337 -53.90004449 163.33728219 -57.6484375 167.96484375 C-60.10864873 170.94820335 -62.66938992 173.8290249 -65.27734375 176.68359375 C-66.744692 178.50863353 -67.72017481 180.31125381 -68.6875 182.4375 C-73.68711409 180.91299646 -76.88406694 177.92171241 -80.6875 174.5 C-82.02546682 173.3183592 -83.36401884 172.13738073 -84.703125 170.95703125 C-85.70569336 170.06878662 -85.70569336 170.06878662 -86.72851562 169.16259766 C-89.60029237 166.63368758 -92.5131808 164.15529483 -95.4375 161.6875 C-95.97125244 161.23632812 -96.50500488 160.78515625 -97.05493164 160.3203125 C-100.3849689 157.51348644 -103.74601572 154.74758284 -107.125 152 C-112.54320579 147.58836945 -117.8402085 143.04426358 -123.13671875 138.48828125 C-130.39781003 132.24322679 -137.69303429 126.0411885 -145.125 120 C-149.37143133 116.54475238 -153.5403055 113.01034676 -157.6875 109.4375 C-166.49373902 101.85614399 -175.4704538 94.51528116 -184.6875 87.4375 C-182.08453598 82.48130282 -178.44722637 78.71201558 -174.625 74.6875 C-173.94961182 73.97376221 -173.27422363 73.26002441 -172.57836914 72.5246582 C-167.50962826 67.21169891 -162.33845527 62.13507324 -156.6875 57.4375 C-155.70265625 56.61507812 -154.7178125 55.79265625 -153.703125 54.9453125 C-125.6366848 31.98838208 -93.66024799 15.58963403 -58.5625 6.5625 C-56.97538208 6.15088623 -56.97538208 6.15088623 -55.35620117 5.73095703 C-37.08826916 1.29994737 -18.75008473 -0.12226692 0 0 Z " fill="#1A72E7" transform="translate(575.6875,-0.4375)"/>
<path d="M0 0 C-1.32120828 2.93230193 -2.74638197 4.98664899 -5.0390625 7.234375 C-5.61914062 7.80800781 -6.19921875 8.38164063 -6.796875 8.97265625 C-7.40015625 9.55917969 -8.0034375 10.14570312 -8.625 10.75 C-9.23601562 11.35199219 -9.84703125 11.95398438 -10.4765625 12.57421875 C-11.97988624 14.05405305 -13.48934856 15.52764676 -15 17 C-18.71552277 15.67396537 -21.50110645 14.01754723 -24.625 11.625 C-37.05810971 2.77836425 -52.1223793 0.66592632 -67 3 C-71.13882433 4.04211448 -75.04921476 5.3919205 -79 7 C-80.05767578 7.41378906 -80.05767578 7.41378906 -81.13671875 7.8359375 C-95.65656336 14.25647731 -104.32966409 26.70185885 -110 41 C-115.25969529 55.20117728 -113.24833476 71.17615154 -107.5390625 84.8984375 C-100.50592134 99.07182349 -89.5288115 108.1884754 -75 114 C-59.71124667 118.60131103 -44.35012559 118.16849448 -29.6875 111.375 C-17.90779435 104.96125191 -9.85005978 95.81869615 -6 83 C-5.34 80.36 -4.68 77.72 -4 75 C-21.49 75 -38.98 75 -57 75 C-57 67.08 -57 59.16 -57 51 C-31.92 51 -6.84 51 19 51 C22.94103895 70.70519473 19.03563486 91.2766605 8.9375 108.5 C-1.67331599 124.38184769 -17.70823766 135.71408216 -36.53955078 139.51220703 C-61.13480067 143.91686943 -83.7397101 140.93232453 -104.58203125 126.609375 C-121.31704403 114.51977921 -131.52351537 98.68111666 -137 79 C-137.26611084 78.11042603 -137.26611084 78.11042603 -137.53759766 77.20288086 C-140.70132703 62.13090087 -139.30337079 42.92760707 -133 29 C-132.56558594 27.95714844 -132.13117188 26.91429687 -131.68359375 25.83984375 C-123.0443174 6.76451848 -107.10089769 -7.579434 -88.02734375 -15.87109375 C-56.66560853 -27.56598598 -25.23491174 -21.96462337 0 0 Z " fill="#5E6267" transform="translate(138,836)"/>
<path d="M0 0 C0.495 0.99 0.495 0.99 1 2 C1.33 -0.64 1.66 -3.28 2 -6 C9.26 -6 16.52 -6 24 -6 C24.09072364 7.5443418 24.16395896 21.08847853 24.20724869 34.63305664 C24.22803585 40.92378112 24.25619013 47.21428516 24.30175781 53.50488281 C24.34553346 59.58683408 24.36920365 65.66857461 24.37950897 71.75067139 C24.38684376 74.05966504 24.40116518 76.36864845 24.42292023 78.67755127 C24.57700509 95.72406828 24.37822964 111.63014358 14 126 C13.4225 126.886875 12.845 127.77375 12.25 128.6875 C2.81423169 138.38537299 -8.96918433 143.01757335 -22.29736328 143.29272461 C-37.70048305 143.40288289 -49.87768682 140.44133179 -61.51171875 129.67578125 C-66.60108005 124.31723059 -70.12289844 118.79516449 -73 112 C-66.17753074 108.38897505 -59.30661938 105.48647314 -52 103 C-51.53851563 103.72445312 -51.07703125 104.44890625 -50.6015625 105.1953125 C-45.47611652 112.79231742 -40.54065331 118.04312161 -31.59765625 120.71875 C-23.61627239 122.0640724 -14.8978356 119.68256214 -8.28125 115.12890625 C-0.93582199 108.27401196 0.16670751 98.56420787 1 89 C1 88.01 1 87.02 1 86 C0.175 86.7425 -0.65 87.485 -1.5 88.25 C-9.96734151 95.16891563 -19.51006814 97.40807801 -30.44140625 96.8125 C-46.00789681 94.75412108 -57.22188128 87.57908235 -67 75.375 C-75.78457561 63.33016952 -78.71917593 49.34924732 -76.5 34.69921875 C-73.36329445 19.53253451 -65.77897433 7.57806095 -52.94140625 -1.2421875 C-35.74841289 -11.51688472 -16.44345506 -12.14650281 0 0 Z M-47 24 C-52.51708198 32.31655088 -54.2944525 41.80980588 -52.53515625 51.58203125 C-50.0282897 61.23865921 -44.42332023 67.80590396 -36 73 C-30.06636369 75.90088886 -22.81937145 76.10403706 -16.5 74.27734375 C-7.89252429 70.68604898 -2.8163014 65.42075201 1 57 C4.29969946 48.48056691 4.10120218 38.96811608 1.1015625 30.34765625 C-2.39679208 22.89194311 -7.61773761 17.59484081 -15 14 C-27.27587104 9.90804299 -38.70542356 14.74618683 -47 24 Z " fill="#5E6267" transform="translate(477,881)"/>
<path d="M0 0 C5.94 0 11.88 0 18 0 C21.37581822 3.40085077 22.29094089 4.81765045 24 9 C25.10691676 10.99063225 26.23316026 12.97059842 27.375 14.94140625 C28.58636823 17.1467732 29.79456374 19.35388509 31 21.5625 C32.32581796 23.97465582 33.656074 26.38433643 34.98828125 28.79296875 C35.32322098 29.39860657 35.65816071 30.00424438 36.00325012 30.62823486 C39.86217877 37.58503555 43.88130429 44.44661641 47.90869141 51.30688477 C53.69017861 61.15661125 59.35553667 71.07126051 65 81 C67.81165902 77.63919478 70.08596689 74.29529955 72.1796875 70.44921875 C72.77144775 69.37075684 73.36320801 68.29229492 73.97290039 67.18115234 C74.60059326 66.02824707 75.22828613 64.8753418 75.875 63.6875 C77.22146301 61.23357686 78.57273977 58.7823325 79.92578125 56.33203125 C80.4380854 55.4037854 80.4380854 55.4037854 80.96073914 54.45678711 C84.23524966 48.54160488 87.63341538 42.7018106 91.0625 36.875 C98.22962583 24.68657597 105.13174395 12.35868566 112 0 C118.27 0 124.54 0 131 0 C131 45.21 131 90.42 131 137 C125.06 137 119.12 137 113 137 C112.67 104 112.34 71 112 37 C104.575 50.365 104.575 50.365 97 64 C92.8983415 71.071825 88.79179966 78.13695045 84.64892578 85.18408203 C81.4980358 90.56494744 78.39028885 95.9709689 75.28613281 101.37890625 C72.1087355 106.8912645 72.1087355 106.8912645 71 108 C68.98035801 108.07244053 66.95832876 108.08377188 64.9375 108.0625 C63.83277344 108.05347656 62.72804688 108.04445313 61.58984375 108.03515625 C60.73519531 108.02355469 59.88054688 108.01195312 59 108 C58.60844727 107.29206299 58.21689453 106.58412598 57.81347656 105.85473633 C49.31823492 90.50453394 40.72472961 75.22186868 32 60 C25.565 48.615 25.565 48.615 19 37 C18.67 70 18.34 103 18 137 C12.06 137 6.12 137 0 137 C0 91.79 0 46.58 0 0 Z " fill="#626569" transform="translate(704,836)"/>
<path d="M0 0 C13.29781684 -0.826418 26.28199491 4.55972197 36.1171875 13.13671875 C43.01688753 20.12983832 48.77560717 30.64234667 50.94921875 40.24609375 C41.62842412 45.26314268 31.80749881 49.09010435 22.01171875 53.05859375 C18.668583 54.41758411 15.32635554 55.77879657 11.984375 57.140625 C11.165065 57.47409943 10.345755 57.80757385 9.50161743 58.15115356 C0.6190719 61.77405786 -8.21806312 65.50367076 -17.05078125 69.24609375 C-14.81457429 75.13129113 -11.6801803 78.19402847 -6.19921875 81.29296875 C1.01005212 84.43775357 8.78924967 84.30204663 16.13671875 81.68359375 C21.44782914 79.31650142 27.28051844 75.58349436 29.94921875 70.24609375 C35.13099792 70.71899398 38.61437727 73.42331408 42.76171875 76.30859375 C43.45458984 76.78103516 44.14746094 77.25347656 44.86132812 77.74023438 C46.56228355 78.90157635 48.2564427 80.07286155 49.94921875 81.24609375 C45.32204593 91.27905019 36.01583311 98.23407129 26.07421875 102.55859375 C12.98767943 107.28033111 -1.51628725 107.85068015 -14.5 102.46484375 C-28.58790166 95.73371769 -37.24165585 86.80826446 -43.05078125 72.24609375 C-48.33613919 56.2019289 -46.93784049 39.48057654 -39.42578125 24.37109375 C-32.33463449 12.62307449 -22.23044389 5.4121534 -9.25 1.375 C-6.17350326 0.68123324 -3.12445531 0.37493464 0 0 Z M-13.05078125 28.24609375 C-19.63110019 34.85866916 -22.45215465 40.95706025 -23.05078125 50.24609375 C-18.132652 49.54815561 -13.85100085 47.62078626 -9.3203125 45.68359375 C-8.48868088 45.33224365 -7.65704926 44.98089355 -6.80021667 44.61889648 C-4.1526855 43.49902209 -1.50800766 42.37257356 1.13671875 41.24609375 C2.92755796 40.48786444 4.71857174 39.73004732 6.50976562 38.97265625 C14.30333197 35.76985268 14.30333197 35.76985268 21.94921875 32.24609375 C20.88785916 28.42519921 19.42894317 26.16507971 15.9765625 24.10546875 C5.33172234 19.5932051 -4.13206216 21.11111847 -13.05078125 28.24609375 Z " fill="#5E6267" transform="translate(600.05078125,871.75390625)"/>
<path d="M0 0 C13.78870816 -0.55779564 26.61325835 3.40322859 37.0390625 12.40234375 C47.7169532 22.57813928 54.22204136 33.79675093 55.0546875 48.81640625 C55.25698924 65.91090301 51.21218117 79.25792422 39.203125 91.9296875 C29.08110924 101.49684193 16.24623415 106.04651564 2.3984375 106.1875 C-12.61413428 105.50961956 -25.46763287 100.39683168 -35.9609375 89.46484375 C-45.34452689 78.35225667 -49.8882941 64.7061362 -49.4296875 50.18359375 C-47.94158053 34.1451075 -41.42581854 20.76414554 -29.02734375 10.375 C-20.50198046 4.22735271 -10.41453171 0.73848498 0 0 Z M-17.609375 30.75390625 C-24.74382548 40.10338468 -26.17174809 48.53323487 -25.1484375 60.15234375 C-23.15102333 68.87159482 -18.04954618 75.12699416 -11.0859375 80.52734375 C-4.1186559 84.38158464 2.75221575 85.53966603 10.5078125 83.4296875 C18.80285403 80.34403199 24.22900945 75.81570972 28.58203125 68.0859375 C32.27824421 59.54484233 32.65802795 50.76410381 29.95703125 41.90625 C26.35996965 32.94537216 20.69906324 27.07609412 12.1015625 22.77734375 C0.76904906 20.59801424 -9.37579026 22.04983096 -17.609375 30.75390625 Z " fill="#5E6267" transform="translate(334.1484375,871.84765625)"/>
<path d="M0 0 C1.16789062 0.87978516 1.16789062 0.87978516 2.359375 1.77734375 C13.67426286 11.06086752 19.1923513 23.55850202 20.875 37.9375 C21.66652151 52.95662063 17.53066603 66.4995298 8.34765625 78.39453125 C-1.11767109 88.89931217 -13.05453418 94.55380526 -27.0625 95.9375 C-43.1490639 96.47431526 -57.20407625 91.88755539 -69.0625 80.875 C-80.43754887 68.55774076 -83.63886493 54.2993693 -83.3125 37.99609375 C-82.71688934 24.83061653 -76.58904706 12.07534811 -67 3 C-47.96698125 -12.59650148 -20.16826973 -15.19672072 0 0 Z M-54 23 C-57.22012558 27.96404158 -59.61100376 33.03539099 -60 39 C-60.0825 40.216875 -60.165 41.43375 -60.25 42.6875 C-60.04607635 52.40168132 -56.76056826 60.07215995 -50 67 C-43.62004588 72.66030637 -37.30127885 74.50431469 -28.8046875 74.30859375 C-20.85717337 73.43414582 -14.17428849 68.96339567 -9 63 C-3.31489806 53.8445877 -1.30078245 44.72836896 -3.6484375 34.05078125 C-6.64299227 24.8751583 -11.89166153 18.84513208 -20.10546875 13.91015625 C-32.6457413 7.88565418 -45.423733 13.31290223 -54 23 Z " fill="#5E6267" transform="translate(253,882)"/>
<path d="M0 0 C10.35050408 9.38990045 15.50902496 22.40425302 16.59765625 36.1171875 C17.0353239 50.46507476 13.26970929 64.38822278 4.125 75.625 C-5.11204079 85.39103432 -15.10267262 89.57065728 -28.34765625 90.3125 C-42.1386894 90.3125 -49.2649668 85.5214184 -59.625 76.3125 C-59.625 93.4725 -59.625 110.6325 -59.625 128.3125 C-65.565 128.3125 -71.505 128.3125 -77.625 128.3125 C-77.625 83.4325 -77.625 38.5525 -77.625 -7.6875 C-72.015 -7.6875 -66.405 -7.6875 -60.625 -7.6875 C-60.295 -4.0575 -59.965 -0.4275 -59.625 3.3125 C-58.67625 2.260625 -57.7275 1.20875 -56.75 0.125 C-40.8537275 -15.67531914 -16.58118479 -13.04386537 0 0 Z M-52.625 15.3125 C-59.12544778 24.05822779 -61.28737478 33.39554429 -60.37890625 44.25390625 C-58.9710427 53.2119053 -55.5470324 61.23353565 -48.625 67.3125 C-41.47003398 71.95842592 -34.71020258 74.2062515 -26.1875 72.6875 C-16.79971184 70.21532859 -10.74900876 65.54154667 -5.625 57.3125 C-0.93709259 48.91907754 -0.57415234 37.83161014 -2.84765625 28.6484375 C-5.84315645 19.64688414 -11.39655234 12.9879008 -19.59765625 8.1484375 C-31.02296501 3.12787061 -44.12106727 6.61080139 -52.625 15.3125 Z " fill="#626569" transform="translate(1034.625,885.6875)"/>
<path d="M0 0 C6.83827483 5.65551159 11.20348047 12.88234907 12.96484375 21.625 C13.05231658 23.82508438 13.0825079 26.02767347 13.07836914 28.22949219 C13.07851517 28.88356552 13.07866119 29.53763885 13.07881165 30.21153259 C13.07811716 32.36501426 13.07034658 34.51840852 13.0625 36.671875 C13.06063417 38.16831414 13.05921104 39.66475388 13.05821228 41.16119385 C13.0544001 45.09358415 13.04458092 49.02593732 13.0335083 52.95831299 C13.02326624 56.97350563 13.01870867 60.9887043 13.01367188 65.00390625 C13.00295747 72.87762307 12.9853712 80.75130264 12.96484375 88.625 C7.35484375 88.625 1.74484375 88.625 -4.03515625 88.625 C-4.36515625 85.325 -4.69515625 82.025 -5.03515625 78.625 C-6.10765625 79.676875 -7.18015625 80.72875 -8.28515625 81.8125 C-17.49728913 89.76623294 -28.04744459 92.04495168 -40.03515625 91.625 C-50.62557119 90.3105868 -59.18501779 85.81662303 -65.8203125 77.3984375 C-70.91216637 69.9653132 -71.66869419 61.78869521 -70.47265625 53.0625 C-68.69241214 44.71539518 -64.15370939 38.6839208 -57.16015625 33.90234375 C-42.70745163 25.21478049 -26.9263953 25.16617188 -10.8359375 28.87109375 C-8.03515625 29.625 -8.03515625 29.625 -6.03515625 30.625 C-6.30432876 24.56861846 -6.93473847 20.37285217 -11.03515625 15.625 C-18.23381374 9.44754741 -24.67828001 8.95236191 -34.03515625 9.625 C-40.33417252 11.02707236 -45.2779841 13.9589457 -48.84765625 19.375 C-49.23953125 20.1175 -49.63140625 20.86 -50.03515625 21.625 C-54.09334808 20.96996718 -57.57486907 19.67940879 -61.34765625 18.0625 C-62.41628906 17.60746094 -63.48492188 17.15242187 -64.5859375 16.68359375 C-65.39417969 16.33425781 -66.20242188 15.98492188 -67.03515625 15.625 C-65.91856538 7.76750867 -60.44223136 2.38499115 -54.28515625 -2.25 C-38.27426065 -12.56494171 -15.23503084 -11.01991381 0 0 Z M-48.03515625 49.625 C-51.06194779 54.1651873 -51.96327884 58.29096215 -51.03515625 63.625 C-48.77709658 68.51746261 -45.96743264 70.75967384 -41.16796875 72.8671875 C-33.74226887 75.50562299 -28.20151369 74.51817471 -21.03515625 71.625 C-13.85465206 67.89113782 -7.65985577 61.39988722 -5.03515625 53.6875 C-4.4308566 51.54601311 -4.03515625 49.84773596 -4.03515625 47.625 C-17.68321838 40.31353815 -36.2306 37.24461174 -48.03515625 49.625 Z " fill="#626569" transform="translate(925.03515625,884.375)"/>
<path d="M0 0 C5.66589371 4.75551755 9.41179735 9.03189118 11.5625 16.1875 C9.29442796 17.1942004 7.02342246 18.19301766 4.75 19.1875 C4.10740234 19.47367188 3.46480469 19.75984375 2.80273438 20.0546875 C-0.11506469 21.32461041 -2.22015714 22.1875 -5.4375 22.1875 C-6.035625 21.28 -6.63375 20.3725 -7.25 19.4375 C-10.19594819 15.06066269 -13.45808035 12.84730655 -18.4375 11.1875 C-26.75258177 10.54300192 -33.40146138 10.45170477 -40.4375 15.1875 C-42.78299674 18.70574511 -43.01741403 20.04525694 -42.4375 24.1875 C-36.28925234 32.7157145 -22.93887461 33.59462767 -13.3203125 35.67382812 C-3.11557705 38.0692145 4.38895013 42.63272375 10.5625 51.1875 C12.41703017 54.89656034 11.83359401 59.29236971 11.875 63.375 C11.91850586 64.77588867 11.91850586 64.77588867 11.96289062 66.20507812 C12.02889941 73.42034571 10.74663196 77.50754213 5.95703125 83.04296875 C-3.04941563 90.62617465 -14.1907665 93.79123113 -25.9296875 93.43359375 C-38.57602208 92.1925983 -49.00749656 88.56092408 -57.83203125 79.19140625 C-65.4375 69.69844891 -65.4375 69.69844891 -65.4375 65.1875 C-63.19314555 64.15233652 -60.94343133 63.13435023 -58.6875 62.125 C-58.05328125 61.83044922 -57.4190625 61.53589844 -56.765625 61.23242188 C-54.17800066 60.08685902 -52.01328178 59.17468294 -49.15625 59.23828125 C-46.78622403 60.54718195 -46.00907903 62.08975372 -44.6875 64.4375 C-41.12025679 70.13782758 -36.7650896 73.07830347 -30.4375 75.1875 C-22.80779778 75.8241783 -15.69820516 76.0871823 -9.4375 71.1875 C-7.2293416 69.00858941 -7.2293416 69.00858941 -6.4375 66.1875 C-6.6858449 62.586499 -7.29818384 59.60544848 -8.4375 56.1875 C-12.78491752 53.92446074 -17.76984005 53.00681526 -22.5 51.8125 C-52.7351423 43.95648711 -52.7351423 43.95648711 -60.4375 32.1875 C-63.18825045 26.56096499 -63.34547089 19.99832672 -61.90234375 13.94140625 C-58.81561265 5.0185606 -52.55874464 0.50390955 -44.4375 -3.8125 C-30.76519512 -9.6632611 -12.25813988 -8.64326309 0 0 Z " fill="#626569" transform="translate(1125.4375,882.8125)"/>
<path d="M0 0 C7.59 0 15.18 0 23 0 C23 50.82 23 101.64 23 154 C15.41 154 7.82 154 0 154 C0 103.18 0 52.36 0 0 Z " fill="#5F6368" transform="translate(518,820)"/>
</svg>
