<svg width="24" height="24" viewBox="0 0 24 24" fill="none" xmlns="http://www.w3.org/2000/svg">
<path fill-rule="evenodd" clip-rule="evenodd" d="M22 8V20H18.9981L19 23L14 20H10V8H22ZM14 4V7H9L8.99998 16.6L5 19L5.00189 16H2V4H14ZM16.5874 11H15.4188L13.2 17H14.2543L14.8683 15.2809H17.121L17.7392 17H18.857L16.5874 11ZM15.9946 12.0035C16.086 12.3098 16.1828 12.6118 16.285 12.9094L16.3291 13.0367L16.833 14.4594H15.152L15.6559 13.0367C15.797 12.6443 15.9099 12.2999 15.9946 12.0035ZM7.48583 5.61902H6.48583L6.48581 6.11899L3.98583 6.11902V7.11902L7.71855 7.11907C7.65858 7.97071 7.44251 8.73781 7.07066 9.42503C6.66691 8.86973 6.38878 8.24904 6.23456 7.55912L6.22468 7.51402L5.24697 7.72402L5.32033 8.02929C5.54298 8.865 5.92711 9.61805 6.47087 10.2842C5.8811 10.9206 5.03595 11.367 3.91987 11.6214L3.87736 11.6309L4.09429 12.6071L4.39279 12.5353C5.55767 12.2327 6.48736 11.7217 7.16987 11.0009C7.64822 11.4134 8.24099 11.8034 8.94803 12.1729L8.99996 12.1999L8.99996 11.0611C8.51616 10.7824 8.1082 10.4959 7.77599 10.2026C8.32739 9.30656 8.64099 8.29348 8.71738 7.1702L8.72069 7.11907L8.99995 7.11902V6.11899H7.4858L7.48583 5.61902Z" fill="black"/>
</svg>
