<svg width="24" height="31" viewBox="0 0 24 31" fill="none" xmlns="http://www.w3.org/2000/svg">
<path fill-rule="evenodd" clip-rule="evenodd" d="M12 8.71875C10.343 8.71875 9 10.0198 9 11.625C9 13.2302 10.343 14.5312 12 14.5312C13.657 14.5312 15 13.2302 15 11.625C15 10.0198 13.657 8.71875 12 8.71875ZM12 16.4687C9.239 16.4687 7 14.3007 7 11.625C7 8.94931 9.239 6.78125 12 6.78125C14.761 6.78125 17 8.94931 17 11.625C17 14.3007 14.761 16.4687 12 16.4687ZM12 0C5.373 0 0 5.20509 0 11.625C0 16.4862 10.005 31.0106 12 31C13.964 31.0106 24 16.4203 24 11.625C24 5.20509 18.627 0 12 0Z" fill="#5F73E3"/>
</svg>
