<svg width="29" height="40" viewBox="0 0 29 40" fill="none" xmlns="http://www.w3.org/2000/svg">
<path d="M28 14.5C28 19.1653 22.7145 27.9749 18.7579 34.3566C16.9211 37.3188 16.0028 38.8 14.5 38.8C12.9972 38.8 12.0789 37.3188 10.2421 34.3566C6.2856 27.9749 1 19.1653 1 14.5C1 7.04417 7.04417 1 14.5 1C21.9558 1 28 7.04417 28 14.5Z" fill="white" stroke="#5F73E3" stroke-width="1.62" stroke-linecap="round" stroke-linejoin="round"/>
<path d="M18.416 24.623H20.2997V26.0358C20.2997 26.2958 20.0888 26.5068 19.8288 26.5068H18.8869C18.627 26.5068 18.416 26.2958 18.416 26.0358V24.623Z" stroke="#5F73E3" stroke-width="1.01573"/>
<path d="M8.05566 24.623H9.93939V26.0358C9.93939 26.2958 9.72841 26.5068 9.46846 26.5068H8.5266C8.26664 26.5068 8.05566 26.2958 8.05566 26.0358V24.623Z" stroke="#5F73E3" stroke-width="1.01573"/>
<path d="M9.93939 19.9141H18.4162C19.4564 19.9141 20.2999 20.7575 20.2999 21.7978V24.1524C20.2999 24.4124 20.0889 24.6233 19.829 24.6233H8.5266C8.26664 24.6233 8.05566 24.4124 8.05566 24.1524V21.7978C8.05566 20.7575 8.8991 19.9141 9.93939 19.9141Z" stroke="#5F73E3" stroke-width="1.01573"/>
<path d="M18.4162 21.7979C18.6762 21.7979 18.8872 22.0088 18.8872 22.2688C18.8872 22.5287 18.6762 22.7397 18.4162 22.7397C18.1563 22.7397 17.9453 22.5287 17.9453 22.2688C17.9453 22.0088 18.1563 21.7979 18.4162 21.7979Z" fill="#3C3C3C"/>
<path d="M9.9387 21.7979C10.1987 21.7979 10.4096 22.0088 10.4096 22.2688C10.4096 22.5287 10.1987 22.7397 9.9387 22.7397C9.67875 22.7397 9.46777 22.5287 9.46777 22.2688C9.46777 22.0088 9.67875 21.7979 9.9387 21.7979Z" fill="#3C3C3C"/>
<path d="M10.7362 16.1465H17.6184C17.8148 16.1465 17.9904 16.2685 18.0592 16.4521L19.3576 19.9139H8.99707L10.2954 16.4521C10.3642 16.2685 10.5398 16.1465 10.7362 16.1465Z" stroke="#5F73E3" stroke-width="1.01573"/>
<path d="M7.58496 18.501H8.99776V19.4428H7.58496V18.501Z" fill="#3C3C3C"/>
<path d="M19.3584 18.501H20.7712V19.4428H19.3584V18.501Z" fill="#3C3C3C"/>
<path d="M11.3525 22.2676H17.0037" stroke="#5F73E3" stroke-width="1.01573"/>
</svg>
