<svg width="102" height="62" viewBox="0 0 102 62" fill="none" xmlns="http://www.w3.org/2000/svg">
<path d="M11.5714 51.5849C11.4816 52.2824 11.3021 52.9247 11.0327 53.5118C10.7634 54.0919 10.4146 54.5891 9.98644 55.0035C9.55134 55.4248 9.03683 55.7528 8.44289 55.9876C7.85586 56.2155 7.19977 56.3295 6.47461 56.3295C5.85305 56.3295 5.28673 56.2432 4.77567 56.0705C4.27152 55.891 3.82261 55.6458 3.42895 55.335C3.02839 55.0242 2.68308 54.6582 2.39302 54.2369C2.10986 53.8156 1.87505 53.3564 1.68858 52.8591C1.4952 52.3619 1.35017 51.8404 1.25348 51.2948C1.1637 50.7493 1.11536 50.1968 1.10845 49.6373V47.5344C1.11536 46.975 1.1637 46.4225 1.25348 45.8769C1.35017 45.3313 1.4952 44.8099 1.68858 44.3126C1.87505 43.8154 2.10986 43.3561 2.39302 42.9348C2.68308 42.5066 3.02839 42.1372 3.42895 41.8264C3.82261 41.5156 4.27152 41.2739 4.77567 41.1012C5.27983 40.9217 5.84614 40.8319 6.47461 40.8319C7.22739 40.8319 7.90075 40.9493 8.49469 41.1841C9.08863 41.412 9.59969 41.7366 10.0279 42.1579C10.4561 42.5861 10.7979 43.0971 11.0535 43.6911C11.3159 44.285 11.4885 44.9411 11.5714 45.6593H9.65494C9.59278 45.2035 9.48574 44.7788 9.3338 44.3851C9.18186 43.9915 8.97813 43.6462 8.72259 43.3492C8.46706 43.0522 8.15283 42.8209 7.77989 42.6551C7.41386 42.4825 6.97877 42.3961 6.47461 42.3961C6.0188 42.3961 5.61478 42.4721 5.26256 42.624C4.91725 42.7691 4.62028 42.9694 4.37166 43.2249C4.11613 43.4804 3.90203 43.7774 3.72938 44.1158C3.56363 44.4542 3.42895 44.8133 3.32536 45.1932C3.22177 45.573 3.1458 45.9632 3.09745 46.3638C3.05602 46.7574 3.0353 47.1407 3.0353 47.5137V49.6373C3.0353 50.0103 3.05602 50.397 3.09745 50.7976C3.1458 51.1913 3.22177 51.578 3.32536 51.9578C3.42895 52.3446 3.56363 52.7072 3.72938 53.0456C3.89513 53.384 4.10577 53.681 4.3613 53.9365C4.61683 54.1989 4.91725 54.4061 5.26256 54.558C5.60788 54.7031 6.01189 54.7756 6.47461 54.7756C6.97877 54.7756 7.41386 54.6962 7.77989 54.5373C8.15283 54.3785 8.46706 54.154 8.72259 53.864C8.97813 53.5808 9.18186 53.2459 9.3338 52.8591C9.48574 52.4655 9.59278 52.0407 9.65494 51.5849H11.5714ZM21.9101 56.1223C21.8341 55.9773 21.772 55.7977 21.7236 55.5836C21.6822 55.3626 21.6511 55.1347 21.6304 54.8999C21.437 55.0933 21.2195 55.2763 20.9777 55.449C20.7429 55.6216 20.4839 55.7735 20.2008 55.9048C19.9107 56.036 19.6034 56.1396 19.2788 56.2155C18.9542 56.2915 18.6089 56.3295 18.2429 56.3295C17.6489 56.3295 17.1102 56.2432 16.6268 56.0705C16.1503 55.8979 15.7463 55.663 15.4148 55.3661C15.0763 55.076 14.8139 54.7307 14.6274 54.3301C14.4479 53.9227 14.3581 53.4841 14.3581 53.0145C14.3581 52.3998 14.479 51.8612 14.7207 51.3984C14.9693 50.9357 15.3181 50.549 15.767 50.2382C16.2159 49.9343 16.7546 49.7064 17.383 49.5545C18.0184 49.4025 18.7263 49.3266 19.5067 49.3266H21.5993V48.446C21.5993 48.1076 21.5371 47.8037 21.4128 47.5344C21.2885 47.265 21.1124 47.0337 20.8845 46.8403C20.6566 46.6538 20.3769 46.5088 20.0454 46.4052C19.7208 46.3016 19.3548 46.2498 18.9473 46.2498C18.5675 46.2498 18.2256 46.2982 17.9217 46.3949C17.6248 46.4915 17.3727 46.6193 17.1655 46.7782C16.9583 46.937 16.796 47.1269 16.6786 47.3479C16.5681 47.562 16.5128 47.7865 16.5128 48.0213H14.586C14.5929 47.6138 14.6965 47.2133 14.8968 46.8196C15.104 46.4259 15.4009 46.0703 15.7877 45.7526C16.1675 45.4418 16.6303 45.1897 17.1758 44.9963C17.7283 44.803 18.3534 44.7063 19.0509 44.7063C19.6863 44.7063 20.2768 44.7857 20.8223 44.9445C21.3679 45.0965 21.841 45.3278 22.2416 45.6386C22.6352 45.9563 22.946 46.35 23.1739 46.8196C23.4018 47.2892 23.5158 47.8383 23.5158 48.4667V53.6775C23.5158 54.0504 23.5503 54.4475 23.6194 54.8688C23.6884 55.2832 23.7851 55.6458 23.9094 55.9566V56.1223H21.9101ZM18.5226 54.6616C18.8955 54.6616 19.2443 54.6133 19.5689 54.5166C19.8935 54.4199 20.1904 54.2922 20.4598 54.1333C20.7222 53.9745 20.9501 53.7949 21.1435 53.5946C21.3369 53.3874 21.4888 53.1733 21.5993 52.9523V50.6836H19.8175C19.1545 50.6836 18.5744 50.7423 18.0771 50.8598C17.5868 50.9703 17.1966 51.1429 16.9065 51.3777C16.6993 51.5435 16.5405 51.7403 16.43 51.9682C16.3264 52.1961 16.2746 52.4551 16.2746 52.7452C16.2746 53.0214 16.3195 53.2769 16.4093 53.5118C16.5059 53.7466 16.6475 53.9468 16.834 54.1126C17.0205 54.2853 17.2553 54.4199 17.5384 54.5166C17.8216 54.6133 18.1496 54.6616 18.5226 54.6616ZM34.6314 44.7063C34.9836 44.7063 35.3496 44.7305 35.7295 44.7788C36.1162 44.8271 36.4063 44.8928 36.5997 44.9756L36.3407 46.8507C35.9678 46.7678 35.6121 46.7091 35.2737 46.6746C34.9422 46.6331 34.5934 46.6124 34.2274 46.6124C33.7578 46.6124 33.333 46.6711 32.9532 46.7885C32.5733 46.899 32.2418 47.0648 31.9587 47.2858C31.7031 47.4791 31.4787 47.7174 31.2853 48.0006C31.0988 48.2768 30.9435 48.5876 30.8191 48.9329V56.1223H28.8923V44.9135H30.7155L30.7984 46.4156L30.8088 46.6953C31.2646 46.0806 31.8102 45.5972 32.4456 45.245C33.0878 44.8858 33.8165 44.7063 34.6314 44.7063ZM49.7872 54.1437C49.5523 54.4199 49.3037 54.672 49.0413 54.8999C48.7788 55.1209 48.5061 55.3143 48.2229 55.48C47.7395 55.7701 47.218 55.9842 46.6586 56.1223C46.0992 56.2673 45.5122 56.3364 44.8975 56.3295C44.276 56.3226 43.7028 56.2294 43.1779 56.0498C42.6599 55.8633 42.1937 55.6078 41.7794 55.2832C41.365 54.9655 41.0024 54.5891 40.6916 54.154C40.3808 53.7189 40.1219 53.2459 39.9147 52.7348C39.7006 52.2306 39.5383 51.7023 39.4278 51.1498C39.3242 50.5904 39.2689 50.0275 39.262 49.4612V47.7105C39.2689 47.1511 39.3173 46.5951 39.4071 46.0426C39.5038 45.4832 39.6488 44.948 39.8422 44.4369C40.0355 43.9259 40.2773 43.4528 40.5673 43.0177C40.8574 42.5757 41.2061 42.1924 41.6136 41.8678C42.0142 41.5501 42.47 41.298 42.9811 41.1116C43.4921 40.9251 44.0653 40.8319 44.7007 40.8319C45.4051 40.8319 46.0543 40.9424 46.6483 41.1634C47.2422 41.3775 47.7602 41.6848 48.2022 42.0854C48.6442 42.4928 48.9998 42.9832 49.2692 43.5564C49.5385 44.1227 49.7043 44.7581 49.7664 45.4625H47.8707C47.7947 45.0274 47.6773 44.6269 47.5185 44.2608C47.3596 43.8879 47.1524 43.5702 46.8969 43.3078C46.6345 43.0453 46.3237 42.8416 45.9646 42.6966C45.6054 42.5446 45.1876 42.4687 44.7111 42.4687C44.2553 42.4687 43.8512 42.5481 43.499 42.7069C43.1468 42.8589 42.8395 43.066 42.577 43.3285C42.3146 43.5909 42.0971 43.8983 41.9244 44.2505C41.7517 44.5958 41.6102 44.9618 41.4997 45.3486C41.3892 45.7353 41.3097 46.129 41.2614 46.5295C41.2131 46.9301 41.1889 47.3168 41.1889 47.6898V49.4612C41.1958 49.8411 41.2269 50.2347 41.2821 50.6422C41.3443 51.0428 41.4375 51.4364 41.5618 51.8232C41.6861 52.2099 41.845 52.576 42.0383 52.9213C42.2317 53.2666 42.4665 53.5705 42.7428 53.8329C43.0121 54.0953 43.3264 54.306 43.6855 54.4648C44.0446 54.6168 44.4521 54.6962 44.9079 54.7031C45.1703 54.71 45.4431 54.6996 45.7263 54.672C46.0163 54.6444 46.2961 54.5891 46.5654 54.5063C46.8347 54.4234 47.0868 54.3129 47.3216 54.1748C47.5564 54.0297 47.7533 53.8433 47.9121 53.6153L47.9328 50.2278H44.8665V48.6118H49.7561L49.7872 54.1437ZM60.1362 56.1223C60.0602 55.9773 59.9981 55.7977 59.9497 55.5836C59.9083 55.3626 59.8772 55.1347 59.8565 54.8999C59.6631 55.0933 59.4456 55.2763 59.2038 55.449C58.969 55.6216 58.71 55.7735 58.4269 55.9048C58.1368 56.036 57.8295 56.1396 57.5049 56.2155C57.1803 56.2915 56.835 56.3295 56.469 56.3295C55.875 56.3295 55.3363 56.2432 54.8529 56.0705C54.3764 55.8979 53.9723 55.663 53.6408 55.3661C53.3024 55.076 53.04 54.7307 52.8535 54.3301C52.674 53.9227 52.5842 53.4841 52.5842 53.0145C52.5842 52.3998 52.7051 51.8612 52.9468 51.3984C53.1954 50.9357 53.5442 50.549 53.9931 50.2382C54.442 49.9343 54.9807 49.7064 55.6091 49.5545C56.2445 49.4025 56.9524 49.3266 57.7328 49.3266H59.8254V48.446C59.8254 48.1076 59.7632 47.8037 59.6389 47.5344C59.5146 47.265 59.3385 47.0337 59.1106 46.8403C58.8827 46.6538 58.603 46.5088 58.2715 46.4052C57.9469 46.3016 57.5809 46.2498 57.1734 46.2498C56.7936 46.2498 56.4517 46.2982 56.1478 46.3949C55.8508 46.4915 55.5988 46.6193 55.3916 46.7782C55.1844 46.937 55.0221 47.1269 54.9047 47.3479C54.7942 47.562 54.7389 47.7865 54.7389 48.0213H52.8121C52.819 47.6138 52.9226 47.2133 53.1229 46.8196C53.3301 46.4259 53.627 46.0703 54.0138 45.7526C54.3936 45.4418 54.8563 45.1897 55.4019 44.9963C55.9544 44.803 56.5795 44.7063 57.277 44.7063C57.9124 44.7063 58.5028 44.7857 59.0484 44.9445C59.594 45.0965 60.0671 45.3278 60.4677 45.6386C60.8613 45.9563 61.1721 46.35 61.4 46.8196C61.6279 47.2892 61.7419 47.8383 61.7419 48.4667V53.6775C61.7419 54.0504 61.7764 54.4475 61.8455 54.8688C61.9145 55.2832 62.0112 55.6458 62.1355 55.9566V56.1223H60.1362ZM56.7487 54.6616C57.1216 54.6616 57.4704 54.6133 57.795 54.5166C58.1196 54.4199 58.4165 54.2922 58.6859 54.1333C58.9483 53.9745 59.1762 53.7949 59.3696 53.5946C59.563 53.3874 59.7149 53.1733 59.8254 52.9523V50.6836H58.0436C57.3806 50.6836 56.8005 50.7423 56.3032 50.8598C55.8129 50.9703 55.4227 51.1429 55.1326 51.3777C54.9254 51.5435 54.7666 51.7403 54.6561 51.9682C54.5525 52.1961 54.5007 52.4551 54.5007 52.7452C54.5007 53.0214 54.5456 53.2769 54.6353 53.5118C54.732 53.7466 54.8736 53.9468 55.0601 54.1126C55.2466 54.2853 55.4814 54.4199 55.7645 54.5166C56.0477 54.6133 56.3757 54.6616 56.7487 54.6616ZM70.0501 42.1993V44.9135H74.3182V46.3949H70.0501V52.4862C70.0501 52.9213 70.1053 53.2804 70.2158 53.5635C70.3263 53.8467 70.4783 54.0712 70.6717 54.2369C70.865 54.4096 71.086 54.5304 71.3347 54.5995C71.5902 54.6685 71.8595 54.7031 72.1427 54.7031C72.3499 54.7031 72.564 54.6927 72.785 54.672C73.006 54.6444 73.2235 54.6133 73.4376 54.5788C73.6448 54.5442 73.8382 54.5097 74.0177 54.4752C74.2042 54.4337 74.3561 54.3992 74.4736 54.3716L74.7429 55.7287C74.5841 55.8253 74.3907 55.9117 74.1628 55.9876C73.9349 56.0567 73.6862 56.1154 73.4169 56.1638C73.1476 56.219 72.8609 56.2604 72.5571 56.2881C72.2601 56.3157 71.9631 56.3295 71.6662 56.3295C71.1689 56.3295 70.7027 56.2604 70.2676 56.1223C69.8395 55.9773 69.4665 55.7494 69.1488 55.4386C68.8311 55.1347 68.5791 54.7411 68.3926 54.2576C68.213 53.7673 68.1233 53.1768 68.1233 52.4862V46.3949H65.1812V44.9135H68.1233V42.1993H70.0501ZM77.716 50.4143C77.716 49.6063 77.8334 48.8569 78.0683 48.1663C78.3031 47.4688 78.6415 46.8645 79.0835 46.3534C79.5186 45.8424 80.0504 45.4418 80.6788 45.1517C81.3073 44.8548 82.0152 44.7063 82.8025 44.7063C83.5967 44.7063 84.3081 44.8548 84.9365 45.1517C85.5719 45.4418 86.1106 45.8424 86.5526 46.3534C86.9877 46.8645 87.3226 47.4688 87.5574 48.1663C87.7923 48.8569 87.9097 49.6063 87.9097 50.4143V50.6422C87.9097 51.4502 87.7923 52.1996 87.5574 52.8902C87.3226 53.5808 86.9877 54.1817 86.5526 54.6927C86.1106 55.2038 85.5754 55.6043 84.9469 55.8944C84.3184 56.1845 83.6105 56.3295 82.8232 56.3295C82.029 56.3295 81.3142 56.1845 80.6788 55.8944C80.0504 55.6043 79.5186 55.2038 79.0835 54.6927C78.6415 54.1817 78.3031 53.5808 78.0683 52.8902C77.8334 52.1996 77.716 51.4502 77.716 50.6422V50.4143ZM79.6325 50.6422C79.6325 51.1947 79.6981 51.723 79.8294 52.2272C79.9606 52.7244 80.1609 53.163 80.4302 53.5428C80.6926 53.9227 81.0241 54.2231 81.4247 54.4441C81.8253 54.6651 82.2914 54.7756 82.8232 54.7756C83.3481 54.7756 83.8074 54.6651 84.201 54.4441C84.6016 54.2231 84.9365 53.9227 85.2059 53.5428C85.4683 53.163 85.6651 52.7244 85.7964 52.2272C85.9276 51.723 85.9932 51.1947 85.9932 50.6422V50.4143C85.9932 49.8687 85.9241 49.3473 85.786 48.85C85.6548 48.3459 85.4579 47.9039 85.1955 47.524C84.9262 47.1442 84.5912 46.8438 84.1906 46.6228C83.797 46.3949 83.3343 46.2809 82.8025 46.2809C82.2707 46.2809 81.808 46.3949 81.4143 46.6228C81.0207 46.8438 80.6926 47.1442 80.4302 47.524C80.1609 47.9039 79.9606 48.3459 79.8294 48.85C79.6981 49.3473 79.6325 49.8687 79.6325 50.4143V50.6422ZM98.3416 44.7063C98.6938 44.7063 99.0598 44.7305 99.4396 44.7788C99.8264 44.8271 100.116 44.8928 100.31 44.9756L100.051 46.8507C99.6779 46.7678 99.3222 46.7091 98.9838 46.6746C98.6523 46.6331 98.3036 46.6124 97.9375 46.6124C97.4679 46.6124 97.0432 46.6711 96.6633 46.7885C96.2835 46.899 95.952 47.0648 95.6688 47.2858C95.4133 47.4791 95.1888 47.7174 94.9955 48.0006C94.809 48.2768 94.6536 48.5876 94.5293 48.9329V56.1223H92.6025V44.9135H94.4257L94.5086 46.4156L94.5189 46.6953C94.9748 46.0806 95.5203 45.5972 96.1557 45.245C96.798 44.8858 97.5266 44.7063 98.3416 44.7063Z" fill="#2BB180"/>
<g clip-path="url(#clip0_1515_9115)">
<path d="M38.0968 6.2063C37.9984 6.65819 37.7693 7.02212 37.4096 7.2981C37.0401 7.58066 36.828 7.75219 36.7733 7.81266C34.6791 10.0853 34.8628 12.8676 34.8824 15.7406C34.8828 15.7636 34.8899 15.7859 34.9029 15.8048C34.916 15.8237 34.9343 15.8383 34.9557 15.8466C34.977 15.8549 35.0003 15.8567 35.0226 15.8516C35.0449 15.8465 35.0652 15.8348 35.0809 15.8181C36.0332 14.8109 37.1751 14.5152 38.5068 14.9308C39.3874 15.2045 40.1041 16.1562 40.4042 16.956C40.882 18.2227 41.2909 19.7707 41.6309 21.6003C42.0409 23.8086 42.341 25.9873 43.4283 27.9878C44.1565 29.327 45.1454 29.3831 46.6525 29.2693" stroke="#09482F" stroke-width="0.812585"/>
<path d="M46.6528 29.2692C49.1412 29.3253 51.6367 29.3379 54.1393 29.3072C55.0074 29.2962 55.5103 29.2758 55.6481 29.2461C57.8998 28.7679 58.5721 23.675 58.951 21.7718C59.0002 21.5233 59.1866 21.399 59.5102 21.399" stroke="#165940" stroke-width="0.812585"/>
<path d="M59.5098 21.399C60.1953 21.7091 59.7541 22.8751 59.6098 23.4293C59.6076 23.4387 59.6077 23.4485 59.6101 23.4578C59.6125 23.4672 59.6171 23.4758 59.6235 23.483C59.63 23.4901 59.6381 23.4956 59.6471 23.4988C59.6562 23.5021 59.6659 23.5032 59.6754 23.5018C62.893 23.0219 65.0594 20.9983 65.5826 17.7113C65.5913 17.6575 65.5842 17.6058 65.5613 17.5563C65.084 16.514 64.1296 15.6663 62.957 15.7174C61.1743 15.7933 60.5839 18.5294 60.2969 20.0368C60.2346 20.3622 60.0291 20.5161 59.6803 20.4986" stroke="#1F6252" stroke-width="0.812585"/>
<path d="M59.6806 20.4986C59.3772 20.3551 59.2771 20.1358 59.3558 19.7944C59.7347 18.1402 60.3726 15.4767 61.906 14.9819C63.3328 14.5201 64.5622 14.8197 65.5943 15.8807C65.6391 15.9269 65.6632 15.9176 65.6665 15.8527C65.8321 12.5212 65.8091 9.30356 63.0851 7.14966C61.5583 5.94076 60.5547 6.1997 59.9085 4.12165C58.9803 1.12663 55.8069 0.110702 54.0456 3.20633C52.3794 6.13537 48.3172 6.36297 46.6149 3.3663C46.3503 2.90122 46.1273 2.57412 45.9458 2.385" stroke="#165940" stroke-width="0.812585"/>
<path d="M45.9459 2.38487C44.1091 0.153453 41.4868 1.68725 40.7275 3.9599C40.3831 4.99067 40.2125 5.45576 39.4138 6.00166C39.3646 6.03464 39.3122 6.04179 39.2564 6.0231L38.73 5.84828" stroke="#09482F" stroke-width="0.812585"/>
<path d="M35.0073 17.7031C35.4517 20.8086 37.7444 23.167 40.8898 23.5035C40.95 23.5101 40.974 23.4831 40.962 23.4227C40.5356 21.3842 40.2683 19.3655 39.5106 17.4095C38.5283 14.873 36.0011 15.3991 35.0302 17.5448C35.0073 17.5954 34.9996 17.6481 35.0073 17.7031Z" stroke="#1F6252" stroke-width="0.812585"/>
<path d="M43.5399 29.8052C43.4327 29.9526 43.436 30.1312 43.5497 30.3412C43.6744 30.5721 43.7547 30.8541 44.0516 31.0339C44.0997 31.0636 44.1467 31.0619 44.1926 31.029C44.4342 30.8596 44.5917 30.6293 44.6649 30.3379C44.6758 30.2917 44.6605 30.2588 44.619 30.239L43.6596 29.7739C43.6115 29.7508 43.5716 29.7612 43.5399 29.8052Z" stroke="#787A7B" stroke-width="0.812585"/>
<path d="M57.0056 29.6766C56.694 29.913 56.3507 30.0911 55.9757 30.2109C55.9221 30.2285 55.9019 30.2654 55.915 30.3214C55.9883 30.6326 56.1555 30.8756 56.4168 31.0504C56.4715 31.0878 56.5229 31.0828 56.571 31.0356C56.9547 30.6529 57.1422 30.1851 57.1335 29.6321C57.1324 29.5793 57.1084 29.5639 57.0613 29.5859C57.0307 29.5991 57.0121 29.6293 57.0056 29.6766Z" stroke="#787A7B" stroke-width="0.812585"/>
<path d="M47.2154 30.2949L45.969 30.3081C45.9586 30.3081 45.9486 30.3123 45.9412 30.3197C45.9338 30.3271 45.9297 30.3372 45.9297 30.3477V30.3741C45.9314 30.5392 45.95 30.7024 45.9846 30.8546C46.0191 31.0068 46.0689 31.1448 46.131 31.2609C46.1932 31.377 46.2664 31.4689 46.3467 31.5312C46.427 31.5935 46.5126 31.6251 46.5988 31.6242H46.6119C46.7859 31.6224 46.9513 31.4883 47.0719 31.2513C47.1924 31.0144 47.2582 30.6941 47.2548 30.3609V30.3345C47.2548 30.3293 47.2538 30.3242 47.2518 30.3194C47.2498 30.3146 47.2469 30.3102 47.2433 30.3065C47.2396 30.3028 47.2353 30.2999 47.2305 30.2979C47.2257 30.2959 47.2206 30.2949 47.2154 30.2949Z" stroke="#787A7B" stroke-width="0.812585"/>
<path d="M50.9577 30.2949C50.9522 30.2707 50.9293 30.2608 50.8888 30.2652C50.8342 30.2718 50.8107 30.3026 50.8183 30.3575C50.8828 30.7841 51.0282 31.1728 51.2545 31.5235C51.2809 31.5645 51.3166 31.5986 51.3586 31.623C51.4007 31.6474 51.4479 31.6615 51.4965 31.664C51.5451 31.6666 51.5936 31.6576 51.6382 31.6378C51.6828 31.618 51.7222 31.5879 51.7531 31.5499C52.0275 31.2091 52.1789 30.8221 52.2074 30.3889C52.2117 30.3317 52.1855 30.3037 52.1286 30.3048C51.7394 30.307 51.3491 30.3037 50.9577 30.2949Z" stroke="#787A7B" stroke-width="0.812585"/>
<path d="M49.6897 30.3033L48.4302 30.3066C48.4241 30.3066 48.4183 30.3091 48.414 30.3134C48.4096 30.3177 48.4072 30.3236 48.4072 30.3297V30.3545C48.4076 30.5225 48.4247 30.6887 48.4576 30.8438C48.4905 30.9989 48.5385 31.1398 48.599 31.2583C48.6595 31.3769 48.7312 31.4708 48.81 31.5348C48.8888 31.5987 48.9732 31.6314 49.0583 31.631H49.0681C49.2398 31.6301 49.4041 31.4949 49.5249 31.2549C49.6458 31.0149 49.7133 30.6899 49.7126 30.3512V30.3264C49.7126 30.3203 49.7102 30.3144 49.7059 30.3101C49.7016 30.3058 49.6958 30.3033 49.6897 30.3033Z" stroke="#787A7B" stroke-width="0.812585"/>
<path d="M54.6147 30.3051L53.365 30.3018C53.3546 30.3018 53.3446 30.3059 53.3372 30.3134C53.3298 30.3208 53.3257 30.3308 53.3257 30.3413V30.3694C53.325 30.6976 53.3938 31.0126 53.5168 31.2451C53.6398 31.4776 53.807 31.6087 53.9817 31.6096H53.9915C54.0782 31.61 54.164 31.5784 54.2443 31.5164C54.3245 31.4545 54.3974 31.3635 54.459 31.2486C54.5205 31.1337 54.5694 30.9972 54.6029 30.8469C54.6364 30.6966 54.6537 30.5355 54.6541 30.3727V30.3446C54.6541 30.3394 54.653 30.3343 54.6511 30.3295C54.6491 30.3247 54.6462 30.3203 54.6425 30.3167C54.6389 30.313 54.6345 30.3101 54.6298 30.3081C54.625 30.3061 54.6199 30.3051 54.6147 30.3051Z" stroke="#787A7B" stroke-width="0.812585"/>
<path d="M45.9461 2.38509C44.5653 2.34881 43.601 2.94968 43.0532 4.18771" stroke="#1EA06F" stroke-width="0.812585"/>
<path d="M43.0528 4.1875C42.0798 5.39914 41.9972 6.66466 42.8052 7.98405" stroke="#09482F" stroke-width="0.812585"/>
<path d="M42.805 7.98413C41.5143 9.43711 40.732 10.9989 41.0797 12.9846C41.7734 16.9461 42.3966 20.6849 43.7283 24.6233C43.9699 25.3391 44.2613 25.9361 44.6024 26.4144" stroke="#1EA06F" stroke-width="0.812585"/>
<path d="M44.6029 26.4142C44.5472 27.2927 44.9337 27.8914 45.7624 28.2102" stroke="#09482F" stroke-width="0.812585"/>
<path d="M45.7622 28.2104L46.6527 29.2693" stroke="#1EA06F" stroke-width="0.812585"/>
<path d="M59.6803 20.4985L59.5098 21.399" stroke="#35BA92" stroke-width="0.812585"/>
<path d="M45.7625 28.2106C46.8859 28.5701 48.7472 28.3442 48.985 26.9258C49.3229 24.9121 45.4919 24.4487 44.603 26.4145" stroke="#165940" stroke-width="0.812585"/>
<path d="M42.8052 7.98409C43.471 8.71635 44.3681 8.65698 44.8633 7.79937C45.434 6.81423 45.4614 5.81369 44.9453 4.79776C44.5321 3.98303 43.8548 3.78347 43.0528 4.18754" stroke="#165940" stroke-width="0.812585"/>
<path d="M56.7922 8.49365C57.1941 8.49365 57.5795 8.25543 57.8637 7.83139C58.1479 7.40735 58.3075 6.83223 58.3075 6.23254C58.3075 5.63286 58.1479 5.05774 57.8637 4.6337C57.5795 4.20966 57.1941 3.97144 56.7922 3.97144C56.3903 3.97144 56.0049 4.20966 55.7207 4.6337C55.4365 5.05774 55.2769 5.63286 55.2769 6.23254C55.2769 6.83223 55.4365 7.40735 55.7207 7.83139C56.0049 8.25543 56.3903 8.49365 56.7922 8.49365Z" stroke="#165940" stroke-width="0.812585"/>
<path d="M58.1737 13.3226C57.7391 12.4419 56.6042 11.4244 55.7137 11.0384C52.3879 9.59591 49.0669 9.47881 45.7509 10.6872C44.7866 11.0384 42.4923 12.3248 42.4201 13.4364C42.4037 13.7152 42.6858 14.0285 42.9416 13.9296C47.8681 12.045 52.7087 12.0208 57.4636 13.857C57.7249 13.9581 57.9424 13.9131 58.1163 13.7218C58.1646 13.6687 58.196 13.6023 58.2062 13.5311C58.2164 13.4599 58.2051 13.3873 58.1737 13.3226Z" stroke="#165940" stroke-width="0.812585"/>
<path d="M56.8465 17.726C56.0905 15.6859 53.7453 14.515 51.7249 14.2659C48.7549 13.8981 45.3897 14.5925 43.8744 17.378C43.6595 17.7755 43.7858 18.1054 44.2401 18.173C44.2958 18.1807 44.3489 18.1724 44.3991 18.1482C48.3526 16.256 52.3065 16.2675 56.2611 18.1829C56.3267 18.2148 56.389 18.2087 56.448 18.1647L56.7924 17.9074C56.8558 17.8602 56.8739 17.7997 56.8465 17.726Z" stroke="#165940" stroke-width="0.812585"/>
<path d="M55.5608 20.304C52.5908 17.5316 46.2605 17.7658 44.1023 21.5096C43.8809 21.8939 43.917 22.2716 44.3877 22.3969C44.438 22.4101 44.4866 22.4051 44.5336 22.3821C48.2017 20.6064 51.9064 20.5399 55.6477 22.1825C55.8429 22.2666 56.0151 22.4678 56.2889 22.3623C57.1598 22.0258 55.9708 20.6866 55.5608 20.304Z" stroke="#165940" stroke-width="0.812585"/>
<path d="M55.9906 26.7431C55.9899 26.5294 55.9321 26.3179 55.8205 26.1208C55.709 25.9237 55.5459 25.7448 55.3406 25.5944C55.1352 25.4439 54.8916 25.3249 54.6237 25.244C54.3558 25.1631 54.0689 25.122 53.7792 25.1231C53.1942 25.1251 52.6338 25.2986 52.2212 25.6053C51.8086 25.912 51.5776 26.3269 51.5791 26.7586C51.5799 26.9723 51.6376 27.1838 51.7492 27.3809C51.8607 27.578 52.0238 27.7569 52.2292 27.9073C52.4345 28.0578 52.6781 28.1768 52.946 28.2577C53.2139 28.3386 53.5008 28.3796 53.7905 28.3786C54.3755 28.3766 54.9359 28.2031 55.3485 27.8964C55.7611 27.5897 55.9921 27.1748 55.9906 26.7431Z" stroke="#165940" stroke-width="0.812585"/>
<path d="M55.766 12.2079C52.6205 10.3821 48.045 10.3805 44.8864 12.16C44.8023 12.2062 44.8077 12.2227 44.9028 12.2095C45.1204 12.1787 45.327 12.1391 45.5227 12.0908C48.8716 11.2678 52.4319 11.375 55.7496 12.2491C55.7546 12.2496 55.7596 12.2485 55.7638 12.2459C55.7681 12.2433 55.7714 12.2393 55.7733 12.2347C55.7751 12.23 55.7754 12.2249 55.7741 12.22C55.7728 12.2152 55.77 12.2109 55.766 12.2079Z" stroke="#09482F" stroke-width="0.812585"/>
<path d="M54.4965 16.311C52.094 14.797 48.4647 14.5496 46.0409 16.3621C45.9282 16.4468 45.9392 16.4688 46.0737 16.4281C48.5516 15.6694 51.1444 15.554 53.6536 16.2071C53.9029 16.2719 54.1724 16.3357 54.4621 16.3984C54.6403 16.438 54.6518 16.4088 54.4965 16.311Z" stroke="#09482F" stroke-width="0.812585"/>
<path d="M54.3344 20.5414C51.8925 19.0967 48.6798 18.9581 46.2608 20.553C46.1581 20.6211 46.1663 20.6409 46.2854 20.6123C49.0455 19.9625 51.5071 19.819 54.2705 20.6057C54.324 20.6211 54.3508 20.609 54.3508 20.5695C54.3509 20.564 54.3494 20.5585 54.3465 20.5536C54.3436 20.5487 54.3395 20.5445 54.3344 20.5414Z" stroke="#09482F" stroke-width="0.812585"/>
<path d="M48.0402 26.7589C48.0402 26.5918 47.9096 26.4316 47.677 26.3134C47.4445 26.1953 47.1292 26.1289 46.8004 26.1289C46.4715 26.1289 46.1562 26.1953 45.9237 26.3134C45.6912 26.4316 45.5605 26.5918 45.5605 26.7589C45.5605 26.926 45.6912 27.0863 45.9237 27.2044C46.1562 27.3225 46.4715 27.3889 46.8004 27.3889C47.1292 27.3889 47.4445 27.3225 47.677 27.2044C47.9096 27.0863 48.0402 26.926 48.0402 26.7589Z" stroke="#2A282C" stroke-width="0.812585"/>
<path d="M55.0243 26.7536C55.0241 26.6707 54.9918 26.5886 54.9292 26.5121C54.8666 26.4355 54.7749 26.3661 54.6594 26.3076C54.5439 26.2492 54.4068 26.2029 54.2559 26.1714C54.105 26.1399 53.9433 26.1239 53.7801 26.1241C53.4504 26.1247 53.1343 26.1918 52.9014 26.3107C52.6685 26.4296 52.5378 26.5905 52.5381 26.758C52.5382 26.8409 52.5705 26.923 52.6331 26.9995C52.6957 27.0761 52.7874 27.1455 52.903 27.204C53.0185 27.2625 53.1556 27.3087 53.3065 27.3402C53.4574 27.3717 53.619 27.3878 53.7823 27.3875C54.112 27.3869 54.428 27.3198 54.661 27.2009C54.8939 27.0821 55.0246 26.9212 55.0243 26.7536Z" stroke="#2A282C" stroke-width="0.812585"/>
<path d="M66.692 13.5336V15.7601C66.6248 16.5188 66.651 17.3648 66.5182 18.0509C65.9442 21.0327 64.2512 23.0553 61.4392 24.1185C60.834 24.3461 60.1141 24.4219 59.4417 24.5374C59.3859 24.5473 59.3526 24.5802 59.3416 24.6363C59.0858 25.8985 58.6873 27.1135 58.1461 28.2811C58.121 28.3372 58.1122 28.3955 58.1199 28.456C58.2325 29.2795 58.1784 30.0046 57.9575 30.6313C57.5754 31.7116 56.4586 32.5791 55.5369 31.5186C55.5269 31.5068 55.514 31.4977 55.4996 31.4923C55.4851 31.4868 55.4694 31.485 55.454 31.4871C55.4386 31.4892 55.4239 31.4952 55.4111 31.5044C55.3984 31.5137 55.3881 31.5259 55.3811 31.54C54.8416 32.6483 53.6001 33.2124 52.8375 31.8946C52.8307 31.8826 52.8209 31.8725 52.8091 31.8654C52.7972 31.8584 52.7837 31.8546 52.7699 31.8544C52.7562 31.8542 52.7426 31.8577 52.7305 31.8645C52.7185 31.8713 52.7085 31.8811 52.7014 31.893C52.111 32.8627 51.0303 32.9106 50.3808 31.9507C50.3218 31.8638 50.2633 31.8644 50.2054 31.9523C49.5969 32.8924 48.4916 32.8792 47.8963 31.9095C47.887 31.8944 47.8739 31.882 47.8583 31.8736C47.8427 31.8653 47.8251 31.8612 47.8075 31.8619C47.7898 31.8626 47.7726 31.8679 47.7577 31.8774C47.7428 31.887 47.7306 31.9003 47.7225 31.9161C47.0517 33.1926 45.7168 32.6582 45.2379 31.5714C45.231 31.5555 45.2204 31.5416 45.207 31.5307C45.1936 31.5198 45.1779 31.5123 45.1611 31.5088C45.1442 31.5052 45.1268 31.5058 45.1102 31.5103C45.0936 31.5149 45.0784 31.5234 45.0657 31.5351C44.5125 32.0508 43.9811 32.1398 43.4716 31.8023C42.4926 31.1558 42.2892 29.5461 42.4696 28.4576C42.4784 28.4048 42.4718 28.3543 42.4499 28.3059C41.9055 27.1217 41.5026 25.8914 41.2413 24.6149C41.2361 24.5895 41.2229 24.5665 41.2037 24.5493C41.1845 24.5321 41.1603 24.5215 41.1347 24.5192C37.202 24.1416 34.255 21.2669 34.0074 17.3153C33.9757 16.8173 33.9374 16.3198 33.8926 15.8228V13.4726C33.9221 13.0339 33.9505 12.5969 33.9779 12.1615C34.1337 9.68267 35.2292 7.61617 37.2283 6.15C37.5382 5.9224 37.8121 6.01476 38.0975 6.20607C37.9991 6.65796 37.77 7.02189 37.4103 7.29787C37.0408 7.58044 36.8287 7.75196 36.774 7.81243C34.6798 10.0851 34.8634 12.8673 34.8831 15.7403C34.8834 15.7633 34.8906 15.7857 34.9036 15.8046C34.9167 15.8235 34.935 15.8381 34.9563 15.8464C34.9777 15.8547 35.001 15.8564 35.0233 15.8514C35.0456 15.8463 35.0659 15.8346 35.0816 15.8178C36.0338 14.8107 37.1758 14.5149 38.5075 14.9305C39.3881 15.2043 40.1048 16.1559 40.4049 16.9558C40.8827 18.2224 41.2916 19.7705 41.6316 21.6001C42.0416 23.8084 42.3417 25.987 43.429 27.9876C44.1572 29.3268 45.1461 29.3828 46.6532 29.269C49.1416 29.3251 51.6371 29.3378 54.1397 29.307C55.0077 29.296 55.5107 29.2756 55.6484 29.2459C57.9001 28.7677 58.5725 23.6748 58.9513 21.7716C59.0005 21.5231 59.1869 21.3989 59.5106 21.3989C60.1961 21.7089 59.7549 22.8749 59.6106 23.4291C59.6084 23.4385 59.6085 23.4483 59.6109 23.4576C59.6133 23.467 59.6179 23.4756 59.6243 23.4828C59.6308 23.4899 59.6389 23.4954 59.6479 23.4987C59.657 23.502 59.6667 23.503 59.6762 23.5016C62.8938 23.0217 65.0602 20.9981 65.5834 17.7112C65.5921 17.6573 65.585 17.6056 65.5621 17.5561C65.0848 16.5138 64.1304 15.6661 62.9578 15.7172C61.1751 15.7931 60.5847 18.5292 60.2977 20.0366C60.2354 20.362 60.0299 20.516 59.6811 20.4984C59.3777 20.3549 59.2777 20.1355 59.3564 19.7942C59.7352 18.14 60.3732 15.4764 61.9066 14.9817C63.3333 14.5199 64.5628 14.8195 65.5949 15.8805C65.6397 15.9267 65.6637 15.9173 65.667 15.8525C65.8326 12.521 65.8097 9.30334 63.0857 7.14944C61.5589 5.94054 60.5552 6.19947 59.9091 4.12143C58.9809 1.12641 55.8075 0.110483 54.0462 3.2061C52.38 6.13515 48.3178 6.36275 46.6155 3.36608C46.3509 2.901 46.1279 2.5739 45.9464 2.38478C44.1096 0.153363 41.4873 1.68716 40.728 3.95981C40.3836 4.99058 40.213 5.45567 39.4144 6.00157C39.3652 6.03455 39.3127 6.0417 39.2569 6.02301L38.7305 5.84819C38.7447 5.44247 38.9202 5.13077 39.2569 4.91307C39.3039 4.88338 39.3395 4.84325 39.3635 4.79267C39.7096 4.06536 39.9605 3.17972 40.2934 2.59424C41.1609 1.07364 42.9764 -0.103919 44.7197 0.450226C46.0694 0.880677 46.8008 1.75313 47.5093 2.91584C47.7553 3.31935 47.9756 3.60412 48.1702 3.77014C49.633 5.01367 52.0667 4.69702 53.0196 2.98346C54.0708 1.09508 55.9863 -0.359551 58.2248 0.656381C59.6746 1.31608 60.4093 2.55136 60.8931 4.09834C61.2637 5.2825 62.0952 5.33033 62.9742 5.89601C64.7115 7.0131 65.8436 8.56998 66.3706 10.5667C66.6116 11.482 66.6412 12.5359 66.692 13.5336ZM35.0078 17.7029C35.4522 20.8084 37.7449 23.1668 40.8903 23.5033C40.9505 23.5099 40.9745 23.483 40.9625 23.4225C40.5361 21.384 40.2688 19.3654 39.5111 17.4094C38.5288 14.8728 36.0016 15.3989 35.0307 17.5446C35.0078 17.5952 35.0001 17.6479 35.0078 17.7029ZM43.5405 29.805C43.4334 29.9524 43.4367 30.131 43.5504 30.341C43.675 30.5719 43.7554 30.854 44.0522 31.0337C44.1003 31.0634 44.1473 31.0618 44.1932 31.0288C44.4349 30.8595 44.5923 30.6291 44.6655 30.3377C44.6765 30.2916 44.6612 30.2586 44.6196 30.2388L43.6602 29.7737C43.6121 29.7506 43.5722 29.7611 43.5405 29.805ZM57.0063 29.6764C56.6947 29.9128 56.3514 30.0909 55.9764 30.2108C55.9229 30.2283 55.9026 30.2652 55.9157 30.3213C55.989 30.6324 56.1563 30.8754 56.4176 31.0502C56.4722 31.0876 56.5236 31.0826 56.5717 31.0354C56.9555 30.6527 57.143 30.1849 57.1342 29.6319C57.1332 29.5791 57.1091 29.5637 57.0621 29.5857C57.0315 29.5989 57.0129 29.6291 57.0063 29.6764ZM47.2157 30.2949L45.9693 30.3081C45.9589 30.3081 45.9489 30.3122 45.9415 30.3197C45.9341 30.3271 45.93 30.3371 45.93 30.3476V30.374C45.9317 30.5391 45.9503 30.7024 45.9849 30.8545C46.0194 31.0067 46.0692 31.1448 46.1313 31.2609C46.1934 31.377 46.2667 31.4688 46.347 31.5311C46.4272 31.5935 46.5129 31.6251 46.5991 31.6241H46.6122C46.7861 31.6223 46.9516 31.4882 47.0721 31.2513C47.1927 31.0144 47.2585 30.6941 47.2551 30.3608V30.3344C47.2551 30.3292 47.254 30.3241 47.2521 30.3193C47.2501 30.3145 47.2472 30.3101 47.2435 30.3065C47.2399 30.3028 47.2355 30.2999 47.2308 30.2979C47.226 30.2959 47.2209 30.2949 47.2157 30.2949ZM50.9581 30.2949C50.9526 30.2707 50.9297 30.2608 50.8892 30.2652C50.8346 30.2718 50.8111 30.3026 50.8187 30.3575C50.8832 30.7841 51.0286 31.1728 51.2549 31.5235C51.2813 31.5645 51.317 31.5986 51.359 31.623C51.4011 31.6474 51.4483 31.6615 51.4969 31.664C51.5455 31.6666 51.594 31.6576 51.6386 31.6378C51.6832 31.618 51.7226 31.5879 51.7535 31.5499C52.0279 31.2091 52.1793 30.8221 52.2078 30.3889C52.2121 30.3317 52.1859 30.3037 52.1291 30.3048C51.7398 30.307 51.3495 30.3037 50.9581 30.2949ZM49.6904 30.3031L48.4309 30.3064C48.4248 30.3064 48.419 30.3088 48.4147 30.3132C48.4104 30.3175 48.408 30.3234 48.408 30.3295V30.3542C48.4083 30.5222 48.4254 30.6885 48.4583 30.8436C48.4912 30.9987 48.5393 31.1396 48.5997 31.2581C48.6602 31.3767 48.7319 31.4706 48.8107 31.5345C48.8895 31.5985 48.9739 31.6312 49.059 31.6307H49.0689C49.2405 31.6299 49.4048 31.4946 49.5257 31.2547C49.6465 31.0147 49.714 30.6897 49.7134 30.3509V30.3262C49.7134 30.3201 49.711 30.3142 49.7067 30.3099C49.7023 30.3055 49.6965 30.3031 49.6904 30.3031ZM54.6152 30.3048L53.3656 30.3015C53.3552 30.3015 53.3451 30.3056 53.3378 30.3131C53.3304 30.3205 53.3262 30.3305 53.3262 30.341V30.3691C53.3256 30.6973 53.3943 31.0123 53.5173 31.2448C53.6403 31.4773 53.8075 31.6084 53.9822 31.6093H53.9921C54.0787 31.6097 54.1646 31.5781 54.2448 31.5161C54.325 31.4542 54.398 31.3632 54.4595 31.2483C54.521 31.1334 54.5699 30.9969 54.6034 30.8466C54.6369 30.6963 54.6543 30.5352 54.6546 30.3724V30.3443C54.6546 30.3391 54.6536 30.334 54.6516 30.3292C54.6496 30.3244 54.6467 30.32 54.6431 30.3164C54.6394 30.3127 54.6351 30.3098 54.6303 30.3078C54.6255 30.3058 54.6204 30.3048 54.6152 30.3048Z" fill="black"/>
<path d="M45.9462 2.38475C44.5653 2.34847 43.601 2.94934 43.0533 4.18737C42.0802 5.39901 41.9977 6.66453 42.8056 7.98392C41.515 9.4369 40.7327 10.9987 41.0804 12.9844C41.7741 16.9459 42.3973 20.6847 43.7289 24.6231C43.9706 25.3389 44.2619 25.9359 44.603 26.4142C44.5473 27.2927 44.9338 27.8913 45.7625 28.2102L46.653 29.269C45.1459 29.3828 44.157 29.3267 43.4288 27.9875C42.3415 25.987 42.0414 23.8084 41.6314 21.6C41.2914 19.7705 40.8825 18.2224 40.4047 16.9558C40.1046 16.1559 39.3879 15.2043 38.5073 14.9305C37.1756 14.5149 36.0336 14.8107 35.0814 15.8178C35.0657 15.8346 35.0454 15.8462 35.0231 15.8513C35.0008 15.8564 34.9775 15.8547 34.9562 15.8464C34.9348 15.838 34.9165 15.8235 34.9034 15.8046C34.8904 15.7857 34.8832 15.7633 34.8829 15.7403C34.8633 12.8673 34.6796 10.085 36.7738 7.8124C36.8285 7.75193 37.0406 7.5804 37.4101 7.29784C37.7698 7.02186 37.9989 6.65793 38.0973 6.20604L38.7303 5.84815L39.2567 6.02297C39.3125 6.04167 39.365 6.03452 39.4142 6.00153C40.2128 5.45564 40.3834 4.99055 40.7278 3.95977C41.4871 1.68712 44.1094 0.153331 45.9462 2.38475Z" fill="#118F5E"/>
<path d="M59.6812 20.4984L59.5107 21.3988C59.1871 21.3988 59.0007 21.5231 58.9515 21.7716C58.5726 23.6748 57.9002 28.7676 55.6486 29.2459C55.5108 29.2756 55.0079 29.2959 54.1398 29.3069C51.6372 29.3377 49.1417 29.3251 46.6533 29.269L45.7628 28.2102C46.8862 28.5697 48.7476 28.3438 48.9854 26.9254C49.3232 24.9117 45.4922 24.4483 44.6034 26.4142C44.2622 25.9359 43.9709 25.3389 43.7293 24.6231C42.3976 20.6847 41.7744 16.9459 41.0807 12.9844C40.733 10.9987 41.5153 9.43691 42.8059 7.98393C43.4718 8.71619 44.3688 8.65682 44.8641 7.79921C45.4348 6.81407 45.4622 5.81353 44.9461 4.7976C44.5328 3.98287 43.8555 3.78331 43.0536 4.18738C43.6013 2.94935 44.5656 2.34848 45.9465 2.38476C46.128 2.57387 46.351 2.90097 46.6156 3.36606C48.3179 6.36273 52.3801 6.13513 54.0463 3.20608C55.8076 0.110458 58.981 1.12639 59.9092 4.12141C60.5554 6.19945 61.559 5.94052 63.0858 7.14941C65.8098 9.30332 65.8328 12.521 65.6671 15.8524C65.6639 15.9173 65.6398 15.9267 65.595 15.8805C64.5629 14.8195 63.3335 14.5199 61.9067 14.9817C60.3733 15.4764 59.7354 18.1399 59.3565 19.7941C59.2778 20.1355 59.3779 20.3549 59.6812 20.4984ZM56.7933 8.49354C57.1952 8.49354 57.5806 8.25532 57.8648 7.83128C58.1489 7.40724 58.3086 6.83212 58.3086 6.23244C58.3086 5.63275 58.1489 5.05763 57.8648 4.63359C57.5806 4.20955 57.1952 3.97133 56.7933 3.97133C56.3914 3.97133 56.0059 4.20955 55.7218 4.63359C55.4376 5.05763 55.2779 5.63275 55.2779 6.23244C55.2779 6.83212 55.4376 7.40724 55.7218 7.83128C56.0059 8.25532 56.3914 8.49354 56.7933 8.49354ZM58.1741 13.3225C57.7395 12.4418 56.6047 11.4242 55.7142 11.0383C52.3883 9.59578 49.0674 9.47869 45.7513 10.687C44.787 11.0383 42.4927 12.3247 42.4206 13.4363C42.4042 13.715 42.6862 14.0284 42.9421 13.9294C47.8685 12.0449 52.7092 12.0207 57.464 13.8569C57.7253 13.958 57.9429 13.9129 58.1167 13.7216C58.1651 13.6686 58.1964 13.6022 58.2066 13.531C58.2169 13.4598 58.2055 13.3871 58.1741 13.3225ZM56.8474 17.726C56.0914 15.6859 53.7462 14.5149 51.7257 14.2659C48.7558 13.8981 45.3905 14.5924 43.8752 17.378C43.6604 17.7755 43.7867 18.1053 44.2409 18.1729C44.2967 18.1806 44.3497 18.1724 44.4 18.1482C48.3534 16.256 52.3074 16.2675 56.2619 18.1828C56.3275 18.2147 56.3898 18.2087 56.4489 18.1647L56.7933 17.9074C56.8567 17.8601 56.8747 17.7997 56.8474 17.726ZM55.5616 20.3037C52.5917 17.5314 46.2614 17.7656 44.1032 21.5093C43.8818 21.8936 43.9178 22.2713 44.3885 22.3966C44.4388 22.4098 44.4875 22.4049 44.5345 22.3818C48.2025 20.6061 51.9072 20.5396 55.6486 22.1822C55.8437 22.2663 56.0159 22.4675 56.2898 22.362C57.1606 22.0256 55.9716 20.6864 55.5616 20.3037ZM55.9913 26.7429C55.9906 26.5291 55.9328 26.3177 55.8212 26.1206C55.7097 25.9234 55.5466 25.7446 55.3413 25.5941C55.1359 25.4437 54.8923 25.3246 54.6244 25.2438C54.3565 25.1629 54.0696 25.1218 53.7799 25.1228C53.1949 25.1249 52.6345 25.2984 52.2219 25.6051C51.8093 25.9118 51.5783 26.3266 51.5798 26.7584C51.5806 26.9721 51.6383 27.1836 51.7499 27.3807C51.8614 27.5778 52.0245 27.7567 52.2299 27.9071C52.4352 28.0576 52.6788 28.1766 52.9467 28.2575C53.2146 28.3383 53.5015 28.3794 53.7912 28.3784C54.3762 28.3764 54.9366 28.2029 55.3492 27.8962C55.7618 27.5894 55.9928 27.1746 55.9913 26.7429Z" fill="#2BB180"/>
<path d="M42.8052 7.98396C41.9972 6.66457 42.0798 5.39906 43.0528 4.18741C43.8548 3.78335 44.5321 3.98291 44.9453 4.79763C45.4614 5.81356 45.434 6.8141 44.8633 7.79925C44.3681 8.65685 43.471 8.71623 42.8052 7.98396Z" fill="black"/>
<path d="M55.2779 6.23266C55.2779 7.48144 55.9564 8.49377 56.7933 8.49377C57.6302 8.49377 58.3086 7.48144 58.3086 6.23266C58.3086 4.98389 57.6302 3.97156 56.7933 3.97156C55.9564 3.97156 55.2779 4.98389 55.2779 6.23266Z" fill="black"/>
<path d="M55.7137 11.0383C56.6042 11.4242 57.7391 12.4418 58.1737 13.3225C58.2051 13.3871 58.2164 13.4598 58.2062 13.531C58.196 13.6022 58.1646 13.6686 58.1163 13.7216C57.9424 13.9129 57.7249 13.958 57.4636 13.8569C52.7087 12.0207 47.8681 12.0449 42.9416 13.9294C42.6858 14.0284 42.4037 13.715 42.4201 13.4363C42.4923 12.3247 44.7866 11.0383 45.7509 10.687C49.0669 9.47869 52.3879 9.59579 55.7137 11.0383ZM55.7662 12.2076C52.6207 10.3819 48.0452 10.3803 44.8866 12.1598C44.8024 12.206 44.8079 12.2225 44.903 12.2093C45.1206 12.1785 45.3272 12.1389 45.5229 12.0905C48.8718 11.2676 52.4321 11.3748 55.7498 12.2489C55.7548 12.2494 55.7598 12.2483 55.764 12.2457C55.7683 12.2431 55.7716 12.2391 55.7735 12.2345C55.7753 12.2298 55.7756 12.2247 55.7743 12.2198C55.773 12.215 55.7701 12.2107 55.7662 12.2076Z" fill="black"/>
<path d="M55.7665 12.2077C55.7704 12.2108 55.7733 12.2151 55.7746 12.2199C55.7759 12.2248 55.7756 12.2299 55.7738 12.2346C55.7719 12.2392 55.7686 12.2432 55.7643 12.2458C55.7601 12.2483 55.7551 12.2495 55.7501 12.249C52.4324 11.3749 48.8721 11.2677 45.5232 12.0906C45.3275 12.139 45.1209 12.1786 44.9033 12.2094C44.8082 12.2226 44.8027 12.2061 44.8869 12.1599C48.0455 10.3804 52.621 10.382 55.7665 12.2077Z" fill="#118F5E"/>
<path d="M51.7254 14.2658C53.7458 14.5148 56.091 15.6858 56.847 17.7259C56.8743 17.7996 56.8563 17.86 56.7929 17.9073L56.4485 18.1646C56.3895 18.2086 56.3271 18.2146 56.2615 18.1827C52.307 16.2674 48.3531 16.2559 44.3996 18.1481C44.3493 18.1723 44.2963 18.1805 44.2406 18.1728C43.7863 18.1052 43.66 17.7754 43.8748 17.3779C45.3902 14.5923 48.7554 13.898 51.7254 14.2658ZM54.4969 16.3109C52.0944 14.7969 48.4651 14.5495 46.0412 16.362C45.9286 16.4466 45.9396 16.4686 46.074 16.428C48.552 15.6693 51.1448 15.5539 53.654 16.207C53.9033 16.2718 54.1728 16.3356 54.4625 16.3983C54.6407 16.4378 54.6522 16.4087 54.4969 16.3109Z" fill="black"/>
<path d="M54.4626 16.3983C54.1729 16.3356 53.9034 16.2718 53.6541 16.207C51.1449 15.5539 48.5521 15.6693 46.0741 16.4279C45.9397 16.4686 45.9287 16.4466 46.0413 16.362C48.4652 14.5495 52.0945 14.7969 54.497 16.3109C54.6523 16.4087 54.6408 16.4378 54.4626 16.3983Z" fill="#118F5E"/>
<path d="M40.8908 23.5031C37.7454 23.1667 35.4527 20.8083 35.0082 17.7027C35.0006 17.6478 35.0082 17.595 35.0312 17.5444C36.0021 15.3988 38.5293 14.8726 39.5116 17.4092C40.2693 19.3652 40.5366 21.3838 40.963 23.4223C40.975 23.4828 40.9509 23.5097 40.8908 23.5031Z" fill="#3EC3A4"/>
<path d="M59.5107 21.3988L59.6813 20.4983C60.0301 20.5159 60.2356 20.362 60.2979 20.0365C60.5849 18.5291 61.1753 15.793 62.958 15.7172C64.1305 15.666 65.085 16.5137 65.5622 17.5561C65.5852 17.6055 65.5923 17.6572 65.5836 17.7111C65.0604 20.998 62.894 23.0216 59.6764 23.5016C59.6669 23.5029 59.6572 23.5019 59.6481 23.4986C59.6391 23.4953 59.631 23.4899 59.6245 23.4827C59.6181 23.4756 59.6134 23.4669 59.611 23.4576C59.6086 23.4482 59.6086 23.4384 59.6108 23.429C59.7551 22.8749 60.1962 21.7088 59.5107 21.3988Z" fill="#3EC3A4"/>
<path d="M55.5618 20.3039C55.9718 20.6865 57.1607 22.0257 56.2899 22.3621C56.0161 22.4677 55.8439 22.2665 55.6487 22.1824C51.9074 20.5397 48.2027 20.6063 44.5346 22.3819C44.4876 22.405 44.4389 22.41 44.3887 22.3968C43.918 22.2714 43.8819 21.8938 44.1033 21.5095C46.2615 17.7657 52.5918 17.5315 55.5618 20.3039ZM54.3351 20.5414C51.8932 19.0967 48.6805 18.9581 46.2615 20.5529C46.1587 20.6211 46.1669 20.6409 46.2861 20.6123C49.0462 19.9625 51.5078 19.819 54.2711 20.6057C54.3247 20.6211 54.3515 20.609 54.3515 20.5694C54.3515 20.564 54.35 20.5585 54.3472 20.5536C54.3443 20.5487 54.3401 20.5445 54.3351 20.5414Z" fill="black"/>
<path d="M54.3349 20.5413C54.3399 20.5444 54.3441 20.5486 54.347 20.5535C54.3499 20.5584 54.3513 20.5639 54.3513 20.5693C54.3513 20.6089 54.3245 20.621 54.2709 20.6056C51.5076 19.8189 49.046 19.9624 46.2859 20.6122C46.1668 20.6408 46.1586 20.621 46.2613 20.5528C48.6803 18.958 51.893 19.0966 54.3349 20.5413Z" fill="#118F5E"/>
<path d="M45.7624 28.2104C44.9337 27.8916 44.5472 27.2929 44.6029 26.4144C45.4918 24.4485 49.3228 24.912 48.9849 26.9257C48.7471 28.344 46.8858 28.57 45.7624 28.2104ZM48.0403 26.7591C48.0403 26.592 47.9097 26.4318 47.6772 26.3136C47.4447 26.1955 47.1293 26.1291 46.8005 26.1291C46.4717 26.1291 46.1563 26.1955 45.9238 26.3136C45.6913 26.4318 45.5607 26.592 45.5607 26.7591C45.5607 26.9262 45.6913 27.0864 45.9238 27.2046C46.1563 27.3227 46.4717 27.3891 46.8005 27.3891C47.1293 27.3891 47.4447 27.3227 47.6772 27.2046C47.9097 27.0864 48.0403 26.9262 48.0403 26.7591Z" fill="black"/>
<path d="M55.9911 26.743C55.9926 27.1747 55.7616 27.5895 55.349 27.8963C54.9364 28.203 54.376 28.3765 53.791 28.3785C53.5013 28.3795 53.2144 28.3384 52.9465 28.2576C52.6786 28.1767 52.435 28.0577 52.2296 27.9072C52.0243 27.7568 51.8612 27.5779 51.7497 27.3808C51.6381 27.1837 51.5803 26.9722 51.5796 26.7585C51.5781 26.3267 51.8091 25.9119 52.2217 25.6052C52.6342 25.2985 53.1947 25.125 53.7797 25.1229C54.0693 25.1219 54.3563 25.163 54.6242 25.2439C54.8921 25.3248 55.1357 25.4438 55.341 25.5942C55.5464 25.7447 55.7095 25.9235 55.821 26.1207C55.9326 26.3178 55.9903 26.5292 55.9911 26.743ZM55.0252 26.7535C55.025 26.6705 54.9927 26.5885 54.9301 26.5119C54.8675 26.4354 54.7758 26.3659 54.6603 26.3075C54.5448 26.249 54.4076 26.2027 54.2568 26.1713C54.1059 26.1398 53.9442 26.1237 53.781 26.124C53.4513 26.1246 53.1352 26.1917 52.9023 26.3106C52.6694 26.4294 52.5387 26.5903 52.539 26.7579C52.5391 26.8408 52.5714 26.9229 52.634 26.9994C52.6966 27.0759 52.7883 27.1454 52.9038 27.2039C53.0194 27.2623 53.1565 27.3086 53.3074 27.3401C53.4582 27.3716 53.6199 27.3876 53.7832 27.3873C54.1128 27.3868 54.4289 27.3197 54.6618 27.2008C54.8948 27.0819 55.0254 26.921 55.0252 26.7535Z" fill="black"/>
<path d="M46.8004 27.389C47.4851 27.389 48.0402 27.107 48.0402 26.759C48.0402 26.4111 47.4851 26.129 46.8004 26.129C46.1156 26.129 45.5605 26.4111 45.5605 26.759C45.5605 27.107 46.1156 27.389 46.8004 27.389Z" fill="#544F57"/>
<path d="M53.7834 27.3872C54.4699 27.386 55.026 27.1022 55.0254 26.7534C55.0248 26.4045 54.4677 26.1227 53.7812 26.1239C53.0946 26.1251 52.5386 26.4089 52.5392 26.7578C52.5398 27.1066 53.0968 27.3884 53.7834 27.3872Z" fill="#544F57"/>
<path d="M43.6606 29.7738L44.62 30.2389C44.6615 30.2586 44.6768 30.2916 44.6659 30.3378C44.5926 30.6292 44.4352 30.8595 44.1936 31.0288C44.1477 31.0618 44.1006 31.0635 44.0525 31.0338C43.7557 30.854 43.6753 30.572 43.5507 30.3411C43.437 30.1311 43.4337 29.9524 43.5409 29.8051C43.5726 29.7611 43.6125 29.7507 43.6606 29.7738Z" fill="#F0F4F5"/>
<path d="M57.0066 29.6765C57.0131 29.6292 57.0317 29.5989 57.0623 29.5858C57.1093 29.5638 57.1334 29.5792 57.1345 29.6319C57.1432 30.185 56.9557 30.6528 56.572 31.0354C56.5239 31.0827 56.4725 31.0877 56.4178 31.0503C56.1565 30.8755 55.9892 30.6325 55.916 30.3213C55.9029 30.2652 55.9231 30.2284 55.9767 30.2108C56.3517 30.091 56.695 29.9129 57.0066 29.6765Z" fill="#F0F4F5"/>
<path d="M47.2154 30.2948C47.2206 30.2948 47.2257 30.2958 47.2305 30.2978C47.2353 30.2998 47.2396 30.3027 47.2433 30.3064C47.2469 30.3101 47.2498 30.3144 47.2518 30.3192C47.2538 30.324 47.2548 30.3292 47.2548 30.3344V30.3608C47.2582 30.694 47.1924 31.0143 47.0719 31.2512C46.9513 31.4881 46.7859 31.6223 46.6119 31.6241H46.5988C46.5126 31.625 46.427 31.5934 46.3467 31.5311C46.2664 31.4687 46.1932 31.3769 46.131 31.2608C46.0689 31.1447 46.0191 31.0067 45.9846 30.8545C45.95 30.7023 45.9314 30.539 45.9297 30.374V30.3476C45.9297 30.3371 45.9338 30.327 45.9412 30.3196C45.9486 30.3122 45.9586 30.308 45.969 30.308L47.2154 30.2948Z" fill="#F0F4F5"/>
<path d="M50.9577 30.295C51.3491 30.3038 51.7394 30.3071 52.1286 30.3049C52.1855 30.3038 52.2117 30.3318 52.2074 30.389C52.1789 30.8222 52.0275 31.2092 51.7531 31.5501C51.7222 31.588 51.6828 31.6181 51.6382 31.6379C51.5936 31.6577 51.5451 31.6667 51.4965 31.6641C51.4479 31.6616 51.4007 31.6475 51.3586 31.6231C51.3166 31.5987 51.2809 31.5646 51.2545 31.5237C51.0282 31.1729 50.8828 30.7843 50.8183 30.3577C50.8107 30.3027 50.8342 30.2719 50.8888 30.2653C50.9293 30.2609 50.9522 30.2708 50.9577 30.295Z" fill="#F0F4F5"/>
<path d="M49.6902 30.3032C49.6963 30.3032 49.7021 30.3057 49.7064 30.31C49.7107 30.3143 49.7131 30.3202 49.7131 30.3263V30.351C49.7138 30.6898 49.6463 31.0148 49.5254 31.2548C49.4046 31.4947 49.2403 31.63 49.0686 31.6309H49.0588C48.9736 31.6313 48.8893 31.5986 48.8105 31.5347C48.7316 31.4707 48.66 31.3768 48.5995 31.2582C48.539 31.1397 48.491 30.9988 48.458 30.8437C48.4251 30.6886 48.408 30.5223 48.4077 30.3543V30.3296C48.4077 30.3235 48.4101 30.3176 48.4144 30.3133C48.4187 30.309 48.4246 30.3065 48.4307 30.3065L49.6902 30.3032Z" fill="#F0F4F5"/>
<path d="M54.6152 30.3049C54.6204 30.3049 54.6255 30.306 54.6303 30.3079C54.635 30.3099 54.6394 30.3129 54.643 30.3165C54.6467 30.3202 54.6496 30.3246 54.6516 30.3294C54.6535 30.3342 54.6546 30.3393 54.6546 30.3445V30.3726C54.6542 30.5353 54.6368 30.6965 54.6034 30.8468C54.5699 30.9971 54.521 31.1336 54.4594 31.2485C54.3979 31.3633 54.325 31.4544 54.2447 31.5163C54.1645 31.5783 54.0787 31.6099 53.992 31.6095H53.9822C53.8075 31.6086 53.6403 31.4775 53.5173 31.245C53.3943 31.0124 53.3255 30.6975 53.3262 30.3693V30.3412C53.3262 30.3307 53.3303 30.3207 53.3377 30.3132C53.3451 30.3058 53.3551 30.3016 53.3655 30.3016L54.6152 30.3049Z" fill="#F0F4F5"/>
</g>
<defs>
<clipPath id="clip0_1515_9115">
<rect width="32.7994" height="32.9848" fill="white" transform="translate(33.8926)"/>
</clipPath>
</defs>
</svg>
