<?xml version="1.0" encoding="UTF-8"?>
<svg version="1.1" xmlns="http://www.w3.org/2000/svg" width="2000" height="2000">
<path d="M0 0 C660 0 1320 0 2000 0 C2000 660 2000 1320 2000 2000 C1340 2000 680 2000 0 2000 C0 1340 0 680 0 0 Z " fill="#F4F8FB" transform="translate(0,0)"/>
<path d="M0 0 C2.14550269 0.01611324 4.28912304 0.00001681 6.43457031 -0.01904297 C19.78636839 -0.04102821 32.56473437 1.96254013 45.14550781 6.57861328 C45.98017578 6.87904541 46.81484375 7.17947754 47.67480469 7.48901367 C83.80982845 20.86076133 111.25609562 47.22547725 127.41601562 82.09301758 C132.6854347 93.8305299 135.18135144 105.75545765 137.14550781 118.39111328 C137.33242188 119.51388672 137.51933594 120.63666016 137.71191406 121.79345703 C141.67842487 154.7047764 132.05125757 189.26108269 112.58300781 215.95361328 C108.33554252 221.31333223 103.83811465 226.41859656 99.14550781 231.39111328 C98.47261719 232.12845703 97.79972656 232.86580078 97.10644531 233.62548828 C74.0477925 257.97957103 39.02512855 271.90249431 5.7890625 272.81079102 C-18.89273039 272.96967734 -42.28080744 267.38996042 -63.85449219 255.39111328 C-65.23507813 254.63507813 -65.23507813 254.63507813 -66.64355469 253.86376953 C-99.02041686 235.31131359 -120.92230363 204.0369816 -130.60449219 168.39111328 C-136.55921448 142.14100613 -135.52321319 113.61947234 -125.85449219 88.39111328 C-125.58540039 87.68422363 -125.31630859 86.97733398 -125.0390625 86.24902344 C-118.19417343 68.71914651 -108.05971705 53.73703308 -94.85449219 40.39111328 C-94.14164063 39.61767578 -93.42878906 38.84423828 -92.69433594 38.04736328 C-78.71893539 23.20992869 -60.32764065 12.95914153 -41.16699219 6.45361328 C-40.37341309 6.18323242 -39.57983398 5.91285156 -38.76220703 5.63427734 C-25.99186152 1.56735399 -13.35106356 -0.11860854 0 0 Z " fill="#44515A" transform="translate(233.8544921875,863.60888671875)"/>
<path d="M0 0 C2.65907311 3.30692002 4.63337042 6.87066226 6.58984375 10.6171875 C6.930121 11.26164825 7.27039825 11.90610901 7.62098694 12.57009888 C8.35009161 13.95156797 9.0777031 15.33382597 9.80395508 16.71679688 C11.72530678 20.37493797 13.65794642 24.02710781 15.58984375 27.6796875 C15.97320892 28.40508728 16.3565741 29.13048706 16.7515564 29.87786865 C19.78556411 35.61229909 22.87489547 41.31468185 26 47 C30.87105198 55.8750855 35.63379184 64.80514635 40.375 73.75 C46.15763803 84.65934459 51.97146986 95.55062866 57.83374023 106.41748047 C63.94959482 117.75465528 70.02934714 129.11109791 76.10888672 140.46777344 C79.2379096 146.31257107 82.36910423 152.15620549 85.5 158 C92.39792151 170.87492104 92.39792151 170.87492104 95.83815002 177.30130005 C102.23415258 189.24906538 108.63661523 201.19327371 115.0625 213.125 C115.62606201 214.17179932 116.18962402 215.21859863 116.77026367 216.29711914 C119.50215214 221.3697349 122.23726975 226.44056769 124.9797821 231.50744629 C126.2955217 233.93885613 127.60973759 236.37108786 128.92379761 238.80340576 C129.85922657 240.5333296 130.79690385 242.26203707 131.73461914 243.99072266 C132.57367798 245.54412354 132.57367798 245.54412354 133.4296875 247.12890625 C133.92710449 248.04744385 134.42452148 248.96598145 134.93701172 249.91235352 C136 252 136 252 136 253 C113.56 253 91.12 253 68 253 C64.04 245.41 60.08 237.82 56 230 C52.93115297 224.62716713 52.93115297 224.62716713 49.8359375 219.26953125 C47.89729139 215.81709126 46.11797487 212.30338761 44.375 208.75 C39.18645754 198.18868327 33.51345984 187.88689793 27.91162109 177.54101562 C25.96759348 173.94479507 24.03871503 170.34057785 22.11328125 166.734375 C21.79255142 166.13371719 21.47182159 165.53305939 21.14137268 164.91419983 C20.82168015 164.31546555 20.50198761 163.71673126 20.17260742 163.09985352 C15.21092587 153.80759456 10.2328515 144.52548087 5.125 135.3125 C4.50866699 134.19875 4.50866699 134.19875 3.87988281 133.0625 C2.21287566 129.83637914 2.21287566 129.83637914 0 127 C-0.70793701 128.34070557 -0.70793701 128.34070557 -1.43017578 129.70849609 C-10.97561927 147.78155562 -20.57110578 165.82480345 -30.28027344 183.81054688 C-33.29980402 189.410653 -36.30704188 195.01733182 -39.3125 200.625 C-39.92222656 201.76195312 -40.53195312 202.89890625 -41.16015625 204.0703125 C-44.65455446 210.5941578 -48.1291355 217.12802966 -51.5859375 223.671875 C-52.36023508 225.13592351 -53.13456755 226.59995357 -53.90893555 228.06396484 C-55.39839415 230.8801092 -56.88358605 233.69844787 -58.36645508 236.51806641 C-59.0501366 237.81160609 -59.73396715 239.10506704 -60.41796875 240.3984375 C-61.01375732 241.52942871 -61.6095459 242.66041992 -62.22338867 243.82568359 C-62.80967041 244.87320801 -63.39595215 245.92073242 -64 247 C-64.53262451 248.10819092 -65.06524902 249.21638184 -65.61401367 250.3581543 C-68.23908959 253.26472818 -68.67907149 253.42868957 -72.36376953 253.80249023 C-74.16113036 253.85608587 -75.95966166 253.87675164 -77.7578125 253.87109375 C-78.72687531 253.8907872 -79.69593811 253.91048065 -80.69436646 253.93077087 C-83.79674766 253.98488959 -86.89718277 253.99534511 -90 254 C-92.0061949 254.01864704 -94.01238047 254.0383285 -96.01855469 254.05908203 C-101.97105672 254.10601571 -107.92244211 254.08826654 -113.875 254.0625 C-115.94270722 254.05746394 -118.01041566 254.05290484 -120.078125 254.04882812 C-125.0521145 254.03801455 -130.02604296 254.020872 -135 254 C-134.16379201 250.35048823 -132.78031266 247.38751839 -131.05078125 244.0546875 C-130.44943359 242.89453125 -129.84808594 241.734375 -129.22851562 240.5390625 C-128.7553894 239.63462402 -128.7553894 239.63462402 -128.27270508 238.71191406 C-127.32793214 236.90452235 -126.39099329 235.09324111 -125.45507812 233.28125 C-122.25131206 227.12512688 -118.92170291 221.10663103 -115.30249023 215.18603516 C-113.47278026 212.11514048 -111.92852984 208.97055957 -110.375 205.75 C-107.28431977 199.44970932 -104.00907656 193.27226353 -100.625 187.125 C-95.31301267 177.47030291 -90.14189414 167.74588018 -85 158 C-79.53444776 147.64496028 -74.03097059 137.31548984 -68.3996582 127.04931641 C-62.8188944 116.86818032 -57.35374563 106.62511556 -51.88047791 96.38595581 C-49.69324615 92.29454053 -47.50202226 88.20528544 -45.30859375 84.1171875 C-38.98075282 72.32156791 -32.67645776 60.51425568 -26.40631104 48.68789673 C-17.75634921 32.37431297 -8.9841713 16.13242576 0 0 Z " fill="#45515A" transform="translate(685,873)"/>
<path d="M0 0 C8.58 0 17.16 0 26 0 C27.09054687 2.495625 28.18109375 4.99125 29.3046875 7.5625 C37.26056415 25.74856952 45.27106634 43.90738812 53.4375 62 C58.54131134 73.30859002 63.62511351 84.62336831 68.6015625 95.98876953 C73.3402152 106.80193386 78.14037809 117.58767708 82.9375 128.375 C83.37733215 129.36413391 83.81716431 130.35326782 84.27032471 131.37237549 C86.41867965 136.2036275 88.56735626 141.03473633 90.71630859 145.86572266 C93.5623727 152.26398191 96.40635157 158.66316677 99.25 165.0625 C100.17706815 167.14844425 101.10415164 169.23438168 102.03125 171.3203125 C106.79296875 182.03417969 106.79296875 182.03417969 107.74324036 184.1723175 C108.39855862 185.64676567 109.05390367 187.12120194 109.70927429 188.59562683 C111.39510245 192.38842644 113.08047343 196.18142792 114.76489258 199.97485352 C117.96957387 207.19070017 121.17862558 214.40450797 124.40298462 221.61158752 C125.89134332 224.9389886 127.37734257 228.26744093 128.86315918 231.59597778 C129.57478583 233.18836471 130.28758009 234.7802304 131.00158691 236.37155151 C131.99227556 238.57973514 132.97897318 240.78966201 133.96484375 243 C134.25884567 243.65247208 134.5528476 244.30494415 134.85575867 244.97718811 C136.19992881 248.00091102 137.19268469 250.77073875 138 254 C131.07 254 124.14 254 117 254 C111.46385549 242.27250239 106.19365782 230.44505843 101 218.5625 C100.22412183 216.79094401 99.44808078 215.01945935 98.671875 213.24804688 C97.16309397 209.80453562 95.65696115 206.35988302 94.15234375 202.91455078 C92.73820639 199.67908167 91.31345062 196.44863883 89.87890625 193.22216797 C89.38608154 192.10937721 89.38608154 192.10937721 88.88330078 190.97410583 C88.26878412 189.58740831 87.65142835 188.20196423 87.03076172 186.81800842 C85 182.22445063 85 182.22445063 85 180 C37.15 180 -10.7 180 -60 180 C-60.33 181.65 -60.66 183.3 -61 185 C-61.48035714 186.28794891 -62.00591879 187.55995498 -62.57543945 188.81103516 C-62.89740295 189.52523621 -63.21936646 190.23943726 -63.55108643 190.97528076 C-63.90161072 191.73882874 -64.25213501 192.50237671 -64.61328125 193.2890625 C-65.16239166 194.50206024 -65.16239166 194.50206024 -65.72259521 195.73956299 C-66.91454672 198.37019575 -68.11353825 200.99755595 -69.3125 203.625 C-70.54359618 206.33780497 -71.77289448 209.05142023 -73.00218201 211.76504517 C-73.82395644 213.57862124 -74.64635488 215.3919147 -75.46937561 217.20492554 C-79.55063908 226.1980121 -83.55971015 235.22216821 -87.55786133 244.25244141 C-88.00411865 245.25968262 -88.45037598 246.26692383 -88.91015625 247.3046875 C-89.29308838 248.17077637 -89.67602051 249.03686523 -90.07055664 249.92919922 C-90.68544461 251.29917026 -91.32844839 252.65689677 -92 254 C-98.6 254 -105.2 254 -112 254 C-108.62497336 243.87492009 -108.62497336 243.87492009 -107.02978516 240.30761719 C-106.67109344 239.49992889 -106.31240173 238.6922406 -105.94284058 237.8600769 C-105.56209381 237.01422028 -105.18134705 236.16836365 -104.7890625 235.296875 C-104.38438751 234.38890167 -103.97971252 233.48092834 -103.56277466 232.54544067 C-102.25413353 229.61184439 -100.9395971 226.68093146 -99.625 223.75 C-98.71739132 221.71778129 -97.8101673 219.68539075 -96.90332031 217.65283203 C-92.97263632 208.84836368 -89.02571095 200.05120237 -85.0703125 191.2578125 C-83.96353298 188.79687891 -82.85676639 186.3359395 -81.75 183.875 C-81.23308594 182.72660645 -80.71617188 181.57821289 -80.18359375 180.39501953 C-76.90036518 173.0777716 -73.74092672 165.71806141 -70.6640625 158.31201172 C-68.54344981 153.22725873 -66.28028886 148.22800932 -63.91992188 143.24902344 C-56.59307739 127.72618551 -49.79547379 111.94596131 -43.08251953 96.14990234 C-40.46186464 90.00875073 -37.67092546 83.97195374 -34.8125 77.9375 C-32.59045862 73.17598276 -30.55303364 68.33615908 -28.5 63.5 C-26.01090772 57.6384053 -23.48688224 51.81401737 -20.75 46.0625 C-16.46092533 37.02012139 -12.55807883 27.80610298 -8.61816406 18.60766602 C-8.34423325 17.97050659 -8.07030243 17.33334717 -7.78807068 16.67687988 C-7.03570268 14.92671818 -6.28595145 13.17543222 -5.53637695 11.42407227 C-3.80404075 7.56327214 -1.89244637 3.78489274 0 0 Z " fill="#46525B" transform="translate(1329,873)"/>
<path d="M0 0 C19.8 0 39.6 0 60 0 C60.02737964 19.20834154 60.05103967 38.41664875 60.0625 57.625 C60.06315145 58.68582637 60.06315145 58.68582637 60.06381607 59.76808357 C60.09056343 104.52347707 59.82111174 149.24941026 59 194 C87.71 194 116.42 194 146 194 C144.68113594 197.95659217 143.69282225 200.84983551 141.7421875 204.34375 C141.28884033 205.16399658 140.83549316 205.98424316 140.3684082 206.8293457 C139.8755835 207.71066162 139.38275879 208.59197754 138.875 209.5 C135.09528787 216.33499424 131.35054612 223.18593987 127.68359375 230.08203125 C127.32054138 230.76478119 126.95748901 231.44753113 126.58343506 232.15097046 C125.13044947 234.88553833 123.67877273 237.62079144 122.22967529 240.35742188 C121.21315836 242.2768137 120.19458098 244.19510043 119.17578125 246.11328125 C118.58708252 247.22485596 117.99838379 248.33643066 117.3918457 249.48168945 C116 252 116 252 115 253 C77.05 253 39.1 253 0 253 C0 169.51 0 86.02 0 0 Z " fill="#44515A" transform="translate(403,873)"/>
<path d="M0 0 C7.26 0 14.52 0 22 0 C27.55757872 10.88280669 32.69131827 21.85940206 37.55181885 33.0687561 C39.51655006 37.59918954 41.49572512 42.12331787 43.47265625 46.6484375 C44.05953217 47.99331993 44.05953217 47.99331993 44.65826416 49.3653717 C47.9348829 56.86860078 51.26424551 64.34658416 54.625 71.8125 C59.44664487 82.52853892 64.23269034 93.25970178 69 104 C73.87803306 114.98719219 78.76764629 125.96896574 83.6875 136.9375 C84.46903442 138.68039307 84.46903442 138.68039307 85.26635742 140.45849609 C87.69047364 145.86176028 90.11796164 151.26347845 92.55213928 156.66221619 C93.97376308 159.81580144 95.39367674 162.97015385 96.8125 166.125 C97.08695953 166.73522003 97.36141907 167.34544006 97.64419556 167.97415161 C101.31976773 176.15502557 104.88459171 184.37166999 108.32104492 192.65551758 C110.82039186 198.6543511 113.54175045 204.52646991 116.32421875 210.3984375 C119.02591178 216.20487335 121.51698338 222.09715098 124 228 C124.235979 227.4423999 124.47195801 226.8847998 124.71508789 226.31030273 C128.74783466 216.79763257 132.79604375 207.30914544 137.21777344 197.9699707 C141.41012535 189.06762075 145.29707808 180.02693267 149.2421875 171.01318359 C151.23043342 166.47190102 153.22456237 161.9332071 155.21875 157.39453125 C162.15728633 141.60136008 169.08948465 125.80545382 176 110 C181.22143239 98.05910539 186.450556 86.12160037 191.6875 74.1875 C192.05957581 73.33944794 192.43165161 72.49139587 192.81500244 71.61764526 C197.27050319 61.4644087 201.7405164 51.31773893 206.23046875 41.1796875 C206.66229965 40.20423477 207.09413055 39.22878204 207.53904724 38.22377014 C209.6261234 33.5096979 211.71505454 28.7964646 213.80737305 24.0847168 C214.56696101 22.3703094 215.3264857 20.65587397 216.0859375 18.94140625 C216.42372726 18.18266205 216.76151703 17.42391785 217.10954285 16.6421814 C219.54517228 11.13682653 221.76010511 5.59973724 224 0 C231.26 0 238.52 0 246 0 C247.57440406 21.00322018 248.34089994 42.0110408 248.9375 63.0625 C249.10146631 68.8450928 249.26608526 74.6276648 249.43359375 80.41015625 C249.45517548 81.15519661 249.4767572 81.90023697 249.49899292 82.66785431 C250.02236015 100.60363975 250.70990641 118.53277692 251.40211487 136.46269989 C252.40267817 162.39850154 253.34102156 188.33460132 254.12240601 214.27801514 C254.18686377 216.41639327 254.25184407 218.55475506 254.31689453 220.69311523 C254.43624427 224.62737371 254.55253573 228.56171827 254.66796875 232.49609375 C254.7021843 233.6391246 254.73639984 234.78215546 254.77165222 235.95982361 C254.8021315 237.02552078 254.83261078 238.09121796 254.86401367 239.18920898 C254.89049484 240.10041 254.91697601 241.01161102 254.94425964 241.95042419 C255.01766249 245.96632166 255 249.98343176 255 254 C248.73 254 242.46 254 236 254 C234.88397114 240.5027754 234.50118585 226.99405411 234.06640625 213.4609375 C233.98029922 210.8438529 233.89391355 208.22677746 233.80726624 205.60971069 C233.62662078 200.14752454 233.44751301 194.68529005 233.26934814 189.22302246 C232.88581408 177.4745023 232.48923798 165.72641943 232.09336472 153.97830963 C231.92186729 148.88860635 231.75067651 143.79889276 231.57949257 138.70917892 C231.49409151 136.17042282 231.40865133 133.63166804 231.32317162 131.09291458 C231.10621051 124.64806844 230.88984266 118.20320324 230.67456055 111.75830078 C230.4595684 105.32299888 230.24312715 98.88774712 230.02572823 92.45252609 C229.94509474 90.05840135 229.86495844 87.66425979 229.78538322 85.27009964 C229.30544666 70.84007077 228.73142738 56.4195684 228 42 C227.73136265 42.59697473 227.4627253 43.19394945 227.18594742 43.80901432 C226.83263226 44.59416133 226.47931709 45.37930834 226.11529541 46.18824768 C225.76544712 46.96569116 225.41559883 47.74313463 225.05514908 48.544137 C224.27605029 50.27544893 223.49691816 52.00674585 222.71777344 53.73803711 C220.7747548 58.05554119 218.83202646 62.37317472 216.890625 66.69140625 C216.19794738 68.23178465 215.50523851 69.77214899 214.8125 71.3125 C214.44979004 72.11913086 214.08708008 72.92576172 213.71337891 73.75683594 C211.44288247 78.80302143 209.16534053 83.84596341 206.8828125 88.88671875 C199.1148238 106.0459636 191.42694564 123.23948268 183.7890625 140.45703125 C183.47886673 141.15599518 183.16867096 141.85495911 182.84907532 142.57510376 C181.22668797 146.23148778 179.60701936 149.8890434 177.99121094 153.54833984 C174.63947227 161.12902216 171.24253118 168.6808847 167.71716309 176.18263245 C163.67914051 184.78857271 159.78737207 193.46143481 155.875 202.125 C155.03933229 203.97380717 154.20363865 205.82260261 153.36791992 207.67138672 C146.54679745 222.76669283 139.76028204 237.87735831 133 253 C126.4 253 119.8 253 113 253 C103.256512 231.32607323 93.59630131 209.61552977 83.95201111 187.89730835 C80.90263346 181.03075999 77.8504913 174.16544559 74.796875 167.30078125 C66.95670012 149.67412526 59.12416414 132.04436414 51.34790039 114.3894043 C47.86882465 106.49068047 44.38015525 98.59639303 40.87109375 90.7109375 C40.52130463 89.92479568 40.1715155 89.13865387 39.81112671 88.32868958 C38.14353627 84.58163396 36.47465324 80.83516166 34.80371094 77.08959961 C29.45794186 65.09355743 24.22250132 53.05014716 19 41 C18.5592594 52.4998775 18.1223974 63.99990013 17.6875 75.5 C17.65414173 76.38133102 17.62078346 77.26266205 17.58641434 78.17070007 C16.75184772 100.23225988 15.94354103 122.29443769 15.203125 144.359375 C15.17106586 145.31456528 15.13900673 146.26975555 15.1059761 147.25389099 C14.91408806 152.97663641 14.72292974 158.6994061 14.5318985 164.42218018 C13.54592361 193.95823627 12.50048262 223.4846242 11 253 C4.73 253 -1.54 253 -8 253 C-8.17664822 236.21841872 -7.56315852 219.49608325 -6.88937378 202.73272705 C-6.53420186 193.88607993 -6.19594022 185.03877804 -5.859375 176.19140625 C-5.82394026 175.26161705 -5.78850552 174.33182785 -5.75199699 173.37386322 C-4.87539761 150.29427613 -4.15176692 127.21008595 -3.4375 104.125 C-3.37466775 102.09751341 -3.31182192 100.07002725 -3.2489624 98.0425415 C-3.2180356 97.04489399 -3.1871088 96.04724648 -3.15524483 95.01936722 C-3.03219863 91.05060944 -2.90912606 87.08185248 -2.78596878 83.11309814 C-2.7257655 81.17285282 -2.66560233 79.23260624 -2.60548019 77.2923584 C-2.04482089 59.21442904 -1.44340436 41.13810711 -0.8125 23.0625 C-0.76970917 21.83638 -0.72691833 20.61026001 -0.68283081 19.34698486 C-0.45728971 12.89791384 -0.22906836 6.44894813 0 0 Z " fill="#46525B" transform="translate(918,873)"/>
<path d="M0 0 C11.71150787 9.49910864 20.86612636 21.11913249 25.4375 35.6875 C25.73398437 36.57308594 26.03046875 37.45867188 26.3359375 38.37109375 C31.62916211 56.26607786 28.62893012 76.18684264 20.4375 92.6875 C10.75782634 110.361547 -4.08036771 122.18045474 -23.078125 128.6796875 C-43.2577314 134.5163898 -62.85474941 132.46790646 -81.37109375 122.609375 C-86.17151603 119.71854543 -90.40080827 116.42851531 -94.5625 112.6875 C-95.17351562 112.16929688 -95.78453125 111.65109375 -96.4140625 111.1171875 C-105.87083508 102.52404712 -111.61234293 90.61729164 -115.5625 78.6875 C-115.90490723 77.76372559 -116.24731445 76.83995117 -116.60009766 75.88818359 C-121.42302007 59.84847968 -118.19890645 40.15184127 -110.953125 25.4140625 C-100.07108084 5.59676191 -84.18636204 -6.64758696 -62.9375 -13.40234375 C-41.10271311 -19.29066012 -17.85148591 -13.41142297 0 0 Z " fill="#F3F7FB" transform="translate(280.5625,941.3125)"/>
<path d="M0 0 C131.96292892 0 131.96292892 0 156.453125 24.39453125 C157.29359375 25.25433594 158.1340625 26.11414063 159 27 C159.59296875 27.56074219 160.1859375 28.12148438 160.796875 28.69921875 C168.46183427 36.54962058 173.75116579 49.41526153 176 60 C176.20238281 60.91007813 176.40476562 61.82015625 176.61328125 62.7578125 C181.1530675 86.90824004 178.15986242 113.85622367 165.18359375 134.953125 C152.73882302 152.9540459 134.141318 162.03940163 113.125 166.125 C112.30386719 166.29386719 111.48273438 166.46273438 110.63671875 166.63671875 C98.77911634 168.98604091 86.99739732 169.13925518 74.95703125 169.09765625 C73.51867715 169.09618216 72.08032252 169.09516433 70.64196777 169.09460449 C65.36547022 169.0894057 60.08898423 169.07544463 54.8125 169.0625 C42.994375 169.041875 31.17625 169.02125 19 169 C19 197.05 19 225.1 19 254 C12.73 254 6.46 254 0 254 C0 170.18 0 86.36 0 0 Z M19 18 C19 61.89 19 105.78 19 151 C37.4696875 151.12375 37.4696875 151.12375 56.3125 151.25 C62.082948 151.30462402 62.082948 151.30462402 67.9699707 151.36035156 C71.50495969 151.37375253 71.50495969 151.37375253 75.03996277 151.3817749 C76.58000859 151.3878035 78.12003907 151.40162538 79.65995789 151.42230225 C100.3666482 151.68573906 122.42371792 148.19963202 139 135 C139.57234375 134.59007812 140.1446875 134.18015625 140.734375 133.7578125 C145.32731773 130.32494293 148.11946486 125.8579836 151 121 C151.45632813 120.236875 151.91265625 119.47375 152.3828125 118.6875 C161.10614334 102.80790374 161.65038109 81.03946508 157.375 63.6875 C152.40172875 48.29981753 144.24613248 36.14362252 130 28 C126.07188055 26.11306304 122.08660889 24.50881609 118 23 C117.23945312 22.70222656 116.47890625 22.40445313 115.6953125 22.09765625 C103.4874565 17.60355541 90.69895657 17.72036921 77.88671875 17.8046875 C76.37097318 17.80763692 74.85522556 17.8096718 73.33947754 17.81079102 C67.78878681 17.82117427 62.23814 17.84909617 56.6875 17.875 C44.250625 17.91625 31.81375 17.9575 19 18 Z " fill="#47535C" transform="translate(1513,870)"/>
<path d="M0 0 C1.12196777 0.00418945 2.24393555 0.00837891 3.39990234 0.01269531 C19.91677802 0.23183241 35.74667794 2.90987434 51.625 7.3125 C52.511875 7.52390625 53.39875 7.7353125 54.3125 7.953125 C60.89259243 9.55702253 67.1723456 11.92462463 73.5 14.3125 C74.41676514 14.65700195 75.33353027 15.00150391 76.27807617 15.35644531 C80.63911157 17.03163541 84.72047862 18.69859448 88.625 21.3125 C87.83994099 23.43994999 87.0467394 25.56439674 86.25 27.6875 C85.80914063 28.87085938 85.36828125 30.05421875 84.9140625 31.2734375 C83.625 34.3125 83.625 34.3125 81.625 36.3125 C81.09471191 36.07128418 80.56442383 35.83006836 80.01806641 35.58154297 C64.88306148 28.79933215 49.8543999 24.58990949 33.625 21.3125 C32.76712891 21.1254248 31.90925781 20.93834961 31.02539062 20.74560547 C6.74270763 15.54559041 -18.8850189 16.01847755 -40.375 29.3125 C-47.58576964 34.49156901 -53.69925899 42.80736648 -55.9375 51.49609375 C-57.78356443 63.38013353 -57.03536848 76.03017887 -50.375 86.3125 C-35.05552224 106.22386257 -4.2444345 112.67090063 18.43499756 120.4708252 C56.59539626 133.6025622 56.59539626 133.6025622 72.625 145.3125 C73.5428125 145.97507812 74.460625 146.63765625 75.40625 147.3203125 C87.16548174 156.33356979 95.49183708 167.8209449 98.23046875 182.57421875 C100.39787946 203.11097169 98.01374625 222.24467297 84.9375 239.0625 C71.00024664 253.84110986 50.44480297 261.74506076 30.35400391 262.42285156 C26.46482802 262.48351551 22.57703612 262.50726703 18.6875 262.5 C17.64663742 262.49809662 17.64663742 262.49809662 16.58474731 262.49615479 C-23.49673913 262.35624624 -58.57400344 248.97999714 -89.375 223.3125 C-86.735 218.6925 -84.095 214.0725 -81.375 209.3125 C-77.27051677 210.33862081 -76.04090434 211.2007342 -72.9375 213.875 C-57.43533091 226.58541683 -38.40808474 235.82238866 -18.9375 240.5 C-18.29449951 240.6549292 -17.65149902 240.8098584 -16.98901367 240.96948242 C8.5488004 246.73912508 38.04622702 248.39452423 61.36328125 234.83984375 C69.92050404 229.06113199 75.82237386 220.9684917 78.19140625 210.80078125 C78.79722742 205.92692264 78.94509675 201.09585075 79 196.1875 C79.01409912 195.25703857 79.02819824 194.32657715 79.04272461 193.36791992 C78.96020066 181.5983329 74.84576976 172.67821974 66.61328125 164.25390625 C52.26603691 151.80961229 33.24798253 145.48761571 15.625 139.3125 C14.64950195 138.96977051 13.67400391 138.62704102 12.66894531 138.27392578 C7.87955377 136.5957911 3.08516927 134.93226915 -1.7109375 133.2734375 C-3.5989661 132.6198141 -5.48698695 131.96616831 -7.375 131.3125 C-8.31118164 130.98926758 -9.24736328 130.66603516 -10.21191406 130.33300781 C-60.59535419 112.84238352 -60.59535419 112.84238352 -71.1875 91 C-71.95256042 89.11836491 -72.68252865 87.22204222 -73.375 85.3125 C-73.6946875 84.4565625 -74.014375 83.600625 -74.34375 82.71875 C-79.41648675 66.37326492 -77.61862335 48.25418738 -69.765625 33.234375 C-63.60528276 22.89178206 -55.71927275 16.27800243 -45.375 10.3125 C-44.70726562 9.92191406 -44.03953125 9.53132812 -43.3515625 9.12890625 C-30.1397877 1.96556 -14.81367184 -0.07702475 0 0 Z " fill="#47535C" transform="translate(1810.375,867.6875)"/>
<path d="M0 0 C0.66 0 1.32 0 2 0 C2.41173462 1.06468506 2.41173462 1.06468506 2.83178711 2.15087891 C10.54182866 21.98569684 18.98045661 41.42675723 27.75309753 60.81211853 C31.49729593 69.08756482 35.19050426 77.38533618 38.875 85.6875 C39.51790285 87.13533564 40.1608065 88.58317093 40.80371094 90.03100586 C42.49335378 93.83710236 44.18162159 97.64380738 45.86950684 101.45068359 C47.09520922 104.21470137 48.3215248 106.97844669 49.54785156 109.7421875 C51.76650527 114.74306294 53.98289071 119.74493874 56.19781494 124.74746704 C57.06321083 126.70133098 57.92921453 128.65492582 58.7958374 130.60824585 C60.00107572 133.32529161 61.20396734 136.0433641 62.40625 138.76171875 C62.77102448 139.582771 63.13579895 140.40382324 63.5116272 141.24975586 C66 146.88581717 66 146.88581717 66 148 C23.43 148 -19.14 148 -63 148 C-61.10854664 142.32563992 -59.34729107 137.27344264 -56.8828125 131.921875 C-56.5897522 131.28165909 -56.29669189 130.64144318 -55.99475098 129.98182678 C-55.36790271 128.6136463 -54.73901224 127.24639986 -54.10821533 125.8800354 C-52.75388119 122.94600909 -51.41006519 120.00720231 -50.06552124 117.06867981 C-49.37480273 115.55932402 -48.68357775 114.0501999 -47.99185181 112.54130554 C-44.83281259 105.64803283 -41.72069253 98.73447832 -38.625 91.8125 C-38.11122803 90.66378418 -37.59745605 89.51506836 -37.06811523 88.33154297 C-36.26097405 86.52650636 -35.45383808 84.72146739 -34.64707947 82.91625977 C-32.70701272 78.57638816 -30.76068063 74.23936036 -28.81182861 69.90342712 C-27.3060364 66.55259445 -25.80206808 63.20094459 -24.29827881 59.84921265 C-23.57445252 58.23692032 -22.84991873 56.62494539 -22.12457275 55.01333618 C-11.79800036 32.22049754 -11.79800036 32.22049754 -3 8.8125 C-2.70222656 7.94431641 -2.40445312 7.07613281 -2.09765625 6.18164062 C-1.39252416 4.12310983 -0.69526168 2.06188542 0 0 Z " fill="#F3F7FA" transform="translate(1340,888)"/>
<path d="M0 0 C1.07349791 4.29399165 0.79682816 5.19495213 -1 9 C-1.99 9 -2.98 9 -4 9 C-2.68 6.03 -1.36 3.06 0 0 Z " fill="#566067" transform="translate(1294,952)"/>
<path d="M0 0 C1.05609899 3.16829698 1.13055309 3.98519175 0 7 C-1.5625 8.75 -1.5625 8.75 -3 10 C-3.33 9.34 -3.66 8.68 -4 8 C-3.22265625 6.0546875 -3.22265625 6.0546875 -2.0625 3.875 C-1.49208984 2.78832031 -1.49208984 2.78832031 -0.91015625 1.6796875 C-0.60980469 1.12539063 -0.30945313 0.57109375 0 0 Z " fill="#565F67" transform="translate(668,904)"/>
<path d="M0 0 C1.231394 2.46278801 1.07159196 4.2795055 1 7 C-0.65 7.33 -2.3 7.66 -4 8 C-2.87548273 5.0280615 -1.77706209 2.66559313 0 0 Z " fill="#E8EEF2" transform="translate(653,1059)"/>
</svg>
