<svg width="22" height="28" viewBox="0 0 22 28" fill="none" xmlns="http://www.w3.org/2000/svg">
<path d="M11 0C5.20138 0 0.5 4.70138 0.5 10.5C0.5 12.7833 1.24856 14.8785 2.49281 16.5944C2.51513 16.6355 2.51863 16.6814 2.544 16.7208L9.544 27.2208C9.86863 27.7078 10.4155 28 11 28C11.5845 28 12.1314 27.7078 12.456 27.2208L19.456 16.7208C19.4818 16.6814 19.4849 16.6355 19.5072 16.5944C20.7514 14.8785 21.5 12.7833 21.5 10.5C21.5 4.70138 16.7986 0 11 0ZM11 14C9.06713 14 7.5 12.4329 7.5 10.5C7.5 8.56713 9.06713 7 11 7C12.9329 7 14.5 8.56713 14.5 10.5C14.5 12.4329 12.9329 14 11 14Z" fill="#212121"/>
</svg>
