<svg width="30" height="30" viewBox="0 0 30 30" fill="none" xmlns="http://www.w3.org/2000/svg">
<path d="M27.8576 6.90369V29.9999H2.80029V0H20.9539L24.1694 3.21557L27.8576 6.90369Z" fill="#B12A27"/>
<path d="M14.16 2.00928H2.14258V7.38631H14.16V2.00928Z" fill="#F2F2F2"/>
<path d="M6.45299 3.77232C6.39996 3.64424 6.3293 3.52939 6.23215 3.43225C6.135 3.3351 6.0157 3.25559 5.87877 3.20256C5.73744 3.14514 5.57842 3.11865 5.40176 3.11865H4.08105V6.52852H4.74803V5.24314H5.40176C5.57842 5.24314 5.73744 5.21666 5.87877 5.15924C6.0157 5.10621 6.13494 5.02676 6.23215 4.92955C6.32936 4.8324 6.40002 4.72195 6.45299 4.58947C6.50156 4.46139 6.52811 4.32445 6.52811 4.18312C6.52805 4.03734 6.50156 3.90041 6.45299 3.77232ZM5.73299 4.51875C5.64463 4.60266 5.521 4.64684 5.37082 4.64684H4.74803V3.71045H5.37082C5.521 3.71045 5.64469 3.75463 5.73299 3.84293C5.81689 3.92684 5.86107 4.04168 5.86107 4.18301C5.86113 4.32 5.81695 4.43484 5.73299 4.51875Z" fill="#B12A27"/>
<path d="M9.64193 4.4393C9.63754 4.32006 9.63309 4.21406 9.61984 4.11686C9.6066 4.01965 9.58451 3.93135 9.55357 3.84744C9.52264 3.76793 9.48291 3.68842 9.42988 3.61775C9.31064 3.44549 9.16486 3.3174 9.00145 3.23789C8.83357 3.15838 8.63482 3.11865 8.40074 3.11865H7.17285V6.52852H8.40074C8.63482 6.52852 8.83357 6.48879 9.00145 6.40928C9.16486 6.32977 9.31064 6.20168 9.42988 6.02941C9.48291 5.95875 9.52264 5.87924 9.55357 5.79973C9.58451 5.71582 9.6066 5.62746 9.61984 5.53031C9.63309 5.43316 9.63748 5.32711 9.64193 5.20787C9.64633 5.09303 9.64633 4.96494 9.64633 4.82361C9.64633 4.68229 9.64633 4.55414 9.64193 4.4393ZM8.97496 5.16814C8.97496 5.26975 8.96611 5.34926 8.95727 5.41992C8.94842 5.48619 8.93518 5.54801 8.91754 5.59219C8.8999 5.64076 8.87336 5.68494 8.84248 5.72467C8.73203 5.866 8.56422 5.93227 8.34338 5.93227H7.83543V3.71051H8.34338C8.56422 3.71051 8.73209 3.78117 8.84248 3.9225C8.87342 3.96223 8.8999 4.00201 8.91754 4.05059C8.93518 4.09916 8.94848 4.15658 8.95727 4.22725C8.96611 4.29352 8.97496 4.37742 8.97496 4.47457C8.97936 4.57178 8.97936 4.69102 8.97936 4.8235C8.97941 4.95609 8.97941 5.07094 8.97496 5.16814Z" fill="#B12A27"/>
<path d="M12.4909 3.71051V3.11865H10.2427V6.52852H10.9096V5.14605H12.2568V4.54975H10.9096V3.71051H12.4909Z" fill="#B12A27"/>
<path d="M6.45299 3.77232C6.39996 3.64424 6.3293 3.52939 6.23215 3.43225C6.135 3.3351 6.0157 3.25559 5.87877 3.20256C5.73744 3.14514 5.57842 3.11865 5.40176 3.11865H4.08105V6.52852H4.74803V5.24314H5.40176C5.57842 5.24314 5.73744 5.21666 5.87877 5.15924C6.0157 5.10621 6.13494 5.02676 6.23215 4.92955C6.32936 4.8324 6.40002 4.72195 6.45299 4.58947C6.50156 4.46139 6.52811 4.32445 6.52811 4.18312C6.52805 4.03734 6.50156 3.90041 6.45299 3.77232ZM5.73299 4.51875C5.64463 4.60266 5.521 4.64684 5.37082 4.64684H4.74803V3.71045H5.37082C5.521 3.71045 5.64469 3.75463 5.73299 3.84293C5.81689 3.92684 5.86107 4.04168 5.86107 4.18301C5.86113 4.32 5.81695 4.43484 5.73299 4.51875Z" fill="#B12A27"/>
<path opacity="0.08" d="M27.8576 6.90395V30.0001H2.80029V24.585L14.514 12.8713L15.2075 12.1778L15.5917 11.7935L16.2322 11.153L16.9919 10.3933L24.1694 3.21582L27.8576 6.90395Z" fill="#040000"/>
<path d="M27.8576 6.90445H20.9531V0L27.8576 6.90445Z" fill="#771B1B"/>
<path d="M24.2798 21.718C24.134 21.4618 23.9352 21.2189 23.6879 20.9981C23.4848 20.8126 23.2462 20.6403 22.9767 20.4813C21.8902 19.8408 20.3398 19.5316 18.2329 19.5316H18.0209C17.9061 19.4256 17.7869 19.3196 17.6632 19.2092C16.8637 18.4893 16.2277 17.7074 15.733 16.8373C16.7047 14.6951 17.1685 12.787 17.111 11.1615C17.1022 10.8877 17.0625 10.6315 16.9918 10.3929C16.8858 10.0087 16.7091 9.66855 16.4618 9.39029C16.4574 9.3859 16.4574 9.3859 16.4529 9.38144C16.0598 8.93977 15.5121 8.68799 14.9556 8.68799C14.3946 8.68799 13.8778 8.93092 13.5024 9.37705C13.1314 9.81873 12.9326 10.4239 12.9238 11.135C12.9105 12.2215 12.9988 13.2507 13.1844 14.2003C13.202 14.2754 13.2153 14.3505 13.233 14.4255C13.4185 15.2869 13.6923 16.104 14.0456 16.8637C13.6305 17.7073 13.2109 18.4361 12.9193 18.9308C12.6985 19.3063 12.4555 19.6994 12.2038 20.0925C11.0686 20.2957 10.1057 20.543 9.26651 20.8522C8.13137 21.263 7.22147 21.793 6.56774 22.4246C6.1437 22.831 5.85659 23.2639 5.71526 23.7144C5.56508 24.1782 5.57393 24.642 5.74174 25.0571C5.89631 25.4414 6.17457 25.7638 6.54565 25.9847C6.63401 26.0377 6.72676 26.0818 6.82391 26.1216C7.10663 26.2365 7.41577 26.2983 7.73821 26.2983C8.48469 26.2983 9.25321 25.9758 9.90248 25.3972C11.1127 24.3151 12.3627 22.5748 13.1004 21.475C13.7055 21.3822 14.3636 21.3027 15.1057 21.2232C15.9802 21.1348 16.7532 21.0819 17.4555 21.0553C17.672 21.2497 17.8796 21.4352 18.0783 21.6118C19.1826 22.5968 20.0217 23.3079 20.7815 23.8071C20.7815 23.8114 20.7859 23.8114 20.7903 23.8114C21.0907 24.0102 21.3778 24.1736 21.6649 24.3062C21.9873 24.4563 22.3142 24.5358 22.6498 24.5358C23.0739 24.5358 23.4714 24.4078 23.8027 24.1737C24.1384 23.9307 24.3813 23.5818 24.4917 23.1887C24.6198 22.7162 24.5448 22.1906 24.2798 21.718ZM14.5139 12.8709C14.4521 12.3231 14.4255 11.7534 14.4344 11.1527C14.4432 10.5829 14.6508 10.1986 14.9556 10.1986C15.1852 10.1986 15.4282 10.4062 15.5386 10.8037C15.5695 10.9229 15.5916 11.0599 15.596 11.2144C15.6048 11.3999 15.6004 11.5943 15.5916 11.793C15.5651 12.354 15.4679 12.9503 15.3001 13.5908C15.1985 14.0016 15.066 14.43 14.9026 14.8761C14.7171 14.2489 14.5845 13.582 14.5139 12.8709ZM7.14641 24.4962C7.07129 24.3107 7.15526 23.9529 7.61463 23.5113C8.31694 22.8399 9.41674 22.3099 10.9494 21.9079C10.6579 22.3054 10.3708 22.6676 10.0926 22.9989C9.66852 23.5112 9.26217 23.9441 8.89555 24.2709C8.58196 24.5536 8.23743 24.7303 7.91059 24.7745C7.85317 24.7833 7.79575 24.7877 7.73832 24.7877C7.45116 24.7878 7.21707 24.673 7.14641 24.4962ZM14.2047 19.8011L14.2356 19.7525L14.187 19.7613C14.1959 19.7392 14.2091 19.7171 14.2224 19.6995C14.4079 19.3859 14.642 18.984 14.8937 18.5202L14.9158 18.5688L14.9732 18.4495C15.1588 18.7146 15.362 18.9752 15.5739 19.2269C15.6756 19.3461 15.7815 19.461 15.8875 19.5758L15.8169 19.5802L15.8787 19.6376C15.6976 19.6509 15.5077 19.6686 15.3177 19.6862C15.1985 19.6995 15.0748 19.7083 14.9511 19.7215C14.695 19.748 14.4432 19.7746 14.2047 19.8011ZM21.6384 22.5572C21.1128 22.2215 20.5254 21.7489 19.801 21.1172C20.8301 21.2232 21.6384 21.4485 22.2126 21.7842C22.4644 21.93 22.6543 22.0802 22.7824 22.2259C22.9944 22.4511 23.0695 22.6543 23.0297 22.7913C22.9944 22.9282 22.8398 23.021 22.6498 23.021C22.5394 23.021 22.4246 22.9945 22.3053 22.9371C22.1021 22.8399 21.8901 22.7206 21.6649 22.5749C21.656 22.5749 21.6473 22.566 21.6384 22.5572Z" fill="#F2F2F2"/>
</svg>
