<svg width="24" height="24" viewBox="0 0 24 24" fill="none" xmlns="http://www.w3.org/2000/svg">
<g clip-path="url(#clip0_339_10918)">
<path d="M23.996 1.01273C23.9948 0.995491 23.9936 0.978255 23.9916 0.961237C23.9895 0.943855 23.9866 0.926618 23.9837 0.909382C23.9806 0.891055 23.9776 0.872727 23.9736 0.854691C23.9701 0.838691 23.9656 0.822982 23.9613 0.807127C23.9565 0.788727 23.9516 0.770255 23.9457 0.752291C23.9406 0.736436 23.9344 0.720873 23.9285 0.705236C23.922 0.688073 23.9157 0.670837 23.9084 0.654109C23.9013 0.637746 23.8931 0.621818 23.8851 0.605746C23.8775 0.5904 23.8701 0.574909 23.8618 0.56C23.8528 0.543782 23.8427 0.528146 23.8328 0.512291C23.8239 0.498036 23.8152 0.483709 23.8055 0.469891C23.7952 0.455055 23.784 0.4408 23.773 0.4264C23.7621 0.412146 23.7511 0.397964 23.7395 0.384364C23.7287 0.371564 23.717 0.359273 23.7055 0.346909C23.692 0.332509 23.6784 0.318327 23.6642 0.304582C23.6594 0.3 23.6552 0.294909 23.6504 0.2904C23.6432 0.283782 23.6355 0.278255 23.6282 0.271927C23.6133 0.258764 23.5981 0.246036 23.5825 0.233673C23.5692 0.2232 23.5557 0.213164 23.542 0.203418C23.527 0.192655 23.5117 0.182255 23.4961 0.172291C23.4811 0.162691 23.4661 0.153527 23.4507 0.144727C23.4355 0.135927 23.4199 0.127636 23.4042 0.119564C23.3881 0.111345 23.372 0.103491 23.3557 0.0962182C23.3396 0.0890182 23.3235 0.0823273 23.3071 0.0759273C23.2904 0.0693818 23.2737 0.0632 23.2568 0.0575273C23.2401 0.0519273 23.2232 0.0467636 23.2061 0.0419636C23.1889 0.0370909 23.1715 0.0325818 23.1541 0.0285818C23.1371 0.0246546 23.12 0.0212364 23.1028 0.0181091C23.0844 0.0147636 23.0659 0.012 23.0473 0.0096C23.0308 0.00749091 23.0143 0.00574546 22.9976 0.00436364C22.9776 0.00276364 22.9576 0.00181818 22.9377 0.00130909C22.9281 0.00123636 22.9187 0 22.9091 0H18.5454C17.9429 0 17.4545 0.488436 17.4545 1.09091C17.4545 1.69338 17.9429 2.18182 18.5454 2.18182H20.4123L13.7879 9.33607L10.9531 6.50131C10.7435 6.29164 10.4583 6.17782 10.161 6.18196C9.86454 6.18764 9.58316 6.31367 9.38156 6.53113L0.290647 16.3397C-0.118881 16.7816 -0.0926988 17.4718 0.349192 17.8814C0.559229 18.076 0.825192 18.1722 1.0905 18.1722C1.38359 18.1722 1.67596 18.0548 1.89094 17.8229L10.2116 8.84538L13.0467 11.6805C13.2565 11.8903 13.5447 12.0065 13.8391 11.9999C14.1356 11.9942 14.4171 11.8679 14.6186 11.6503L21.8181 3.87476V5.45455C21.8181 6.05702 22.3066 6.54546 22.9091 6.54546C23.5115 6.54546 24 6.05702 24 5.45455V1.09091C24 1.08407 23.9991 1.07753 23.9989 1.07076C23.9986 1.05142 23.9974 1.03207 23.996 1.01273Z" fill="#212121"/>
<path d="M22.9091 21.8182H1.09091C0.488436 21.8182 0 22.3066 0 22.9091C0 23.5116 0.488436 24 1.09091 24H22.9091C23.5116 24 24 23.5116 24 22.9091C24 22.3066 23.5116 21.8182 22.9091 21.8182Z" fill="#212121"/>
</g>
<defs>
<clipPath id="clip0_339_10918">
<rect width="24" height="24" fill="white"/>
</clipPath>
</defs>
</svg>
