<svg width="24" height="24" viewBox="0 0 24 24" fill="none" xmlns="http://www.w3.org/2000/svg">
<g clip-path="url(#clip0_339_10956)">
<path d="M5.04 7.67999C2.27016 7.67999 0 9.94319 0 12.7056C0 13.776 0.34176 14.7708 0.9204 15.5885L4.42512 21.647C4.91592 22.2883 5.24232 22.1666 5.65056 21.6134L9.516 15.035C9.594 14.8934 9.6552 14.7432 9.70872 14.5896C9.95401 13.9918 10.0801 13.3518 10.08 12.7056C10.08 9.94319 7.81056 7.67999 5.04 7.67999ZM5.04 10.0349C6.53184 10.0349 7.7184 11.2183 7.7184 12.7058C7.7184 14.1934 6.53184 15.3763 5.04 15.3763C3.5484 15.3763 2.3616 14.1931 2.3616 12.7058C2.3616 11.2183 3.5484 10.0349 5.04 10.0349Z" fill="#212121"/>
<path d="M21.06 0C19.4443 0 18.12 1.32024 18.12 2.93184C18.12 3.55608 18.3192 4.1364 18.6569 4.61328L20.7014 8.14752C20.9878 8.52144 21.1781 8.4504 21.4162 8.12784L23.671 4.29024C23.7166 4.20792 23.7523 4.12032 23.7833 4.03056C23.9264 3.68194 24 3.3087 24 2.93184C24 1.32 22.6762 0 21.06 0ZM21.06 1.37376C21.9302 1.37376 22.6224 2.064 22.6224 2.93184C22.6224 3.79944 21.9302 4.48944 21.06 4.48944C20.19 4.48944 19.4976 3.79944 19.4976 2.93184C19.4976 2.064 20.19 1.37376 21.06 1.37376Z" fill="#212121"/>
<path fill-rule="evenodd" clip-rule="evenodd" d="M21.1702 8.97888C20.6309 8.99088 20.0902 9.01368 19.5485 9.05376L19.632 10.3814C20.1523 10.3438 20.6736 10.3195 21.1951 10.3087L21.1702 8.97888ZM18.2962 9.17568C17.4634 9.27912 16.6234 9.42648 15.793 9.66336L16.1057 10.95C16.8603 10.735 17.6422 10.596 18.4363 10.4974L18.2962 9.17568ZM14.5495 10.1088C14.3007 10.2186 14.0598 10.3456 13.8286 10.4887L13.8276 10.4899L13.8262 10.4904C13.4962 10.6982 13.1484 10.962 12.8645 11.3453C12.6588 11.623 12.4906 11.9741 12.4512 12.3893L13.674 12.5249C13.6831 12.4274 13.7331 12.2988 13.8228 12.1778H13.8233V12.1774C13.968 11.9815 14.185 11.8037 14.443 11.641L14.4439 11.6405C14.6278 11.527 14.8193 11.4263 15.0171 11.339L14.5495 10.1088ZM13.92 13.1172L13.1273 14.1336C13.3152 14.3054 13.5123 14.4374 13.7026 14.5478L13.705 14.549L13.7074 14.5505C14.3391 14.9098 14.9904 15.1126 15.5942 15.305L15.9413 14.0287C15.3377 13.8362 14.7687 13.6505 14.281 13.3735C14.1413 13.2924 14.0189 13.2077 13.92 13.1172ZM17.1204 14.3878L16.7815 15.6662L16.9419 15.7162L17.1387 15.779C17.79 15.991 18.414 16.2173 18.9718 16.5305L19.5377 15.3497C18.8633 14.9707 18.1632 14.723 17.4886 14.5037L17.4867 14.5032L17.2846 14.4386L17.1204 14.3878ZM20.6885 16.2358L19.819 17.1766C20.0244 17.399 20.1783 17.6666 20.2531 17.9431L20.2536 17.9446L20.2541 17.9467C20.3434 18.2695 20.3436 18.6492 20.2738 19.0327L21.4795 19.29C21.5779 18.7486 21.5938 18.1541 21.432 17.5673C21.2911 17.0484 21.0223 16.5977 20.6885 16.2358ZM19.8528 19.8343C19.7199 19.9747 19.5731 20.1011 19.4146 20.2116H19.4141C18.9821 20.5154 18.481 20.7444 17.9487 20.9412L18.3456 22.1998C18.9279 21.9845 19.5257 21.7205 20.0844 21.3274L20.0859 21.3262L20.0866 21.3257C20.316 21.165 20.5283 20.9811 20.7199 20.7768L19.8528 19.8343ZM16.8192 21.2957C16.0481 21.503 15.2599 21.661 14.4622 21.7949L14.6503 23.1098C15.4714 22.9718 16.2958 22.807 17.1151 22.5866L16.8192 21.2957ZM13.2619 21.9763C12.4589 22.086 11.6515 22.1755 10.8418 22.2518L10.9479 23.5771C11.7701 23.4998 12.5938 23.4089 13.4163 23.2963L13.2619 21.9763ZM9.62473 22.3562C8.81329 22.4206 7.99993 22.4729 7.18585 22.517L7.24729 23.8457C8.06929 23.8013 8.89201 23.7482 9.71449 23.683L9.62473 22.3562ZM5.96257 22.577C5.47465 22.5998 4.98553 22.6186 4.49521 22.6358L4.53553 23.9657C5.02891 23.9487 5.5222 23.929 6.01537 23.9066L5.96257 22.577Z" fill="#212121"/>
</g>
<defs>
<clipPath id="clip0_339_10956">
<rect width="24" height="24" fill="white"/>
</clipPath>
</defs>
</svg>
