<svg width="16" height="16" viewBox="0 0 16 16" fill="none" xmlns="http://www.w3.org/2000/svg">
<g clip-path="url(#clip0_1544_245)">
<path d="M5.32422 14.7616C5.32422 14.8575 5.37745 14.9454 5.46211 14.9902C5.5467 15.035 5.64955 15.0292 5.72861 14.9751L7.50929 13.7592L5.32425 12.7178V14.7616H5.32422Z" fill="#118F5E"/>
<path d="M15.9168 1.04867C15.8679 1.00358 15.8048 0.97998 15.741 0.97998C15.7025 0.97998 15.6642 0.988514 15.6279 1.00636L0.25549 8.54693C0.0983675 8.62415 -0.00105816 8.7846 8.49783e-06 8.96012C0.00107516 9.13541 0.102182 9.29476 0.260435 9.37027L4.31187 11.3007L12.4127 4.6425L5.31566 11.779L10.3627 14.1838C10.4247 14.2135 10.4924 14.2283 10.5594 14.2283C10.6165 14.2283 10.6731 14.2179 10.727 14.1967C10.8446 14.1502 10.938 14.0571 10.9846 13.9395L15.9816 1.33356C16.0212 1.23436 15.9954 1.12094 15.9168 1.04867Z" fill="#118F5E"/>
</g>
<defs>
<clipPath id="clip0_1544_245">
<rect width="16" height="16" fill="white"/>
</clipPath>
</defs>
</svg>
