<svg width="16" height="16" viewBox="0 0 16 16" fill="none" xmlns="http://www.w3.org/2000/svg">
<path d="M8 1.5C4.41031 1.5 1.5 4.41031 1.5 8C1.5 11.5897 4.41031 14.5 8 14.5C11.5897 14.5 14.5 11.5897 14.5 8C14.5 4.41031 11.5897 1.5 8 1.5ZM11 9H8C7.86739 9 7.74021 8.94732 7.64645 8.85355C7.55268 8.75979 7.5 8.63261 7.5 8.5V4C7.5 3.86739 7.55268 3.74021 7.64645 3.64645C7.74021 3.55268 7.86739 3.5 8 3.5C8.13261 3.5 8.25979 3.55268 8.35355 3.64645C8.44732 3.74021 8.5 3.86739 8.5 4V8H11C11.1326 8 11.2598 8.05268 11.3536 8.14645C11.4473 8.24021 11.5 8.36739 11.5 8.5C11.5 8.63261 11.4473 8.75979 11.3536 8.85355C11.2598 8.94732 11.1326 9 11 9Z" fill="#A1A5B7"/>
</svg>
