<svg width="24" height="24" viewBox="0 0 24 24" fill="none" xmlns="http://www.w3.org/2000/svg">
<g clip-path="url(#clip0_693_181)">
<path fill-rule="evenodd" clip-rule="evenodd" d="M8.16 4C7.63121 4.00017 7.11186 4.14011 6.65456 4.40563C6.19727 4.67116 5.81828 5.05284 5.556 5.512L3.563 9H2.4C2.29391 9 2.19217 9.04214 2.11716 9.11716C2.04214 9.19217 2 9.29391 2 9.4V9.875C1.9998 10.0536 2.05936 10.2271 2.16917 10.3679C2.27899 10.5087 2.43276 10.6087 2.606 10.652L2.63 10.657C2.21244 11.5237 2.05376 12.4924 2.173 13.447L2.898 19.248C2.95846 19.7318 3.19356 20.1768 3.5591 20.4995C3.92464 20.8221 4.39544 21.0001 4.883 21H5C5.53043 21 6.03914 20.7893 6.41421 20.4142C6.78929 20.0391 7 19.5304 7 19H17C17 19.5304 17.2107 20.0391 17.5858 20.4142C17.9609 20.7893 18.4696 21 19 21H19.117C19.6046 21.0001 20.0754 20.8221 20.4409 20.4995C20.8064 20.1768 21.0415 19.7318 21.102 19.248L21.827 13.448C21.9462 12.4934 21.7876 11.5247 21.37 10.658L21.394 10.652C21.5672 10.6087 21.721 10.5087 21.8308 10.3679C21.9406 10.2271 22.0002 10.0536 22 9.875V9.4C22 9.29391 21.9579 9.19217 21.8828 9.11716C21.8078 9.04214 21.7061 9 21.6 9H20.437L18.444 5.512C18.1817 5.05284 17.8027 4.67116 17.3454 4.40563C16.8881 4.14011 16.3688 4.00017 15.84 4H8.161H8.16ZM18.422 9.504L16.708 6.504C16.6205 6.3508 16.494 6.22348 16.3414 6.13496C16.1888 6.04644 16.0154 5.99988 15.839 6H8.161C7.98457 5.99988 7.81124 6.04644 7.65862 6.13496C7.506 6.22348 7.37951 6.3508 7.292 6.504L5.578 9.504C5.49114 9.65606 5.44574 9.82826 5.44633 10.0034C5.44692 10.1785 5.49349 10.3504 5.58137 10.5019C5.66926 10.6533 5.79538 10.7791 5.94711 10.8665C6.09885 10.9539 6.27088 10.9999 6.446 11H17.554C17.7291 10.9999 17.9012 10.9539 18.0529 10.8665C18.2046 10.7791 18.3307 10.6533 18.4186 10.5019C18.5065 10.3504 18.5531 10.1785 18.5537 10.0034C18.5543 9.82826 18.5089 9.65606 18.422 9.504ZM5 15.039V14.339C4.99995 14.2524 5.02241 14.1672 5.06518 14.0919C5.10794 14.0166 5.16955 13.9536 5.24395 13.9093C5.31836 13.8649 5.40301 13.8406 5.48962 13.8388C5.57623 13.837 5.66182 13.8578 5.738 13.899L8.48 15.379C8.853 15.581 8.698 16.148 8.274 16.131L5.96 16.038C5.70212 16.0277 5.45822 15.9181 5.27931 15.7321C5.10039 15.5461 5.00031 15.2981 5 15.04V15.039ZM19 14.339V15.039C19.0002 15.2974 18.9004 15.5459 18.7214 15.7323C18.5424 15.9188 18.2982 16.0287 18.04 16.039L15.726 16.131C15.302 16.148 15.146 15.581 15.52 15.379L18.262 13.899C18.3382 13.8578 18.4238 13.837 18.5104 13.8388C18.597 13.8406 18.6816 13.8649 18.756 13.9093C18.8305 13.9536 18.8921 14.0166 18.9348 14.0919C18.9776 14.1672 19 14.2524 19 14.339Z" fill="#464E5F"/>
</g>
<defs>
<clipPath id="clip0_693_181">
<rect width="24" height="24" fill="white"/>
</clipPath>
</defs>
</svg>
