<svg width="30" height="29" viewBox="0 0 30 29" fill="none" xmlns="http://www.w3.org/2000/svg">
<path d="M26.25 0H3.75C2.75544 0 1.80161 0.377122 1.09835 1.0484C0.395088 1.71969 0 2.63014 0 3.57948L0 25.0563C0 26.0057 0.395088 26.9161 1.09835 27.5874C1.80161 28.2587 2.75544 28.6358 3.75 28.6358H26.25C27.2446 28.6358 28.1984 28.2587 28.9016 27.5874C29.6049 26.9161 30 26.0057 30 25.0563V3.57948C30 2.63014 29.6049 1.71969 28.9016 1.0484C28.1984 0.377122 27.2446 0 26.25 0ZM1.875 6.90302C1.875 6.05648 2.715 5.36922 3.75 5.36922H26.25C27.285 5.36922 28.125 6.05648 28.125 6.90302V25.3123C28.125 26.1588 27.285 26.8461 26.25 26.8461H3.75C2.715 26.8461 1.875 26.1588 1.875 25.3123V6.90302Z" fill="#787A7B"/>
<path d="M12.1875 12.5282C12.6848 12.5282 13.1617 12.3396 13.5133 12.004C13.865 11.6683 14.0625 11.2131 14.0625 10.7384C14.0625 10.2638 13.865 9.80854 13.5133 9.4729C13.1617 9.13725 12.6848 8.94869 12.1875 8.94869C11.6902 8.94869 11.2133 9.13725 10.8617 9.4729C10.51 9.80854 10.3125 10.2638 10.3125 10.7384C10.3125 11.2131 10.51 11.6683 10.8617 12.004C11.2133 12.3396 11.6902 12.5282 12.1875 12.5282ZM17.8125 12.5282C18.3098 12.5282 18.7867 12.3396 19.1383 12.004C19.49 11.6683 19.6875 11.2131 19.6875 10.7384C19.6875 10.2638 19.49 9.80854 19.1383 9.4729C18.7867 9.13725 18.3098 8.94869 17.8125 8.94869C17.3152 8.94869 16.8383 9.13725 16.4867 9.4729C16.135 9.80854 15.9375 10.2638 15.9375 10.7384C15.9375 11.2131 16.135 11.6683 16.4867 12.004C16.8383 12.3396 17.3152 12.5282 17.8125 12.5282ZM23.4375 12.5282C23.9348 12.5282 24.4117 12.3396 24.7633 12.004C25.115 11.6683 25.3125 11.2131 25.3125 10.7384C25.3125 10.2638 25.115 9.80854 24.7633 9.4729C24.4117 9.13725 23.9348 8.94869 23.4375 8.94869C22.9402 8.94869 22.4633 9.13725 22.1117 9.4729C21.76 9.80854 21.5625 10.2638 21.5625 10.7384C21.5625 11.2131 21.76 11.6683 22.1117 12.004C22.4633 12.3396 22.9402 12.5282 23.4375 12.5282ZM6.5625 17.8974C7.05978 17.8974 7.53669 17.7088 7.88832 17.3732C8.23996 17.0375 8.4375 16.5823 8.4375 16.1076C8.4375 15.633 8.23996 15.1778 7.88832 14.8421C7.53669 14.5065 7.05978 14.3179 6.5625 14.3179C6.06522 14.3179 5.58831 14.5065 5.23667 14.8421C4.88504 15.1778 4.6875 15.633 4.6875 16.1076C4.6875 16.5823 4.88504 17.0375 5.23667 17.3732C5.58831 17.7088 6.06522 17.8974 6.5625 17.8974ZM12.1875 17.8974C12.6848 17.8974 13.1617 17.7088 13.5133 17.3732C13.865 17.0375 14.0625 16.5823 14.0625 16.1076C14.0625 15.633 13.865 15.1778 13.5133 14.8421C13.1617 14.5065 12.6848 14.3179 12.1875 14.3179C11.6902 14.3179 11.2133 14.5065 10.8617 14.8421C10.51 15.1778 10.3125 15.633 10.3125 16.1076C10.3125 16.5823 10.51 17.0375 10.8617 17.3732C11.2133 17.7088 11.6902 17.8974 12.1875 17.8974ZM17.8125 17.8974C18.3098 17.8974 18.7867 17.7088 19.1383 17.3732C19.49 17.0375 19.6875 16.5823 19.6875 16.1076C19.6875 15.633 19.49 15.1778 19.1383 14.8421C18.7867 14.5065 18.3098 14.3179 17.8125 14.3179C17.3152 14.3179 16.8383 14.5065 16.4867 14.8421C16.135 15.1778 15.9375 15.633 15.9375 16.1076C15.9375 16.5823 16.135 17.0375 16.4867 17.3732C16.8383 17.7088 17.3152 17.8974 17.8125 17.8974ZM23.4375 17.8974C23.9348 17.8974 24.4117 17.7088 24.7633 17.3732C25.115 17.0375 25.3125 16.5823 25.3125 16.1076C25.3125 15.633 25.115 15.1778 24.7633 14.8421C24.4117 14.5065 23.9348 14.3179 23.4375 14.3179C22.9402 14.3179 22.4633 14.5065 22.1117 14.8421C21.76 15.1778 21.5625 15.633 21.5625 16.1076C21.5625 16.5823 21.76 17.0375 22.1117 17.3732C22.4633 17.7088 22.9402 17.8974 23.4375 17.8974ZM6.5625 23.2666C7.05978 23.2666 7.53669 23.078 7.88832 22.7424C8.23996 22.4068 8.4375 21.9515 8.4375 21.4769C8.4375 21.0022 8.23996 20.547 7.88832 20.2113C7.53669 19.8757 7.05978 19.6871 6.5625 19.6871C6.06522 19.6871 5.58831 19.8757 5.23667 20.2113C4.88504 20.547 4.6875 21.0022 4.6875 21.4769C4.6875 21.9515 4.88504 22.4068 5.23667 22.7424C5.58831 23.078 6.06522 23.2666 6.5625 23.2666ZM12.1875 23.2666C12.6848 23.2666 13.1617 23.078 13.5133 22.7424C13.865 22.4068 14.0625 21.9515 14.0625 21.4769C14.0625 21.0022 13.865 20.547 13.5133 20.2113C13.1617 19.8757 12.6848 19.6871 12.1875 19.6871C11.6902 19.6871 11.2133 19.8757 10.8617 20.2113C10.51 20.547 10.3125 21.0022 10.3125 21.4769C10.3125 21.9515 10.51 22.4068 10.8617 22.7424C11.2133 23.078 11.6902 23.2666 12.1875 23.2666ZM17.8125 23.2666C18.3098 23.2666 18.7867 23.078 19.1383 22.7424C19.49 22.4068 19.6875 21.9515 19.6875 21.4769C19.6875 21.0022 19.49 20.547 19.1383 20.2113C18.7867 19.8757 18.3098 19.6871 17.8125 19.6871C17.3152 19.6871 16.8383 19.8757 16.4867 20.2113C16.135 20.547 15.9375 21.0022 15.9375 21.4769C15.9375 21.9515 16.135 22.4068 16.4867 22.7424C16.8383 23.078 17.3152 23.2666 17.8125 23.2666Z" fill="#787A7B"/>
</svg>
